ISO-10303-21;
HEADER;
/* Generated by software containing ST-Developer
 * from STEP Tools, Inc. (www.steptools.com) 
 */

FILE_DESCRIPTION(
/* description */ (''),
/* implementation_level */ '2;1');

FILE_NAME(
/* name */ 'garageguard-lid.step',
/* time_stamp */ '2026-05-16T19:09:19-04:00',
/* author */ (''),
/* organization */ (''),
/* preprocessor_version */ 'ST-DEVELOPER v20.1',
/* originating_system */ 'Autodesk Translation Framework v15.8.0.0',
/* authorisation */ '');

FILE_SCHEMA (('AUTOMOTIVE_DESIGN { 1 0 10303 214 3 1 1 }'));
ENDSEC;

DATA;
#10=MECHANICAL_DESIGN_GEOMETRIC_PRESENTATION_REPRESENTATION('',(#13),#381);
#11=SHAPE_REPRESENTATION_RELATIONSHIP('SRR','None',#387,#12);
#12=ADVANCED_BREP_SHAPE_REPRESENTATION('',(#14),#380);
#13=STYLED_ITEM('',(#396),#14);
#14=MANIFOLD_SOLID_BREP('Lid',#237);
#15=FACE_BOUND('',#45,.T.);
#16=FACE_BOUND('',#46,.T.);
#17=FACE_BOUND('',#51,.T.);
#18=FACE_BOUND('',#52,.T.);
#19=PLANE('',#245);
#20=PLANE('',#246);
#21=PLANE('',#247);
#22=PLANE('',#248);
#23=PLANE('',#249);
#24=PLANE('',#250);
#25=PLANE('',#251);
#26=PLANE('',#252);
#27=PLANE('',#253);
#28=PLANE('',#254);
#29=FACE_OUTER_BOUND('',#41,.T.);
#30=FACE_OUTER_BOUND('',#42,.T.);
#31=FACE_OUTER_BOUND('',#43,.T.);
#32=FACE_OUTER_BOUND('',#44,.T.);
#33=FACE_OUTER_BOUND('',#47,.T.);
#34=FACE_OUTER_BOUND('',#48,.T.);
#35=FACE_OUTER_BOUND('',#49,.T.);
#36=FACE_OUTER_BOUND('',#50,.T.);
#37=FACE_OUTER_BOUND('',#53,.T.);
#38=FACE_OUTER_BOUND('',#54,.T.);
#39=FACE_OUTER_BOUND('',#55,.T.);
#40=FACE_OUTER_BOUND('',#56,.T.);
#41=EDGE_LOOP('',(#163,#164,#165,#166));
#42=EDGE_LOOP('',(#167,#168,#169,#170));
#43=EDGE_LOOP('',(#171,#172,#173,#174));
#44=EDGE_LOOP('',(#175,#176,#177,#178));
#45=EDGE_LOOP('',(#179));
#46=EDGE_LOOP('',(#180));
#47=EDGE_LOOP('',(#181,#182,#183,#184));
#48=EDGE_LOOP('',(#185,#186,#187,#188));
#49=EDGE_LOOP('',(#189,#190,#191,#192));
#50=EDGE_LOOP('',(#193,#194,#195,#196));
#51=EDGE_LOOP('',(#197));
#52=EDGE_LOOP('',(#198));
#53=EDGE_LOOP('',(#199,#200,#201,#202));
#54=EDGE_LOOP('',(#203,#204,#205,#206));
#55=EDGE_LOOP('',(#207,#208,#209,#210,#211,#212,#213,#214));
#56=EDGE_LOOP('',(#215,#216,#217,#218,#219,#220,#221,#222));
#57=LINE('',#320,#83);
#58=LINE('',#326,#84);
#59=LINE('',#331,#85);
#60=LINE('',#333,#86);
#61=LINE('',#335,#87);
#62=LINE('',#336,#88);
#63=LINE('',#339,#89);
#64=LINE('',#341,#90);
#65=LINE('',#342,#91);
#66=LINE('',#345,#92);
#67=LINE('',#347,#93);
#68=LINE('',#348,#94);
#69=LINE('',#351,#95);
#70=LINE('',#353,#96);
#71=LINE('',#354,#97);
#72=LINE('',#357,#98);
#73=LINE('',#359,#99);
#74=LINE('',#360,#100);
#75=LINE('',#363,#101);
#76=LINE('',#365,#102);
#77=LINE('',#366,#103);
#78=LINE('',#369,#104);
#79=LINE('',#371,#105);
#80=LINE('',#372,#106);
#81=LINE('',#374,#107);
#82=LINE('',#375,#108);
#83=VECTOR('',#261,1.35);
#84=VECTOR('',#268,3.);
#85=VECTOR('',#273,10.);
#86=VECTOR('',#274,10.);
#87=VECTOR('',#275,10.);
#88=VECTOR('',#276,10.);
#89=VECTOR('',#279,10.);
#90=VECTOR('',#280,10.);
#91=VECTOR('',#281,10.);
#92=VECTOR('',#284,10.);
#93=VECTOR('',#285,10.);
#94=VECTOR('',#286,10.);
#95=VECTOR('',#289,10.);
#96=VECTOR('',#290,10.);
#97=VECTOR('',#291,10.);
#98=VECTOR('',#294,10.);
#99=VECTOR('',#295,10.);
#100=VECTOR('',#296,10.);
#101=VECTOR('',#299,10.);
#102=VECTOR('',#300,10.);
#103=VECTOR('',#301,10.);
#104=VECTOR('',#304,10.);
#105=VECTOR('',#305,10.);
#106=VECTOR('',#306,10.);
#107=VECTOR('',#309,10.);
#108=VECTOR('',#310,10.);
#109=CIRCLE('',#240,1.35);
#110=CIRCLE('',#241,1.35);
#111=CIRCLE('',#243,3.);
#112=CIRCLE('',#244,3.);
#113=VERTEX_POINT('',#317);
#114=VERTEX_POINT('',#319);
#115=VERTEX_POINT('',#323);
#116=VERTEX_POINT('',#325);
#117=VERTEX_POINT('',#329);
#118=VERTEX_POINT('',#330);
#119=VERTEX_POINT('',#332);
#120=VERTEX_POINT('',#334);
#121=VERTEX_POINT('',#338);
#122=VERTEX_POINT('',#340);
#123=VERTEX_POINT('',#344);
#124=VERTEX_POINT('',#346);
#125=VERTEX_POINT('',#350);
#126=VERTEX_POINT('',#352);
#127=VERTEX_POINT('',#356);
#128=VERTEX_POINT('',#358);
#129=VERTEX_POINT('',#362);
#130=VERTEX_POINT('',#364);
#131=VERTEX_POINT('',#368);
#132=VERTEX_POINT('',#370);
#133=EDGE_CURVE('',#113,#113,#109,.T.);
#134=EDGE_CURVE('',#113,#114,#57,.T.);
#135=EDGE_CURVE('',#114,#114,#110,.T.);
#136=EDGE_CURVE('',#115,#115,#111,.T.);
#137=EDGE_CURVE('',#115,#116,#58,.T.);
#138=EDGE_CURVE('',#116,#116,#112,.T.);
#139=EDGE_CURVE('',#117,#118,#59,.F.);
#140=EDGE_CURVE('',#119,#117,#60,.T.);
#141=EDGE_CURVE('',#119,#120,#61,.T.);
#142=EDGE_CURVE('',#120,#118,#62,.T.);
#143=EDGE_CURVE('',#121,#117,#63,.F.);
#144=EDGE_CURVE('',#122,#121,#64,.T.);
#145=EDGE_CURVE('',#122,#119,#65,.T.);
#146=EDGE_CURVE('',#123,#121,#66,.F.);
#147=EDGE_CURVE('',#124,#123,#67,.T.);
#148=EDGE_CURVE('',#124,#122,#68,.T.);
#149=EDGE_CURVE('',#125,#123,#69,.F.);
#150=EDGE_CURVE('',#126,#125,#70,.T.);
#151=EDGE_CURVE('',#126,#124,#71,.T.);
#152=EDGE_CURVE('',#127,#125,#72,.F.);
#153=EDGE_CURVE('',#128,#127,#73,.T.);
#154=EDGE_CURVE('',#128,#126,#74,.T.);
#155=EDGE_CURVE('',#129,#127,#75,.F.);
#156=EDGE_CURVE('',#130,#129,#76,.T.);
#157=EDGE_CURVE('',#130,#128,#77,.T.);
#158=EDGE_CURVE('',#131,#129,#78,.F.);
#159=EDGE_CURVE('',#132,#131,#79,.T.);
#160=EDGE_CURVE('',#132,#130,#80,.T.);
#161=EDGE_CURVE('',#118,#131,#81,.F.);
#162=EDGE_CURVE('',#120,#132,#82,.T.);
#163=ORIENTED_EDGE('',*,*,#133,.F.);
#164=ORIENTED_EDGE('',*,*,#134,.T.);
#165=ORIENTED_EDGE('',*,*,#135,.F.);
#166=ORIENTED_EDGE('',*,*,#134,.F.);
#167=ORIENTED_EDGE('',*,*,#136,.F.);
#168=ORIENTED_EDGE('',*,*,#137,.T.);
#169=ORIENTED_EDGE('',*,*,#138,.F.);
#170=ORIENTED_EDGE('',*,*,#137,.F.);
#171=ORIENTED_EDGE('',*,*,#139,.F.);
#172=ORIENTED_EDGE('',*,*,#140,.F.);
#173=ORIENTED_EDGE('',*,*,#141,.T.);
#174=ORIENTED_EDGE('',*,*,#142,.T.);
#175=ORIENTED_EDGE('',*,*,#143,.F.);
#176=ORIENTED_EDGE('',*,*,#144,.F.);
#177=ORIENTED_EDGE('',*,*,#145,.T.);
#178=ORIENTED_EDGE('',*,*,#140,.T.);
#179=ORIENTED_EDGE('',*,*,#135,.T.);
#180=ORIENTED_EDGE('',*,*,#136,.T.);
#181=ORIENTED_EDGE('',*,*,#146,.F.);
#182=ORIENTED_EDGE('',*,*,#147,.F.);
#183=ORIENTED_EDGE('',*,*,#148,.T.);
#184=ORIENTED_EDGE('',*,*,#144,.T.);
#185=ORIENTED_EDGE('',*,*,#149,.F.);
#186=ORIENTED_EDGE('',*,*,#150,.F.);
#187=ORIENTED_EDGE('',*,*,#151,.T.);
#188=ORIENTED_EDGE('',*,*,#147,.T.);
#189=ORIENTED_EDGE('',*,*,#152,.F.);
#190=ORIENTED_EDGE('',*,*,#153,.F.);
#191=ORIENTED_EDGE('',*,*,#154,.T.);
#192=ORIENTED_EDGE('',*,*,#150,.T.);
#193=ORIENTED_EDGE('',*,*,#155,.F.);
#194=ORIENTED_EDGE('',*,*,#156,.F.);
#195=ORIENTED_EDGE('',*,*,#157,.T.);
#196=ORIENTED_EDGE('',*,*,#153,.T.);
#197=ORIENTED_EDGE('',*,*,#133,.T.);
#198=ORIENTED_EDGE('',*,*,#138,.T.);
#199=ORIENTED_EDGE('',*,*,#158,.F.);
#200=ORIENTED_EDGE('',*,*,#159,.F.);
#201=ORIENTED_EDGE('',*,*,#160,.T.);
#202=ORIENTED_EDGE('',*,*,#156,.T.);
#203=ORIENTED_EDGE('',*,*,#161,.F.);
#204=ORIENTED_EDGE('',*,*,#142,.F.);
#205=ORIENTED_EDGE('',*,*,#162,.T.);
#206=ORIENTED_EDGE('',*,*,#159,.T.);
#207=ORIENTED_EDGE('',*,*,#148,.F.);
#208=ORIENTED_EDGE('',*,*,#151,.F.);
#209=ORIENTED_EDGE('',*,*,#154,.F.);
#210=ORIENTED_EDGE('',*,*,#157,.F.);
#211=ORIENTED_EDGE('',*,*,#160,.F.);
#212=ORIENTED_EDGE('',*,*,#162,.F.);
#213=ORIENTED_EDGE('',*,*,#141,.F.);
#214=ORIENTED_EDGE('',*,*,#145,.F.);
#215=ORIENTED_EDGE('',*,*,#149,.T.);
#216=ORIENTED_EDGE('',*,*,#146,.T.);
#217=ORIENTED_EDGE('',*,*,#143,.T.);
#218=ORIENTED_EDGE('',*,*,#139,.T.);
#219=ORIENTED_EDGE('',*,*,#161,.T.);
#220=ORIENTED_EDGE('',*,*,#158,.T.);
#221=ORIENTED_EDGE('',*,*,#155,.T.);
#222=ORIENTED_EDGE('',*,*,#152,.T.);
#223=CYLINDRICAL_SURFACE('',#239,1.35);
#224=CYLINDRICAL_SURFACE('',#242,3.);
#225=ADVANCED_FACE('',(#29),#223,.F.);
#226=ADVANCED_FACE('',(#30),#224,.F.);
#227=ADVANCED_FACE('',(#31),#19,.T.);
#228=ADVANCED_FACE('',(#32,#15,#16),#20,.T.);
#229=ADVANCED_FACE('',(#33),#21,.T.);
#230=ADVANCED_FACE('',(#34),#22,.T.);
#231=ADVANCED_FACE('',(#35),#23,.T.);
#232=ADVANCED_FACE('',(#36,#17,#18),#24,.T.);
#233=ADVANCED_FACE('',(#37),#25,.T.);
#234=ADVANCED_FACE('',(#38),#26,.T.);
#235=ADVANCED_FACE('',(#39),#27,.T.);
#236=ADVANCED_FACE('',(#40),#28,.F.);
#237=CLOSED_SHELL('',(#225,#226,#227,#228,#229,#230,#231,#232,#233,#234,
#235,#236));
#238=AXIS2_PLACEMENT_3D('',#315,#255,#256);
#239=AXIS2_PLACEMENT_3D('',#316,#257,#258);
#240=AXIS2_PLACEMENT_3D('',#318,#259,#260);
#241=AXIS2_PLACEMENT_3D('',#321,#262,#263);
#242=AXIS2_PLACEMENT_3D('',#322,#264,#265);
#243=AXIS2_PLACEMENT_3D('',#324,#266,#267);
#244=AXIS2_PLACEMENT_3D('',#327,#269,#270);
#245=AXIS2_PLACEMENT_3D('',#328,#271,#272);
#246=AXIS2_PLACEMENT_3D('',#337,#277,#278);
#247=AXIS2_PLACEMENT_3D('',#343,#282,#283);
#248=AXIS2_PLACEMENT_3D('',#349,#287,#288);
#249=AXIS2_PLACEMENT_3D('',#355,#292,#293);
#250=AXIS2_PLACEMENT_3D('',#361,#297,#298);
#251=AXIS2_PLACEMENT_3D('',#367,#302,#303);
#252=AXIS2_PLACEMENT_3D('',#373,#307,#308);
#253=AXIS2_PLACEMENT_3D('',#376,#311,#312);
#254=AXIS2_PLACEMENT_3D('',#377,#313,#314);
#255=DIRECTION('axis',(0.,0.,1.));
#256=DIRECTION('refdir',(1.,0.,0.));
#257=DIRECTION('center_axis',(0.,0.,1.));
#258=DIRECTION('ref_axis',(-1.,0.,0.));
#259=DIRECTION('center_axis',(-1.38729006081534E-16,0.,1.));
#260=DIRECTION('ref_axis',(-1.,0.,0.));
#261=DIRECTION('',(0.,0.,1.));
#262=DIRECTION('center_axis',(2.13085952373633E-16,0.,-1.));
#263=DIRECTION('ref_axis',(-1.,0.,0.));
#264=DIRECTION('center_axis',(0.,0.,-1.));
#265=DIRECTION('ref_axis',(1.,0.,0.));
#266=DIRECTION('center_axis',(2.13085952373633E-16,0.,-1.));
#267=DIRECTION('ref_axis',(1.,0.,0.));
#268=DIRECTION('',(0.,0.,-1.));
#269=DIRECTION('center_axis',(-1.38729006081534E-16,0.,1.));
#270=DIRECTION('ref_axis',(1.,0.,0.));
#271=DIRECTION('center_axis',(-1.,0.,0.));
#272=DIRECTION('ref_axis',(0.,0.,-1.));
#273=DIRECTION('',(0.,0.,1.));
#274=DIRECTION('',(0.,-1.,0.));
#275=DIRECTION('',(0.,0.,-1.));
#276=DIRECTION('',(0.,-1.,0.));
#277=DIRECTION('center_axis',(-2.13085952373633E-16,0.,1.));
#278=DIRECTION('ref_axis',(-1.,0.,-2.13085952373633E-16));
#279=DIRECTION('',(1.,0.,2.13085952373633E-16));
#280=DIRECTION('',(0.,-1.,0.));
#281=DIRECTION('',(-1.,0.,-2.13085952373633E-16));
#282=DIRECTION('center_axis',(1.,0.,0.));
#283=DIRECTION('ref_axis',(0.,0.,1.));
#284=DIRECTION('',(0.,0.,-1.));
#285=DIRECTION('',(0.,-1.,0.));
#286=DIRECTION('',(0.,0.,1.));
#287=DIRECTION('center_axis',(0.,0.,1.));
#288=DIRECTION('ref_axis',(-1.,0.,0.));
#289=DIRECTION('',(1.,0.,0.));
#290=DIRECTION('',(0.,-1.,0.));
#291=DIRECTION('',(-1.,0.,0.));
#292=DIRECTION('center_axis',(1.,0.,0.));
#293=DIRECTION('ref_axis',(0.,0.,1.));
#294=DIRECTION('',(0.,0.,-1.));
#295=DIRECTION('',(0.,-1.,0.));
#296=DIRECTION('',(0.,0.,1.));
#297=DIRECTION('center_axis',(1.38729006081534E-16,0.,-1.));
#298=DIRECTION('ref_axis',(1.,0.,1.38729006081534E-16));
#299=DIRECTION('',(-1.,0.,-1.38729006081534E-16));
#300=DIRECTION('',(0.,-1.,0.));
#301=DIRECTION('',(1.,0.,1.38729006081534E-16));
#302=DIRECTION('center_axis',(-1.,0.,0.));
#303=DIRECTION('ref_axis',(0.,0.,-1.));
#304=DIRECTION('',(0.,0.,1.));
#305=DIRECTION('',(0.,-1.,0.));
#306=DIRECTION('',(0.,0.,-1.));
#307=DIRECTION('center_axis',(5.92118946466749E-15,0.,1.));
#308=DIRECTION('ref_axis',(-1.,0.,5.92118946466749E-15));
#309=DIRECTION('',(1.,0.,-5.92118946466749E-15));
#310=DIRECTION('',(-1.,0.,5.92118946466749E-15));
#311=DIRECTION('center_axis',(0.,1.,0.));
#312=DIRECTION('ref_axis',(-1.,0.,0.));
#313=DIRECTION('center_axis',(0.,1.,0.));
#314=DIRECTION('ref_axis',(0.,0.,1.));
#315=CARTESIAN_POINT('',(0.,0.,0.));
#316=CARTESIAN_POINT('Origin',(-6.02254687204652,24.5105320737944,29.6));
#317=CARTESIAN_POINT('',(-4.67254687204652,24.5105320737944,29.8));
#318=CARTESIAN_POINT('Origin',(-6.02254687204652,24.5105320737944,29.8));
#319=CARTESIAN_POINT('',(-4.67254687204652,24.5105320737944,31.6));
#320=CARTESIAN_POINT('',(-4.67254687204652,24.5105320737944,29.6));
#321=CARTESIAN_POINT('Origin',(-6.02254687204652,24.5105320737944,31.6));
#322=CARTESIAN_POINT('Origin',(23.2573526077444,21.0045869489897,31.6));
#323=CARTESIAN_POINT('',(20.2573526077444,21.0045869489897,31.6));
#324=CARTESIAN_POINT('Origin',(23.2573526077444,21.0045869489897,31.6));
#325=CARTESIAN_POINT('',(20.2573526077444,21.0045869489897,29.8));
#326=CARTESIAN_POINT('',(20.2573526077444,21.0045869489897,31.6));
#327=CARTESIAN_POINT('Origin',(23.2573526077444,21.0045869489897,29.8));
#328=CARTESIAN_POINT('Origin',(-31.3225468720465,32.0105320737944,31.6));
#329=CARTESIAN_POINT('',(-31.3225468720465,-29.8004679262056,31.6));
#330=CARTESIAN_POINT('',(-31.3225468720465,-29.8004679262056,30.4));
#331=CARTESIAN_POINT('',(-31.3225468720465,-29.8004679262056,31.15));
#332=CARTESIAN_POINT('',(-31.3225468720465,32.0105320737944,31.6));
#333=CARTESIAN_POINT('',(-31.3225468720465,32.0105320737944,31.6));
#334=CARTESIAN_POINT('',(-31.3225468720465,32.0105320737944,30.4));
#335=CARTESIAN_POINT('',(-31.3225468720465,32.0105320737944,31.6));
#336=CARTESIAN_POINT('',(-31.3225468720465,32.0105320737944,30.4));
#337=CARTESIAN_POINT('Origin',(31.1999992981553,32.0105320737944,31.6));
#338=CARTESIAN_POINT('',(31.1999992981553,-29.8004679262056,31.6));
#339=CARTESIAN_POINT('',(15.5693627556049,-29.8004679262056,31.6));
#340=CARTESIAN_POINT('',(31.1999992981553,32.0105320737944,31.6));
#341=CARTESIAN_POINT('',(31.1999992981553,32.0105320737944,31.6));
#342=CARTESIAN_POINT('',(31.1999992981553,32.0105320737944,31.6));
#343=CARTESIAN_POINT('Origin',(31.1999992981553,32.0105320737944,30.4));
#344=CARTESIAN_POINT('',(31.1999992981553,-29.8004679262056,30.4));
#345=CARTESIAN_POINT('',(31.1999992981553,-29.8004679262056,30.55));
#346=CARTESIAN_POINT('',(31.1999992981553,32.0105320737944,30.4));
#347=CARTESIAN_POINT('',(31.1999992981553,32.0105320737944,30.4));
#348=CARTESIAN_POINT('',(31.1999992981553,32.0105320737944,30.4));
#349=CARTESIAN_POINT('Origin',(31.9499992981553,32.0105320737944,30.4));
#350=CARTESIAN_POINT('',(31.9499992981553,-29.8004679262056,30.4));
#351=CARTESIAN_POINT('',(15.9443627556049,-29.8004679262056,30.4));
#352=CARTESIAN_POINT('',(31.9499992981553,32.0105320737944,30.4));
#353=CARTESIAN_POINT('',(31.9499992981553,32.0105320737944,30.4));
#354=CARTESIAN_POINT('',(31.9499992981553,32.0105320737944,30.4));
#355=CARTESIAN_POINT('Origin',(31.9499992981553,32.0105320737944,29.8));
#356=CARTESIAN_POINT('',(31.9499992981553,-29.8004679262056,29.8));
#357=CARTESIAN_POINT('',(31.9499992981553,-29.8004679262056,30.25));
#358=CARTESIAN_POINT('',(31.9499992981553,32.0105320737944,29.8));
#359=CARTESIAN_POINT('',(31.9499992981553,32.0105320737944,29.8));
#360=CARTESIAN_POINT('',(31.9499992981553,32.0105320737944,29.8));
#361=CARTESIAN_POINT('Origin',(-32.0725468720465,32.0105320737944,29.8));
#362=CARTESIAN_POINT('',(-32.0725468720465,-29.8004679262056,29.8));
#363=CARTESIAN_POINT('',(-16.0669103294961,-29.8004679262056,29.8));
#364=CARTESIAN_POINT('',(-32.0725468720465,32.0105320737944,29.8));
#365=CARTESIAN_POINT('',(-32.0725468720465,32.0105320737944,29.8));
#366=CARTESIAN_POINT('',(-32.0725468720465,32.0105320737944,29.8));
#367=CARTESIAN_POINT('Origin',(-32.0725468720465,32.0105320737944,30.4));
#368=CARTESIAN_POINT('',(-32.0725468720465,-29.8004679262056,30.4));
#369=CARTESIAN_POINT('',(-32.0725468720465,-29.8004679262056,30.55));
#370=CARTESIAN_POINT('',(-32.0725468720465,32.0105320737944,30.4));
#371=CARTESIAN_POINT('',(-32.0725468720465,32.0105320737944,30.4));
#372=CARTESIAN_POINT('',(-32.0725468720465,32.0105320737944,30.4));
#373=CARTESIAN_POINT('Origin',(-31.3225468720465,32.0105320737944,30.4));
#374=CARTESIAN_POINT('',(-15.6919103294961,-29.8004679262056,30.3999999999999));
#375=CARTESIAN_POINT('',(-31.3225468720465,32.0105320737944,30.4));
#376=CARTESIAN_POINT('Origin',(-0.0612737869456037,32.0105320737944,30.7));
#377=CARTESIAN_POINT('Origin',(-0.0612737869456037,-29.8004679262056,30.7));
#378=UNCERTAINTY_MEASURE_WITH_UNIT(LENGTH_MEASURE(0.01),#382,
'DISTANCE_ACCURACY_VALUE',
'Maximum model space distance between geometric entities at asserted c
onnectivities');
#379=UNCERTAINTY_MEASURE_WITH_UNIT(LENGTH_MEASURE(0.01),#382,
'DISTANCE_ACCURACY_VALUE',
'Maximum model space distance between geometric entities at asserted c
onnectivities');
#380=(
GEOMETRIC_REPRESENTATION_CONTEXT(3)
GLOBAL_UNCERTAINTY_ASSIGNED_CONTEXT((#378))
GLOBAL_UNIT_ASSIGNED_CONTEXT((#382,#383,#384))
REPRESENTATION_CONTEXT('','3D')
);
#381=(
GEOMETRIC_REPRESENTATION_CONTEXT(3)
GLOBAL_UNCERTAINTY_ASSIGNED_CONTEXT((#379))
GLOBAL_UNIT_ASSIGNED_CONTEXT((#382,#383,#384))
REPRESENTATION_CONTEXT('','3D')
);
#382=(
LENGTH_UNIT()
NAMED_UNIT(*)
SI_UNIT(.MILLI.,.METRE.)
);
#383=(
NAMED_UNIT(*)
PLANE_ANGLE_UNIT()
SI_UNIT($,.RADIAN.)
);
#384=(
NAMED_UNIT(*)
SI_UNIT($,.STERADIAN.)
SOLID_ANGLE_UNIT()
);
#385=SHAPE_DEFINITION_REPRESENTATION(#386,#387);
#386=PRODUCT_DEFINITION_SHAPE('',$,#389);
#387=SHAPE_REPRESENTATION('',(#238),#380);
#388=PRODUCT_DEFINITION_CONTEXT('part definition',#393,'design');
#389=PRODUCT_DEFINITION('2026-04-25-16-50-51-668','garageguard',#390,#388);
#390=PRODUCT_DEFINITION_FORMATION('',$,#395);
#391=PRODUCT_RELATED_PRODUCT_CATEGORY('garageguard','garageguard',(#395));
#392=APPLICATION_PROTOCOL_DEFINITION('international standard',
'automotive_design',2009,#393);
#393=APPLICATION_CONTEXT(
'Core Data for Automotive Mechanical Design Process');
#394=PRODUCT_CONTEXT('part definition',#393,'mechanical');
#395=PRODUCT('2026-04-25-16-50-51-668','garageguard',$,(#394));
#396=PRESENTATION_STYLE_ASSIGNMENT((#397));
#397=SURFACE_STYLE_USAGE(.BOTH.,#398);
#398=SURFACE_SIDE_STYLE('',(#399));
#399=SURFACE_STYLE_FILL_AREA(#400);
#400=FILL_AREA_STYLE('Steel - Satin',(#401));
#401=FILL_AREA_STYLE_COLOUR('Steel - Satin',#402);
#402=COLOUR_RGB('Steel - Satin',0.627450980392157,0.627450980392157,0.627450980392157);
ENDSEC;
END-ISO-10303-21;
