ISO-10303-21;
HEADER;
/* Generated by software containing ST-Developer
 * from STEP Tools, Inc. (www.steptools.com) 
 */

FILE_DESCRIPTION(
/* description */ (''),
/* implementation_level */ '2;1');

FILE_NAME(
/* name */ 'garageguard-case.step',
/* time_stamp */ '2026-05-10T20:55:31-04:00',
/* author */ (''),
/* organization */ (''),
/* preprocessor_version */ 'ST-DEVELOPER v20.1',
/* originating_system */ 'Autodesk Translation Framework v15.8.0.0',
/* authorisation */ '');

FILE_SCHEMA (('AUTOMOTIVE_DESIGN { 1 0 10303 214 3 1 1 }'));
ENDSEC;

DATA;
#10=MECHANICAL_DESIGN_GEOMETRIC_PRESENTATION_REPRESENTATION('',(#15,#16),
#1270);
#11=SHAPE_REPRESENTATION_RELATIONSHIP('SRR','None',#1276,#12);
#12=ADVANCED_BREP_SHAPE_REPRESENTATION('',(#17,#18),#1269);
#13=TOROIDAL_SURFACE('',#812,5.5,4.);
#14=B_SPLINE_CURVE_WITH_KNOTS('',3,(#1209,#1210,#1211,#1212,#1213,#1214,
#1215,#1216,#1217,#1218,#1219,#1220,#1221,#1222,#1223,#1224,#1225,#1226,
#1227,#1228,#1229,#1230,#1231,#1232,#1233,#1234,#1235,#1236,#1237,#1238,
#1239,#1240,#1241,#1242,#1243,#1244,#1245,#1246),.UNSPECIFIED.,.T.,.F.,
(4,2,2,2,2,2,2,2,2,2,2,2,2,2,2,2,2,2,4),(-0.947195252628489,-0.883941558593164,
-0.820958558044134,-0.762800116224557,-0.724531944332981,-0.6927071658484,
-0.658040858927726,-0.610514726481324,-0.544902630219351,-0.466519141930802,
-0.401217232103651,-0.347853245596043,-0.294801213145765,-0.25520505779075,
-0.21973608419939,-0.181988876230191,-0.134395846065319,-0.0739194874217009,
0.),.UNSPECIFIED.);
#15=STYLED_ITEM('',(#1285),#17);
#16=STYLED_ITEM('',(#1285),#18);
#17=MANIFOLD_SOLID_BREP('Case',#743);
#18=MANIFOLD_SOLID_BREP('connection2',#744);
#19=FACE_BOUND('',#116,.T.);
#20=FACE_BOUND('',#121,.T.);
#21=FACE_BOUND('',#122,.T.);
#22=FACE_BOUND('',#128,.T.);
#23=FACE_BOUND('',#130,.T.);
#24=FACE_BOUND('',#132,.T.);
#25=FACE_BOUND('',#134,.T.);
#26=FACE_BOUND('',#136,.T.);
#27=FACE_BOUND('',#143,.T.);
#28=FACE_BOUND('',#144,.T.);
#29=FACE_BOUND('',#156,.T.);
#30=FACE_BOUND('',#157,.T.);
#31=FACE_BOUND('',#158,.T.);
#32=FACE_BOUND('',#159,.T.);
#33=FACE_BOUND('',#160,.T.);
#34=FACE_BOUND('',#162,.T.);
#35=FACE_BOUND('',#163,.T.);
#36=FACE_BOUND('',#164,.T.);
#37=FACE_BOUND('',#165,.T.);
#38=FACE_BOUND('',#166,.T.);
#39=FACE_BOUND('',#171,.T.);
#40=FACE_BOUND('',#173,.T.);
#41=PLANE('',#752);
#42=PLANE('',#753);
#43=PLANE('',#754);
#44=PLANE('',#755);
#45=PLANE('',#756);
#46=PLANE('',#757);
#47=PLANE('',#758);
#48=PLANE('',#759);
#49=PLANE('',#760);
#50=PLANE('',#761);
#51=PLANE('',#762);
#52=PLANE('',#763);
#53=PLANE('',#766);
#54=PLANE('',#769);
#55=PLANE('',#772);
#56=PLANE('',#775);
#57=PLANE('',#778);
#58=PLANE('',#779);
#59=PLANE('',#780);
#60=PLANE('',#781);
#61=PLANE('',#782);
#62=PLANE('',#783);
#63=PLANE('',#804);
#64=PLANE('',#805);
#65=PLANE('',#808);
#66=PLANE('',#810);
#67=PLANE('',#815);
#68=PLANE('',#816);
#69=FACE_OUTER_BOUND('',#111,.T.);
#70=FACE_OUTER_BOUND('',#112,.T.);
#71=FACE_OUTER_BOUND('',#113,.T.);
#72=FACE_OUTER_BOUND('',#114,.T.);
#73=FACE_OUTER_BOUND('',#115,.T.);
#74=FACE_OUTER_BOUND('',#117,.T.);
#75=FACE_OUTER_BOUND('',#118,.T.);
#76=FACE_OUTER_BOUND('',#119,.T.);
#77=FACE_OUTER_BOUND('',#120,.T.);
#78=FACE_OUTER_BOUND('',#123,.T.);
#79=FACE_OUTER_BOUND('',#124,.T.);
#80=FACE_OUTER_BOUND('',#125,.T.);
#81=FACE_OUTER_BOUND('',#126,.T.);
#82=FACE_OUTER_BOUND('',#127,.T.);
#83=FACE_OUTER_BOUND('',#129,.T.);
#84=FACE_OUTER_BOUND('',#131,.T.);
#85=FACE_OUTER_BOUND('',#133,.T.);
#86=FACE_OUTER_BOUND('',#135,.T.);
#87=FACE_OUTER_BOUND('',#137,.T.);
#88=FACE_OUTER_BOUND('',#138,.T.);
#89=FACE_OUTER_BOUND('',#139,.T.);
#90=FACE_OUTER_BOUND('',#140,.T.);
#91=FACE_OUTER_BOUND('',#141,.T.);
#92=FACE_OUTER_BOUND('',#142,.T.);
#93=FACE_OUTER_BOUND('',#145,.T.);
#94=FACE_OUTER_BOUND('',#146,.T.);
#95=FACE_OUTER_BOUND('',#147,.T.);
#96=FACE_OUTER_BOUND('',#148,.T.);
#97=FACE_OUTER_BOUND('',#149,.T.);
#98=FACE_OUTER_BOUND('',#150,.T.);
#99=FACE_OUTER_BOUND('',#151,.T.);
#100=FACE_OUTER_BOUND('',#152,.T.);
#101=FACE_OUTER_BOUND('',#153,.T.);
#102=FACE_OUTER_BOUND('',#154,.T.);
#103=FACE_OUTER_BOUND('',#155,.T.);
#104=FACE_OUTER_BOUND('',#161,.T.);
#105=FACE_OUTER_BOUND('',#167,.T.);
#106=FACE_OUTER_BOUND('',#168,.T.);
#107=FACE_OUTER_BOUND('',#169,.T.);
#108=FACE_OUTER_BOUND('',#170,.T.);
#109=FACE_OUTER_BOUND('',#172,.T.);
#110=FACE_OUTER_BOUND('',#174,.T.);
#111=EDGE_LOOP('',(#496,#497,#498,#499));
#112=EDGE_LOOP('',(#500,#501,#502,#503));
#113=EDGE_LOOP('',(#504,#505,#506,#507));
#114=EDGE_LOOP('',(#508,#509,#510,#511));
#115=EDGE_LOOP('',(#512,#513,#514,#515));
#116=EDGE_LOOP('',(#516,#517,#518,#519));
#117=EDGE_LOOP('',(#520,#521,#522,#523));
#118=EDGE_LOOP('',(#524,#525,#526,#527));
#119=EDGE_LOOP('',(#528,#529,#530,#531,#532,#533,#534,#535));
#120=EDGE_LOOP('',(#536,#537,#538,#539));
#121=EDGE_LOOP('',(#540));
#122=EDGE_LOOP('',(#541));
#123=EDGE_LOOP('',(#542,#543,#544,#545));
#124=EDGE_LOOP('',(#546,#547,#548,#549,#550,#551,#552,#553));
#125=EDGE_LOOP('',(#554,#555,#556,#557));
#126=EDGE_LOOP('',(#558,#559,#560,#561));
#127=EDGE_LOOP('',(#562));
#128=EDGE_LOOP('',(#563));
#129=EDGE_LOOP('',(#564));
#130=EDGE_LOOP('',(#565));
#131=EDGE_LOOP('',(#566));
#132=EDGE_LOOP('',(#567));
#133=EDGE_LOOP('',(#568));
#134=EDGE_LOOP('',(#569));
#135=EDGE_LOOP('',(#570));
#136=EDGE_LOOP('',(#571));
#137=EDGE_LOOP('',(#572,#573,#574,#575));
#138=EDGE_LOOP('',(#576,#577,#578,#579));
#139=EDGE_LOOP('',(#580,#581,#582,#583));
#140=EDGE_LOOP('',(#584,#585,#586,#587));
#141=EDGE_LOOP('',(#588,#589,#590,#591));
#142=EDGE_LOOP('',(#592,#593,#594,#595,#596,#597,#598,#599,#600,#601,#602,
#603));
#143=EDGE_LOOP('',(#604));
#144=EDGE_LOOP('',(#605));
#145=EDGE_LOOP('',(#606,#607,#608,#609));
#146=EDGE_LOOP('',(#610,#611,#612,#613));
#147=EDGE_LOOP('',(#614,#615,#616,#617));
#148=EDGE_LOOP('',(#618,#619,#620,#621));
#149=EDGE_LOOP('',(#622,#623,#624,#625));
#150=EDGE_LOOP('',(#626,#627,#628,#629));
#151=EDGE_LOOP('',(#630,#631,#632,#633));
#152=EDGE_LOOP('',(#634,#635,#636,#637));
#153=EDGE_LOOP('',(#638,#639,#640,#641));
#154=EDGE_LOOP('',(#642,#643,#644,#645));
#155=EDGE_LOOP('',(#646,#647,#648,#649));
#156=EDGE_LOOP('',(#650));
#157=EDGE_LOOP('',(#651));
#158=EDGE_LOOP('',(#652));
#159=EDGE_LOOP('',(#653));
#160=EDGE_LOOP('',(#654));
#161=EDGE_LOOP('',(#655,#656,#657,#658));
#162=EDGE_LOOP('',(#659));
#163=EDGE_LOOP('',(#660));
#164=EDGE_LOOP('',(#661));
#165=EDGE_LOOP('',(#662));
#166=EDGE_LOOP('',(#663));
#167=EDGE_LOOP('',(#664,#665,#666,#667));
#168=EDGE_LOOP('',(#668,#669,#670));
#169=EDGE_LOOP('',(#671,#672,#673));
#170=EDGE_LOOP('',(#674,#675,#676,#677));
#171=EDGE_LOOP('',(#678));
#172=EDGE_LOOP('',(#679,#680,#681,#682));
#173=EDGE_LOOP('',(#683));
#174=EDGE_LOOP('',(#684,#685,#686,#687));
#175=LINE('',#1032,#241);
#176=LINE('',#1038,#242);
#177=LINE('',#1043,#243);
#178=LINE('',#1045,#244);
#179=LINE('',#1047,#245);
#180=LINE('',#1048,#246);
#181=LINE('',#1051,#247);
#182=LINE('',#1053,#248);
#183=LINE('',#1054,#249);
#184=LINE('',#1057,#250);
#185=LINE('',#1059,#251);
#186=LINE('',#1060,#252);
#187=LINE('',#1063,#253);
#188=LINE('',#1065,#254);
#189=LINE('',#1067,#255);
#190=LINE('',#1068,#256);
#191=LINE('',#1071,#257);
#192=LINE('',#1073,#258);
#193=LINE('',#1074,#259);
#194=LINE('',#1077,#260);
#195=LINE('',#1079,#261);
#196=LINE('',#1080,#262);
#197=LINE('',#1083,#263);
#198=LINE('',#1085,#264);
#199=LINE('',#1086,#265);
#200=LINE('',#1089,#266);
#201=LINE('',#1091,#267);
#202=LINE('',#1092,#268);
#203=LINE('',#1095,#269);
#204=LINE('',#1096,#270);
#205=LINE('',#1099,#271);
#206=LINE('',#1101,#272);
#207=LINE('',#1103,#273);
#208=LINE('',#1105,#274);
#209=LINE('',#1107,#275);
#210=LINE('',#1108,#276);
#211=LINE('',#1110,#277);
#212=LINE('',#1113,#278);
#213=LINE('',#1114,#279);
#214=LINE('',#1142,#280);
#215=LINE('',#1143,#281);
#216=LINE('',#1145,#282);
#217=LINE('',#1149,#283);
#218=LINE('',#1150,#284);
#219=LINE('',#1151,#285);
#220=LINE('',#1154,#286);
#221=LINE('',#1155,#287);
#222=LINE('',#1158,#288);
#223=LINE('',#1159,#289);
#224=LINE('',#1161,#290);
#225=LINE('',#1164,#291);
#226=LINE('',#1168,#292);
#227=LINE('',#1172,#293);
#228=LINE('',#1176,#294);
#229=LINE('',#1180,#295);
#230=LINE('',#1184,#296);
#231=LINE('',#1188,#297);
#232=LINE('',#1192,#298);
#233=LINE('',#1196,#299);
#234=LINE('',#1200,#300);
#235=LINE('',#1208,#301);
#236=LINE('',#1250,#302);
#237=LINE('',#1253,#303);
#238=LINE('',#1257,#304);
#239=LINE('',#1259,#305);
#240=LINE('',#1265,#306);
#241=VECTOR('',#823,9.);
#242=VECTOR('',#830,9.);
#243=VECTOR('',#835,10.);
#244=VECTOR('',#836,10.);
#245=VECTOR('',#837,10.);
#246=VECTOR('',#838,10.);
#247=VECTOR('',#841,10.);
#248=VECTOR('',#842,10.);
#249=VECTOR('',#843,10.);
#250=VECTOR('',#846,10.);
#251=VECTOR('',#847,10.);
#252=VECTOR('',#848,10.);
#253=VECTOR('',#849,10.);
#254=VECTOR('',#850,10.);
#255=VECTOR('',#851,10.);
#256=VECTOR('',#852,10.);
#257=VECTOR('',#855,10.);
#258=VECTOR('',#856,10.);
#259=VECTOR('',#857,10.);
#260=VECTOR('',#860,10.);
#261=VECTOR('',#861,10.);
#262=VECTOR('',#862,10.);
#263=VECTOR('',#865,10.);
#264=VECTOR('',#866,10.);
#265=VECTOR('',#867,10.);
#266=VECTOR('',#870,10.);
#267=VECTOR('',#871,10.);
#268=VECTOR('',#872,10.);
#269=VECTOR('',#875,10.);
#270=VECTOR('',#876,10.);
#271=VECTOR('',#879,10.);
#272=VECTOR('',#880,10.);
#273=VECTOR('',#881,10.);
#274=VECTOR('',#882,10.);
#275=VECTOR('',#883,10.);
#276=VECTOR('',#884,10.);
#277=VECTOR('',#887,10.);
#278=VECTOR('',#890,10.);
#279=VECTOR('',#891,10.);
#280=VECTOR('',#924,10.);
#281=VECTOR('',#925,10.);
#282=VECTOR('',#928,10.);
#283=VECTOR('',#931,10.);
#284=VECTOR('',#932,10.);
#285=VECTOR('',#933,10.);
#286=VECTOR('',#936,10.);
#287=VECTOR('',#937,10.);
#288=VECTOR('',#940,10.);
#289=VECTOR('',#941,10.);
#290=VECTOR('',#944,10.);
#291=VECTOR('',#947,4.);
#292=VECTOR('',#952,1.35);
#293=VECTOR('',#957,4.);
#294=VECTOR('',#962,1.35);
#295=VECTOR('',#967,4.);
#296=VECTOR('',#972,1.35);
#297=VECTOR('',#977,4.);
#298=VECTOR('',#982,1.35);
#299=VECTOR('',#987,4.);
#300=VECTOR('',#992,1.35);
#301=VECTOR('',#1003,1.35);
#302=VECTOR('',#1006,10.);
#303=VECTOR('',#1009,10.);
#304=VECTOR('',#1012,10.);
#305=VECTOR('',#1013,10.);
#306=VECTOR('',#1024,10.);
#307=CIRCLE('',#747,9.);
#308=CIRCLE('',#748,9.);
#309=CIRCLE('',#750,9.);
#310=CIRCLE('',#751,9.);
#311=CIRCLE('',#764,4.);
#312=CIRCLE('',#765,1.35);
#313=CIRCLE('',#767,4.);
#314=CIRCLE('',#768,1.35);
#315=CIRCLE('',#770,4.);
#316=CIRCLE('',#771,1.35);
#317=CIRCLE('',#773,4.);
#318=CIRCLE('',#774,1.35);
#319=CIRCLE('',#776,4.);
#320=CIRCLE('',#777,1.35);
#321=CIRCLE('',#785,4.);
#322=CIRCLE('',#787,1.35);
#323=CIRCLE('',#789,4.);
#324=CIRCLE('',#791,1.35);
#325=CIRCLE('',#793,4.);
#326=CIRCLE('',#795,1.35);
#327=CIRCLE('',#797,4.);
#328=CIRCLE('',#799,1.35);
#329=CIRCLE('',#801,4.);
#330=CIRCLE('',#803,1.35);
#331=CIRCLE('',#807,1.35);
#332=CIRCLE('',#809,5.49999999999999);
#333=CIRCLE('',#811,5.49999999999999);
#334=CIRCLE('',#813,4.);
#335=CIRCLE('',#814,4.);
#336=VERTEX_POINT('',#1029);
#337=VERTEX_POINT('',#1031);
#338=VERTEX_POINT('',#1035);
#339=VERTEX_POINT('',#1037);
#340=VERTEX_POINT('',#1041);
#341=VERTEX_POINT('',#1042);
#342=VERTEX_POINT('',#1044);
#343=VERTEX_POINT('',#1046);
#344=VERTEX_POINT('',#1050);
#345=VERTEX_POINT('',#1052);
#346=VERTEX_POINT('',#1056);
#347=VERTEX_POINT('',#1058);
#348=VERTEX_POINT('',#1061);
#349=VERTEX_POINT('',#1062);
#350=VERTEX_POINT('',#1064);
#351=VERTEX_POINT('',#1066);
#352=VERTEX_POINT('',#1070);
#353=VERTEX_POINT('',#1072);
#354=VERTEX_POINT('',#1076);
#355=VERTEX_POINT('',#1078);
#356=VERTEX_POINT('',#1082);
#357=VERTEX_POINT('',#1084);
#358=VERTEX_POINT('',#1088);
#359=VERTEX_POINT('',#1090);
#360=VERTEX_POINT('',#1094);
#361=VERTEX_POINT('',#1098);
#362=VERTEX_POINT('',#1100);
#363=VERTEX_POINT('',#1102);
#364=VERTEX_POINT('',#1104);
#365=VERTEX_POINT('',#1106);
#366=VERTEX_POINT('',#1112);
#367=VERTEX_POINT('',#1116);
#368=VERTEX_POINT('',#1118);
#369=VERTEX_POINT('',#1121);
#370=VERTEX_POINT('',#1123);
#371=VERTEX_POINT('',#1126);
#372=VERTEX_POINT('',#1128);
#373=VERTEX_POINT('',#1131);
#374=VERTEX_POINT('',#1133);
#375=VERTEX_POINT('',#1136);
#376=VERTEX_POINT('',#1138);
#377=VERTEX_POINT('',#1141);
#378=VERTEX_POINT('',#1147);
#379=VERTEX_POINT('',#1148);
#380=VERTEX_POINT('',#1153);
#381=VERTEX_POINT('',#1157);
#382=VERTEX_POINT('',#1163);
#383=VERTEX_POINT('',#1167);
#384=VERTEX_POINT('',#1171);
#385=VERTEX_POINT('',#1175);
#386=VERTEX_POINT('',#1179);
#387=VERTEX_POINT('',#1183);
#388=VERTEX_POINT('',#1187);
#389=VERTEX_POINT('',#1191);
#390=VERTEX_POINT('',#1195);
#391=VERTEX_POINT('',#1199);
#392=VERTEX_POINT('',#1205);
#393=VERTEX_POINT('',#1207);
#394=VERTEX_POINT('',#1248);
#395=VERTEX_POINT('',#1249);
#396=VERTEX_POINT('',#1251);
#397=VERTEX_POINT('',#1255);
#398=VERTEX_POINT('',#1256);
#399=VERTEX_POINT('',#1258);
#400=EDGE_CURVE('',#336,#336,#307,.T.);
#401=EDGE_CURVE('',#336,#337,#175,.T.);
#402=EDGE_CURVE('',#337,#337,#308,.T.);
#403=EDGE_CURVE('',#338,#338,#309,.T.);
#404=EDGE_CURVE('',#338,#339,#176,.T.);
#405=EDGE_CURVE('',#339,#339,#310,.T.);
#406=EDGE_CURVE('',#340,#341,#177,.T.);
#407=EDGE_CURVE('',#340,#342,#178,.T.);
#408=EDGE_CURVE('',#342,#343,#179,.T.);
#409=EDGE_CURVE('',#341,#343,#180,.T.);
#410=EDGE_CURVE('',#344,#340,#181,.T.);
#411=EDGE_CURVE('',#344,#345,#182,.T.);
#412=EDGE_CURVE('',#345,#342,#183,.T.);
#413=EDGE_CURVE('',#346,#344,#184,.T.);
#414=EDGE_CURVE('',#346,#347,#185,.T.);
#415=EDGE_CURVE('',#347,#345,#186,.T.);
#416=EDGE_CURVE('',#348,#349,#187,.T.);
#417=EDGE_CURVE('',#350,#348,#188,.T.);
#418=EDGE_CURVE('',#351,#350,#189,.T.);
#419=EDGE_CURVE('',#349,#351,#190,.T.);
#420=EDGE_CURVE('',#352,#346,#191,.T.);
#421=EDGE_CURVE('',#352,#353,#192,.T.);
#422=EDGE_CURVE('',#353,#347,#193,.T.);
#423=EDGE_CURVE('',#354,#352,#194,.T.);
#424=EDGE_CURVE('',#354,#355,#195,.T.);
#425=EDGE_CURVE('',#355,#353,#196,.T.);
#426=EDGE_CURVE('',#343,#356,#197,.T.);
#427=EDGE_CURVE('',#357,#355,#198,.T.);
#428=EDGE_CURVE('',#356,#357,#199,.T.);
#429=EDGE_CURVE('',#358,#350,#200,.T.);
#430=EDGE_CURVE('',#359,#358,#201,.T.);
#431=EDGE_CURVE('',#359,#351,#202,.T.);
#432=EDGE_CURVE('',#360,#356,#203,.T.);
#433=EDGE_CURVE('',#341,#360,#204,.T.);
#434=EDGE_CURVE('',#357,#361,#205,.T.);
#435=EDGE_CURVE('',#361,#362,#206,.T.);
#436=EDGE_CURVE('',#362,#363,#207,.T.);
#437=EDGE_CURVE('',#363,#364,#208,.T.);
#438=EDGE_CURVE('',#364,#365,#209,.T.);
#439=EDGE_CURVE('',#365,#360,#210,.T.);
#440=EDGE_CURVE('',#361,#354,#211,.T.);
#441=EDGE_CURVE('',#366,#348,#212,.T.);
#442=EDGE_CURVE('',#358,#366,#213,.T.);
#443=EDGE_CURVE('',#367,#367,#311,.T.);
#444=EDGE_CURVE('',#368,#368,#312,.T.);
#445=EDGE_CURVE('',#369,#369,#313,.T.);
#446=EDGE_CURVE('',#370,#370,#314,.T.);
#447=EDGE_CURVE('',#371,#371,#315,.T.);
#448=EDGE_CURVE('',#372,#372,#316,.T.);
#449=EDGE_CURVE('',#373,#373,#317,.T.);
#450=EDGE_CURVE('',#374,#374,#318,.T.);
#451=EDGE_CURVE('',#375,#375,#319,.T.);
#452=EDGE_CURVE('',#376,#376,#320,.T.);
#453=EDGE_CURVE('',#377,#349,#214,.T.);
#454=EDGE_CURVE('',#366,#377,#215,.T.);
#455=EDGE_CURVE('',#377,#359,#216,.T.);
#456=EDGE_CURVE('',#378,#379,#217,.T.);
#457=EDGE_CURVE('',#378,#365,#218,.T.);
#458=EDGE_CURVE('',#379,#364,#219,.T.);
#459=EDGE_CURVE('',#379,#380,#220,.T.);
#460=EDGE_CURVE('',#380,#363,#221,.T.);
#461=EDGE_CURVE('',#380,#381,#222,.T.);
#462=EDGE_CURVE('',#381,#362,#223,.T.);
#463=EDGE_CURVE('',#381,#378,#224,.T.);
#464=EDGE_CURVE('',#371,#382,#225,.T.);
#465=EDGE_CURVE('',#382,#382,#321,.T.);
#466=EDGE_CURVE('',#372,#383,#226,.T.);
#467=EDGE_CURVE('',#383,#383,#322,.T.);
#468=EDGE_CURVE('',#375,#384,#227,.T.);
#469=EDGE_CURVE('',#384,#384,#323,.T.);
#470=EDGE_CURVE('',#376,#385,#228,.T.);
#471=EDGE_CURVE('',#385,#385,#324,.T.);
#472=EDGE_CURVE('',#369,#386,#229,.T.);
#473=EDGE_CURVE('',#386,#386,#325,.T.);
#474=EDGE_CURVE('',#370,#387,#230,.T.);
#475=EDGE_CURVE('',#387,#387,#326,.T.);
#476=EDGE_CURVE('',#373,#388,#231,.T.);
#477=EDGE_CURVE('',#388,#388,#327,.T.);
#478=EDGE_CURVE('',#374,#389,#232,.T.);
#479=EDGE_CURVE('',#389,#389,#328,.T.);
#480=EDGE_CURVE('',#367,#390,#233,.T.);
#481=EDGE_CURVE('',#390,#390,#329,.T.);
#482=EDGE_CURVE('',#368,#391,#234,.T.);
#483=EDGE_CURVE('',#391,#391,#330,.T.);
#484=EDGE_CURVE('',#392,#392,#331,.T.);
#485=EDGE_CURVE('',#392,#393,#235,.T.);
#486=EDGE_CURVE('',#393,#393,#14,.T.);
#487=EDGE_CURVE('',#394,#395,#236,.T.);
#488=EDGE_CURVE('',#394,#396,#332,.T.);
#489=EDGE_CURVE('',#395,#396,#237,.T.);
#490=EDGE_CURVE('',#397,#398,#238,.T.);
#491=EDGE_CURVE('',#399,#397,#239,.T.);
#492=EDGE_CURVE('',#398,#399,#333,.T.);
#493=EDGE_CURVE('',#398,#394,#334,.T.);
#494=EDGE_CURVE('',#396,#399,#335,.T.);
#495=EDGE_CURVE('',#395,#397,#240,.T.);
#496=ORIENTED_EDGE('',*,*,#400,.F.);
#497=ORIENTED_EDGE('',*,*,#401,.T.);
#498=ORIENTED_EDGE('',*,*,#402,.F.);
#499=ORIENTED_EDGE('',*,*,#401,.F.);
#500=ORIENTED_EDGE('',*,*,#403,.F.);
#501=ORIENTED_EDGE('',*,*,#404,.T.);
#502=ORIENTED_EDGE('',*,*,#405,.F.);
#503=ORIENTED_EDGE('',*,*,#404,.F.);
#504=ORIENTED_EDGE('',*,*,#406,.F.);
#505=ORIENTED_EDGE('',*,*,#407,.T.);
#506=ORIENTED_EDGE('',*,*,#408,.T.);
#507=ORIENTED_EDGE('',*,*,#409,.F.);
#508=ORIENTED_EDGE('',*,*,#410,.F.);
#509=ORIENTED_EDGE('',*,*,#411,.T.);
#510=ORIENTED_EDGE('',*,*,#412,.T.);
#511=ORIENTED_EDGE('',*,*,#407,.F.);
#512=ORIENTED_EDGE('',*,*,#413,.F.);
#513=ORIENTED_EDGE('',*,*,#414,.T.);
#514=ORIENTED_EDGE('',*,*,#415,.T.);
#515=ORIENTED_EDGE('',*,*,#411,.F.);
#516=ORIENTED_EDGE('',*,*,#416,.F.);
#517=ORIENTED_EDGE('',*,*,#417,.F.);
#518=ORIENTED_EDGE('',*,*,#418,.F.);
#519=ORIENTED_EDGE('',*,*,#419,.F.);
#520=ORIENTED_EDGE('',*,*,#420,.F.);
#521=ORIENTED_EDGE('',*,*,#421,.T.);
#522=ORIENTED_EDGE('',*,*,#422,.T.);
#523=ORIENTED_EDGE('',*,*,#414,.F.);
#524=ORIENTED_EDGE('',*,*,#423,.F.);
#525=ORIENTED_EDGE('',*,*,#424,.T.);
#526=ORIENTED_EDGE('',*,*,#425,.T.);
#527=ORIENTED_EDGE('',*,*,#421,.F.);
#528=ORIENTED_EDGE('',*,*,#426,.F.);
#529=ORIENTED_EDGE('',*,*,#408,.F.);
#530=ORIENTED_EDGE('',*,*,#412,.F.);
#531=ORIENTED_EDGE('',*,*,#415,.F.);
#532=ORIENTED_EDGE('',*,*,#422,.F.);
#533=ORIENTED_EDGE('',*,*,#425,.F.);
#534=ORIENTED_EDGE('',*,*,#427,.F.);
#535=ORIENTED_EDGE('',*,*,#428,.F.);
#536=ORIENTED_EDGE('',*,*,#418,.T.);
#537=ORIENTED_EDGE('',*,*,#429,.F.);
#538=ORIENTED_EDGE('',*,*,#430,.F.);
#539=ORIENTED_EDGE('',*,*,#431,.T.);
#540=ORIENTED_EDGE('',*,*,#402,.T.);
#541=ORIENTED_EDGE('',*,*,#405,.T.);
#542=ORIENTED_EDGE('',*,*,#409,.T.);
#543=ORIENTED_EDGE('',*,*,#426,.T.);
#544=ORIENTED_EDGE('',*,*,#432,.F.);
#545=ORIENTED_EDGE('',*,*,#433,.F.);
#546=ORIENTED_EDGE('',*,*,#432,.T.);
#547=ORIENTED_EDGE('',*,*,#428,.T.);
#548=ORIENTED_EDGE('',*,*,#434,.T.);
#549=ORIENTED_EDGE('',*,*,#435,.T.);
#550=ORIENTED_EDGE('',*,*,#436,.T.);
#551=ORIENTED_EDGE('',*,*,#437,.T.);
#552=ORIENTED_EDGE('',*,*,#438,.T.);
#553=ORIENTED_EDGE('',*,*,#439,.T.);
#554=ORIENTED_EDGE('',*,*,#424,.F.);
#555=ORIENTED_EDGE('',*,*,#440,.F.);
#556=ORIENTED_EDGE('',*,*,#434,.F.);
#557=ORIENTED_EDGE('',*,*,#427,.T.);
#558=ORIENTED_EDGE('',*,*,#417,.T.);
#559=ORIENTED_EDGE('',*,*,#441,.F.);
#560=ORIENTED_EDGE('',*,*,#442,.F.);
#561=ORIENTED_EDGE('',*,*,#429,.T.);
#562=ORIENTED_EDGE('',*,*,#443,.T.);
#563=ORIENTED_EDGE('',*,*,#444,.T.);
#564=ORIENTED_EDGE('',*,*,#445,.T.);
#565=ORIENTED_EDGE('',*,*,#446,.T.);
#566=ORIENTED_EDGE('',*,*,#447,.T.);
#567=ORIENTED_EDGE('',*,*,#448,.T.);
#568=ORIENTED_EDGE('',*,*,#449,.T.);
#569=ORIENTED_EDGE('',*,*,#450,.T.);
#570=ORIENTED_EDGE('',*,*,#451,.T.);
#571=ORIENTED_EDGE('',*,*,#452,.T.);
#572=ORIENTED_EDGE('',*,*,#416,.T.);
#573=ORIENTED_EDGE('',*,*,#453,.F.);
#574=ORIENTED_EDGE('',*,*,#454,.F.);
#575=ORIENTED_EDGE('',*,*,#441,.T.);
#576=ORIENTED_EDGE('',*,*,#419,.T.);
#577=ORIENTED_EDGE('',*,*,#431,.F.);
#578=ORIENTED_EDGE('',*,*,#455,.F.);
#579=ORIENTED_EDGE('',*,*,#453,.T.);
#580=ORIENTED_EDGE('',*,*,#456,.F.);
#581=ORIENTED_EDGE('',*,*,#457,.T.);
#582=ORIENTED_EDGE('',*,*,#438,.F.);
#583=ORIENTED_EDGE('',*,*,#458,.F.);
#584=ORIENTED_EDGE('',*,*,#459,.F.);
#585=ORIENTED_EDGE('',*,*,#458,.T.);
#586=ORIENTED_EDGE('',*,*,#437,.F.);
#587=ORIENTED_EDGE('',*,*,#460,.F.);
#588=ORIENTED_EDGE('',*,*,#461,.F.);
#589=ORIENTED_EDGE('',*,*,#460,.T.);
#590=ORIENTED_EDGE('',*,*,#436,.F.);
#591=ORIENTED_EDGE('',*,*,#462,.F.);
#592=ORIENTED_EDGE('',*,*,#433,.T.);
#593=ORIENTED_EDGE('',*,*,#439,.F.);
#594=ORIENTED_EDGE('',*,*,#457,.F.);
#595=ORIENTED_EDGE('',*,*,#463,.F.);
#596=ORIENTED_EDGE('',*,*,#462,.T.);
#597=ORIENTED_EDGE('',*,*,#435,.F.);
#598=ORIENTED_EDGE('',*,*,#440,.T.);
#599=ORIENTED_EDGE('',*,*,#423,.T.);
#600=ORIENTED_EDGE('',*,*,#420,.T.);
#601=ORIENTED_EDGE('',*,*,#413,.T.);
#602=ORIENTED_EDGE('',*,*,#410,.T.);
#603=ORIENTED_EDGE('',*,*,#406,.T.);
#604=ORIENTED_EDGE('',*,*,#400,.T.);
#605=ORIENTED_EDGE('',*,*,#403,.T.);
#606=ORIENTED_EDGE('',*,*,#447,.F.);
#607=ORIENTED_EDGE('',*,*,#464,.T.);
#608=ORIENTED_EDGE('',*,*,#465,.F.);
#609=ORIENTED_EDGE('',*,*,#464,.F.);
#610=ORIENTED_EDGE('',*,*,#448,.F.);
#611=ORIENTED_EDGE('',*,*,#466,.T.);
#612=ORIENTED_EDGE('',*,*,#467,.T.);
#613=ORIENTED_EDGE('',*,*,#466,.F.);
#614=ORIENTED_EDGE('',*,*,#451,.F.);
#615=ORIENTED_EDGE('',*,*,#468,.T.);
#616=ORIENTED_EDGE('',*,*,#469,.F.);
#617=ORIENTED_EDGE('',*,*,#468,.F.);
#618=ORIENTED_EDGE('',*,*,#452,.F.);
#619=ORIENTED_EDGE('',*,*,#470,.T.);
#620=ORIENTED_EDGE('',*,*,#471,.T.);
#621=ORIENTED_EDGE('',*,*,#470,.F.);
#622=ORIENTED_EDGE('',*,*,#445,.F.);
#623=ORIENTED_EDGE('',*,*,#472,.T.);
#624=ORIENTED_EDGE('',*,*,#473,.F.);
#625=ORIENTED_EDGE('',*,*,#472,.F.);
#626=ORIENTED_EDGE('',*,*,#446,.F.);
#627=ORIENTED_EDGE('',*,*,#474,.T.);
#628=ORIENTED_EDGE('',*,*,#475,.T.);
#629=ORIENTED_EDGE('',*,*,#474,.F.);
#630=ORIENTED_EDGE('',*,*,#449,.F.);
#631=ORIENTED_EDGE('',*,*,#476,.T.);
#632=ORIENTED_EDGE('',*,*,#477,.F.);
#633=ORIENTED_EDGE('',*,*,#476,.F.);
#634=ORIENTED_EDGE('',*,*,#450,.F.);
#635=ORIENTED_EDGE('',*,*,#478,.T.);
#636=ORIENTED_EDGE('',*,*,#479,.T.);
#637=ORIENTED_EDGE('',*,*,#478,.F.);
#638=ORIENTED_EDGE('',*,*,#443,.F.);
#639=ORIENTED_EDGE('',*,*,#480,.T.);
#640=ORIENTED_EDGE('',*,*,#481,.F.);
#641=ORIENTED_EDGE('',*,*,#480,.F.);
#642=ORIENTED_EDGE('',*,*,#444,.F.);
#643=ORIENTED_EDGE('',*,*,#482,.T.);
#644=ORIENTED_EDGE('',*,*,#483,.T.);
#645=ORIENTED_EDGE('',*,*,#482,.F.);
#646=ORIENTED_EDGE('',*,*,#442,.T.);
#647=ORIENTED_EDGE('',*,*,#454,.T.);
#648=ORIENTED_EDGE('',*,*,#455,.T.);
#649=ORIENTED_EDGE('',*,*,#430,.T.);
#650=ORIENTED_EDGE('',*,*,#469,.T.);
#651=ORIENTED_EDGE('',*,*,#465,.T.);
#652=ORIENTED_EDGE('',*,*,#473,.T.);
#653=ORIENTED_EDGE('',*,*,#481,.T.);
#654=ORIENTED_EDGE('',*,*,#477,.T.);
#655=ORIENTED_EDGE('',*,*,#463,.T.);
#656=ORIENTED_EDGE('',*,*,#456,.T.);
#657=ORIENTED_EDGE('',*,*,#459,.T.);
#658=ORIENTED_EDGE('',*,*,#461,.T.);
#659=ORIENTED_EDGE('',*,*,#467,.F.);
#660=ORIENTED_EDGE('',*,*,#471,.F.);
#661=ORIENTED_EDGE('',*,*,#475,.F.);
#662=ORIENTED_EDGE('',*,*,#479,.F.);
#663=ORIENTED_EDGE('',*,*,#483,.F.);
#664=ORIENTED_EDGE('',*,*,#484,.F.);
#665=ORIENTED_EDGE('',*,*,#485,.T.);
#666=ORIENTED_EDGE('',*,*,#486,.F.);
#667=ORIENTED_EDGE('',*,*,#485,.F.);
#668=ORIENTED_EDGE('',*,*,#487,.F.);
#669=ORIENTED_EDGE('',*,*,#488,.T.);
#670=ORIENTED_EDGE('',*,*,#489,.F.);
#671=ORIENTED_EDGE('',*,*,#490,.F.);
#672=ORIENTED_EDGE('',*,*,#491,.F.);
#673=ORIENTED_EDGE('',*,*,#492,.F.);
#674=ORIENTED_EDGE('',*,*,#493,.F.);
#675=ORIENTED_EDGE('',*,*,#492,.T.);
#676=ORIENTED_EDGE('',*,*,#494,.F.);
#677=ORIENTED_EDGE('',*,*,#488,.F.);
#678=ORIENTED_EDGE('',*,*,#486,.T.);
#679=ORIENTED_EDGE('',*,*,#493,.T.);
#680=ORIENTED_EDGE('',*,*,#487,.T.);
#681=ORIENTED_EDGE('',*,*,#495,.T.);
#682=ORIENTED_EDGE('',*,*,#490,.T.);
#683=ORIENTED_EDGE('',*,*,#484,.T.);
#684=ORIENTED_EDGE('',*,*,#494,.T.);
#685=ORIENTED_EDGE('',*,*,#491,.T.);
#686=ORIENTED_EDGE('',*,*,#495,.F.);
#687=ORIENTED_EDGE('',*,*,#489,.T.);
#688=CYLINDRICAL_SURFACE('',#746,9.);
#689=CYLINDRICAL_SURFACE('',#749,9.);
#690=CYLINDRICAL_SURFACE('',#784,4.);
#691=CYLINDRICAL_SURFACE('',#786,1.35);
#692=CYLINDRICAL_SURFACE('',#788,4.);
#693=CYLINDRICAL_SURFACE('',#790,1.35);
#694=CYLINDRICAL_SURFACE('',#792,4.);
#695=CYLINDRICAL_SURFACE('',#794,1.35);
#696=CYLINDRICAL_SURFACE('',#796,4.);
#697=CYLINDRICAL_SURFACE('',#798,1.35);
#698=CYLINDRICAL_SURFACE('',#800,4.);
#699=CYLINDRICAL_SURFACE('',#802,1.35);
#700=CYLINDRICAL_SURFACE('',#806,1.35);
#701=ADVANCED_FACE('',(#69),#688,.F.);
#702=ADVANCED_FACE('',(#70),#689,.F.);
#703=ADVANCED_FACE('',(#71),#41,.F.);
#704=ADVANCED_FACE('',(#72),#42,.F.);
#705=ADVANCED_FACE('',(#73,#19),#43,.F.);
#706=ADVANCED_FACE('',(#74),#44,.F.);
#707=ADVANCED_FACE('',(#75),#45,.F.);
#708=ADVANCED_FACE('',(#76),#46,.F.);
#709=ADVANCED_FACE('',(#77,#20,#21),#47,.T.);
#710=ADVANCED_FACE('',(#78),#48,.T.);
#711=ADVANCED_FACE('',(#79),#49,.T.);
#712=ADVANCED_FACE('',(#80),#50,.T.);
#713=ADVANCED_FACE('',(#81),#51,.T.);
#714=ADVANCED_FACE('',(#82,#22),#52,.T.);
#715=ADVANCED_FACE('',(#83,#23),#53,.T.);
#716=ADVANCED_FACE('',(#84,#24),#54,.T.);
#717=ADVANCED_FACE('',(#85,#25),#55,.T.);
#718=ADVANCED_FACE('',(#86,#26),#56,.T.);
#719=ADVANCED_FACE('',(#87),#57,.T.);
#720=ADVANCED_FACE('',(#88),#58,.T.);
#721=ADVANCED_FACE('',(#89),#59,.T.);
#722=ADVANCED_FACE('',(#90),#60,.T.);
#723=ADVANCED_FACE('',(#91),#61,.T.);
#724=ADVANCED_FACE('',(#92,#27,#28),#62,.T.);
#725=ADVANCED_FACE('',(#93),#690,.T.);
#726=ADVANCED_FACE('',(#94),#691,.F.);
#727=ADVANCED_FACE('',(#95),#692,.T.);
#728=ADVANCED_FACE('',(#96),#693,.F.);
#729=ADVANCED_FACE('',(#97),#694,.T.);
#730=ADVANCED_FACE('',(#98),#695,.F.);
#731=ADVANCED_FACE('',(#99),#696,.T.);
#732=ADVANCED_FACE('',(#100),#697,.F.);
#733=ADVANCED_FACE('',(#101),#698,.T.);
#734=ADVANCED_FACE('',(#102),#699,.F.);
#735=ADVANCED_FACE('',(#103,#29,#30,#31,#32,#33),#63,.T.);
#736=ADVANCED_FACE('',(#104,#34,#35,#36,#37,#38),#64,.F.);
#737=ADVANCED_FACE('',(#105),#700,.F.);
#738=ADVANCED_FACE('',(#106),#65,.T.);
#739=ADVANCED_FACE('',(#107),#66,.T.);
#740=ADVANCED_FACE('',(#108,#39),#13,.T.);
#741=ADVANCED_FACE('',(#109,#40),#67,.T.);
#742=ADVANCED_FACE('',(#110),#68,.F.);
#743=CLOSED_SHELL('',(#701,#702,#703,#704,#705,#706,#707,#708,#709,#710,
#711,#712,#713,#714,#715,#716,#717,#718,#719,#720,#721,#722,#723,#724,#725,
#726,#727,#728,#729,#730,#731,#732,#733,#734,#735,#736));
#744=CLOSED_SHELL('',(#737,#738,#739,#740,#741,#742));
#745=AXIS2_PLACEMENT_3D('',#1027,#817,#818);
#746=AXIS2_PLACEMENT_3D('',#1028,#819,#820);
#747=AXIS2_PLACEMENT_3D('',#1030,#821,#822);
#748=AXIS2_PLACEMENT_3D('',#1033,#824,#825);
#749=AXIS2_PLACEMENT_3D('',#1034,#826,#827);
#750=AXIS2_PLACEMENT_3D('',#1036,#828,#829);
#751=AXIS2_PLACEMENT_3D('',#1039,#831,#832);
#752=AXIS2_PLACEMENT_3D('',#1040,#833,#834);
#753=AXIS2_PLACEMENT_3D('',#1049,#839,#840);
#754=AXIS2_PLACEMENT_3D('',#1055,#844,#845);
#755=AXIS2_PLACEMENT_3D('',#1069,#853,#854);
#756=AXIS2_PLACEMENT_3D('',#1075,#858,#859);
#757=AXIS2_PLACEMENT_3D('',#1081,#863,#864);
#758=AXIS2_PLACEMENT_3D('',#1087,#868,#869);
#759=AXIS2_PLACEMENT_3D('',#1093,#873,#874);
#760=AXIS2_PLACEMENT_3D('',#1097,#877,#878);
#761=AXIS2_PLACEMENT_3D('',#1109,#885,#886);
#762=AXIS2_PLACEMENT_3D('',#1111,#888,#889);
#763=AXIS2_PLACEMENT_3D('',#1115,#892,#893);
#764=AXIS2_PLACEMENT_3D('',#1117,#894,#895);
#765=AXIS2_PLACEMENT_3D('',#1119,#896,#897);
#766=AXIS2_PLACEMENT_3D('',#1120,#898,#899);
#767=AXIS2_PLACEMENT_3D('',#1122,#900,#901);
#768=AXIS2_PLACEMENT_3D('',#1124,#902,#903);
#769=AXIS2_PLACEMENT_3D('',#1125,#904,#905);
#770=AXIS2_PLACEMENT_3D('',#1127,#906,#907);
#771=AXIS2_PLACEMENT_3D('',#1129,#908,#909);
#772=AXIS2_PLACEMENT_3D('',#1130,#910,#911);
#773=AXIS2_PLACEMENT_3D('',#1132,#912,#913);
#774=AXIS2_PLACEMENT_3D('',#1134,#914,#915);
#775=AXIS2_PLACEMENT_3D('',#1135,#916,#917);
#776=AXIS2_PLACEMENT_3D('',#1137,#918,#919);
#777=AXIS2_PLACEMENT_3D('',#1139,#920,#921);
#778=AXIS2_PLACEMENT_3D('',#1140,#922,#923);
#779=AXIS2_PLACEMENT_3D('',#1144,#926,#927);
#780=AXIS2_PLACEMENT_3D('',#1146,#929,#930);
#781=AXIS2_PLACEMENT_3D('',#1152,#934,#935);
#782=AXIS2_PLACEMENT_3D('',#1156,#938,#939);
#783=AXIS2_PLACEMENT_3D('',#1160,#942,#943);
#784=AXIS2_PLACEMENT_3D('',#1162,#945,#946);
#785=AXIS2_PLACEMENT_3D('',#1165,#948,#949);
#786=AXIS2_PLACEMENT_3D('',#1166,#950,#951);
#787=AXIS2_PLACEMENT_3D('',#1169,#953,#954);
#788=AXIS2_PLACEMENT_3D('',#1170,#955,#956);
#789=AXIS2_PLACEMENT_3D('',#1173,#958,#959);
#790=AXIS2_PLACEMENT_3D('',#1174,#960,#961);
#791=AXIS2_PLACEMENT_3D('',#1177,#963,#964);
#792=AXIS2_PLACEMENT_3D('',#1178,#965,#966);
#793=AXIS2_PLACEMENT_3D('',#1181,#968,#969);
#794=AXIS2_PLACEMENT_3D('',#1182,#970,#971);
#795=AXIS2_PLACEMENT_3D('',#1185,#973,#974);
#796=AXIS2_PLACEMENT_3D('',#1186,#975,#976);
#797=AXIS2_PLACEMENT_3D('',#1189,#978,#979);
#798=AXIS2_PLACEMENT_3D('',#1190,#980,#981);
#799=AXIS2_PLACEMENT_3D('',#1193,#983,#984);
#800=AXIS2_PLACEMENT_3D('',#1194,#985,#986);
#801=AXIS2_PLACEMENT_3D('',#1197,#988,#989);
#802=AXIS2_PLACEMENT_3D('',#1198,#990,#991);
#803=AXIS2_PLACEMENT_3D('',#1201,#993,#994);
#804=AXIS2_PLACEMENT_3D('',#1202,#995,#996);
#805=AXIS2_PLACEMENT_3D('',#1203,#997,#998);
#806=AXIS2_PLACEMENT_3D('',#1204,#999,#1000);
#807=AXIS2_PLACEMENT_3D('',#1206,#1001,#1002);
#808=AXIS2_PLACEMENT_3D('',#1247,#1004,#1005);
#809=AXIS2_PLACEMENT_3D('',#1252,#1007,#1008);
#810=AXIS2_PLACEMENT_3D('',#1254,#1010,#1011);
#811=AXIS2_PLACEMENT_3D('',#1260,#1014,#1015);
#812=AXIS2_PLACEMENT_3D('',#1261,#1016,#1017);
#813=AXIS2_PLACEMENT_3D('',#1262,#1018,#1019);
#814=AXIS2_PLACEMENT_3D('',#1263,#1020,#1021);
#815=AXIS2_PLACEMENT_3D('',#1264,#1022,#1023);
#816=AXIS2_PLACEMENT_3D('',#1266,#1025,#1026);
#817=DIRECTION('axis',(0.,0.,1.));
#818=DIRECTION('refdir',(1.,0.,0.));
#819=DIRECTION('center_axis',(0.,-1.,0.));
#820=DIRECTION('ref_axis',(-1.,0.,0.));
#821=DIRECTION('center_axis',(0.,-1.,0.));
#822=DIRECTION('ref_axis',(-1.,0.,0.));
#823=DIRECTION('',(0.,-1.,0.));
#824=DIRECTION('center_axis',(0.,1.,0.));
#825=DIRECTION('ref_axis',(-1.,0.,0.));
#826=DIRECTION('center_axis',(0.,-1.,0.));
#827=DIRECTION('ref_axis',(-1.,0.,0.));
#828=DIRECTION('center_axis',(0.,-1.,0.));
#829=DIRECTION('ref_axis',(-1.,0.,0.));
#830=DIRECTION('',(0.,-1.,0.));
#831=DIRECTION('center_axis',(0.,1.,0.));
#832=DIRECTION('ref_axis',(-1.,0.,0.));
#833=DIRECTION('center_axis',(0.,0.,1.));
#834=DIRECTION('ref_axis',(-1.,0.,0.));
#835=DIRECTION('',(-1.,0.,0.));
#836=DIRECTION('',(0.,-1.,0.));
#837=DIRECTION('',(-1.,0.,0.));
#838=DIRECTION('',(0.,-1.,0.));
#839=DIRECTION('center_axis',(1.,0.,0.));
#840=DIRECTION('ref_axis',(0.,0.,1.));
#841=DIRECTION('',(0.,0.,1.));
#842=DIRECTION('',(0.,-1.,0.));
#843=DIRECTION('',(0.,0.,1.));
#844=DIRECTION('center_axis',(0.,0.,-1.));
#845=DIRECTION('ref_axis',(1.,0.,0.));
#846=DIRECTION('',(1.,0.,0.));
#847=DIRECTION('',(0.,-1.,0.));
#848=DIRECTION('',(1.,0.,0.));
#849=DIRECTION('',(1.,0.,0.));
#850=DIRECTION('',(0.,-1.,0.));
#851=DIRECTION('',(-1.,0.,0.));
#852=DIRECTION('',(-7.40018792478265E-17,1.,0.));
#853=DIRECTION('center_axis',(-1.,0.,0.));
#854=DIRECTION('ref_axis',(0.,0.,-1.));
#855=DIRECTION('',(0.,0.,-1.));
#856=DIRECTION('',(0.,-1.,0.));
#857=DIRECTION('',(0.,0.,-1.));
#858=DIRECTION('center_axis',(0.,0.,1.));
#859=DIRECTION('ref_axis',(-1.,0.,0.));
#860=DIRECTION('',(-1.,0.,0.));
#861=DIRECTION('',(0.,-1.,0.));
#862=DIRECTION('',(-1.,0.,0.));
#863=DIRECTION('center_axis',(0.,-1.,0.));
#864=DIRECTION('ref_axis',(0.,0.,-1.));
#865=DIRECTION('',(0.,0.,1.));
#866=DIRECTION('',(0.,0.,-1.));
#867=DIRECTION('',(-1.,0.,0.));
#868=DIRECTION('center_axis',(0.,-1.,0.));
#869=DIRECTION('ref_axis',(1.,0.,0.));
#870=DIRECTION('',(0.,0.,1.));
#871=DIRECTION('',(-1.,0.,0.));
#872=DIRECTION('',(0.,0.,1.));
#873=DIRECTION('center_axis',(-1.,-7.40018792478265E-17,0.));
#874=DIRECTION('ref_axis',(7.40018792478265E-17,-1.,0.));
#875=DIRECTION('',(0.,-1.,0.));
#876=DIRECTION('',(0.,0.,1.));
#877=DIRECTION('center_axis',(0.,0.,1.));
#878=DIRECTION('ref_axis',(1.,0.,0.));
#879=DIRECTION('',(0.,1.,0.));
#880=DIRECTION('',(-1.,0.,0.));
#881=DIRECTION('',(6.93775227473848E-17,-1.,0.));
#882=DIRECTION('',(1.,0.,0.));
#883=DIRECTION('',(0.,1.,0.));
#884=DIRECTION('',(-1.,0.,0.));
#885=DIRECTION('center_axis',(1.,0.,0.));
#886=DIRECTION('ref_axis',(0.,1.,0.));
#887=DIRECTION('',(0.,0.,-1.));
#888=DIRECTION('center_axis',(1.,0.,0.));
#889=DIRECTION('ref_axis',(0.,1.,0.));
#890=DIRECTION('',(0.,0.,1.));
#891=DIRECTION('',(0.,-1.,0.));
#892=DIRECTION('center_axis',(0.,0.,1.));
#893=DIRECTION('ref_axis',(1.,0.,0.));
#894=DIRECTION('center_axis',(0.,0.,1.));
#895=DIRECTION('ref_axis',(1.,0.,0.));
#896=DIRECTION('center_axis',(0.,0.,-1.));
#897=DIRECTION('ref_axis',(1.,0.,0.));
#898=DIRECTION('center_axis',(0.,0.,1.));
#899=DIRECTION('ref_axis',(1.,0.,0.));
#900=DIRECTION('center_axis',(0.,0.,1.));
#901=DIRECTION('ref_axis',(1.,0.,0.));
#902=DIRECTION('center_axis',(0.,0.,-1.));
#903=DIRECTION('ref_axis',(1.,0.,0.));
#904=DIRECTION('center_axis',(0.,0.,1.));
#905=DIRECTION('ref_axis',(1.,0.,0.));
#906=DIRECTION('center_axis',(0.,0.,1.));
#907=DIRECTION('ref_axis',(1.,0.,0.));
#908=DIRECTION('center_axis',(0.,0.,-1.));
#909=DIRECTION('ref_axis',(1.,0.,0.));
#910=DIRECTION('center_axis',(0.,0.,1.));
#911=DIRECTION('ref_axis',(1.,0.,0.));
#912=DIRECTION('center_axis',(0.,0.,1.));
#913=DIRECTION('ref_axis',(1.,0.,0.));
#914=DIRECTION('center_axis',(0.,0.,-1.));
#915=DIRECTION('ref_axis',(1.,0.,0.));
#916=DIRECTION('center_axis',(0.,0.,1.));
#917=DIRECTION('ref_axis',(1.,0.,0.));
#918=DIRECTION('center_axis',(0.,0.,1.));
#919=DIRECTION('ref_axis',(1.,0.,0.));
#920=DIRECTION('center_axis',(0.,0.,-1.));
#921=DIRECTION('ref_axis',(1.,0.,0.));
#922=DIRECTION('center_axis',(0.,1.,0.));
#923=DIRECTION('ref_axis',(-1.,0.,0.));
#924=DIRECTION('',(0.,0.,1.));
#925=DIRECTION('',(1.,0.,0.));
#926=DIRECTION('center_axis',(-1.,-7.40018792478265E-17,0.));
#927=DIRECTION('ref_axis',(7.40018792478265E-17,-1.,0.));
#928=DIRECTION('',(-7.40018792478265E-17,1.,0.));
#929=DIRECTION('center_axis',(1.,0.,0.));
#930=DIRECTION('ref_axis',(0.,1.,0.));
#931=DIRECTION('',(0.,-1.,0.));
#932=DIRECTION('',(0.,0.,1.));
#933=DIRECTION('',(0.,0.,1.));
#934=DIRECTION('center_axis',(0.,-1.,0.));
#935=DIRECTION('ref_axis',(1.,0.,0.));
#936=DIRECTION('',(-1.,0.,0.));
#937=DIRECTION('',(0.,0.,1.));
#938=DIRECTION('center_axis',(-1.,-6.93775227473848E-17,0.));
#939=DIRECTION('ref_axis',(6.93775227473848E-17,-1.,0.));
#940=DIRECTION('',(-6.93775227473848E-17,1.,0.));
#941=DIRECTION('',(0.,0.,1.));
#942=DIRECTION('center_axis',(0.,1.,0.));
#943=DIRECTION('ref_axis',(-1.,0.,0.));
#944=DIRECTION('',(1.,0.,0.));
#945=DIRECTION('center_axis',(0.,0.,1.));
#946=DIRECTION('ref_axis',(1.,0.,0.));
#947=DIRECTION('',(0.,0.,-1.));
#948=DIRECTION('center_axis',(0.,0.,-1.));
#949=DIRECTION('ref_axis',(1.,0.,0.));
#950=DIRECTION('center_axis',(0.,0.,1.));
#951=DIRECTION('ref_axis',(1.,0.,0.));
#952=DIRECTION('',(0.,0.,-1.));
#953=DIRECTION('center_axis',(0.,0.,-1.));
#954=DIRECTION('ref_axis',(1.,0.,0.));
#955=DIRECTION('center_axis',(0.,0.,1.));
#956=DIRECTION('ref_axis',(1.,0.,0.));
#957=DIRECTION('',(0.,0.,-1.));
#958=DIRECTION('center_axis',(0.,0.,-1.));
#959=DIRECTION('ref_axis',(1.,0.,0.));
#960=DIRECTION('center_axis',(0.,0.,1.));
#961=DIRECTION('ref_axis',(1.,0.,0.));
#962=DIRECTION('',(0.,0.,-1.));
#963=DIRECTION('center_axis',(0.,0.,-1.));
#964=DIRECTION('ref_axis',(1.,0.,0.));
#965=DIRECTION('center_axis',(0.,0.,1.));
#966=DIRECTION('ref_axis',(1.,0.,0.));
#967=DIRECTION('',(0.,0.,-1.));
#968=DIRECTION('center_axis',(0.,0.,-1.));
#969=DIRECTION('ref_axis',(1.,0.,0.));
#970=DIRECTION('center_axis',(0.,0.,1.));
#971=DIRECTION('ref_axis',(1.,0.,0.));
#972=DIRECTION('',(0.,0.,-1.));
#973=DIRECTION('center_axis',(0.,0.,-1.));
#974=DIRECTION('ref_axis',(1.,0.,0.));
#975=DIRECTION('center_axis',(0.,0.,1.));
#976=DIRECTION('ref_axis',(1.,0.,0.));
#977=DIRECTION('',(0.,0.,-1.));
#978=DIRECTION('center_axis',(0.,0.,-1.));
#979=DIRECTION('ref_axis',(1.,0.,0.));
#980=DIRECTION('center_axis',(0.,0.,1.));
#981=DIRECTION('ref_axis',(1.,0.,0.));
#982=DIRECTION('',(0.,0.,-1.));
#983=DIRECTION('center_axis',(0.,0.,-1.));
#984=DIRECTION('ref_axis',(1.,0.,0.));
#985=DIRECTION('center_axis',(0.,0.,1.));
#986=DIRECTION('ref_axis',(1.,0.,0.));
#987=DIRECTION('',(0.,0.,-1.));
#988=DIRECTION('center_axis',(0.,0.,-1.));
#989=DIRECTION('ref_axis',(1.,0.,0.));
#990=DIRECTION('center_axis',(0.,0.,1.));
#991=DIRECTION('ref_axis',(1.,0.,0.));
#992=DIRECTION('',(0.,0.,-1.));
#993=DIRECTION('center_axis',(0.,0.,-1.));
#994=DIRECTION('ref_axis',(1.,0.,0.));
#995=DIRECTION('center_axis',(0.,0.,1.));
#996=DIRECTION('ref_axis',(1.,0.,0.));
#997=DIRECTION('center_axis',(0.,0.,1.));
#998=DIRECTION('ref_axis',(1.,0.,0.));
#999=DIRECTION('center_axis',(0.,0.,-1.));
#1000=DIRECTION('ref_axis',(-1.,0.,0.));
#1001=DIRECTION('center_axis',(0.,0.,-1.));
#1002=DIRECTION('ref_axis',(-1.,0.,0.));
#1003=DIRECTION('',(0.,0.,-1.));
#1004=DIRECTION('center_axis',(1.,0.,0.));
#1005=DIRECTION('ref_axis',(0.,0.,-1.));
#1006=DIRECTION('',(0.,1.,0.));
#1007=DIRECTION('center_axis',(1.,4.8733008787435E-16,4.8733008787435E-16));
#1008=DIRECTION('ref_axis',(5.04646829375072E-16,-1.,1.61486985400023E-15));
#1009=DIRECTION('',(0.,-6.12323399573677E-17,-1.));
#1010=DIRECTION('center_axis',(-1.,0.,0.));
#1011=DIRECTION('ref_axis',(0.,0.,1.));
#1012=DIRECTION('',(0.,-1.,0.));
#1013=DIRECTION('',(0.,6.12323399573677E-17,1.));
#1014=DIRECTION('center_axis',(1.,0.,0.));
#1015=DIRECTION('ref_axis',(0.,-1.,1.61486985400023E-15));
#1016=DIRECTION('center_axis',(1.,0.,0.));
#1017=DIRECTION('ref_axis',(0.,0.,-1.));
#1018=DIRECTION('center_axis',(0.,0.,1.));
#1019=DIRECTION('ref_axis',(-1.,0.,0.));
#1020=DIRECTION('center_axis',(0.,1.,-6.12323399573677E-17));
#1021=DIRECTION('ref_axis',(-1.,0.,0.));
#1022=DIRECTION('center_axis',(0.,0.,1.));
#1023=DIRECTION('ref_axis',(-1.,0.,0.));
#1024=DIRECTION('',(-1.,0.,0.));
#1025=DIRECTION('center_axis',(0.,-1.,6.12323399573677E-17));
#1026=DIRECTION('ref_axis',(-1.,0.,0.));
#1027=CARTESIAN_POINT('',(0.,0.,0.));
#1028=CARTESIAN_POINT('Origin',(6.70015260774439,32.0105320737944,17.0232552106293));
#1029=CARTESIAN_POINT('',(15.7001526077444,32.0105320737944,17.0232552106293));
#1030=CARTESIAN_POINT('Origin',(6.70015260774439,32.0105320737944,17.0232552106293));
#1031=CARTESIAN_POINT('',(15.7001526077444,30.0105320737944,17.0232552106293));
#1032=CARTESIAN_POINT('',(15.7001526077444,32.0105320737944,17.0232552106293));
#1033=CARTESIAN_POINT('Origin',(6.70015260774439,30.0105320737944,17.0232552106293));
#1034=CARTESIAN_POINT('Origin',(-19.5998473922556,32.0105320737944,17.0232552106293));
#1035=CARTESIAN_POINT('',(-10.5998473922556,32.0105320737944,17.0232552106293));
#1036=CARTESIAN_POINT('Origin',(-19.5998473922556,32.0105320737944,17.0232552106293));
#1037=CARTESIAN_POINT('',(-10.5998473922556,30.0105320737944,17.0232552106293));
#1038=CARTESIAN_POINT('',(-10.5998473922556,32.0105320737944,17.0232552106293));
#1039=CARTESIAN_POINT('Origin',(-19.5998473922556,30.0105320737944,17.0232552106293));
#1040=CARTESIAN_POINT('Origin',(32.1499992981553,32.0105320737944,30.6));
#1041=CARTESIAN_POINT('',(32.1499992981553,32.0105320737944,30.6));
#1042=CARTESIAN_POINT('',(31.3999992981553,32.0105320737944,30.6));
#1043=CARTESIAN_POINT('',(32.7749992981553,32.0105320737944,30.6));
#1044=CARTESIAN_POINT('',(32.1499992981553,-30.0004679262056,30.6));
#1045=CARTESIAN_POINT('',(32.1499992981553,32.0105320737944,30.6));
#1046=CARTESIAN_POINT('',(31.3999992981553,-30.0004679262056,30.6));
#1047=CARTESIAN_POINT('',(32.1499992981553,-30.0004679262056,30.6));
#1048=CARTESIAN_POINT('',(31.3999992981553,32.0105320737944,30.6));
#1049=CARTESIAN_POINT('Origin',(32.1499992981553,32.0105320737944,29.6));
#1050=CARTESIAN_POINT('',(32.1499992981553,32.0105320737944,29.6));
#1051=CARTESIAN_POINT('',(32.1499992981553,32.0105320737944,14.8));
#1052=CARTESIAN_POINT('',(32.1499992981553,-30.0004679262056,29.6));
#1053=CARTESIAN_POINT('',(32.1499992981553,32.0105320737944,29.6));
#1054=CARTESIAN_POINT('',(32.1499992981553,-30.0004679262056,29.6));
#1055=CARTESIAN_POINT('Origin',(-32.2725468720465,32.0105320737944,29.6));
#1056=CARTESIAN_POINT('',(-32.2725468720465,32.0105320737944,29.6));
#1057=CARTESIAN_POINT('',(0.563726213054392,32.0105320737944,29.6));
#1058=CARTESIAN_POINT('',(-32.2725468720465,-30.0004679262056,29.6));
#1059=CARTESIAN_POINT('',(-32.2725468720465,32.0105320737944,29.6));
#1060=CARTESIAN_POINT('',(31.3999992981553,-30.0004679262056,29.6));
#1061=CARTESIAN_POINT('',(-31.5225468720465,-29.9999993294477,29.6));
#1062=CARTESIAN_POINT('',(31.3999992981553,-29.9999993294477,29.6));
#1063=CARTESIAN_POINT('',(-0.436273786945607,-29.9999993294477,29.6));
#1064=CARTESIAN_POINT('',(-31.5225468720465,30.0105320737944,29.6));
#1065=CARTESIAN_POINT('',(-31.5225468720465,1.00526637217335,29.6));
#1066=CARTESIAN_POINT('',(31.3999992981553,30.0105320737944,29.6));
#1067=CARTESIAN_POINT('',(-31.8975468720465,30.0105320737944,29.6));
#1068=CARTESIAN_POINT('',(31.3999992981553,31.0105320737944,29.6));
#1069=CARTESIAN_POINT('Origin',(-32.2725468720465,32.0105320737944,30.6));
#1070=CARTESIAN_POINT('',(-32.2725468720465,32.0105320737944,30.6));
#1071=CARTESIAN_POINT('',(-32.2725468720465,32.0105320737944,15.3));
#1072=CARTESIAN_POINT('',(-32.2725468720465,-30.0004679262056,30.6));
#1073=CARTESIAN_POINT('',(-32.2725468720465,32.0105320737944,30.6));
#1074=CARTESIAN_POINT('',(-32.2725468720465,-30.0004679262056,29.6));
#1075=CARTESIAN_POINT('Origin',(-31.5225468720465,32.0105320737944,30.6));
#1076=CARTESIAN_POINT('',(-31.5225468720465,32.0105320737944,30.6));
#1077=CARTESIAN_POINT('',(0.938726213054393,32.0105320737944,30.6));
#1078=CARTESIAN_POINT('',(-31.5225468720465,-30.0004679262056,30.6));
#1079=CARTESIAN_POINT('',(-31.5225468720465,32.0105320737944,30.6));
#1080=CARTESIAN_POINT('',(-32.2725468720465,-30.0004679262056,30.6));
#1081=CARTESIAN_POINT('Origin',(-0.0612737869456037,-30.0004679262056,30.6));
#1082=CARTESIAN_POINT('',(31.3999992981553,-30.0004679262056,31.6));
#1083=CARTESIAN_POINT('',(31.3999992981553,-30.0004679262056,31.6));
#1084=CARTESIAN_POINT('',(-31.5225468720465,-30.0004679262056,31.6));
#1085=CARTESIAN_POINT('',(-31.5225468720465,-30.0004679262056,31.6));
#1086=CARTESIAN_POINT('',(-0.0612737869456059,-30.0004679262056,31.6));
#1087=CARTESIAN_POINT('Origin',(-31.5225468720465,30.0105320737944,0.));
#1088=CARTESIAN_POINT('',(-31.5225468720465,30.0105320737944,2.));
#1089=CARTESIAN_POINT('',(-31.5225468720465,30.0105320737944,0.));
#1090=CARTESIAN_POINT('',(31.3999992981553,30.0105320737944,2.));
#1091=CARTESIAN_POINT('',(-31.5225468720465,30.0105320737944,2.));
#1092=CARTESIAN_POINT('',(31.3999992981553,30.0105320737944,0.));
#1093=CARTESIAN_POINT('Origin',(31.3999992981553,30.0105320737944,0.));
#1094=CARTESIAN_POINT('',(31.3999992981553,32.0105320737944,31.6));
#1095=CARTESIAN_POINT('',(31.3999992981553,16.0078992229839,31.6));
#1096=CARTESIAN_POINT('',(31.3999992981553,32.0105320737944,15.3));
#1097=CARTESIAN_POINT('Origin',(-0.0612737869456081,0.00526637217334702,
31.6));
#1098=CARTESIAN_POINT('',(-31.5225468720465,32.0105320737944,31.6));
#1099=CARTESIAN_POINT('',(-31.5225468720465,16.0078992229839,31.6));
#1100=CARTESIAN_POINT('',(-33.5225468720465,32.0105320737944,31.6));
#1101=CARTESIAN_POINT('',(-33.5225468720465,32.0105320737944,31.6));
#1102=CARTESIAN_POINT('',(-33.5225468720465,-31.9999993294477,31.6));
#1103=CARTESIAN_POINT('',(-33.5225468720465,-31.9999993294477,31.6));
#1104=CARTESIAN_POINT('',(33.3999992981553,-31.9999993294477,31.6));
#1105=CARTESIAN_POINT('',(33.3999992981553,-31.9999993294477,31.6));
#1106=CARTESIAN_POINT('',(33.3999992981553,32.0105320737944,31.6));
#1107=CARTESIAN_POINT('',(33.3999992981553,32.0105320737944,31.6));
#1108=CARTESIAN_POINT('',(-33.5225468720465,32.0105320737944,31.6));
#1109=CARTESIAN_POINT('Origin',(-31.5225468720465,-29.9999993294477,0.));
#1110=CARTESIAN_POINT('',(-31.5225468720465,32.0105320737944,15.8));
#1111=CARTESIAN_POINT('Origin',(-31.5225468720465,-29.9999993294477,0.));
#1112=CARTESIAN_POINT('',(-31.5225468720465,-29.9999993294477,2.));
#1113=CARTESIAN_POINT('',(-31.5225468720465,-29.9999993294477,0.));
#1114=CARTESIAN_POINT('',(-31.5225468720465,11.0105320737944,2.));
#1115=CARTESIAN_POINT('Origin',(-20.5225468720465,-20.7894679262056,6.));
#1116=CARTESIAN_POINT('',(-24.5225468720465,-20.7894679262056,6.));
#1117=CARTESIAN_POINT('Origin',(-20.5225468720465,-20.7894679262056,6.));
#1118=CARTESIAN_POINT('',(-21.8725468720465,-20.7894679262056,6.));
#1119=CARTESIAN_POINT('Origin',(-20.5225468720465,-20.7894679262056,6.));
#1120=CARTESIAN_POINT('Origin',(20.3274531279535,-20.7894679262056,6.));
#1121=CARTESIAN_POINT('',(16.3274531279535,-20.7894679262056,6.));
#1122=CARTESIAN_POINT('Origin',(20.3274531279535,-20.7894679262056,6.));
#1123=CARTESIAN_POINT('',(18.9774531279535,-20.7894679262056,6.));
#1124=CARTESIAN_POINT('Origin',(20.3274531279535,-20.7894679262056,6.));
#1125=CARTESIAN_POINT('Origin',(24.9774531279535,-3.98946792620556,6.));
#1126=CARTESIAN_POINT('',(20.9774531279535,-3.98946792620556,6.));
#1127=CARTESIAN_POINT('Origin',(24.9774531279535,-3.98946792620556,6.));
#1128=CARTESIAN_POINT('',(23.6274531279535,-3.98946792620556,6.));
#1129=CARTESIAN_POINT('Origin',(24.9774531279535,-3.98946792620556,6.));
#1130=CARTESIAN_POINT('Origin',(-24.2225468720465,11.2705320737944,6.));
#1131=CARTESIAN_POINT('',(-28.2225468720465,11.2705320737944,6.));
#1132=CARTESIAN_POINT('Origin',(-24.2225468720465,11.2705320737944,6.));
#1133=CARTESIAN_POINT('',(-25.5725468720465,11.2705320737944,6.));
#1134=CARTESIAN_POINT('Origin',(-24.2225468720465,11.2705320737944,6.));
#1135=CARTESIAN_POINT('Origin',(-6.02254687204652,24.5105320737944,6.));
#1136=CARTESIAN_POINT('',(-10.0225468720465,24.5105320737944,6.));
#1137=CARTESIAN_POINT('Origin',(-6.02254687204652,24.5105320737944,6.));
#1138=CARTESIAN_POINT('',(-7.37254687204652,24.5105320737944,6.));
#1139=CARTESIAN_POINT('Origin',(-6.02254687204652,24.5105320737944,6.));
#1140=CARTESIAN_POINT('Origin',(31.3999992981553,-29.9999993294477,0.));
#1141=CARTESIAN_POINT('',(31.3999992981553,-29.9999993294477,2.));
#1142=CARTESIAN_POINT('',(31.3999992981553,-29.9999993294477,0.));
#1143=CARTESIAN_POINT('',(31.3999992981553,-29.9999993294477,2.));
#1144=CARTESIAN_POINT('Origin',(31.3999992981553,30.0105320737944,0.));
#1145=CARTESIAN_POINT('',(31.3999992981553,30.0105320737944,2.));
#1146=CARTESIAN_POINT('Origin',(33.3999992981553,-31.9999993294477,0.));
#1147=CARTESIAN_POINT('',(33.3999992981553,32.0105320737944,0.));
#1148=CARTESIAN_POINT('',(33.3999992981553,-31.9999993294477,0.));
#1149=CARTESIAN_POINT('',(33.3999992981553,32.0105320737944,0.));
#1150=CARTESIAN_POINT('',(33.3999992981553,32.0105320737944,0.));
#1151=CARTESIAN_POINT('',(33.3999992981553,-31.9999993294477,0.));
#1152=CARTESIAN_POINT('Origin',(-33.5225468720465,-31.9999993294477,0.));
#1153=CARTESIAN_POINT('',(-33.5225468720465,-31.9999993294477,0.));
#1154=CARTESIAN_POINT('',(33.3999992981553,-31.9999993294477,0.));
#1155=CARTESIAN_POINT('',(-33.5225468720465,-31.9999993294477,0.));
#1156=CARTESIAN_POINT('Origin',(-33.5225468720465,32.0105320737944,0.));
#1157=CARTESIAN_POINT('',(-33.5225468720465,32.0105320737944,0.));
#1158=CARTESIAN_POINT('',(-33.5225468720465,-31.9999993294477,0.));
#1159=CARTESIAN_POINT('',(-33.5225468720465,32.0105320737944,0.));
#1160=CARTESIAN_POINT('Origin',(33.3999992981553,32.0105320737944,0.));
#1161=CARTESIAN_POINT('',(-33.5225468720465,32.0105320737944,0.));
#1162=CARTESIAN_POINT('Origin',(24.9774531279535,-3.98946792620556,0.));
#1163=CARTESIAN_POINT('',(20.9774531279535,-3.98946792620556,2.));
#1164=CARTESIAN_POINT('',(20.9774531279535,-3.98946792620556,0.));
#1165=CARTESIAN_POINT('Origin',(24.9774531279535,-3.98946792620556,2.));
#1166=CARTESIAN_POINT('Origin',(24.9774531279535,-3.98946792620556,0.));
#1167=CARTESIAN_POINT('',(23.6274531279535,-3.98946792620556,0.));
#1168=CARTESIAN_POINT('',(23.6274531279535,-3.98946792620556,0.));
#1169=CARTESIAN_POINT('Origin',(24.9774531279535,-3.98946792620556,0.));
#1170=CARTESIAN_POINT('Origin',(-6.02254687204652,24.5105320737944,0.));
#1171=CARTESIAN_POINT('',(-10.0225468720465,24.5105320737944,2.));
#1172=CARTESIAN_POINT('',(-10.0225468720465,24.5105320737944,0.));
#1173=CARTESIAN_POINT('Origin',(-6.02254687204652,24.5105320737944,2.));
#1174=CARTESIAN_POINT('Origin',(-6.02254687204652,24.5105320737944,0.));
#1175=CARTESIAN_POINT('',(-7.37254687204652,24.5105320737944,0.));
#1176=CARTESIAN_POINT('',(-7.37254687204652,24.5105320737944,0.));
#1177=CARTESIAN_POINT('Origin',(-6.02254687204652,24.5105320737944,0.));
#1178=CARTESIAN_POINT('Origin',(20.3274531279535,-20.7894679262056,0.));
#1179=CARTESIAN_POINT('',(16.3274531279535,-20.7894679262056,2.));
#1180=CARTESIAN_POINT('',(16.3274531279535,-20.7894679262056,0.));
#1181=CARTESIAN_POINT('Origin',(20.3274531279535,-20.7894679262056,2.));
#1182=CARTESIAN_POINT('Origin',(20.3274531279535,-20.7894679262056,0.));
#1183=CARTESIAN_POINT('',(18.9774531279535,-20.7894679262056,0.));
#1184=CARTESIAN_POINT('',(18.9774531279535,-20.7894679262056,0.));
#1185=CARTESIAN_POINT('Origin',(20.3274531279535,-20.7894679262056,0.));
#1186=CARTESIAN_POINT('Origin',(-24.2225468720465,11.2705320737944,0.));
#1187=CARTESIAN_POINT('',(-28.2225468720465,11.2705320737944,2.));
#1188=CARTESIAN_POINT('',(-28.2225468720465,11.2705320737944,0.));
#1189=CARTESIAN_POINT('Origin',(-24.2225468720465,11.2705320737944,2.));
#1190=CARTESIAN_POINT('Origin',(-24.2225468720465,11.2705320737944,0.));
#1191=CARTESIAN_POINT('',(-25.5725468720465,11.2705320737944,0.));
#1192=CARTESIAN_POINT('',(-25.5725468720465,11.2705320737944,0.));
#1193=CARTESIAN_POINT('Origin',(-24.2225468720465,11.2705320737944,0.));
#1194=CARTESIAN_POINT('Origin',(-20.5225468720465,-20.7894679262056,0.));
#1195=CARTESIAN_POINT('',(-24.5225468720465,-20.7894679262056,2.));
#1196=CARTESIAN_POINT('',(-24.5225468720465,-20.7894679262056,0.));
#1197=CARTESIAN_POINT('Origin',(-20.5225468720465,-20.7894679262056,2.));
#1198=CARTESIAN_POINT('Origin',(-20.5225468720465,-20.7894679262056,0.));
#1199=CARTESIAN_POINT('',(-21.8725468720465,-20.7894679262056,0.));
#1200=CARTESIAN_POINT('',(-21.8725468720465,-20.7894679262056,0.));
#1201=CARTESIAN_POINT('Origin',(-20.5225468720465,-20.7894679262056,0.));
#1202=CARTESIAN_POINT('Origin',(-0.0612737869456081,0.00526581337980225,
2.));
#1203=CARTESIAN_POINT('Origin',(-0.0612737869456081,0.00526581337980225,
0.));
#1204=CARTESIAN_POINT('Origin',(-6.02254687204652,24.5105320737944,29.6));
#1205=CARTESIAN_POINT('',(-4.67254687204652,24.5105320737944,29.6));
#1206=CARTESIAN_POINT('Origin',(-6.02254687204652,24.5105320737944,29.6));
#1207=CARTESIAN_POINT('',(-4.67254687204652,24.5105320737945,22.1437393259193));
#1208=CARTESIAN_POINT('',(-4.67254687204652,24.5105320737944,29.6));
#1209=CARTESIAN_POINT('Ctrl Pts',(-4.67254687204652,24.5105320737945,22.1437393259193));
#1210=CARTESIAN_POINT('Ctrl Pts',(-4.67254687204652,24.6802103082756,22.0185786950832));
#1211=CARTESIAN_POINT('Ctrl Pts',(-4.70451959475041,24.8482302869805,21.8891746907223));
#1212=CARTESIAN_POINT('Ctrl Pts',(-4.82866359212789,25.1629378343529,21.639469798553));
#1213=CARTESIAN_POINT('Ctrl Pts',(-4.92133486991353,25.3115479925986,21.5177391011501));
#1214=CARTESIAN_POINT('Ctrl Pts',(-5.15765700221887,25.5600917382047,21.3107934295235));
#1215=CARTESIAN_POINT('Ctrl Pts',(-5.29743493128075,25.6633627469389,21.2231390119535));
#1216=CARTESIAN_POINT('Ctrl Pts',(-5.56842412664957,25.7873483322601,21.1173066642762));
#1217=CARTESIAN_POINT('Ctrl Pts',(-5.68444181410428,25.8233422358191,21.0863730146235));
#1218=CARTESIAN_POINT('Ctrl Pts',(-5.90797522155978,25.8595853838203,21.0552096456381));
#1219=CARTESIAN_POINT('Ctrl Pts',(-6.01112460260716,25.8644160751459,21.0510446003738));
#1220=CARTESIAN_POINT('Ctrl Pts',(-6.22606298879774,25.8498217980199,21.0636051404334));
#1221=CARTESIAN_POINT('Ctrl Pts',(-6.33465686952016,25.828418400442,21.0820347563148));
#1222=CARTESIAN_POINT('Ctrl Pts',(-6.57907090824559,25.7494191171476,21.1497413193856));
#1223=CARTESIAN_POINT('Ctrl Pts',(-6.70628696267855,25.6826294560943,21.2068181734267));
#1224=CARTESIAN_POINT('Ctrl Pts',(-6.97024766241039,25.4904395835714,21.3691382903007));
#1225=CARTESIAN_POINT('Ctrl Pts',(-7.09701022578666,25.3489922388903,21.4873931375474));
#1226=CARTESIAN_POINT('Ctrl Pts',(-7.30274919092668,24.9937659637422,21.7754757011702));
#1227=CARTESIAN_POINT('Ctrl Pts',(-7.3637106030623,24.7780802863044,21.9449313051825));
#1228=CARTESIAN_POINT('Ctrl Pts',(-7.37827409796384,24.3775594848568,22.2427669903151));
#1229=CARTESIAN_POINT('Ctrl Pts',(-7.34817286535067,24.1914808604858,22.3747848282609));
#1230=CARTESIAN_POINT('Ctrl Pts',(-7.22025627262378,23.8683336195885,22.5921897056262));
#1231=CARTESIAN_POINT('Ctrl Pts',(-7.13609281441397,23.7293491005722,22.6811889057019));
#1232=CARTESIAN_POINT('Ctrl Pts',(-6.91353037689738,23.4828859664839,22.8330057375786));
#1233=CARTESIAN_POINT('Ctrl Pts',(-6.77765348999134,23.3778403739571,22.894476342224));
#1234=CARTESIAN_POINT('Ctrl Pts',(-6.50343788769091,23.2423315857884,22.9721258975605));
#1235=CARTESIAN_POINT('Ctrl Pts',(-6.37705018920308,23.2010781764589,22.9951121085163));
#1236=CARTESIAN_POINT('Ctrl Pts',(-6.12729530321014,23.1592940172491,23.0183494675822));
#1237=CARTESIAN_POINT('Ctrl Pts',(-6.00718636520376,23.1553491526047,23.0205141704413));
#1238=CARTESIAN_POINT('Ctrl Pts',(-5.76193448593796,23.1798449717977,23.0069315106914));
#1239=CARTESIAN_POINT('Ctrl Pts',(-5.63936942793451,23.2101238038666,22.9901606857365));
#1240=CARTESIAN_POINT('Ctrl Pts',(-5.37874501882014,23.3136697624061,22.9314678737403));
#1241=CARTESIAN_POINT('Ctrl Pts',(-5.24849535242758,23.3945933023013,22.8849187814303));
#1242=CARTESIAN_POINT('Ctrl Pts',(-4.99450336340125,23.6154850708929,22.7523965379114));
#1243=CARTESIAN_POINT('Ctrl Pts',(-4.88568080776564,23.7620229593628,22.6610406411828));
#1244=CARTESIAN_POINT('Ctrl Pts',(-4.71616707542532,24.1092397294471,22.4319937896066));
#1245=CARTESIAN_POINT('Ctrl Pts',(-4.67254687204652,24.3122428147914,22.2900044542708));
#1246=CARTESIAN_POINT('Ctrl Pts',(-4.67254687204652,24.5105320737944,22.1437393259194));
#1247=CARTESIAN_POINT('Origin',(-2.02254687204652,30.0105320737944,29.6));
#1248=CARTESIAN_POINT('',(-2.02254687204652,24.5105320737944,29.6));
#1249=CARTESIAN_POINT('',(-2.02254687204652,30.0105320737944,29.6));
#1250=CARTESIAN_POINT('',(-2.02254687204652,19.0105320737944,29.6));
#1251=CARTESIAN_POINT('',(-2.02254687204652,30.0105320737944,24.1));
#1252=CARTESIAN_POINT('Origin',(-2.02254687204652,30.0105320737944,29.6));
#1253=CARTESIAN_POINT('',(-2.02254687204652,30.0105320737944,18.6));
#1254=CARTESIAN_POINT('Origin',(-10.0225468720465,24.5105320737944,29.6));
#1255=CARTESIAN_POINT('',(-10.0225468720465,30.0105320737944,29.6));
#1256=CARTESIAN_POINT('',(-10.0225468720465,24.5105320737944,29.6));
#1257=CARTESIAN_POINT('',(-10.0225468720465,30.0105320737944,29.6));
#1258=CARTESIAN_POINT('',(-10.0225468720465,30.0105320737944,24.1));
#1259=CARTESIAN_POINT('',(-10.0225468720465,30.0105320737944,29.6));
#1260=CARTESIAN_POINT('Origin',(-10.0225468720465,30.0105320737944,29.6));
#1261=CARTESIAN_POINT('Origin',(-6.02254687204652,30.0105320737944,29.6));
#1262=CARTESIAN_POINT('Origin',(-6.02254687204652,24.5105320737944,29.6));
#1263=CARTESIAN_POINT('Origin',(-6.02254687204652,30.0105320737944,24.1));
#1264=CARTESIAN_POINT('Origin',(-6.02254687204652,25.2605320737944,29.6));
#1265=CARTESIAN_POINT('',(-2.02254687204652,30.0105320737944,29.6));
#1266=CARTESIAN_POINT('Origin',(-6.02254687204652,30.0105320737944,24.85));
#1267=UNCERTAINTY_MEASURE_WITH_UNIT(LENGTH_MEASURE(0.01),#1271,
'DISTANCE_ACCURACY_VALUE',
'Maximum model space distance between geometric entities at asserted c
onnectivities');
#1268=UNCERTAINTY_MEASURE_WITH_UNIT(LENGTH_MEASURE(0.01),#1271,
'DISTANCE_ACCURACY_VALUE',
'Maximum model space distance between geometric entities at asserted c
onnectivities');
#1269=(
GEOMETRIC_REPRESENTATION_CONTEXT(3)
GLOBAL_UNCERTAINTY_ASSIGNED_CONTEXT((#1267))
GLOBAL_UNIT_ASSIGNED_CONTEXT((#1271,#1272,#1273))
REPRESENTATION_CONTEXT('','3D')
);
#1270=(
GEOMETRIC_REPRESENTATION_CONTEXT(3)
GLOBAL_UNCERTAINTY_ASSIGNED_CONTEXT((#1268))
GLOBAL_UNIT_ASSIGNED_CONTEXT((#1271,#1272,#1273))
REPRESENTATION_CONTEXT('','3D')
);
#1271=(
LENGTH_UNIT()
NAMED_UNIT(*)
SI_UNIT(.MILLI.,.METRE.)
);
#1272=(
NAMED_UNIT(*)
PLANE_ANGLE_UNIT()
SI_UNIT($,.RADIAN.)
);
#1273=(
NAMED_UNIT(*)
SI_UNIT($,.STERADIAN.)
SOLID_ANGLE_UNIT()
);
#1274=SHAPE_DEFINITION_REPRESENTATION(#1275,#1276);
#1275=PRODUCT_DEFINITION_SHAPE('',$,#1278);
#1276=SHAPE_REPRESENTATION('',(#745),#1269);
#1277=PRODUCT_DEFINITION_CONTEXT('part definition',#1282,'design');
#1278=PRODUCT_DEFINITION('2026-04-25-16-50-51-668','garageguard',#1279,
#1277);
#1279=PRODUCT_DEFINITION_FORMATION('',$,#1284);
#1280=PRODUCT_RELATED_PRODUCT_CATEGORY('garageguard','garageguard',(#1284));
#1281=APPLICATION_PROTOCOL_DEFINITION('international standard',
'automotive_design',2009,#1282);
#1282=APPLICATION_CONTEXT(
'Core Data for Automotive Mechanical Design Process');
#1283=PRODUCT_CONTEXT('part definition',#1282,'mechanical');
#1284=PRODUCT('2026-04-25-16-50-51-668','garageguard',$,(#1283));
#1285=PRESENTATION_STYLE_ASSIGNMENT((#1286));
#1286=SURFACE_STYLE_USAGE(.BOTH.,#1287);
#1287=SURFACE_SIDE_STYLE('',(#1288));
#1288=SURFACE_STYLE_FILL_AREA(#1289);
#1289=FILL_AREA_STYLE('Steel - Satin',(#1290));
#1290=FILL_AREA_STYLE_COLOUR('Steel - Satin',#1291);
#1291=COLOUR_RGB('Steel - Satin',0.627450980392157,0.627450980392157,0.627450980392157);
ENDSEC;
END-ISO-10303-21;
