ISO-10303-21;
HEADER;
/* Generated by software containing ST-Developer
 * from STEP Tools, Inc. (www.steptools.com) 
 */

FILE_DESCRIPTION(
/* description */ (''),
/* implementation_level */ '2;1');

FILE_NAME(
/* name */ 'thermobuzzer_case.step',
/* time_stamp */ '2026-06-16T10:23:33-04:00',
/* author */ (''),
/* organization */ (''),
/* preprocessor_version */ 'ST-DEVELOPER v20.1',
/* originating_system */ 'Autodesk Translation Framework v15.8.0.0',
/* authorisation */ '');

FILE_SCHEMA (('AUTOMOTIVE_DESIGN { 1 0 10303 214 3 1 1 }'));
ENDSEC;

DATA;
#10=MECHANICAL_DESIGN_GEOMETRIC_PRESENTATION_REPRESENTATION('',(#14,#15),
#1758);
#11=SHAPE_REPRESENTATION_RELATIONSHIP('SRR','None',#1764,#12);
#12=ADVANCED_BREP_SHAPE_REPRESENTATION('',(#16,#17),#1757);
#13=B_SPLINE_CURVE_WITH_KNOTS('',3,(#1697,#1698,#1699,#1700,#1701,#1702,
#1703,#1704,#1705,#1706,#1707,#1708,#1709,#1710,#1711,#1712,#1713,#1714,
#1715,#1716,#1717,#1718,#1719,#1720,#1721,#1722,#1723,#1724,#1725,#1726,
#1727,#1728,#1729,#1730,#1731,#1732,#1733,#1734),.UNSPECIFIED.,.T.,.F.,
(4,2,2,2,2,2,2,2,2,2,2,2,2,2,2,2,2,2,4),(-0.947195252628489,-0.883941558593164,
-0.820958558044134,-0.762800116224557,-0.724531944332981,-0.6927071658484,
-0.658040858927726,-0.610514726481324,-0.544902630219351,-0.466519141930802,
-0.401217232103651,-0.347853245596043,-0.294801213145765,-0.25520505779075,
-0.21973608419939,-0.181988876230191,-0.134395846065319,-0.0739194874217009,
0.),.UNSPECIFIED.);
#14=STYLED_ITEM('',(#1774),#16);
#15=STYLED_ITEM('',(#1774),#17);
#16=MANIFOLD_SOLID_BREP('Case',#1009);
#17=MANIFOLD_SOLID_BREP('connection2',#1010);
#18=FACE_BOUND('',#148,.T.);
#19=FACE_BOUND('',#149,.T.);
#20=FACE_BOUND('',#150,.T.);
#21=FACE_BOUND('',#151,.T.);
#22=FACE_BOUND('',#152,.T.);
#23=FACE_BOUND('',#162,.T.);
#24=FACE_BOUND('',#168,.T.);
#25=FACE_BOUND('',#169,.T.);
#26=FACE_BOUND('',#172,.T.);
#27=FACE_BOUND('',#173,.T.);
#28=FACE_BOUND('',#178,.T.);
#29=FACE_BOUND('',#180,.T.);
#30=FACE_BOUND('',#182,.T.);
#31=FACE_BOUND('',#184,.T.);
#32=FACE_BOUND('',#186,.T.);
#33=FACE_BOUND('',#201,.T.);
#34=FACE_BOUND('',#202,.T.);
#35=FACE_BOUND('',#203,.T.);
#36=FACE_BOUND('',#204,.T.);
#37=FACE_BOUND('',#205,.T.);
#38=FACE_BOUND('',#210,.T.);
#39=FACE_BOUND('',#212,.T.);
#40=PLANE('',#1037);
#41=PLANE('',#1038);
#42=PLANE('',#1041);
#43=PLANE('',#1042);
#44=PLANE('',#1052);
#45=PLANE('',#1061);
#46=PLANE('',#1062);
#47=PLANE('',#1063);
#48=PLANE('',#1064);
#49=PLANE('',#1065);
#50=PLANE('',#1066);
#51=PLANE('',#1067);
#52=PLANE('',#1068);
#53=PLANE('',#1069);
#54=PLANE('',#1070);
#55=PLANE('',#1071);
#56=PLANE('',#1072);
#57=PLANE('',#1073);
#58=PLANE('',#1074);
#59=PLANE('',#1077);
#60=PLANE('',#1080);
#61=PLANE('',#1083);
#62=PLANE('',#1086);
#63=PLANE('',#1089);
#64=PLANE('',#1090);
#65=PLANE('',#1091);
#66=PLANE('',#1107);
#67=PLANE('',#1110);
#68=PLANE('',#1112);
#69=PLANE('',#1117);
#70=PLANE('',#1118);
#71=TOROIDAL_SURFACE('',#1020,1.5,0.5);
#72=TOROIDAL_SURFACE('',#1026,1.5,0.5);
#73=TOROIDAL_SURFACE('',#1114,5.5,4.);
#74=(
BOUNDED_SURFACE()
B_SPLINE_SURFACE(2,2,((#1429,#1430,#1431),(#1432,#1433,#1434),(#1435,#1436,
#1437)),.UNSPECIFIED.,.F.,.F.,.F.)
B_SPLINE_SURFACE_WITH_KNOTS((3,3),(3,3),(-1.5707963267949,0.),(0.,1.5707963267949),
 .UNSPECIFIED.)
GEOMETRIC_REPRESENTATION_ITEM()
RATIONAL_B_SPLINE_SURFACE(((1.,0.707106781186547,1.),(0.707106781186554,
0.500000000000004,0.707106781186554),(1.,0.707106781186547,1.)))
REPRESENTATION_ITEM('')
SURFACE()
);
#75=(
BOUNDED_SURFACE()
B_SPLINE_SURFACE(2,2,((#1473,#1474,#1475),(#1476,#1477,#1478),(#1479,#1480,
#1481)),.UNSPECIFIED.,.F.,.F.,.F.)
B_SPLINE_SURFACE_WITH_KNOTS((3,3),(3,3),(-1.5707963267949,0.),(1.5707963267949,
3.14159265358979),.UNSPECIFIED.)
GEOMETRIC_REPRESENTATION_ITEM()
RATIONAL_B_SPLINE_SURFACE(((1.,0.707106781186548,1.),(0.707106781186554,
0.500000000000005,0.707106781186554),(1.,0.707106781186548,1.)))
REPRESENTATION_ITEM('')
SURFACE()
);
#76=FACE_OUTER_BOUND('',#134,.T.);
#77=FACE_OUTER_BOUND('',#135,.T.);
#78=FACE_OUTER_BOUND('',#136,.T.);
#79=FACE_OUTER_BOUND('',#137,.T.);
#80=FACE_OUTER_BOUND('',#138,.T.);
#81=FACE_OUTER_BOUND('',#139,.T.);
#82=FACE_OUTER_BOUND('',#140,.T.);
#83=FACE_OUTER_BOUND('',#141,.T.);
#84=FACE_OUTER_BOUND('',#142,.T.);
#85=FACE_OUTER_BOUND('',#143,.T.);
#86=FACE_OUTER_BOUND('',#144,.T.);
#87=FACE_OUTER_BOUND('',#145,.T.);
#88=FACE_OUTER_BOUND('',#146,.T.);
#89=FACE_OUTER_BOUND('',#147,.T.);
#90=FACE_OUTER_BOUND('',#153,.T.);
#91=FACE_OUTER_BOUND('',#154,.T.);
#92=FACE_OUTER_BOUND('',#155,.T.);
#93=FACE_OUTER_BOUND('',#156,.T.);
#94=FACE_OUTER_BOUND('',#157,.T.);
#95=FACE_OUTER_BOUND('',#158,.T.);
#96=FACE_OUTER_BOUND('',#159,.T.);
#97=FACE_OUTER_BOUND('',#160,.T.);
#98=FACE_OUTER_BOUND('',#161,.T.);
#99=FACE_OUTER_BOUND('',#163,.T.);
#100=FACE_OUTER_BOUND('',#164,.T.);
#101=FACE_OUTER_BOUND('',#165,.T.);
#102=FACE_OUTER_BOUND('',#166,.T.);
#103=FACE_OUTER_BOUND('',#167,.T.);
#104=FACE_OUTER_BOUND('',#170,.T.);
#105=FACE_OUTER_BOUND('',#171,.T.);
#106=FACE_OUTER_BOUND('',#174,.T.);
#107=FACE_OUTER_BOUND('',#175,.T.);
#108=FACE_OUTER_BOUND('',#176,.T.);
#109=FACE_OUTER_BOUND('',#177,.T.);
#110=FACE_OUTER_BOUND('',#179,.T.);
#111=FACE_OUTER_BOUND('',#181,.T.);
#112=FACE_OUTER_BOUND('',#183,.T.);
#113=FACE_OUTER_BOUND('',#185,.T.);
#114=FACE_OUTER_BOUND('',#187,.T.);
#115=FACE_OUTER_BOUND('',#188,.T.);
#116=FACE_OUTER_BOUND('',#189,.T.);
#117=FACE_OUTER_BOUND('',#190,.T.);
#118=FACE_OUTER_BOUND('',#191,.T.);
#119=FACE_OUTER_BOUND('',#192,.T.);
#120=FACE_OUTER_BOUND('',#193,.T.);
#121=FACE_OUTER_BOUND('',#194,.T.);
#122=FACE_OUTER_BOUND('',#195,.T.);
#123=FACE_OUTER_BOUND('',#196,.T.);
#124=FACE_OUTER_BOUND('',#197,.T.);
#125=FACE_OUTER_BOUND('',#198,.T.);
#126=FACE_OUTER_BOUND('',#199,.T.);
#127=FACE_OUTER_BOUND('',#200,.T.);
#128=FACE_OUTER_BOUND('',#206,.T.);
#129=FACE_OUTER_BOUND('',#207,.T.);
#130=FACE_OUTER_BOUND('',#208,.T.);
#131=FACE_OUTER_BOUND('',#209,.T.);
#132=FACE_OUTER_BOUND('',#211,.T.);
#133=FACE_OUTER_BOUND('',#213,.T.);
#134=EDGE_LOOP('',(#657,#658,#659,#660));
#135=EDGE_LOOP('',(#661,#662,#663,#664));
#136=EDGE_LOOP('',(#665,#666,#667,#668));
#137=EDGE_LOOP('',(#669,#670,#671,#672));
#138=EDGE_LOOP('',(#673,#674,#675,#676));
#139=EDGE_LOOP('',(#677,#678,#679,#680));
#140=EDGE_LOOP('',(#681,#682,#683,#684));
#141=EDGE_LOOP('',(#685,#686,#687,#688));
#142=EDGE_LOOP('',(#689,#690,#691,#692));
#143=EDGE_LOOP('',(#693,#694,#695,#696,#697,#698,#699,#700,#701,#702,#703,
#704,#705,#706,#707));
#144=EDGE_LOOP('',(#708,#709,#710,#711,#712));
#145=EDGE_LOOP('',(#713,#714,#715,#716));
#146=EDGE_LOOP('',(#717,#718,#719,#720));
#147=EDGE_LOOP('',(#721,#722,#723,#724,#725,#726,#727,#728));
#148=EDGE_LOOP('',(#729));
#149=EDGE_LOOP('',(#730));
#150=EDGE_LOOP('',(#731));
#151=EDGE_LOOP('',(#732));
#152=EDGE_LOOP('',(#733));
#153=EDGE_LOOP('',(#734,#735,#736,#737));
#154=EDGE_LOOP('',(#738,#739,#740,#741));
#155=EDGE_LOOP('',(#742,#743,#744,#745));
#156=EDGE_LOOP('',(#746,#747,#748,#749));
#157=EDGE_LOOP('',(#750,#751,#752,#753));
#158=EDGE_LOOP('',(#754,#755,#756,#757));
#159=EDGE_LOOP('',(#758,#759,#760,#761));
#160=EDGE_LOOP('',(#762,#763,#764,#765));
#161=EDGE_LOOP('',(#766,#767,#768,#769));
#162=EDGE_LOOP('',(#770,#771,#772,#773));
#163=EDGE_LOOP('',(#774,#775,#776,#777));
#164=EDGE_LOOP('',(#778,#779,#780,#781,#782,#783,#784));
#165=EDGE_LOOP('',(#785,#786,#787,#788,#789));
#166=EDGE_LOOP('',(#790,#791,#792,#793,#794,#795,#796,#797));
#167=EDGE_LOOP('',(#798,#799,#800,#801,#802,#803,#804,#805,#806,#807,#808,
#809));
#168=EDGE_LOOP('',(#810));
#169=EDGE_LOOP('',(#811));
#170=EDGE_LOOP('',(#812,#813,#814,#815));
#171=EDGE_LOOP('',(#816,#817,#818,#819));
#172=EDGE_LOOP('',(#820));
#173=EDGE_LOOP('',(#821));
#174=EDGE_LOOP('',(#822,#823,#824,#825));
#175=EDGE_LOOP('',(#826,#827,#828,#829));
#176=EDGE_LOOP('',(#830,#831,#832,#833));
#177=EDGE_LOOP('',(#834));
#178=EDGE_LOOP('',(#835));
#179=EDGE_LOOP('',(#836));
#180=EDGE_LOOP('',(#837));
#181=EDGE_LOOP('',(#838));
#182=EDGE_LOOP('',(#839));
#183=EDGE_LOOP('',(#840));
#184=EDGE_LOOP('',(#841));
#185=EDGE_LOOP('',(#842));
#186=EDGE_LOOP('',(#843));
#187=EDGE_LOOP('',(#844,#845,#846,#847));
#188=EDGE_LOOP('',(#848,#849,#850,#851));
#189=EDGE_LOOP('',(#852,#853,#854,#855));
#190=EDGE_LOOP('',(#856,#857,#858,#859));
#191=EDGE_LOOP('',(#860,#861,#862,#863));
#192=EDGE_LOOP('',(#864,#865,#866,#867));
#193=EDGE_LOOP('',(#868,#869,#870,#871));
#194=EDGE_LOOP('',(#872,#873,#874,#875));
#195=EDGE_LOOP('',(#876,#877,#878,#879));
#196=EDGE_LOOP('',(#880,#881,#882,#883));
#197=EDGE_LOOP('',(#884,#885,#886,#887));
#198=EDGE_LOOP('',(#888,#889,#890,#891));
#199=EDGE_LOOP('',(#892,#893,#894,#895));
#200=EDGE_LOOP('',(#896,#897,#898,#899));
#201=EDGE_LOOP('',(#900));
#202=EDGE_LOOP('',(#901));
#203=EDGE_LOOP('',(#902));
#204=EDGE_LOOP('',(#903));
#205=EDGE_LOOP('',(#904));
#206=EDGE_LOOP('',(#905,#906,#907,#908));
#207=EDGE_LOOP('',(#909,#910,#911));
#208=EDGE_LOOP('',(#912,#913,#914));
#209=EDGE_LOOP('',(#915,#916,#917,#918));
#210=EDGE_LOOP('',(#919));
#211=EDGE_LOOP('',(#920,#921,#922,#923));
#212=EDGE_LOOP('',(#924));
#213=EDGE_LOOP('',(#925,#926,#927,#928));
#214=LINE('',#1425,#298);
#215=LINE('',#1428,#299);
#216=LINE('',#1447,#300);
#217=LINE('',#1448,#301);
#218=LINE('',#1459,#302);
#219=LINE('',#1460,#303);
#220=LINE('',#1471,#304);
#221=LINE('',#1472,#305);
#222=LINE('',#1491,#306);
#223=LINE('',#1492,#307);
#224=LINE('',#1496,#308);
#225=LINE('',#1498,#309);
#226=LINE('',#1500,#310);
#227=LINE('',#1501,#311);
#228=LINE('',#1503,#312);
#229=LINE('',#1504,#313);
#230=LINE('',#1507,#314);
#231=LINE('',#1509,#315);
#232=LINE('',#1510,#316);
#233=LINE('',#1513,#317);
#234=LINE('',#1516,#318);
#235=LINE('',#1519,#319);
#236=LINE('',#1520,#320);
#237=LINE('',#1523,#321);
#238=LINE('',#1527,#322);
#239=LINE('',#1531,#323);
#240=LINE('',#1544,#324);
#241=LINE('',#1545,#325);
#242=LINE('',#1547,#326);
#243=LINE('',#1549,#327);
#244=LINE('',#1551,#328);
#245=LINE('',#1556,#329);
#246=LINE('',#1562,#330);
#247=LINE('',#1566,#331);
#248=LINE('',#1568,#332);
#249=LINE('',#1569,#333);
#250=LINE('',#1572,#334);
#251=LINE('',#1574,#335);
#252=LINE('',#1575,#336);
#253=LINE('',#1578,#337);
#254=LINE('',#1580,#338);
#255=LINE('',#1581,#339);
#256=LINE('',#1584,#340);
#257=LINE('',#1586,#341);
#258=LINE('',#1588,#342);
#259=LINE('',#1589,#343);
#260=LINE('',#1592,#344);
#261=LINE('',#1594,#345);
#262=LINE('',#1595,#346);
#263=LINE('',#1598,#347);
#264=LINE('',#1600,#348);
#265=LINE('',#1602,#349);
#266=LINE('',#1604,#350);
#267=LINE('',#1606,#351);
#268=LINE('',#1607,#352);
#269=LINE('',#1609,#353);
#270=LINE('',#1610,#354);
#271=LINE('',#1612,#355);
#272=LINE('',#1615,#356);
#273=LINE('',#1618,#357);
#274=LINE('',#1620,#358);
#275=LINE('',#1621,#359);
#276=LINE('',#1623,#360);
#277=LINE('',#1626,#361);
#278=LINE('',#1627,#362);
#279=LINE('',#1656,#363);
#280=LINE('',#1657,#364);
#281=LINE('',#1659,#365);
#282=LINE('',#1663,#366);
#283=LINE('',#1666,#367);
#284=LINE('',#1669,#368);
#285=LINE('',#1672,#369);
#286=LINE('',#1675,#370);
#287=LINE('',#1678,#371);
#288=LINE('',#1681,#372);
#289=LINE('',#1684,#373);
#290=LINE('',#1687,#374);
#291=LINE('',#1690,#375);
#292=LINE('',#1696,#376);
#293=LINE('',#1738,#377);
#294=LINE('',#1741,#378);
#295=LINE('',#1745,#379);
#296=LINE('',#1747,#380);
#297=LINE('',#1753,#381);
#298=VECTOR('',#1125,10.);
#299=VECTOR('',#1128,10.);
#300=VECTOR('',#1139,10.);
#301=VECTOR('',#1140,10.);
#302=VECTOR('',#1153,10.);
#303=VECTOR('',#1154,10.);
#304=VECTOR('',#1167,10.);
#305=VECTOR('',#1168,10.);
#306=VECTOR('',#1179,10.);
#307=VECTOR('',#1180,10.);
#308=VECTOR('',#1183,10.);
#309=VECTOR('',#1184,10.);
#310=VECTOR('',#1185,10.);
#311=VECTOR('',#1186,10.);
#312=VECTOR('',#1187,10.);
#313=VECTOR('',#1188,10.);
#314=VECTOR('',#1191,10.);
#315=VECTOR('',#1192,10.);
#316=VECTOR('',#1193,10.);
#317=VECTOR('',#1196,10.);
#318=VECTOR('',#1199,10.);
#319=VECTOR('',#1202,10.);
#320=VECTOR('',#1203,10.);
#321=VECTOR('',#1206,10.);
#322=VECTOR('',#1209,10.);
#323=VECTOR('',#1212,10.);
#324=VECTOR('',#1227,10.);
#325=VECTOR('',#1228,10.);
#326=VECTOR('',#1231,10.);
#327=VECTOR('',#1234,10.);
#328=VECTOR('',#1237,10.);
#329=VECTOR('',#1242,9.);
#330=VECTOR('',#1249,9.);
#331=VECTOR('',#1254,10.);
#332=VECTOR('',#1255,10.);
#333=VECTOR('',#1256,10.);
#334=VECTOR('',#1259,10.);
#335=VECTOR('',#1260,10.);
#336=VECTOR('',#1261,10.);
#337=VECTOR('',#1264,10.);
#338=VECTOR('',#1265,10.);
#339=VECTOR('',#1266,10.);
#340=VECTOR('',#1267,10.);
#341=VECTOR('',#1268,10.);
#342=VECTOR('',#1269,10.);
#343=VECTOR('',#1270,10.);
#344=VECTOR('',#1273,10.);
#345=VECTOR('',#1274,10.);
#346=VECTOR('',#1275,10.);
#347=VECTOR('',#1278,10.);
#348=VECTOR('',#1279,10.);
#349=VECTOR('',#1280,10.);
#350=VECTOR('',#1281,10.);
#351=VECTOR('',#1282,10.);
#352=VECTOR('',#1283,10.);
#353=VECTOR('',#1286,10.);
#354=VECTOR('',#1287,10.);
#355=VECTOR('',#1290,10.);
#356=VECTOR('',#1295,10.);
#357=VECTOR('',#1298,10.);
#358=VECTOR('',#1299,10.);
#359=VECTOR('',#1300,10.);
#360=VECTOR('',#1303,10.);
#361=VECTOR('',#1306,10.);
#362=VECTOR('',#1307,10.);
#363=VECTOR('',#1342,10.);
#364=VECTOR('',#1343,10.);
#365=VECTOR('',#1346,10.);
#366=VECTOR('',#1351,4.);
#367=VECTOR('',#1356,1.35);
#368=VECTOR('',#1359,4.);
#369=VECTOR('',#1364,1.35);
#370=VECTOR('',#1367,4.);
#371=VECTOR('',#1372,1.35);
#372=VECTOR('',#1375,4.);
#373=VECTOR('',#1380,1.35);
#374=VECTOR('',#1383,4.);
#375=VECTOR('',#1388,1.35);
#376=VECTOR('',#1395,1.35);
#377=VECTOR('',#1398,10.);
#378=VECTOR('',#1401,10.);
#379=VECTOR('',#1404,10.);
#380=VECTOR('',#1405,10.);
#381=VECTOR('',#1416,10.);
#382=CIRCLE('',#1013,0.5);
#383=CIRCLE('',#1014,0.499999999999998);
#384=CIRCLE('',#1015,0.500000000000003);
#385=CIRCLE('',#1016,0.5);
#386=CIRCLE('',#1017,1.);
#387=CIRCLE('',#1019,0.499999999999998);
#388=CIRCLE('',#1021,0.499999999999998);
#389=CIRCLE('',#1022,1.5);
#390=CIRCLE('',#1023,2.);
#391=CIRCLE('',#1025,0.499999999999998);
#392=CIRCLE('',#1027,0.499999999999998);
#393=CIRCLE('',#1028,1.5);
#394=CIRCLE('',#1029,2.);
#395=CIRCLE('',#1031,0.499999999999998);
#396=CIRCLE('',#1032,0.499999999999994);
#397=CIRCLE('',#1033,0.5);
#398=CIRCLE('',#1034,1.);
#399=CIRCLE('',#1036,0.5);
#400=CIRCLE('',#1040,2.);
#401=CIRCLE('',#1043,2.);
#402=CIRCLE('',#1044,1.);
#403=CIRCLE('',#1045,1.);
#404=CIRCLE('',#1046,1.35);
#405=CIRCLE('',#1047,1.35);
#406=CIRCLE('',#1048,1.35);
#407=CIRCLE('',#1049,1.35);
#408=CIRCLE('',#1050,1.35);
#409=CIRCLE('',#1056,9.);
#410=CIRCLE('',#1057,9.);
#411=CIRCLE('',#1059,9.);
#412=CIRCLE('',#1060,9.);
#413=CIRCLE('',#1075,4.);
#414=CIRCLE('',#1076,1.35);
#415=CIRCLE('',#1078,4.);
#416=CIRCLE('',#1079,1.35);
#417=CIRCLE('',#1081,4.);
#418=CIRCLE('',#1082,1.35);
#419=CIRCLE('',#1084,4.);
#420=CIRCLE('',#1085,1.35);
#421=CIRCLE('',#1087,4.);
#422=CIRCLE('',#1088,1.35);
#423=CIRCLE('',#1093,4.);
#424=CIRCLE('',#1096,4.);
#425=CIRCLE('',#1099,4.);
#426=CIRCLE('',#1102,4.);
#427=CIRCLE('',#1105,4.);
#428=CIRCLE('',#1109,1.35);
#429=CIRCLE('',#1111,5.49999999999999);
#430=CIRCLE('',#1113,5.49999999999999);
#431=CIRCLE('',#1115,4.);
#432=CIRCLE('',#1116,4.);
#433=VERTEX_POINT('',#1421);
#434=VERTEX_POINT('',#1422);
#435=VERTEX_POINT('',#1424);
#436=VERTEX_POINT('',#1426);
#437=VERTEX_POINT('',#1438);
#438=VERTEX_POINT('',#1439);
#439=VERTEX_POINT('',#1444);
#440=VERTEX_POINT('',#1445);
#441=VERTEX_POINT('',#1450);
#442=VERTEX_POINT('',#1451);
#443=VERTEX_POINT('',#1456);
#444=VERTEX_POINT('',#1457);
#445=VERTEX_POINT('',#1462);
#446=VERTEX_POINT('',#1463);
#447=VERTEX_POINT('',#1468);
#448=VERTEX_POINT('',#1469);
#449=VERTEX_POINT('',#1482);
#450=VERTEX_POINT('',#1483);
#451=VERTEX_POINT('',#1488);
#452=VERTEX_POINT('',#1489);
#453=VERTEX_POINT('',#1494);
#454=VERTEX_POINT('',#1495);
#455=VERTEX_POINT('',#1497);
#456=VERTEX_POINT('',#1499);
#457=VERTEX_POINT('',#1502);
#458=VERTEX_POINT('',#1506);
#459=VERTEX_POINT('',#1508);
#460=VERTEX_POINT('',#1512);
#461=VERTEX_POINT('',#1514);
#462=VERTEX_POINT('',#1518);
#463=VERTEX_POINT('',#1522);
#464=VERTEX_POINT('',#1524);
#465=VERTEX_POINT('',#1526);
#466=VERTEX_POINT('',#1528);
#467=VERTEX_POINT('',#1530);
#468=VERTEX_POINT('',#1533);
#469=VERTEX_POINT('',#1535);
#470=VERTEX_POINT('',#1537);
#471=VERTEX_POINT('',#1539);
#472=VERTEX_POINT('',#1541);
#473=VERTEX_POINT('',#1553);
#474=VERTEX_POINT('',#1555);
#475=VERTEX_POINT('',#1559);
#476=VERTEX_POINT('',#1561);
#477=VERTEX_POINT('',#1565);
#478=VERTEX_POINT('',#1567);
#479=VERTEX_POINT('',#1571);
#480=VERTEX_POINT('',#1573);
#481=VERTEX_POINT('',#1577);
#482=VERTEX_POINT('',#1579);
#483=VERTEX_POINT('',#1582);
#484=VERTEX_POINT('',#1583);
#485=VERTEX_POINT('',#1585);
#486=VERTEX_POINT('',#1587);
#487=VERTEX_POINT('',#1591);
#488=VERTEX_POINT('',#1593);
#489=VERTEX_POINT('',#1597);
#490=VERTEX_POINT('',#1599);
#491=VERTEX_POINT('',#1601);
#492=VERTEX_POINT('',#1603);
#493=VERTEX_POINT('',#1605);
#494=VERTEX_POINT('',#1617);
#495=VERTEX_POINT('',#1619);
#496=VERTEX_POINT('',#1625);
#497=VERTEX_POINT('',#1630);
#498=VERTEX_POINT('',#1632);
#499=VERTEX_POINT('',#1635);
#500=VERTEX_POINT('',#1637);
#501=VERTEX_POINT('',#1640);
#502=VERTEX_POINT('',#1642);
#503=VERTEX_POINT('',#1645);
#504=VERTEX_POINT('',#1647);
#505=VERTEX_POINT('',#1650);
#506=VERTEX_POINT('',#1652);
#507=VERTEX_POINT('',#1655);
#508=VERTEX_POINT('',#1662);
#509=VERTEX_POINT('',#1668);
#510=VERTEX_POINT('',#1674);
#511=VERTEX_POINT('',#1680);
#512=VERTEX_POINT('',#1686);
#513=VERTEX_POINT('',#1693);
#514=VERTEX_POINT('',#1695);
#515=VERTEX_POINT('',#1736);
#516=VERTEX_POINT('',#1737);
#517=VERTEX_POINT('',#1739);
#518=VERTEX_POINT('',#1743);
#519=VERTEX_POINT('',#1744);
#520=VERTEX_POINT('',#1746);
#521=EDGE_CURVE('',#433,#434,#382,.T.);
#522=EDGE_CURVE('',#434,#435,#214,.T.);
#523=EDGE_CURVE('',#435,#436,#383,.T.);
#524=EDGE_CURVE('',#436,#433,#215,.T.);
#525=EDGE_CURVE('',#437,#438,#384,.T.);
#526=EDGE_CURVE('',#438,#436,#385,.T.);
#527=EDGE_CURVE('',#435,#437,#386,.T.);
#528=EDGE_CURVE('',#439,#440,#387,.T.);
#529=EDGE_CURVE('',#440,#438,#216,.T.);
#530=EDGE_CURVE('',#437,#439,#217,.T.);
#531=EDGE_CURVE('',#441,#442,#388,.T.);
#532=EDGE_CURVE('',#442,#440,#389,.T.);
#533=EDGE_CURVE('',#439,#441,#390,.T.);
#534=EDGE_CURVE('',#443,#444,#391,.T.);
#535=EDGE_CURVE('',#444,#442,#218,.T.);
#536=EDGE_CURVE('',#441,#443,#219,.T.);
#537=EDGE_CURVE('',#445,#446,#392,.T.);
#538=EDGE_CURVE('',#446,#444,#393,.T.);
#539=EDGE_CURVE('',#443,#445,#394,.T.);
#540=EDGE_CURVE('',#447,#448,#395,.T.);
#541=EDGE_CURVE('',#448,#446,#220,.T.);
#542=EDGE_CURVE('',#445,#447,#221,.T.);
#543=EDGE_CURVE('',#449,#450,#396,.T.);
#544=EDGE_CURVE('',#450,#448,#397,.T.);
#545=EDGE_CURVE('',#447,#449,#398,.T.);
#546=EDGE_CURVE('',#451,#452,#399,.T.);
#547=EDGE_CURVE('',#452,#450,#222,.T.);
#548=EDGE_CURVE('',#449,#451,#223,.T.);
#549=EDGE_CURVE('',#453,#454,#224,.T.);
#550=EDGE_CURVE('',#454,#455,#225,.T.);
#551=EDGE_CURVE('',#455,#456,#226,.T.);
#552=EDGE_CURVE('',#456,#433,#227,.T.);
#553=EDGE_CURVE('',#452,#457,#228,.T.);
#554=EDGE_CURVE('',#457,#453,#229,.T.);
#555=EDGE_CURVE('',#458,#451,#230,.T.);
#556=EDGE_CURVE('',#458,#459,#231,.T.);
#557=EDGE_CURVE('',#459,#457,#232,.T.);
#558=EDGE_CURVE('',#443,#460,#233,.T.);
#559=EDGE_CURVE('',#460,#461,#400,.T.);
#560=EDGE_CURVE('',#461,#445,#234,.T.);
#561=EDGE_CURVE('',#462,#461,#235,.T.);
#562=EDGE_CURVE('',#447,#462,#236,.T.);
#563=EDGE_CURVE('',#460,#463,#237,.T.);
#564=EDGE_CURVE('',#464,#463,#401,.T.);
#565=EDGE_CURVE('',#464,#465,#238,.T.);
#566=EDGE_CURVE('',#466,#465,#402,.T.);
#567=EDGE_CURVE('',#466,#467,#239,.T.);
#568=EDGE_CURVE('',#462,#467,#403,.T.);
#569=EDGE_CURVE('',#468,#468,#404,.T.);
#570=EDGE_CURVE('',#469,#469,#405,.T.);
#571=EDGE_CURVE('',#470,#470,#406,.T.);
#572=EDGE_CURVE('',#471,#471,#407,.T.);
#573=EDGE_CURVE('',#472,#472,#408,.T.);
#574=EDGE_CURVE('',#439,#464,#240,.T.);
#575=EDGE_CURVE('',#463,#441,#241,.T.);
#576=EDGE_CURVE('',#465,#437,#242,.T.);
#577=EDGE_CURVE('',#435,#466,#243,.T.);
#578=EDGE_CURVE('',#467,#449,#244,.T.);
#579=EDGE_CURVE('',#473,#473,#409,.T.);
#580=EDGE_CURVE('',#473,#474,#245,.T.);
#581=EDGE_CURVE('',#474,#474,#410,.T.);
#582=EDGE_CURVE('',#475,#475,#411,.T.);
#583=EDGE_CURVE('',#475,#476,#246,.T.);
#584=EDGE_CURVE('',#476,#476,#412,.T.);
#585=EDGE_CURVE('',#477,#458,#247,.T.);
#586=EDGE_CURVE('',#477,#478,#248,.T.);
#587=EDGE_CURVE('',#478,#459,#249,.T.);
#588=EDGE_CURVE('',#479,#477,#250,.T.);
#589=EDGE_CURVE('',#479,#480,#251,.T.);
#590=EDGE_CURVE('',#480,#478,#252,.T.);
#591=EDGE_CURVE('',#481,#479,#253,.T.);
#592=EDGE_CURVE('',#481,#482,#254,.T.);
#593=EDGE_CURVE('',#482,#480,#255,.T.);
#594=EDGE_CURVE('',#483,#484,#256,.T.);
#595=EDGE_CURVE('',#485,#483,#257,.T.);
#596=EDGE_CURVE('',#486,#485,#258,.T.);
#597=EDGE_CURVE('',#484,#486,#259,.T.);
#598=EDGE_CURVE('',#487,#481,#260,.T.);
#599=EDGE_CURVE('',#487,#488,#261,.T.);
#600=EDGE_CURVE('',#488,#482,#262,.T.);
#601=EDGE_CURVE('',#489,#488,#263,.T.);
#602=EDGE_CURVE('',#490,#487,#264,.T.);
#603=EDGE_CURVE('',#490,#491,#265,.T.);
#604=EDGE_CURVE('',#492,#491,#266,.T.);
#605=EDGE_CURVE('',#493,#492,#267,.T.);
#606=EDGE_CURVE('',#489,#493,#268,.T.);
#607=EDGE_CURVE('',#491,#456,#269,.T.);
#608=EDGE_CURVE('',#434,#490,#270,.T.);
#609=EDGE_CURVE('',#453,#489,#271,.T.);
#610=EDGE_CURVE('',#492,#455,#272,.T.);
#611=EDGE_CURVE('',#494,#485,#273,.T.);
#612=EDGE_CURVE('',#495,#494,#274,.T.);
#613=EDGE_CURVE('',#495,#486,#275,.T.);
#614=EDGE_CURVE('',#493,#454,#276,.T.);
#615=EDGE_CURVE('',#496,#483,#277,.T.);
#616=EDGE_CURVE('',#494,#496,#278,.T.);
#617=EDGE_CURVE('',#497,#497,#413,.T.);
#618=EDGE_CURVE('',#498,#498,#414,.T.);
#619=EDGE_CURVE('',#499,#499,#415,.T.);
#620=EDGE_CURVE('',#500,#500,#416,.T.);
#621=EDGE_CURVE('',#501,#501,#417,.T.);
#622=EDGE_CURVE('',#502,#502,#418,.T.);
#623=EDGE_CURVE('',#503,#503,#419,.T.);
#624=EDGE_CURVE('',#504,#504,#420,.T.);
#625=EDGE_CURVE('',#505,#505,#421,.T.);
#626=EDGE_CURVE('',#506,#506,#422,.T.);
#627=EDGE_CURVE('',#507,#484,#279,.T.);
#628=EDGE_CURVE('',#496,#507,#280,.T.);
#629=EDGE_CURVE('',#507,#495,#281,.T.);
#630=EDGE_CURVE('',#501,#508,#282,.T.);
#631=EDGE_CURVE('',#508,#508,#423,.T.);
#632=EDGE_CURVE('',#502,#468,#283,.T.);
#633=EDGE_CURVE('',#505,#509,#284,.T.);
#634=EDGE_CURVE('',#509,#509,#424,.T.);
#635=EDGE_CURVE('',#506,#469,#285,.T.);
#636=EDGE_CURVE('',#499,#510,#286,.T.);
#637=EDGE_CURVE('',#510,#510,#425,.T.);
#638=EDGE_CURVE('',#500,#470,#287,.T.);
#639=EDGE_CURVE('',#503,#511,#288,.T.);
#640=EDGE_CURVE('',#511,#511,#426,.T.);
#641=EDGE_CURVE('',#504,#471,#289,.T.);
#642=EDGE_CURVE('',#497,#512,#290,.T.);
#643=EDGE_CURVE('',#512,#512,#427,.T.);
#644=EDGE_CURVE('',#498,#472,#291,.T.);
#645=EDGE_CURVE('',#513,#513,#428,.T.);
#646=EDGE_CURVE('',#513,#514,#292,.T.);
#647=EDGE_CURVE('',#514,#514,#13,.T.);
#648=EDGE_CURVE('',#515,#516,#293,.T.);
#649=EDGE_CURVE('',#515,#517,#429,.T.);
#650=EDGE_CURVE('',#516,#517,#294,.T.);
#651=EDGE_CURVE('',#518,#519,#295,.T.);
#652=EDGE_CURVE('',#520,#518,#296,.T.);
#653=EDGE_CURVE('',#519,#520,#430,.T.);
#654=EDGE_CURVE('',#519,#515,#431,.T.);
#655=EDGE_CURVE('',#517,#520,#432,.T.);
#656=EDGE_CURVE('',#516,#518,#297,.T.);
#657=ORIENTED_EDGE('',*,*,#521,.T.);
#658=ORIENTED_EDGE('',*,*,#522,.T.);
#659=ORIENTED_EDGE('',*,*,#523,.T.);
#660=ORIENTED_EDGE('',*,*,#524,.T.);
#661=ORIENTED_EDGE('',*,*,#525,.T.);
#662=ORIENTED_EDGE('',*,*,#526,.T.);
#663=ORIENTED_EDGE('',*,*,#523,.F.);
#664=ORIENTED_EDGE('',*,*,#527,.T.);
#665=ORIENTED_EDGE('',*,*,#528,.T.);
#666=ORIENTED_EDGE('',*,*,#529,.T.);
#667=ORIENTED_EDGE('',*,*,#525,.F.);
#668=ORIENTED_EDGE('',*,*,#530,.T.);
#669=ORIENTED_EDGE('',*,*,#531,.T.);
#670=ORIENTED_EDGE('',*,*,#532,.T.);
#671=ORIENTED_EDGE('',*,*,#528,.F.);
#672=ORIENTED_EDGE('',*,*,#533,.T.);
#673=ORIENTED_EDGE('',*,*,#534,.T.);
#674=ORIENTED_EDGE('',*,*,#535,.T.);
#675=ORIENTED_EDGE('',*,*,#531,.F.);
#676=ORIENTED_EDGE('',*,*,#536,.T.);
#677=ORIENTED_EDGE('',*,*,#537,.T.);
#678=ORIENTED_EDGE('',*,*,#538,.T.);
#679=ORIENTED_EDGE('',*,*,#534,.F.);
#680=ORIENTED_EDGE('',*,*,#539,.T.);
#681=ORIENTED_EDGE('',*,*,#540,.T.);
#682=ORIENTED_EDGE('',*,*,#541,.T.);
#683=ORIENTED_EDGE('',*,*,#537,.F.);
#684=ORIENTED_EDGE('',*,*,#542,.T.);
#685=ORIENTED_EDGE('',*,*,#543,.T.);
#686=ORIENTED_EDGE('',*,*,#544,.T.);
#687=ORIENTED_EDGE('',*,*,#540,.F.);
#688=ORIENTED_EDGE('',*,*,#545,.T.);
#689=ORIENTED_EDGE('',*,*,#546,.T.);
#690=ORIENTED_EDGE('',*,*,#547,.T.);
#691=ORIENTED_EDGE('',*,*,#543,.F.);
#692=ORIENTED_EDGE('',*,*,#548,.T.);
#693=ORIENTED_EDGE('',*,*,#549,.T.);
#694=ORIENTED_EDGE('',*,*,#550,.T.);
#695=ORIENTED_EDGE('',*,*,#551,.T.);
#696=ORIENTED_EDGE('',*,*,#552,.T.);
#697=ORIENTED_EDGE('',*,*,#524,.F.);
#698=ORIENTED_EDGE('',*,*,#526,.F.);
#699=ORIENTED_EDGE('',*,*,#529,.F.);
#700=ORIENTED_EDGE('',*,*,#532,.F.);
#701=ORIENTED_EDGE('',*,*,#535,.F.);
#702=ORIENTED_EDGE('',*,*,#538,.F.);
#703=ORIENTED_EDGE('',*,*,#541,.F.);
#704=ORIENTED_EDGE('',*,*,#544,.F.);
#705=ORIENTED_EDGE('',*,*,#547,.F.);
#706=ORIENTED_EDGE('',*,*,#553,.T.);
#707=ORIENTED_EDGE('',*,*,#554,.T.);
#708=ORIENTED_EDGE('',*,*,#546,.F.);
#709=ORIENTED_EDGE('',*,*,#555,.F.);
#710=ORIENTED_EDGE('',*,*,#556,.T.);
#711=ORIENTED_EDGE('',*,*,#557,.T.);
#712=ORIENTED_EDGE('',*,*,#553,.F.);
#713=ORIENTED_EDGE('',*,*,#539,.F.);
#714=ORIENTED_EDGE('',*,*,#558,.T.);
#715=ORIENTED_EDGE('',*,*,#559,.T.);
#716=ORIENTED_EDGE('',*,*,#560,.T.);
#717=ORIENTED_EDGE('',*,*,#542,.F.);
#718=ORIENTED_EDGE('',*,*,#560,.F.);
#719=ORIENTED_EDGE('',*,*,#561,.F.);
#720=ORIENTED_EDGE('',*,*,#562,.F.);
#721=ORIENTED_EDGE('',*,*,#559,.F.);
#722=ORIENTED_EDGE('',*,*,#563,.T.);
#723=ORIENTED_EDGE('',*,*,#564,.F.);
#724=ORIENTED_EDGE('',*,*,#565,.T.);
#725=ORIENTED_EDGE('',*,*,#566,.F.);
#726=ORIENTED_EDGE('',*,*,#567,.T.);
#727=ORIENTED_EDGE('',*,*,#568,.F.);
#728=ORIENTED_EDGE('',*,*,#561,.T.);
#729=ORIENTED_EDGE('',*,*,#569,.F.);
#730=ORIENTED_EDGE('',*,*,#570,.F.);
#731=ORIENTED_EDGE('',*,*,#571,.F.);
#732=ORIENTED_EDGE('',*,*,#572,.F.);
#733=ORIENTED_EDGE('',*,*,#573,.F.);
#734=ORIENTED_EDGE('',*,*,#533,.F.);
#735=ORIENTED_EDGE('',*,*,#574,.T.);
#736=ORIENTED_EDGE('',*,*,#564,.T.);
#737=ORIENTED_EDGE('',*,*,#575,.T.);
#738=ORIENTED_EDGE('',*,*,#530,.F.);
#739=ORIENTED_EDGE('',*,*,#576,.F.);
#740=ORIENTED_EDGE('',*,*,#565,.F.);
#741=ORIENTED_EDGE('',*,*,#574,.F.);
#742=ORIENTED_EDGE('',*,*,#527,.F.);
#743=ORIENTED_EDGE('',*,*,#577,.T.);
#744=ORIENTED_EDGE('',*,*,#566,.T.);
#745=ORIENTED_EDGE('',*,*,#576,.T.);
#746=ORIENTED_EDGE('',*,*,#545,.F.);
#747=ORIENTED_EDGE('',*,*,#562,.T.);
#748=ORIENTED_EDGE('',*,*,#568,.T.);
#749=ORIENTED_EDGE('',*,*,#578,.T.);
#750=ORIENTED_EDGE('',*,*,#579,.F.);
#751=ORIENTED_EDGE('',*,*,#580,.T.);
#752=ORIENTED_EDGE('',*,*,#581,.F.);
#753=ORIENTED_EDGE('',*,*,#580,.F.);
#754=ORIENTED_EDGE('',*,*,#582,.F.);
#755=ORIENTED_EDGE('',*,*,#583,.T.);
#756=ORIENTED_EDGE('',*,*,#584,.F.);
#757=ORIENTED_EDGE('',*,*,#583,.F.);
#758=ORIENTED_EDGE('',*,*,#585,.F.);
#759=ORIENTED_EDGE('',*,*,#586,.T.);
#760=ORIENTED_EDGE('',*,*,#587,.T.);
#761=ORIENTED_EDGE('',*,*,#556,.F.);
#762=ORIENTED_EDGE('',*,*,#588,.F.);
#763=ORIENTED_EDGE('',*,*,#589,.T.);
#764=ORIENTED_EDGE('',*,*,#590,.T.);
#765=ORIENTED_EDGE('',*,*,#586,.F.);
#766=ORIENTED_EDGE('',*,*,#591,.F.);
#767=ORIENTED_EDGE('',*,*,#592,.T.);
#768=ORIENTED_EDGE('',*,*,#593,.T.);
#769=ORIENTED_EDGE('',*,*,#589,.F.);
#770=ORIENTED_EDGE('',*,*,#594,.F.);
#771=ORIENTED_EDGE('',*,*,#595,.F.);
#772=ORIENTED_EDGE('',*,*,#596,.F.);
#773=ORIENTED_EDGE('',*,*,#597,.F.);
#774=ORIENTED_EDGE('',*,*,#598,.F.);
#775=ORIENTED_EDGE('',*,*,#599,.T.);
#776=ORIENTED_EDGE('',*,*,#600,.T.);
#777=ORIENTED_EDGE('',*,*,#592,.F.);
#778=ORIENTED_EDGE('',*,*,#601,.T.);
#779=ORIENTED_EDGE('',*,*,#599,.F.);
#780=ORIENTED_EDGE('',*,*,#602,.F.);
#781=ORIENTED_EDGE('',*,*,#603,.T.);
#782=ORIENTED_EDGE('',*,*,#604,.F.);
#783=ORIENTED_EDGE('',*,*,#605,.F.);
#784=ORIENTED_EDGE('',*,*,#606,.F.);
#785=ORIENTED_EDGE('',*,*,#521,.F.);
#786=ORIENTED_EDGE('',*,*,#552,.F.);
#787=ORIENTED_EDGE('',*,*,#607,.F.);
#788=ORIENTED_EDGE('',*,*,#603,.F.);
#789=ORIENTED_EDGE('',*,*,#608,.F.);
#790=ORIENTED_EDGE('',*,*,#557,.F.);
#791=ORIENTED_EDGE('',*,*,#587,.F.);
#792=ORIENTED_EDGE('',*,*,#590,.F.);
#793=ORIENTED_EDGE('',*,*,#593,.F.);
#794=ORIENTED_EDGE('',*,*,#600,.F.);
#795=ORIENTED_EDGE('',*,*,#601,.F.);
#796=ORIENTED_EDGE('',*,*,#609,.F.);
#797=ORIENTED_EDGE('',*,*,#554,.F.);
#798=ORIENTED_EDGE('',*,*,#522,.F.);
#799=ORIENTED_EDGE('',*,*,#608,.T.);
#800=ORIENTED_EDGE('',*,*,#602,.T.);
#801=ORIENTED_EDGE('',*,*,#598,.T.);
#802=ORIENTED_EDGE('',*,*,#591,.T.);
#803=ORIENTED_EDGE('',*,*,#588,.T.);
#804=ORIENTED_EDGE('',*,*,#585,.T.);
#805=ORIENTED_EDGE('',*,*,#555,.T.);
#806=ORIENTED_EDGE('',*,*,#548,.F.);
#807=ORIENTED_EDGE('',*,*,#578,.F.);
#808=ORIENTED_EDGE('',*,*,#567,.F.);
#809=ORIENTED_EDGE('',*,*,#577,.F.);
#810=ORIENTED_EDGE('',*,*,#579,.T.);
#811=ORIENTED_EDGE('',*,*,#582,.T.);
#812=ORIENTED_EDGE('',*,*,#607,.T.);
#813=ORIENTED_EDGE('',*,*,#551,.F.);
#814=ORIENTED_EDGE('',*,*,#610,.F.);
#815=ORIENTED_EDGE('',*,*,#604,.T.);
#816=ORIENTED_EDGE('',*,*,#596,.T.);
#817=ORIENTED_EDGE('',*,*,#611,.F.);
#818=ORIENTED_EDGE('',*,*,#612,.F.);
#819=ORIENTED_EDGE('',*,*,#613,.T.);
#820=ORIENTED_EDGE('',*,*,#581,.T.);
#821=ORIENTED_EDGE('',*,*,#584,.T.);
#822=ORIENTED_EDGE('',*,*,#605,.T.);
#823=ORIENTED_EDGE('',*,*,#610,.T.);
#824=ORIENTED_EDGE('',*,*,#550,.F.);
#825=ORIENTED_EDGE('',*,*,#614,.F.);
#826=ORIENTED_EDGE('',*,*,#595,.T.);
#827=ORIENTED_EDGE('',*,*,#615,.F.);
#828=ORIENTED_EDGE('',*,*,#616,.F.);
#829=ORIENTED_EDGE('',*,*,#611,.T.);
#830=ORIENTED_EDGE('',*,*,#609,.T.);
#831=ORIENTED_EDGE('',*,*,#606,.T.);
#832=ORIENTED_EDGE('',*,*,#614,.T.);
#833=ORIENTED_EDGE('',*,*,#549,.F.);
#834=ORIENTED_EDGE('',*,*,#617,.T.);
#835=ORIENTED_EDGE('',*,*,#618,.T.);
#836=ORIENTED_EDGE('',*,*,#619,.T.);
#837=ORIENTED_EDGE('',*,*,#620,.T.);
#838=ORIENTED_EDGE('',*,*,#621,.T.);
#839=ORIENTED_EDGE('',*,*,#622,.T.);
#840=ORIENTED_EDGE('',*,*,#623,.T.);
#841=ORIENTED_EDGE('',*,*,#624,.T.);
#842=ORIENTED_EDGE('',*,*,#625,.T.);
#843=ORIENTED_EDGE('',*,*,#626,.T.);
#844=ORIENTED_EDGE('',*,*,#594,.T.);
#845=ORIENTED_EDGE('',*,*,#627,.F.);
#846=ORIENTED_EDGE('',*,*,#628,.F.);
#847=ORIENTED_EDGE('',*,*,#615,.T.);
#848=ORIENTED_EDGE('',*,*,#597,.T.);
#849=ORIENTED_EDGE('',*,*,#613,.F.);
#850=ORIENTED_EDGE('',*,*,#629,.F.);
#851=ORIENTED_EDGE('',*,*,#627,.T.);
#852=ORIENTED_EDGE('',*,*,#536,.F.);
#853=ORIENTED_EDGE('',*,*,#575,.F.);
#854=ORIENTED_EDGE('',*,*,#563,.F.);
#855=ORIENTED_EDGE('',*,*,#558,.F.);
#856=ORIENTED_EDGE('',*,*,#621,.F.);
#857=ORIENTED_EDGE('',*,*,#630,.T.);
#858=ORIENTED_EDGE('',*,*,#631,.F.);
#859=ORIENTED_EDGE('',*,*,#630,.F.);
#860=ORIENTED_EDGE('',*,*,#622,.F.);
#861=ORIENTED_EDGE('',*,*,#632,.T.);
#862=ORIENTED_EDGE('',*,*,#569,.T.);
#863=ORIENTED_EDGE('',*,*,#632,.F.);
#864=ORIENTED_EDGE('',*,*,#625,.F.);
#865=ORIENTED_EDGE('',*,*,#633,.T.);
#866=ORIENTED_EDGE('',*,*,#634,.F.);
#867=ORIENTED_EDGE('',*,*,#633,.F.);
#868=ORIENTED_EDGE('',*,*,#626,.F.);
#869=ORIENTED_EDGE('',*,*,#635,.T.);
#870=ORIENTED_EDGE('',*,*,#570,.T.);
#871=ORIENTED_EDGE('',*,*,#635,.F.);
#872=ORIENTED_EDGE('',*,*,#619,.F.);
#873=ORIENTED_EDGE('',*,*,#636,.T.);
#874=ORIENTED_EDGE('',*,*,#637,.F.);
#875=ORIENTED_EDGE('',*,*,#636,.F.);
#876=ORIENTED_EDGE('',*,*,#620,.F.);
#877=ORIENTED_EDGE('',*,*,#638,.T.);
#878=ORIENTED_EDGE('',*,*,#571,.T.);
#879=ORIENTED_EDGE('',*,*,#638,.F.);
#880=ORIENTED_EDGE('',*,*,#623,.F.);
#881=ORIENTED_EDGE('',*,*,#639,.T.);
#882=ORIENTED_EDGE('',*,*,#640,.F.);
#883=ORIENTED_EDGE('',*,*,#639,.F.);
#884=ORIENTED_EDGE('',*,*,#624,.F.);
#885=ORIENTED_EDGE('',*,*,#641,.T.);
#886=ORIENTED_EDGE('',*,*,#572,.T.);
#887=ORIENTED_EDGE('',*,*,#641,.F.);
#888=ORIENTED_EDGE('',*,*,#617,.F.);
#889=ORIENTED_EDGE('',*,*,#642,.T.);
#890=ORIENTED_EDGE('',*,*,#643,.F.);
#891=ORIENTED_EDGE('',*,*,#642,.F.);
#892=ORIENTED_EDGE('',*,*,#618,.F.);
#893=ORIENTED_EDGE('',*,*,#644,.T.);
#894=ORIENTED_EDGE('',*,*,#573,.T.);
#895=ORIENTED_EDGE('',*,*,#644,.F.);
#896=ORIENTED_EDGE('',*,*,#616,.T.);
#897=ORIENTED_EDGE('',*,*,#628,.T.);
#898=ORIENTED_EDGE('',*,*,#629,.T.);
#899=ORIENTED_EDGE('',*,*,#612,.T.);
#900=ORIENTED_EDGE('',*,*,#643,.T.);
#901=ORIENTED_EDGE('',*,*,#634,.T.);
#902=ORIENTED_EDGE('',*,*,#640,.T.);
#903=ORIENTED_EDGE('',*,*,#637,.T.);
#904=ORIENTED_EDGE('',*,*,#631,.T.);
#905=ORIENTED_EDGE('',*,*,#645,.F.);
#906=ORIENTED_EDGE('',*,*,#646,.T.);
#907=ORIENTED_EDGE('',*,*,#647,.F.);
#908=ORIENTED_EDGE('',*,*,#646,.F.);
#909=ORIENTED_EDGE('',*,*,#648,.F.);
#910=ORIENTED_EDGE('',*,*,#649,.T.);
#911=ORIENTED_EDGE('',*,*,#650,.F.);
#912=ORIENTED_EDGE('',*,*,#651,.F.);
#913=ORIENTED_EDGE('',*,*,#652,.F.);
#914=ORIENTED_EDGE('',*,*,#653,.F.);
#915=ORIENTED_EDGE('',*,*,#654,.F.);
#916=ORIENTED_EDGE('',*,*,#653,.T.);
#917=ORIENTED_EDGE('',*,*,#655,.F.);
#918=ORIENTED_EDGE('',*,*,#649,.F.);
#919=ORIENTED_EDGE('',*,*,#647,.T.);
#920=ORIENTED_EDGE('',*,*,#654,.T.);
#921=ORIENTED_EDGE('',*,*,#648,.T.);
#922=ORIENTED_EDGE('',*,*,#656,.T.);
#923=ORIENTED_EDGE('',*,*,#651,.T.);
#924=ORIENTED_EDGE('',*,*,#645,.T.);
#925=ORIENTED_EDGE('',*,*,#655,.T.);
#926=ORIENTED_EDGE('',*,*,#652,.T.);
#927=ORIENTED_EDGE('',*,*,#656,.F.);
#928=ORIENTED_EDGE('',*,*,#650,.T.);
#929=CYLINDRICAL_SURFACE('',#1012,0.5);
#930=CYLINDRICAL_SURFACE('',#1018,0.5);
#931=CYLINDRICAL_SURFACE('',#1024,0.5);
#932=CYLINDRICAL_SURFACE('',#1030,0.5);
#933=CYLINDRICAL_SURFACE('',#1035,0.5);
#934=CYLINDRICAL_SURFACE('',#1039,2.);
#935=CYLINDRICAL_SURFACE('',#1051,2.);
#936=CYLINDRICAL_SURFACE('',#1053,1.);
#937=CYLINDRICAL_SURFACE('',#1054,1.);
#938=CYLINDRICAL_SURFACE('',#1055,9.);
#939=CYLINDRICAL_SURFACE('',#1058,9.);
#940=CYLINDRICAL_SURFACE('',#1092,4.);
#941=CYLINDRICAL_SURFACE('',#1094,1.35);
#942=CYLINDRICAL_SURFACE('',#1095,4.);
#943=CYLINDRICAL_SURFACE('',#1097,1.35);
#944=CYLINDRICAL_SURFACE('',#1098,4.);
#945=CYLINDRICAL_SURFACE('',#1100,1.35);
#946=CYLINDRICAL_SURFACE('',#1101,4.);
#947=CYLINDRICAL_SURFACE('',#1103,1.35);
#948=CYLINDRICAL_SURFACE('',#1104,4.);
#949=CYLINDRICAL_SURFACE('',#1106,1.35);
#950=CYLINDRICAL_SURFACE('',#1108,1.35);
#951=ADVANCED_FACE('',(#76),#929,.T.);
#952=ADVANCED_FACE('',(#77),#74,.F.);
#953=ADVANCED_FACE('',(#78),#930,.T.);
#954=ADVANCED_FACE('',(#79),#71,.T.);
#955=ADVANCED_FACE('',(#80),#931,.T.);
#956=ADVANCED_FACE('',(#81),#72,.T.);
#957=ADVANCED_FACE('',(#82),#932,.T.);
#958=ADVANCED_FACE('',(#83),#75,.F.);
#959=ADVANCED_FACE('',(#84),#933,.T.);
#960=ADVANCED_FACE('',(#85),#40,.T.);
#961=ADVANCED_FACE('',(#86),#41,.T.);
#962=ADVANCED_FACE('',(#87),#934,.T.);
#963=ADVANCED_FACE('',(#88),#42,.T.);
#964=ADVANCED_FACE('',(#89,#18,#19,#20,#21,#22),#43,.F.);
#965=ADVANCED_FACE('',(#90),#935,.T.);
#966=ADVANCED_FACE('',(#91),#44,.T.);
#967=ADVANCED_FACE('',(#92),#936,.T.);
#968=ADVANCED_FACE('',(#93),#937,.T.);
#969=ADVANCED_FACE('',(#94),#938,.F.);
#970=ADVANCED_FACE('',(#95),#939,.F.);
#971=ADVANCED_FACE('',(#96),#45,.F.);
#972=ADVANCED_FACE('',(#97),#46,.F.);
#973=ADVANCED_FACE('',(#98,#23),#47,.F.);
#974=ADVANCED_FACE('',(#99),#48,.F.);
#975=ADVANCED_FACE('',(#100),#49,.F.);
#976=ADVANCED_FACE('',(#101),#50,.F.);
#977=ADVANCED_FACE('',(#102),#51,.F.);
#978=ADVANCED_FACE('',(#103,#24,#25),#52,.T.);
#979=ADVANCED_FACE('',(#104),#53,.T.);
#980=ADVANCED_FACE('',(#105,#26,#27),#54,.T.);
#981=ADVANCED_FACE('',(#106),#55,.T.);
#982=ADVANCED_FACE('',(#107),#56,.T.);
#983=ADVANCED_FACE('',(#108),#57,.T.);
#984=ADVANCED_FACE('',(#109,#28),#58,.T.);
#985=ADVANCED_FACE('',(#110,#29),#59,.T.);
#986=ADVANCED_FACE('',(#111,#30),#60,.T.);
#987=ADVANCED_FACE('',(#112,#31),#61,.T.);
#988=ADVANCED_FACE('',(#113,#32),#62,.T.);
#989=ADVANCED_FACE('',(#114),#63,.T.);
#990=ADVANCED_FACE('',(#115),#64,.T.);
#991=ADVANCED_FACE('',(#116),#65,.T.);
#992=ADVANCED_FACE('',(#117),#940,.T.);
#993=ADVANCED_FACE('',(#118),#941,.F.);
#994=ADVANCED_FACE('',(#119),#942,.T.);
#995=ADVANCED_FACE('',(#120),#943,.F.);
#996=ADVANCED_FACE('',(#121),#944,.T.);
#997=ADVANCED_FACE('',(#122),#945,.F.);
#998=ADVANCED_FACE('',(#123),#946,.T.);
#999=ADVANCED_FACE('',(#124),#947,.F.);
#1000=ADVANCED_FACE('',(#125),#948,.T.);
#1001=ADVANCED_FACE('',(#126),#949,.F.);
#1002=ADVANCED_FACE('',(#127,#33,#34,#35,#36,#37),#66,.T.);
#1003=ADVANCED_FACE('',(#128),#950,.F.);
#1004=ADVANCED_FACE('',(#129),#67,.T.);
#1005=ADVANCED_FACE('',(#130),#68,.T.);
#1006=ADVANCED_FACE('',(#131,#38),#73,.T.);
#1007=ADVANCED_FACE('',(#132,#39),#69,.T.);
#1008=ADVANCED_FACE('',(#133),#70,.F.);
#1009=CLOSED_SHELL('',(#951,#952,#953,#954,#955,#956,#957,#958,#959,#960,
#961,#962,#963,#964,#965,#966,#967,#968,#969,#970,#971,#972,#973,#974,#975,
#976,#977,#978,#979,#980,#981,#982,#983,#984,#985,#986,#987,#988,#989,#990,
#991,#992,#993,#994,#995,#996,#997,#998,#999,#1000,#1001,#1002));
#1010=CLOSED_SHELL('',(#1003,#1004,#1005,#1006,#1007,#1008));
#1011=AXIS2_PLACEMENT_3D('',#1419,#1119,#1120);
#1012=AXIS2_PLACEMENT_3D('',#1420,#1121,#1122);
#1013=AXIS2_PLACEMENT_3D('',#1423,#1123,#1124);
#1014=AXIS2_PLACEMENT_3D('',#1427,#1126,#1127);
#1015=AXIS2_PLACEMENT_3D('',#1440,#1129,#1130);
#1016=AXIS2_PLACEMENT_3D('',#1441,#1131,#1132);
#1017=AXIS2_PLACEMENT_3D('',#1442,#1133,#1134);
#1018=AXIS2_PLACEMENT_3D('',#1443,#1135,#1136);
#1019=AXIS2_PLACEMENT_3D('',#1446,#1137,#1138);
#1020=AXIS2_PLACEMENT_3D('',#1449,#1141,#1142);
#1021=AXIS2_PLACEMENT_3D('',#1452,#1143,#1144);
#1022=AXIS2_PLACEMENT_3D('',#1453,#1145,#1146);
#1023=AXIS2_PLACEMENT_3D('',#1454,#1147,#1148);
#1024=AXIS2_PLACEMENT_3D('',#1455,#1149,#1150);
#1025=AXIS2_PLACEMENT_3D('',#1458,#1151,#1152);
#1026=AXIS2_PLACEMENT_3D('',#1461,#1155,#1156);
#1027=AXIS2_PLACEMENT_3D('',#1464,#1157,#1158);
#1028=AXIS2_PLACEMENT_3D('',#1465,#1159,#1160);
#1029=AXIS2_PLACEMENT_3D('',#1466,#1161,#1162);
#1030=AXIS2_PLACEMENT_3D('',#1467,#1163,#1164);
#1031=AXIS2_PLACEMENT_3D('',#1470,#1165,#1166);
#1032=AXIS2_PLACEMENT_3D('',#1484,#1169,#1170);
#1033=AXIS2_PLACEMENT_3D('',#1485,#1171,#1172);
#1034=AXIS2_PLACEMENT_3D('',#1486,#1173,#1174);
#1035=AXIS2_PLACEMENT_3D('',#1487,#1175,#1176);
#1036=AXIS2_PLACEMENT_3D('',#1490,#1177,#1178);
#1037=AXIS2_PLACEMENT_3D('',#1493,#1181,#1182);
#1038=AXIS2_PLACEMENT_3D('',#1505,#1189,#1190);
#1039=AXIS2_PLACEMENT_3D('',#1511,#1194,#1195);
#1040=AXIS2_PLACEMENT_3D('',#1515,#1197,#1198);
#1041=AXIS2_PLACEMENT_3D('',#1517,#1200,#1201);
#1042=AXIS2_PLACEMENT_3D('',#1521,#1204,#1205);
#1043=AXIS2_PLACEMENT_3D('',#1525,#1207,#1208);
#1044=AXIS2_PLACEMENT_3D('',#1529,#1210,#1211);
#1045=AXIS2_PLACEMENT_3D('',#1532,#1213,#1214);
#1046=AXIS2_PLACEMENT_3D('',#1534,#1215,#1216);
#1047=AXIS2_PLACEMENT_3D('',#1536,#1217,#1218);
#1048=AXIS2_PLACEMENT_3D('',#1538,#1219,#1220);
#1049=AXIS2_PLACEMENT_3D('',#1540,#1221,#1222);
#1050=AXIS2_PLACEMENT_3D('',#1542,#1223,#1224);
#1051=AXIS2_PLACEMENT_3D('',#1543,#1225,#1226);
#1052=AXIS2_PLACEMENT_3D('',#1546,#1229,#1230);
#1053=AXIS2_PLACEMENT_3D('',#1548,#1232,#1233);
#1054=AXIS2_PLACEMENT_3D('',#1550,#1235,#1236);
#1055=AXIS2_PLACEMENT_3D('',#1552,#1238,#1239);
#1056=AXIS2_PLACEMENT_3D('',#1554,#1240,#1241);
#1057=AXIS2_PLACEMENT_3D('',#1557,#1243,#1244);
#1058=AXIS2_PLACEMENT_3D('',#1558,#1245,#1246);
#1059=AXIS2_PLACEMENT_3D('',#1560,#1247,#1248);
#1060=AXIS2_PLACEMENT_3D('',#1563,#1250,#1251);
#1061=AXIS2_PLACEMENT_3D('',#1564,#1252,#1253);
#1062=AXIS2_PLACEMENT_3D('',#1570,#1257,#1258);
#1063=AXIS2_PLACEMENT_3D('',#1576,#1262,#1263);
#1064=AXIS2_PLACEMENT_3D('',#1590,#1271,#1272);
#1065=AXIS2_PLACEMENT_3D('',#1596,#1276,#1277);
#1066=AXIS2_PLACEMENT_3D('',#1608,#1284,#1285);
#1067=AXIS2_PLACEMENT_3D('',#1611,#1288,#1289);
#1068=AXIS2_PLACEMENT_3D('',#1613,#1291,#1292);
#1069=AXIS2_PLACEMENT_3D('',#1614,#1293,#1294);
#1070=AXIS2_PLACEMENT_3D('',#1616,#1296,#1297);
#1071=AXIS2_PLACEMENT_3D('',#1622,#1301,#1302);
#1072=AXIS2_PLACEMENT_3D('',#1624,#1304,#1305);
#1073=AXIS2_PLACEMENT_3D('',#1628,#1308,#1309);
#1074=AXIS2_PLACEMENT_3D('',#1629,#1310,#1311);
#1075=AXIS2_PLACEMENT_3D('',#1631,#1312,#1313);
#1076=AXIS2_PLACEMENT_3D('',#1633,#1314,#1315);
#1077=AXIS2_PLACEMENT_3D('',#1634,#1316,#1317);
#1078=AXIS2_PLACEMENT_3D('',#1636,#1318,#1319);
#1079=AXIS2_PLACEMENT_3D('',#1638,#1320,#1321);
#1080=AXIS2_PLACEMENT_3D('',#1639,#1322,#1323);
#1081=AXIS2_PLACEMENT_3D('',#1641,#1324,#1325);
#1082=AXIS2_PLACEMENT_3D('',#1643,#1326,#1327);
#1083=AXIS2_PLACEMENT_3D('',#1644,#1328,#1329);
#1084=AXIS2_PLACEMENT_3D('',#1646,#1330,#1331);
#1085=AXIS2_PLACEMENT_3D('',#1648,#1332,#1333);
#1086=AXIS2_PLACEMENT_3D('',#1649,#1334,#1335);
#1087=AXIS2_PLACEMENT_3D('',#1651,#1336,#1337);
#1088=AXIS2_PLACEMENT_3D('',#1653,#1338,#1339);
#1089=AXIS2_PLACEMENT_3D('',#1654,#1340,#1341);
#1090=AXIS2_PLACEMENT_3D('',#1658,#1344,#1345);
#1091=AXIS2_PLACEMENT_3D('',#1660,#1347,#1348);
#1092=AXIS2_PLACEMENT_3D('',#1661,#1349,#1350);
#1093=AXIS2_PLACEMENT_3D('',#1664,#1352,#1353);
#1094=AXIS2_PLACEMENT_3D('',#1665,#1354,#1355);
#1095=AXIS2_PLACEMENT_3D('',#1667,#1357,#1358);
#1096=AXIS2_PLACEMENT_3D('',#1670,#1360,#1361);
#1097=AXIS2_PLACEMENT_3D('',#1671,#1362,#1363);
#1098=AXIS2_PLACEMENT_3D('',#1673,#1365,#1366);
#1099=AXIS2_PLACEMENT_3D('',#1676,#1368,#1369);
#1100=AXIS2_PLACEMENT_3D('',#1677,#1370,#1371);
#1101=AXIS2_PLACEMENT_3D('',#1679,#1373,#1374);
#1102=AXIS2_PLACEMENT_3D('',#1682,#1376,#1377);
#1103=AXIS2_PLACEMENT_3D('',#1683,#1378,#1379);
#1104=AXIS2_PLACEMENT_3D('',#1685,#1381,#1382);
#1105=AXIS2_PLACEMENT_3D('',#1688,#1384,#1385);
#1106=AXIS2_PLACEMENT_3D('',#1689,#1386,#1387);
#1107=AXIS2_PLACEMENT_3D('',#1691,#1389,#1390);
#1108=AXIS2_PLACEMENT_3D('',#1692,#1391,#1392);
#1109=AXIS2_PLACEMENT_3D('',#1694,#1393,#1394);
#1110=AXIS2_PLACEMENT_3D('',#1735,#1396,#1397);
#1111=AXIS2_PLACEMENT_3D('',#1740,#1399,#1400);
#1112=AXIS2_PLACEMENT_3D('',#1742,#1402,#1403);
#1113=AXIS2_PLACEMENT_3D('',#1748,#1406,#1407);
#1114=AXIS2_PLACEMENT_3D('',#1749,#1408,#1409);
#1115=AXIS2_PLACEMENT_3D('',#1750,#1410,#1411);
#1116=AXIS2_PLACEMENT_3D('',#1751,#1412,#1413);
#1117=AXIS2_PLACEMENT_3D('',#1752,#1414,#1415);
#1118=AXIS2_PLACEMENT_3D('',#1754,#1417,#1418);
#1119=DIRECTION('axis',(0.,0.,1.));
#1120=DIRECTION('refdir',(1.,0.,0.));
#1121=DIRECTION('center_axis',(-1.,0.,0.));
#1122=DIRECTION('ref_axis',(0.,0.707106781186548,0.707106781186548));
#1123=DIRECTION('center_axis',(-1.,0.,0.));
#1124=DIRECTION('ref_axis',(0.,0.707106781186548,0.707106781186548));
#1125=DIRECTION('',(-1.,0.,0.));
#1126=DIRECTION('center_axis',(1.,-8.88178419700128E-15,0.));
#1127=DIRECTION('ref_axis',(8.88178419700128E-15,1.,0.));
#1128=DIRECTION('',(1.,0.,0.));
#1129=DIRECTION('center_axis',(0.,1.,0.));
#1130=DIRECTION('ref_axis',(-1.,0.,0.));
#1131=DIRECTION('center_axis',(0.,0.,-1.));
#1132=DIRECTION('ref_axis',(-0.707106781186548,0.707106781186548,0.));
#1133=DIRECTION('center_axis',(0.,0.,1.));
#1134=DIRECTION('ref_axis',(-0.707106781186548,0.707106781186548,0.));
#1135=DIRECTION('center_axis',(6.93775227473848E-17,-1.,0.));
#1136=DIRECTION('ref_axis',(-0.707106781186548,0.,0.707106781186548));
#1137=DIRECTION('center_axis',(0.,1.,0.));
#1138=DIRECTION('ref_axis',(-1.,0.,0.));
#1139=DIRECTION('',(-6.93775227473848E-17,1.,0.));
#1140=DIRECTION('',(6.93775227473848E-17,-1.,0.));
#1141=DIRECTION('center_axis',(0.,0.,-1.));
#1142=DIRECTION('ref_axis',(-1.,0.,0.));
#1143=DIRECTION('center_axis',(-1.,0.,0.));
#1144=DIRECTION('ref_axis',(0.,-1.,0.));
#1145=DIRECTION('center_axis',(0.,0.,-1.));
#1146=DIRECTION('ref_axis',(-0.707106781186548,-0.707106781186548,0.));
#1147=DIRECTION('center_axis',(0.,0.,1.));
#1148=DIRECTION('ref_axis',(-0.707106781186548,-0.707106781186548,0.));
#1149=DIRECTION('center_axis',(1.,0.,0.));
#1150=DIRECTION('ref_axis',(0.,-0.707106781186548,0.707106781186548));
#1151=DIRECTION('center_axis',(-1.,0.,0.));
#1152=DIRECTION('ref_axis',(0.,-1.,0.));
#1153=DIRECTION('',(-1.,0.,0.));
#1154=DIRECTION('',(1.,0.,0.));
#1155=DIRECTION('center_axis',(0.,0.,-1.));
#1156=DIRECTION('ref_axis',(-1.,0.,0.));
#1157=DIRECTION('center_axis',(0.,-1.,0.));
#1158=DIRECTION('ref_axis',(1.,0.,0.));
#1159=DIRECTION('center_axis',(0.,0.,-1.));
#1160=DIRECTION('ref_axis',(0.707106781186548,-0.707106781186548,0.));
#1161=DIRECTION('center_axis',(0.,0.,1.));
#1162=DIRECTION('ref_axis',(0.707106781186548,-0.707106781186548,0.));
#1163=DIRECTION('center_axis',(0.,1.,0.));
#1164=DIRECTION('ref_axis',(0.707106781186548,0.,0.707106781186548));
#1165=DIRECTION('center_axis',(0.,-1.,0.));
#1166=DIRECTION('ref_axis',(1.,0.,0.));
#1167=DIRECTION('',(0.,-1.,0.));
#1168=DIRECTION('',(0.,1.,0.));
#1169=DIRECTION('center_axis',(1.,0.,0.));
#1170=DIRECTION('ref_axis',(0.,1.,0.));
#1171=DIRECTION('center_axis',(0.,0.,-1.));
#1172=DIRECTION('ref_axis',(0.707106781186545,0.70710678118655,0.));
#1173=DIRECTION('center_axis',(0.,0.,1.));
#1174=DIRECTION('ref_axis',(0.707106781186545,0.70710678118655,0.));
#1175=DIRECTION('center_axis',(-1.,0.,0.));
#1176=DIRECTION('ref_axis',(0.,0.707106781186548,0.707106781186548));
#1177=DIRECTION('center_axis',(1.,7.40018792478265E-17,0.));
#1178=DIRECTION('ref_axis',(0.,0.707106781186548,0.707106781186548));
#1179=DIRECTION('',(1.,0.,0.));
#1180=DIRECTION('',(-1.,0.,0.));
#1181=DIRECTION('center_axis',(0.,0.,1.));
#1182=DIRECTION('ref_axis',(1.,0.,0.));
#1183=DIRECTION('',(-1.,0.,0.));
#1184=DIRECTION('',(0.,1.,0.));
#1185=DIRECTION('',(1.,0.,0.));
#1186=DIRECTION('',(0.,1.,0.));
#1187=DIRECTION('',(0.,-1.,0.));
#1188=DIRECTION('',(-1.,0.,0.));
#1189=DIRECTION('center_axis',(-1.,-7.40018792478265E-17,0.));
#1190=DIRECTION('ref_axis',(7.40018792478265E-17,-1.,0.));
#1191=DIRECTION('',(0.,0.,1.));
#1192=DIRECTION('',(0.,-1.,0.));
#1193=DIRECTION('',(0.,0.,1.));
#1194=DIRECTION('center_axis',(0.,0.,1.));
#1195=DIRECTION('ref_axis',(0.707106781186548,-0.707106781186548,0.));
#1196=DIRECTION('',(0.,0.,-1.));
#1197=DIRECTION('center_axis',(0.,0.,1.));
#1198=DIRECTION('ref_axis',(0.707106781186548,-0.707106781186548,0.));
#1199=DIRECTION('',(0.,0.,1.));
#1200=DIRECTION('center_axis',(1.,0.,0.));
#1201=DIRECTION('ref_axis',(0.,1.,0.));
#1202=DIRECTION('',(0.,-1.,0.));
#1203=DIRECTION('',(0.,0.,-1.));
#1204=DIRECTION('center_axis',(0.,0.,1.));
#1205=DIRECTION('ref_axis',(1.,0.,0.));
#1206=DIRECTION('',(-1.,0.,0.));
#1207=DIRECTION('center_axis',(0.,0.,1.));
#1208=DIRECTION('ref_axis',(-0.707106781186548,-0.707106781186548,0.));
#1209=DIRECTION('',(-6.93775227473848E-17,1.,0.));
#1210=DIRECTION('center_axis',(0.,0.,1.));
#1211=DIRECTION('ref_axis',(-0.707106781186548,0.707106781186548,0.));
#1212=DIRECTION('',(1.,0.,0.));
#1213=DIRECTION('center_axis',(0.,0.,1.));
#1214=DIRECTION('ref_axis',(0.707106781186551,0.707106781186544,0.));
#1215=DIRECTION('center_axis',(0.,0.,-1.));
#1216=DIRECTION('ref_axis',(1.,0.,0.));
#1217=DIRECTION('center_axis',(0.,0.,-1.));
#1218=DIRECTION('ref_axis',(1.,0.,0.));
#1219=DIRECTION('center_axis',(0.,0.,-1.));
#1220=DIRECTION('ref_axis',(1.,0.,0.));
#1221=DIRECTION('center_axis',(0.,0.,-1.));
#1222=DIRECTION('ref_axis',(1.,0.,0.));
#1223=DIRECTION('center_axis',(0.,0.,-1.));
#1224=DIRECTION('ref_axis',(1.,0.,0.));
#1225=DIRECTION('center_axis',(0.,0.,1.));
#1226=DIRECTION('ref_axis',(-0.707106781186548,-0.707106781186548,0.));
#1227=DIRECTION('',(0.,0.,-1.));
#1228=DIRECTION('',(0.,0.,1.));
#1229=DIRECTION('center_axis',(-1.,-6.93775227473848E-17,0.));
#1230=DIRECTION('ref_axis',(6.93775227473848E-17,-1.,0.));
#1231=DIRECTION('',(0.,0.,1.));
#1232=DIRECTION('center_axis',(0.,0.,1.));
#1233=DIRECTION('ref_axis',(-0.707106781186548,0.707106781186548,0.));
#1234=DIRECTION('',(0.,0.,-1.));
#1235=DIRECTION('center_axis',(0.,0.,1.));
#1236=DIRECTION('ref_axis',(0.707106781186551,0.707106781186544,0.));
#1237=DIRECTION('',(0.,0.,1.));
#1238=DIRECTION('center_axis',(0.,-1.,0.));
#1239=DIRECTION('ref_axis',(-1.,0.,0.));
#1240=DIRECTION('center_axis',(0.,-1.,0.));
#1241=DIRECTION('ref_axis',(-1.,0.,0.));
#1242=DIRECTION('',(0.,-1.,0.));
#1243=DIRECTION('center_axis',(0.,1.,0.));
#1244=DIRECTION('ref_axis',(-1.,0.,0.));
#1245=DIRECTION('center_axis',(0.,-1.,0.));
#1246=DIRECTION('ref_axis',(-1.,0.,0.));
#1247=DIRECTION('center_axis',(0.,-1.,0.));
#1248=DIRECTION('ref_axis',(-1.,0.,0.));
#1249=DIRECTION('',(0.,-1.,0.));
#1250=DIRECTION('center_axis',(0.,1.,0.));
#1251=DIRECTION('ref_axis',(-1.,0.,0.));
#1252=DIRECTION('center_axis',(0.,0.,1.));
#1253=DIRECTION('ref_axis',(-1.,0.,0.));
#1254=DIRECTION('',(-1.,0.,0.));
#1255=DIRECTION('',(0.,-1.,0.));
#1256=DIRECTION('',(-1.,0.,0.));
#1257=DIRECTION('center_axis',(1.,0.,0.));
#1258=DIRECTION('ref_axis',(0.,0.,1.));
#1259=DIRECTION('',(0.,0.,1.));
#1260=DIRECTION('',(0.,-1.,0.));
#1261=DIRECTION('',(0.,0.,1.));
#1262=DIRECTION('center_axis',(0.,0.,-1.));
#1263=DIRECTION('ref_axis',(1.,0.,0.));
#1264=DIRECTION('',(1.,0.,0.));
#1265=DIRECTION('',(0.,-1.,0.));
#1266=DIRECTION('',(1.,0.,0.));
#1267=DIRECTION('',(1.,0.,0.));
#1268=DIRECTION('',(0.,-1.,0.));
#1269=DIRECTION('',(-1.,0.,0.));
#1270=DIRECTION('',(-7.40018792478265E-17,1.,0.));
#1271=DIRECTION('center_axis',(-1.,0.,0.));
#1272=DIRECTION('ref_axis',(0.,0.,-1.));
#1273=DIRECTION('',(0.,0.,-1.));
#1274=DIRECTION('',(0.,-1.,0.));
#1275=DIRECTION('',(0.,0.,-1.));
#1276=DIRECTION('center_axis',(0.,0.,1.));
#1277=DIRECTION('ref_axis',(-1.,0.,0.));
#1278=DIRECTION('',(-1.,0.,0.));
#1279=DIRECTION('',(-1.,0.,0.));
#1280=DIRECTION('',(0.,-1.,0.));
#1281=DIRECTION('',(1.,0.,0.));
#1282=DIRECTION('',(0.,1.,0.));
#1283=DIRECTION('',(-1.,0.,0.));
#1284=DIRECTION('center_axis',(-1.,0.,0.));
#1285=DIRECTION('ref_axis',(0.,0.,-1.));
#1286=DIRECTION('',(0.,0.,1.));
#1287=DIRECTION('',(0.,0.,-1.));
#1288=DIRECTION('center_axis',(0.,-1.,0.));
#1289=DIRECTION('ref_axis',(0.,0.,-1.));
#1290=DIRECTION('',(0.,0.,-1.));
#1291=DIRECTION('center_axis',(0.,1.,0.));
#1292=DIRECTION('ref_axis',(-1.,0.,0.));
#1293=DIRECTION('center_axis',(0.,-1.,0.));
#1294=DIRECTION('ref_axis',(1.,0.,0.));
#1295=DIRECTION('',(0.,0.,1.));
#1296=DIRECTION('center_axis',(0.,-1.,0.));
#1297=DIRECTION('ref_axis',(1.,0.,0.));
#1298=DIRECTION('',(0.,0.,1.));
#1299=DIRECTION('',(-1.,0.,0.));
#1300=DIRECTION('',(0.,0.,1.));
#1301=DIRECTION('center_axis',(1.,0.,0.));
#1302=DIRECTION('ref_axis',(0.,1.,0.));
#1303=DIRECTION('',(0.,0.,1.));
#1304=DIRECTION('center_axis',(1.,0.,0.));
#1305=DIRECTION('ref_axis',(0.,1.,0.));
#1306=DIRECTION('',(0.,0.,1.));
#1307=DIRECTION('',(0.,-1.,0.));
#1308=DIRECTION('center_axis',(0.,1.,0.));
#1309=DIRECTION('ref_axis',(-1.,0.,0.));
#1310=DIRECTION('center_axis',(0.,0.,1.));
#1311=DIRECTION('ref_axis',(1.,0.,0.));
#1312=DIRECTION('center_axis',(0.,0.,1.));
#1313=DIRECTION('ref_axis',(1.,0.,0.));
#1314=DIRECTION('center_axis',(0.,0.,-1.));
#1315=DIRECTION('ref_axis',(1.,0.,0.));
#1316=DIRECTION('center_axis',(0.,0.,1.));
#1317=DIRECTION('ref_axis',(1.,0.,0.));
#1318=DIRECTION('center_axis',(0.,0.,1.));
#1319=DIRECTION('ref_axis',(1.,0.,0.));
#1320=DIRECTION('center_axis',(0.,0.,-1.));
#1321=DIRECTION('ref_axis',(1.,0.,0.));
#1322=DIRECTION('center_axis',(0.,0.,1.));
#1323=DIRECTION('ref_axis',(1.,0.,0.));
#1324=DIRECTION('center_axis',(0.,0.,1.));
#1325=DIRECTION('ref_axis',(1.,0.,0.));
#1326=DIRECTION('center_axis',(0.,0.,-1.));
#1327=DIRECTION('ref_axis',(1.,0.,0.));
#1328=DIRECTION('center_axis',(0.,0.,1.));
#1329=DIRECTION('ref_axis',(1.,0.,0.));
#1330=DIRECTION('center_axis',(0.,0.,1.));
#1331=DIRECTION('ref_axis',(1.,0.,0.));
#1332=DIRECTION('center_axis',(0.,0.,-1.));
#1333=DIRECTION('ref_axis',(1.,0.,0.));
#1334=DIRECTION('center_axis',(0.,0.,1.));
#1335=DIRECTION('ref_axis',(1.,0.,0.));
#1336=DIRECTION('center_axis',(0.,0.,1.));
#1337=DIRECTION('ref_axis',(1.,0.,0.));
#1338=DIRECTION('center_axis',(0.,0.,-1.));
#1339=DIRECTION('ref_axis',(1.,0.,0.));
#1340=DIRECTION('center_axis',(0.,1.,0.));
#1341=DIRECTION('ref_axis',(-1.,0.,0.));
#1342=DIRECTION('',(0.,0.,1.));
#1343=DIRECTION('',(1.,0.,0.));
#1344=DIRECTION('center_axis',(-1.,-7.40018792478265E-17,0.));
#1345=DIRECTION('ref_axis',(7.40018792478265E-17,-1.,0.));
#1346=DIRECTION('',(-7.40018792478265E-17,1.,0.));
#1347=DIRECTION('center_axis',(0.,-1.,0.));
#1348=DIRECTION('ref_axis',(1.,0.,0.));
#1349=DIRECTION('center_axis',(0.,0.,1.));
#1350=DIRECTION('ref_axis',(1.,0.,0.));
#1351=DIRECTION('',(0.,0.,-1.));
#1352=DIRECTION('center_axis',(0.,0.,-1.));
#1353=DIRECTION('ref_axis',(1.,0.,0.));
#1354=DIRECTION('center_axis',(0.,0.,1.));
#1355=DIRECTION('ref_axis',(1.,0.,0.));
#1356=DIRECTION('',(0.,0.,-1.));
#1357=DIRECTION('center_axis',(0.,0.,1.));
#1358=DIRECTION('ref_axis',(1.,0.,0.));
#1359=DIRECTION('',(0.,0.,-1.));
#1360=DIRECTION('center_axis',(0.,0.,-1.));
#1361=DIRECTION('ref_axis',(1.,0.,0.));
#1362=DIRECTION('center_axis',(0.,0.,1.));
#1363=DIRECTION('ref_axis',(1.,0.,0.));
#1364=DIRECTION('',(0.,0.,-1.));
#1365=DIRECTION('center_axis',(0.,0.,1.));
#1366=DIRECTION('ref_axis',(1.,0.,0.));
#1367=DIRECTION('',(0.,0.,-1.));
#1368=DIRECTION('center_axis',(0.,0.,-1.));
#1369=DIRECTION('ref_axis',(1.,0.,0.));
#1370=DIRECTION('center_axis',(0.,0.,1.));
#1371=DIRECTION('ref_axis',(1.,0.,0.));
#1372=DIRECTION('',(0.,0.,-1.));
#1373=DIRECTION('center_axis',(0.,0.,1.));
#1374=DIRECTION('ref_axis',(1.,0.,0.));
#1375=DIRECTION('',(0.,0.,-1.));
#1376=DIRECTION('center_axis',(0.,0.,-1.));
#1377=DIRECTION('ref_axis',(1.,0.,0.));
#1378=DIRECTION('center_axis',(0.,0.,1.));
#1379=DIRECTION('ref_axis',(1.,0.,0.));
#1380=DIRECTION('',(0.,0.,-1.));
#1381=DIRECTION('center_axis',(0.,0.,1.));
#1382=DIRECTION('ref_axis',(1.,0.,0.));
#1383=DIRECTION('',(0.,0.,-1.));
#1384=DIRECTION('center_axis',(0.,0.,-1.));
#1385=DIRECTION('ref_axis',(1.,0.,0.));
#1386=DIRECTION('center_axis',(0.,0.,1.));
#1387=DIRECTION('ref_axis',(1.,0.,0.));
#1388=DIRECTION('',(0.,0.,-1.));
#1389=DIRECTION('center_axis',(0.,0.,1.));
#1390=DIRECTION('ref_axis',(1.,0.,0.));
#1391=DIRECTION('center_axis',(0.,0.,-1.));
#1392=DIRECTION('ref_axis',(-1.,0.,0.));
#1393=DIRECTION('center_axis',(0.,0.,-1.));
#1394=DIRECTION('ref_axis',(-1.,0.,0.));
#1395=DIRECTION('',(0.,0.,-1.));
#1396=DIRECTION('center_axis',(1.,0.,0.));
#1397=DIRECTION('ref_axis',(0.,0.,-1.));
#1398=DIRECTION('',(0.,1.,0.));
#1399=DIRECTION('center_axis',(1.,4.8733008787435E-16,4.8733008787435E-16));
#1400=DIRECTION('ref_axis',(5.04646829375072E-16,-1.,1.61486985400023E-15));
#1401=DIRECTION('',(0.,-6.12323399573677E-17,-1.));
#1402=DIRECTION('center_axis',(-1.,0.,0.));
#1403=DIRECTION('ref_axis',(0.,0.,1.));
#1404=DIRECTION('',(0.,-1.,0.));
#1405=DIRECTION('',(0.,6.12323399573677E-17,1.));
#1406=DIRECTION('center_axis',(1.,0.,0.));
#1407=DIRECTION('ref_axis',(0.,-1.,1.61486985400023E-15));
#1408=DIRECTION('center_axis',(1.,0.,0.));
#1409=DIRECTION('ref_axis',(0.,0.,-1.));
#1410=DIRECTION('center_axis',(0.,0.,1.));
#1411=DIRECTION('ref_axis',(-1.,0.,0.));
#1412=DIRECTION('center_axis',(0.,1.,-6.12323399573677E-17));
#1413=DIRECTION('ref_axis',(-1.,0.,0.));
#1414=DIRECTION('center_axis',(0.,0.,1.));
#1415=DIRECTION('ref_axis',(-1.,0.,0.));
#1416=DIRECTION('',(-1.,0.,0.));
#1417=DIRECTION('center_axis',(0.,-1.,6.12323399573677E-17));
#1418=DIRECTION('ref_axis',(-1.,0.,0.));
#1419=CARTESIAN_POINT('',(0.,0.,0.));
#1420=CARTESIAN_POINT('Origin',(16.6693627556048,31.5105320737944,31.1));
#1421=CARTESIAN_POINT('',(-31.5225468720465,31.5105320737944,31.6));
#1422=CARTESIAN_POINT('',(-31.5225468720465,32.0105320737944,31.1));
#1423=CARTESIAN_POINT('Origin',(-31.5225468720465,31.5105320737944,31.1));
#1424=CARTESIAN_POINT('',(-32.5225468720465,32.0105320737944,31.1));
#1425=CARTESIAN_POINT('',(16.6693627556048,32.0105320737944,31.1));
#1426=CARTESIAN_POINT('',(-32.5225468720465,31.5105320737944,31.6));
#1427=CARTESIAN_POINT('Origin',(-32.5225468720465,31.5105320737944,31.1));
#1428=CARTESIAN_POINT('',(16.6693627556048,31.5105320737944,31.6));
#1429=CARTESIAN_POINT('Ctrl Pts',(-33.0225468720465,31.0105320737944,31.6));
#1430=CARTESIAN_POINT('Ctrl Pts',(-33.0225468720465,31.5105320737944,31.6));
#1431=CARTESIAN_POINT('Ctrl Pts',(-32.5225468720465,31.5105320737944,31.6));
#1432=CARTESIAN_POINT('Ctrl Pts',(-33.5225468720465,31.0105320737944,31.6));
#1433=CARTESIAN_POINT('Ctrl Pts',(-33.5225468720465,32.0105320737944,31.6));
#1434=CARTESIAN_POINT('Ctrl Pts',(-32.5225468720465,32.0105320737944,31.6));
#1435=CARTESIAN_POINT('Ctrl Pts',(-33.5225468720465,31.0105320737944,31.1));
#1436=CARTESIAN_POINT('Ctrl Pts',(-33.5225468720465,32.0105320737944,31.1));
#1437=CARTESIAN_POINT('Ctrl Pts',(-32.5225468720465,32.0105320737944,31.1));
#1438=CARTESIAN_POINT('',(-33.5225468720465,31.0105320737944,31.1));
#1439=CARTESIAN_POINT('',(-33.0225468720465,31.0105320737944,31.6));
#1440=CARTESIAN_POINT('Origin',(-33.0225468720465,31.0105320737944,31.1));
#1441=CARTESIAN_POINT('Origin',(-32.5225468720465,31.0105320737944,31.6));
#1442=CARTESIAN_POINT('Origin',(-32.5225468720465,31.0105320737944,31.1));
#1443=CARTESIAN_POINT('Origin',(-33.0225468720465,16.0078992229839,31.1));
#1444=CARTESIAN_POINT('',(-33.5225468720465,-29.9999993294477,31.1));
#1445=CARTESIAN_POINT('',(-33.0225468720465,-29.9999993294477,31.6));
#1446=CARTESIAN_POINT('Origin',(-33.0225468720465,-29.9999993294477,31.1));
#1447=CARTESIAN_POINT('',(-33.0225468720465,16.0078992229839,31.6));
#1448=CARTESIAN_POINT('',(-33.5225468720465,16.0078992229839,31.1));
#1449=CARTESIAN_POINT('Origin',(-31.5225468720465,-29.9999993294477,31.1));
#1450=CARTESIAN_POINT('',(-31.5225468720465,-31.9999993294477,31.1));
#1451=CARTESIAN_POINT('',(-31.5225468720465,-31.4999993294477,31.6));
#1452=CARTESIAN_POINT('Origin',(-31.5225468720465,-31.4999993294477,31.1));
#1453=CARTESIAN_POINT('Origin',(-31.5225468720465,-29.9999993294477,31.6));
#1454=CARTESIAN_POINT('Origin',(-31.5225468720465,-29.9999993294477,31.1));
#1455=CARTESIAN_POINT('Origin',(-16.7919103294961,-31.4999993294477,31.1));
#1456=CARTESIAN_POINT('',(31.3999992981553,-31.9999993294477,31.1));
#1457=CARTESIAN_POINT('',(31.3999992981553,-31.4999993294477,31.6));
#1458=CARTESIAN_POINT('Origin',(31.3999992981553,-31.4999993294477,31.1));
#1459=CARTESIAN_POINT('',(-16.7919103294961,-31.4999993294477,31.6));
#1460=CARTESIAN_POINT('',(-16.7919103294961,-31.9999993294477,31.1));
#1461=CARTESIAN_POINT('Origin',(31.3999992981553,-29.9999993294477,31.1));
#1462=CARTESIAN_POINT('',(33.3999992981553,-29.9999993294477,31.1));
#1463=CARTESIAN_POINT('',(32.8999992981553,-29.9999993294477,31.6));
#1464=CARTESIAN_POINT('Origin',(32.8999992981553,-29.9999993294477,31.1));
#1465=CARTESIAN_POINT('Origin',(31.3999992981553,-29.9999993294477,31.6));
#1466=CARTESIAN_POINT('Origin',(31.3999992981553,-29.9999993294477,31.1));
#1467=CARTESIAN_POINT('Origin',(32.8999992981553,-15.9973664786372,31.1));
#1468=CARTESIAN_POINT('',(33.3999992981553,31.0105320737944,31.1));
#1469=CARTESIAN_POINT('',(32.8999992981553,31.0105320737944,31.6));
#1470=CARTESIAN_POINT('Origin',(32.8999992981553,31.0105320737944,31.1));
#1471=CARTESIAN_POINT('',(32.8999992981553,-15.9973664786372,31.6));
#1472=CARTESIAN_POINT('',(33.3999992981553,-15.9973664786372,31.1));
#1473=CARTESIAN_POINT('Ctrl Pts',(32.3999992981553,31.5105320737944,31.6));
#1474=CARTESIAN_POINT('Ctrl Pts',(32.8999992981553,31.5105320737944,31.6));
#1475=CARTESIAN_POINT('Ctrl Pts',(32.8999992981553,31.0105320737944,31.6));
#1476=CARTESIAN_POINT('Ctrl Pts',(32.3999992981553,32.0105320737944,31.6));
#1477=CARTESIAN_POINT('Ctrl Pts',(33.3999992981553,32.0105320737944,31.6));
#1478=CARTESIAN_POINT('Ctrl Pts',(33.3999992981553,31.0105320737944,31.6));
#1479=CARTESIAN_POINT('Ctrl Pts',(32.3999992981553,32.0105320737944,31.1));
#1480=CARTESIAN_POINT('Ctrl Pts',(33.3999992981553,32.0105320737944,31.1));
#1481=CARTESIAN_POINT('Ctrl Pts',(33.3999992981553,31.0105320737944,31.1));
#1482=CARTESIAN_POINT('',(32.3999992981553,32.0105320737944,31.1));
#1483=CARTESIAN_POINT('',(32.3999992981553,31.5105320737944,31.6));
#1484=CARTESIAN_POINT('Origin',(32.3999992981553,31.5105320737944,31.1));
#1485=CARTESIAN_POINT('Origin',(32.3999992981553,31.0105320737944,31.6));
#1486=CARTESIAN_POINT('Origin',(32.3999992981553,31.0105320737944,31.1));
#1487=CARTESIAN_POINT('Origin',(16.6693627556048,31.5105320737944,31.1));
#1488=CARTESIAN_POINT('',(31.3999992981553,32.0105320737944,31.1));
#1489=CARTESIAN_POINT('',(31.3999992981553,31.5105320737944,31.6));
#1490=CARTESIAN_POINT('Origin',(31.3999992981553,31.5105320737944,31.1));
#1491=CARTESIAN_POINT('',(16.6693627556048,31.5105320737944,31.6));
#1492=CARTESIAN_POINT('',(16.6693627556048,32.0105320737944,31.1));
#1493=CARTESIAN_POINT('Origin',(-0.0612737869456081,0.00526637217334702,
31.6));
#1494=CARTESIAN_POINT('',(-31.5225468720465,-29.9999993294477,31.6));
#1495=CARTESIAN_POINT('',(-31.5270626222023,-29.9999993294477,31.6));
#1496=CARTESIAN_POINT('',(31.3999992981553,-29.9999993294477,31.6));
#1497=CARTESIAN_POINT('',(-31.5270626222023,30.0105320737944,31.6));
#1498=CARTESIAN_POINT('',(-31.5270626222023,11.0105320737944,31.6));
#1499=CARTESIAN_POINT('',(-31.5225468720465,30.0105320737944,31.6));
#1500=CARTESIAN_POINT('',(-31.5270626222023,30.0105320737944,31.6));
#1501=CARTESIAN_POINT('',(-31.5225468720465,16.0078992229839,31.6));
#1502=CARTESIAN_POINT('',(31.3999992981553,-30.0004679262056,31.6));
#1503=CARTESIAN_POINT('',(31.3999992981553,16.0078992229839,31.6));
#1504=CARTESIAN_POINT('',(-0.0612737869456059,-30.0004679262056,31.6));
#1505=CARTESIAN_POINT('Origin',(31.3999992981553,30.0105320737944,0.));
#1506=CARTESIAN_POINT('',(31.3999992981553,32.0105320737944,30.6));
#1507=CARTESIAN_POINT('',(31.3999992981553,32.0105320737944,15.3));
#1508=CARTESIAN_POINT('',(31.3999992981553,-30.0004679262056,30.6));
#1509=CARTESIAN_POINT('',(31.3999992981553,32.0105320737944,30.6));
#1510=CARTESIAN_POINT('',(31.3999992981553,-30.0004679262056,31.6));
#1511=CARTESIAN_POINT('Origin',(31.3999992981553,-29.9999993294477,0.));
#1512=CARTESIAN_POINT('',(31.3999992981553,-31.9999993294477,0.));
#1513=CARTESIAN_POINT('',(31.3999992981553,-31.9999993294477,0.));
#1514=CARTESIAN_POINT('',(33.3999992981553,-29.9999993294477,0.));
#1515=CARTESIAN_POINT('Origin',(31.3999992981553,-29.9999993294477,0.));
#1516=CARTESIAN_POINT('',(33.3999992981553,-29.9999993294477,0.));
#1517=CARTESIAN_POINT('Origin',(33.3999992981553,-31.9999993294477,0.));
#1518=CARTESIAN_POINT('',(33.3999992981553,31.0105320737944,0.));
#1519=CARTESIAN_POINT('',(33.3999992981553,32.0105320737944,0.));
#1520=CARTESIAN_POINT('',(33.3999992981553,31.0105320737944,0.));
#1521=CARTESIAN_POINT('Origin',(-0.0635316620234772,0.00526581337980225,
0.));
#1522=CARTESIAN_POINT('',(-31.5225468720465,-31.9999993294477,0.));
#1523=CARTESIAN_POINT('',(33.3999992981553,-31.9999993294477,0.));
#1524=CARTESIAN_POINT('',(-33.5225468720465,-29.9999993294477,0.));
#1525=CARTESIAN_POINT('Origin',(-31.5225468720465,-29.9999993294477,0.));
#1526=CARTESIAN_POINT('',(-33.5225468720465,31.0105320737944,0.));
#1527=CARTESIAN_POINT('',(-33.5225468720465,-31.9999993294477,0.));
#1528=CARTESIAN_POINT('',(-32.5225468720465,32.0105320737944,0.));
#1529=CARTESIAN_POINT('Origin',(-32.5225468720465,31.0105320737944,0.));
#1530=CARTESIAN_POINT('',(32.3999992981553,32.0105320737944,0.));
#1531=CARTESIAN_POINT('',(-33.5225468720465,32.0105320737944,0.));
#1532=CARTESIAN_POINT('Origin',(32.3999992981553,31.0105320737944,0.));
#1533=CARTESIAN_POINT('',(23.6274531279535,-3.98946792620556,0.));
#1534=CARTESIAN_POINT('Origin',(24.9774531279535,-3.98946792620556,0.));
#1535=CARTESIAN_POINT('',(-7.37254687204652,24.5105320737944,0.));
#1536=CARTESIAN_POINT('Origin',(-6.02254687204652,24.5105320737944,0.));
#1537=CARTESIAN_POINT('',(19.0929373777977,-21.4894679262056,0.));
#1538=CARTESIAN_POINT('Origin',(20.4429373777977,-21.4894679262056,0.));
#1539=CARTESIAN_POINT('',(-25.5725468720465,11.2705320737944,0.));
#1540=CARTESIAN_POINT('Origin',(-24.2225468720465,11.2705320737944,0.));
#1541=CARTESIAN_POINT('',(-21.7570626222023,-21.4894679262056,0.));
#1542=CARTESIAN_POINT('Origin',(-20.4070626222023,-21.4894679262056,0.));
#1543=CARTESIAN_POINT('Origin',(-31.5225468720465,-29.9999993294477,0.));
#1544=CARTESIAN_POINT('',(-33.5225468720465,-29.9999993294477,0.));
#1545=CARTESIAN_POINT('',(-31.5225468720465,-31.9999993294477,0.));
#1546=CARTESIAN_POINT('Origin',(-33.5225468720465,32.0105320737944,0.));
#1547=CARTESIAN_POINT('',(-33.5225468720465,31.0105320737944,0.));
#1548=CARTESIAN_POINT('Origin',(-32.5225468720465,31.0105320737944,0.));
#1549=CARTESIAN_POINT('',(-32.5225468720465,32.0105320737944,0.));
#1550=CARTESIAN_POINT('Origin',(32.3999992981553,31.0105320737944,0.));
#1551=CARTESIAN_POINT('',(32.3999992981553,32.0105320737944,0.));
#1552=CARTESIAN_POINT('Origin',(6.70015260774439,32.0105320737944,17.0232552106293));
#1553=CARTESIAN_POINT('',(15.7001526077444,32.0105320737944,17.0232552106293));
#1554=CARTESIAN_POINT('Origin',(6.70015260774439,32.0105320737944,17.0232552106293));
#1555=CARTESIAN_POINT('',(15.7001526077444,30.0105320737944,17.0232552106293));
#1556=CARTESIAN_POINT('',(15.7001526077444,32.0105320737944,17.0232552106293));
#1557=CARTESIAN_POINT('Origin',(6.70015260774439,30.0105320737944,17.0232552106293));
#1558=CARTESIAN_POINT('Origin',(-19.5998473922556,32.0105320737944,17.0232552106293));
#1559=CARTESIAN_POINT('',(-10.5998473922556,32.0105320737944,17.0232552106293));
#1560=CARTESIAN_POINT('Origin',(-19.5998473922556,32.0105320737944,17.0232552106293));
#1561=CARTESIAN_POINT('',(-10.5998473922556,30.0105320737944,17.0232552106293));
#1562=CARTESIAN_POINT('',(-10.5998473922556,32.0105320737944,17.0232552106293));
#1563=CARTESIAN_POINT('Origin',(-19.5998473922556,30.0105320737944,17.0232552106293));
#1564=CARTESIAN_POINT('Origin',(32.1499992981553,32.0105320737944,30.6));
#1565=CARTESIAN_POINT('',(32.1499992981553,32.0105320737944,30.6));
#1566=CARTESIAN_POINT('',(32.7749992981553,32.0105320737944,30.6));
#1567=CARTESIAN_POINT('',(32.1499992981553,-30.0004679262056,30.6));
#1568=CARTESIAN_POINT('',(32.1499992981553,32.0105320737944,30.6));
#1569=CARTESIAN_POINT('',(32.1499992981553,-30.0004679262056,30.6));
#1570=CARTESIAN_POINT('Origin',(32.1499992981553,32.0105320737944,29.6));
#1571=CARTESIAN_POINT('',(32.1499992981553,32.0105320737944,29.6));
#1572=CARTESIAN_POINT('',(32.1499992981553,32.0105320737944,14.8));
#1573=CARTESIAN_POINT('',(32.1499992981553,-30.0004679262056,29.6));
#1574=CARTESIAN_POINT('',(32.1499992981553,32.0105320737944,29.6));
#1575=CARTESIAN_POINT('',(32.1499992981553,-30.0004679262056,29.6));
#1576=CARTESIAN_POINT('Origin',(-32.2725468720465,32.0105320737944,29.6));
#1577=CARTESIAN_POINT('',(-32.2725468720465,32.0105320737944,29.6));
#1578=CARTESIAN_POINT('',(0.563726213054392,32.0105320737944,29.6));
#1579=CARTESIAN_POINT('',(-32.2725468720465,-30.0004679262056,29.6));
#1580=CARTESIAN_POINT('',(-32.2725468720465,32.0105320737944,29.6));
#1581=CARTESIAN_POINT('',(31.3999992981553,-30.0004679262056,29.6));
#1582=CARTESIAN_POINT('',(-31.5270626222023,-29.9999993294477,29.6));
#1583=CARTESIAN_POINT('',(31.3999992981553,-29.9999993294477,29.6));
#1584=CARTESIAN_POINT('',(-0.436273786945607,-29.9999993294477,29.6));
#1585=CARTESIAN_POINT('',(-31.5270626222023,30.0105320737944,29.6));
#1586=CARTESIAN_POINT('',(-31.5270626222023,1.00526637217335,29.6));
#1587=CARTESIAN_POINT('',(31.3999992981553,30.0105320737944,29.6));
#1588=CARTESIAN_POINT('',(-31.8998047471244,30.0105320737944,29.6));
#1589=CARTESIAN_POINT('',(31.3999992981553,31.0105320737944,29.6));
#1590=CARTESIAN_POINT('Origin',(-32.2725468720465,32.0105320737944,30.6));
#1591=CARTESIAN_POINT('',(-32.2725468720465,32.0105320737944,30.6));
#1592=CARTESIAN_POINT('',(-32.2725468720465,32.0105320737944,15.3));
#1593=CARTESIAN_POINT('',(-32.2725468720465,-30.0004679262056,30.6));
#1594=CARTESIAN_POINT('',(-32.2725468720465,32.0105320737944,30.6));
#1595=CARTESIAN_POINT('',(-32.2725468720465,-30.0004679262056,29.6));
#1596=CARTESIAN_POINT('Origin',(-31.5225468720465,32.0105320737944,30.6));
#1597=CARTESIAN_POINT('',(-31.5225468720465,-29.9999993294477,30.6));
#1598=CARTESIAN_POINT('',(-32.2725468720465,-30.0004679262056,30.6));
#1599=CARTESIAN_POINT('',(-31.5225468720465,32.0105320737944,30.6));
#1600=CARTESIAN_POINT('',(0.938726213054393,32.0105320737944,30.6));
#1601=CARTESIAN_POINT('',(-31.5225468720465,30.0105320737944,30.6));
#1602=CARTESIAN_POINT('',(-31.5225468720465,32.0105320737944,30.6));
#1603=CARTESIAN_POINT('',(-31.5270626222023,30.0105320737944,30.6));
#1604=CARTESIAN_POINT('',(-31.5248047471244,30.0105320737944,30.6));
#1605=CARTESIAN_POINT('',(-31.5270626222023,-29.9999993294477,30.6));
#1606=CARTESIAN_POINT('',(-31.5270626222023,1.00526637217335,30.6));
#1607=CARTESIAN_POINT('',(-0.0612737869456059,-29.9999993294477,30.6));
#1608=CARTESIAN_POINT('Origin',(-31.5225468720465,32.0105320737944,31.6));
#1609=CARTESIAN_POINT('',(-31.5225468720465,30.0105320737944,15.8));
#1610=CARTESIAN_POINT('',(-31.5225468720465,32.0105320737944,15.8));
#1611=CARTESIAN_POINT('Origin',(-0.0612737869456037,-30.0004679262056,30.6));
#1612=CARTESIAN_POINT('',(-31.5225468720465,-29.9999993294477,15.8));
#1613=CARTESIAN_POINT('Origin',(33.3999992981553,32.0105320737944,0.));
#1614=CARTESIAN_POINT('Origin',(-31.5270626222023,30.0105320737944,0.));
#1615=CARTESIAN_POINT('',(-31.5270626222023,30.0105320737944,0.));
#1616=CARTESIAN_POINT('Origin',(-31.5270626222023,30.0105320737944,0.));
#1617=CARTESIAN_POINT('',(-31.5270626222023,30.0105320737944,2.));
#1618=CARTESIAN_POINT('',(-31.5270626222023,30.0105320737944,0.));
#1619=CARTESIAN_POINT('',(31.3999992981553,30.0105320737944,2.));
#1620=CARTESIAN_POINT('',(-31.5270626222023,30.0105320737944,2.));
#1621=CARTESIAN_POINT('',(31.3999992981553,30.0105320737944,0.));
#1622=CARTESIAN_POINT('Origin',(-31.5270626222023,-29.9999993294477,0.));
#1623=CARTESIAN_POINT('',(-31.5270626222023,-29.9999993294477,0.));
#1624=CARTESIAN_POINT('Origin',(-31.5270626222023,-29.9999993294477,0.));
#1625=CARTESIAN_POINT('',(-31.5270626222023,-29.9999993294477,2.));
#1626=CARTESIAN_POINT('',(-31.5270626222023,-29.9999993294477,0.));
#1627=CARTESIAN_POINT('',(-31.5270626222023,11.0105320737944,2.));
#1628=CARTESIAN_POINT('Origin',(31.3999992981553,-29.9999993294477,0.));
#1629=CARTESIAN_POINT('Origin',(-20.4070626222023,-21.4894679262056,6.));
#1630=CARTESIAN_POINT('',(-24.4070626222023,-21.4894679262056,6.));
#1631=CARTESIAN_POINT('Origin',(-20.4070626222023,-21.4894679262056,6.));
#1632=CARTESIAN_POINT('',(-21.7570626222023,-21.4894679262056,6.));
#1633=CARTESIAN_POINT('Origin',(-20.4070626222023,-21.4894679262056,6.));
#1634=CARTESIAN_POINT('Origin',(20.4429373777977,-21.4894679262056,6.));
#1635=CARTESIAN_POINT('',(16.4429373777977,-21.4894679262056,6.));
#1636=CARTESIAN_POINT('Origin',(20.4429373777977,-21.4894679262056,6.));
#1637=CARTESIAN_POINT('',(19.0929373777977,-21.4894679262056,6.));
#1638=CARTESIAN_POINT('Origin',(20.4429373777977,-21.4894679262056,6.));
#1639=CARTESIAN_POINT('Origin',(24.9774531279535,-3.98946792620556,6.));
#1640=CARTESIAN_POINT('',(20.9774531279535,-3.98946792620556,6.));
#1641=CARTESIAN_POINT('Origin',(24.9774531279535,-3.98946792620556,6.));
#1642=CARTESIAN_POINT('',(23.6274531279535,-3.98946792620556,6.));
#1643=CARTESIAN_POINT('Origin',(24.9774531279535,-3.98946792620556,6.));
#1644=CARTESIAN_POINT('Origin',(-24.2225468720465,11.2705320737944,6.));
#1645=CARTESIAN_POINT('',(-28.2225468720465,11.2705320737944,6.));
#1646=CARTESIAN_POINT('Origin',(-24.2225468720465,11.2705320737944,6.));
#1647=CARTESIAN_POINT('',(-25.5725468720465,11.2705320737944,6.));
#1648=CARTESIAN_POINT('Origin',(-24.2225468720465,11.2705320737944,6.));
#1649=CARTESIAN_POINT('Origin',(-6.02254687204652,24.5105320737944,6.));
#1650=CARTESIAN_POINT('',(-10.0225468720465,24.5105320737944,6.));
#1651=CARTESIAN_POINT('Origin',(-6.02254687204652,24.5105320737944,6.));
#1652=CARTESIAN_POINT('',(-7.37254687204652,24.5105320737944,6.));
#1653=CARTESIAN_POINT('Origin',(-6.02254687204652,24.5105320737944,6.));
#1654=CARTESIAN_POINT('Origin',(31.3999992981553,-29.9999993294477,0.));
#1655=CARTESIAN_POINT('',(31.3999992981553,-29.9999993294477,2.));
#1656=CARTESIAN_POINT('',(31.3999992981553,-29.9999993294477,0.));
#1657=CARTESIAN_POINT('',(31.3999992981553,-29.9999993294477,2.));
#1658=CARTESIAN_POINT('Origin',(31.3999992981553,30.0105320737944,0.));
#1659=CARTESIAN_POINT('',(31.3999992981553,30.0105320737944,2.));
#1660=CARTESIAN_POINT('Origin',(-33.5225468720465,-31.9999993294477,0.));
#1661=CARTESIAN_POINT('Origin',(24.9774531279535,-3.98946792620556,0.));
#1662=CARTESIAN_POINT('',(20.9774531279535,-3.98946792620556,2.));
#1663=CARTESIAN_POINT('',(20.9774531279535,-3.98946792620556,0.));
#1664=CARTESIAN_POINT('Origin',(24.9774531279535,-3.98946792620556,2.));
#1665=CARTESIAN_POINT('Origin',(24.9774531279535,-3.98946792620556,0.));
#1666=CARTESIAN_POINT('',(23.6274531279535,-3.98946792620556,0.));
#1667=CARTESIAN_POINT('Origin',(-6.02254687204652,24.5105320737944,0.));
#1668=CARTESIAN_POINT('',(-10.0225468720465,24.5105320737944,2.));
#1669=CARTESIAN_POINT('',(-10.0225468720465,24.5105320737944,0.));
#1670=CARTESIAN_POINT('Origin',(-6.02254687204652,24.5105320737944,2.));
#1671=CARTESIAN_POINT('Origin',(-6.02254687204652,24.5105320737944,0.));
#1672=CARTESIAN_POINT('',(-7.37254687204652,24.5105320737944,0.));
#1673=CARTESIAN_POINT('Origin',(20.4429373777977,-21.4894679262056,0.));
#1674=CARTESIAN_POINT('',(16.4429373777977,-21.4894679262056,2.));
#1675=CARTESIAN_POINT('',(16.4429373777977,-21.4894679262056,0.));
#1676=CARTESIAN_POINT('Origin',(20.4429373777977,-21.4894679262056,2.));
#1677=CARTESIAN_POINT('Origin',(20.4429373777977,-21.4894679262056,0.));
#1678=CARTESIAN_POINT('',(19.0929373777977,-21.4894679262056,0.));
#1679=CARTESIAN_POINT('Origin',(-24.2225468720465,11.2705320737944,0.));
#1680=CARTESIAN_POINT('',(-28.2225468720465,11.2705320737944,2.));
#1681=CARTESIAN_POINT('',(-28.2225468720465,11.2705320737944,0.));
#1682=CARTESIAN_POINT('Origin',(-24.2225468720465,11.2705320737944,2.));
#1683=CARTESIAN_POINT('Origin',(-24.2225468720465,11.2705320737944,0.));
#1684=CARTESIAN_POINT('',(-25.5725468720465,11.2705320737944,0.));
#1685=CARTESIAN_POINT('Origin',(-20.4070626222023,-21.4894679262056,0.));
#1686=CARTESIAN_POINT('',(-24.4070626222023,-21.4894679262056,2.));
#1687=CARTESIAN_POINT('',(-24.4070626222023,-21.4894679262056,0.));
#1688=CARTESIAN_POINT('Origin',(-20.4070626222023,-21.4894679262056,2.));
#1689=CARTESIAN_POINT('Origin',(-20.4070626222023,-21.4894679262056,0.));
#1690=CARTESIAN_POINT('',(-21.7570626222023,-21.4894679262056,0.));
#1691=CARTESIAN_POINT('Origin',(-0.0635316620234772,0.00526581337980225,
2.));
#1692=CARTESIAN_POINT('Origin',(-6.02254687204652,24.5105320737944,29.6));
#1693=CARTESIAN_POINT('',(-4.67254687204652,24.5105320737944,29.6));
#1694=CARTESIAN_POINT('Origin',(-6.02254687204652,24.5105320737944,29.6));
#1695=CARTESIAN_POINT('',(-4.67254687204652,24.5105320737945,22.1437393259193));
#1696=CARTESIAN_POINT('',(-4.67254687204652,24.5105320737944,29.6));
#1697=CARTESIAN_POINT('Ctrl Pts',(-4.67254687204652,24.5105320737945,22.1437393259193));
#1698=CARTESIAN_POINT('Ctrl Pts',(-4.67254687204652,24.6802103082756,22.0185786950832));
#1699=CARTESIAN_POINT('Ctrl Pts',(-4.70451959475041,24.8482302869805,21.8891746907223));
#1700=CARTESIAN_POINT('Ctrl Pts',(-4.82866359212789,25.1629378343529,21.639469798553));
#1701=CARTESIAN_POINT('Ctrl Pts',(-4.92133486991353,25.3115479925986,21.5177391011501));
#1702=CARTESIAN_POINT('Ctrl Pts',(-5.15765700221887,25.5600917382047,21.3107934295235));
#1703=CARTESIAN_POINT('Ctrl Pts',(-5.29743493128075,25.6633627469389,21.2231390119535));
#1704=CARTESIAN_POINT('Ctrl Pts',(-5.56842412664957,25.7873483322601,21.1173066642762));
#1705=CARTESIAN_POINT('Ctrl Pts',(-5.68444181410428,25.8233422358191,21.0863730146235));
#1706=CARTESIAN_POINT('Ctrl Pts',(-5.90797522155978,25.8595853838203,21.0552096456381));
#1707=CARTESIAN_POINT('Ctrl Pts',(-6.01112460260716,25.8644160751459,21.0510446003738));
#1708=CARTESIAN_POINT('Ctrl Pts',(-6.22606298879774,25.8498217980199,21.0636051404334));
#1709=CARTESIAN_POINT('Ctrl Pts',(-6.33465686952016,25.828418400442,21.0820347563148));
#1710=CARTESIAN_POINT('Ctrl Pts',(-6.57907090824559,25.7494191171476,21.1497413193856));
#1711=CARTESIAN_POINT('Ctrl Pts',(-6.70628696267855,25.6826294560943,21.2068181734267));
#1712=CARTESIAN_POINT('Ctrl Pts',(-6.97024766241039,25.4904395835714,21.3691382903007));
#1713=CARTESIAN_POINT('Ctrl Pts',(-7.09701022578666,25.3489922388903,21.4873931375474));
#1714=CARTESIAN_POINT('Ctrl Pts',(-7.30274919092668,24.9937659637422,21.7754757011702));
#1715=CARTESIAN_POINT('Ctrl Pts',(-7.3637106030623,24.7780802863044,21.9449313051825));
#1716=CARTESIAN_POINT('Ctrl Pts',(-7.37827409796384,24.3775594848568,22.2427669903151));
#1717=CARTESIAN_POINT('Ctrl Pts',(-7.34817286535067,24.1914808604858,22.3747848282609));
#1718=CARTESIAN_POINT('Ctrl Pts',(-7.22025627262378,23.8683336195885,22.5921897056262));
#1719=CARTESIAN_POINT('Ctrl Pts',(-7.13609281441397,23.7293491005722,22.6811889057019));
#1720=CARTESIAN_POINT('Ctrl Pts',(-6.91353037689738,23.4828859664839,22.8330057375786));
#1721=CARTESIAN_POINT('Ctrl Pts',(-6.77765348999134,23.3778403739571,22.894476342224));
#1722=CARTESIAN_POINT('Ctrl Pts',(-6.50343788769091,23.2423315857884,22.9721258975605));
#1723=CARTESIAN_POINT('Ctrl Pts',(-6.37705018920308,23.2010781764589,22.9951121085163));
#1724=CARTESIAN_POINT('Ctrl Pts',(-6.12729530321014,23.1592940172491,23.0183494675822));
#1725=CARTESIAN_POINT('Ctrl Pts',(-6.00718636520376,23.1553491526047,23.0205141704413));
#1726=CARTESIAN_POINT('Ctrl Pts',(-5.76193448593796,23.1798449717977,23.0069315106914));
#1727=CARTESIAN_POINT('Ctrl Pts',(-5.63936942793451,23.2101238038666,22.9901606857365));
#1728=CARTESIAN_POINT('Ctrl Pts',(-5.37874501882014,23.3136697624061,22.9314678737403));
#1729=CARTESIAN_POINT('Ctrl Pts',(-5.24849535242758,23.3945933023013,22.8849187814303));
#1730=CARTESIAN_POINT('Ctrl Pts',(-4.99450336340125,23.6154850708929,22.7523965379114));
#1731=CARTESIAN_POINT('Ctrl Pts',(-4.88568080776564,23.7620229593628,22.6610406411828));
#1732=CARTESIAN_POINT('Ctrl Pts',(-4.71616707542532,24.1092397294471,22.4319937896066));
#1733=CARTESIAN_POINT('Ctrl Pts',(-4.67254687204652,24.3122428147914,22.2900044542708));
#1734=CARTESIAN_POINT('Ctrl Pts',(-4.67254687204652,24.5105320737944,22.1437393259194));
#1735=CARTESIAN_POINT('Origin',(-2.02254687204652,30.0105320737944,29.6));
#1736=CARTESIAN_POINT('',(-2.02254687204652,24.5105320737944,29.6));
#1737=CARTESIAN_POINT('',(-2.02254687204652,30.0105320737944,29.6));
#1738=CARTESIAN_POINT('',(-2.02254687204652,19.0105320737944,29.6));
#1739=CARTESIAN_POINT('',(-2.02254687204652,30.0105320737944,24.1));
#1740=CARTESIAN_POINT('Origin',(-2.02254687204652,30.0105320737944,29.6));
#1741=CARTESIAN_POINT('',(-2.02254687204652,30.0105320737944,18.6));
#1742=CARTESIAN_POINT('Origin',(-10.0225468720465,24.5105320737944,29.6));
#1743=CARTESIAN_POINT('',(-10.0225468720465,30.0105320737944,29.6));
#1744=CARTESIAN_POINT('',(-10.0225468720465,24.5105320737944,29.6));
#1745=CARTESIAN_POINT('',(-10.0225468720465,30.0105320737944,29.6));
#1746=CARTESIAN_POINT('',(-10.0225468720465,30.0105320737944,24.1));
#1747=CARTESIAN_POINT('',(-10.0225468720465,30.0105320737944,29.6));
#1748=CARTESIAN_POINT('Origin',(-10.0225468720465,30.0105320737944,29.6));
#1749=CARTESIAN_POINT('Origin',(-6.02254687204652,30.0105320737944,29.6));
#1750=CARTESIAN_POINT('Origin',(-6.02254687204652,24.5105320737944,29.6));
#1751=CARTESIAN_POINT('Origin',(-6.02254687204652,30.0105320737944,24.1));
#1752=CARTESIAN_POINT('Origin',(-6.02254687204652,25.2605320737944,29.6));
#1753=CARTESIAN_POINT('',(-2.02254687204652,30.0105320737944,29.6));
#1754=CARTESIAN_POINT('Origin',(-6.02254687204652,30.0105320737944,24.85));
#1755=UNCERTAINTY_MEASURE_WITH_UNIT(LENGTH_MEASURE(0.01),#1759,
'DISTANCE_ACCURACY_VALUE',
'Maximum model space distance between geometric entities at asserted c
onnectivities');
#1756=UNCERTAINTY_MEASURE_WITH_UNIT(LENGTH_MEASURE(0.01),#1759,
'DISTANCE_ACCURACY_VALUE',
'Maximum model space distance between geometric entities at asserted c
onnectivities');
#1757=(
GEOMETRIC_REPRESENTATION_CONTEXT(3)
GLOBAL_UNCERTAINTY_ASSIGNED_CONTEXT((#1755))
GLOBAL_UNIT_ASSIGNED_CONTEXT((#1759,#1760,#1761))
REPRESENTATION_CONTEXT('','3D')
);
#1758=(
GEOMETRIC_REPRESENTATION_CONTEXT(3)
GLOBAL_UNCERTAINTY_ASSIGNED_CONTEXT((#1756))
GLOBAL_UNIT_ASSIGNED_CONTEXT((#1759,#1760,#1761))
REPRESENTATION_CONTEXT('','3D')
);
#1759=(
LENGTH_UNIT()
NAMED_UNIT(*)
SI_UNIT(.MILLI.,.METRE.)
);
#1760=(
NAMED_UNIT(*)
PLANE_ANGLE_UNIT()
SI_UNIT($,.RADIAN.)
);
#1761=(
NAMED_UNIT(*)
SI_UNIT($,.STERADIAN.)
SOLID_ANGLE_UNIT()
);
#1762=SHAPE_DEFINITION_REPRESENTATION(#1763,#1764);
#1763=PRODUCT_DEFINITION_SHAPE('',$,#1766);
#1764=SHAPE_REPRESENTATION('',(#1011),#1757);
#1765=PRODUCT_DEFINITION_CONTEXT('part definition',#1770,'design');
#1766=PRODUCT_DEFINITION('garageguard','garageguard',#1767,#1765);
#1767=PRODUCT_DEFINITION_FORMATION('',$,#1772);
#1768=PRODUCT_RELATED_PRODUCT_CATEGORY('garageguard','garageguard',(#1772));
#1769=APPLICATION_PROTOCOL_DEFINITION('international standard',
'automotive_design',2009,#1770);
#1770=APPLICATION_CONTEXT(
'Core Data for Automotive Mechanical Design Process');
#1771=PRODUCT_CONTEXT('part definition',#1770,'mechanical');
#1772=PRODUCT('garageguard','garageguard',$,(#1771));
#1773=PRESENTATION_STYLE_ASSIGNMENT((#1777));
#1774=PRESENTATION_STYLE_ASSIGNMENT((#1778));
#1775=PRESENTATION_STYLE_ASSIGNMENT((#1779));
#1776=PRESENTATION_STYLE_ASSIGNMENT((#1780));
#1777=SURFACE_STYLE_USAGE(.BOTH.,#1781);
#1778=SURFACE_STYLE_USAGE(.BOTH.,#1782);
#1779=SURFACE_STYLE_USAGE(.BOTH.,#1783);
#1780=SURFACE_STYLE_USAGE(.BOTH.,#1784);
#1781=SURFACE_SIDE_STYLE('',(#1785));
#1782=SURFACE_SIDE_STYLE('',(#1786));
#1783=SURFACE_SIDE_STYLE('',(#1787));
#1784=SURFACE_SIDE_STYLE('',(#1788));
#1785=SURFACE_STYLE_FILL_AREA(#1789);
#1786=SURFACE_STYLE_FILL_AREA(#1790);
#1787=SURFACE_STYLE_FILL_AREA(#1791);
#1788=SURFACE_STYLE_FILL_AREA(#1792);
#1789=FILL_AREA_STYLE('Steel - Satin',(#1793));
#1790=FILL_AREA_STYLE('Steel - Satin',(#1794));
#1791=FILL_AREA_STYLE('Steel - Satin (1)',(#1795));
#1792=FILL_AREA_STYLE('Steel - Satin (1) (1)',(#1796));
#1793=FILL_AREA_STYLE_COLOUR('Steel - Satin',#1797);
#1794=FILL_AREA_STYLE_COLOUR('Steel - Satin',#1798);
#1795=FILL_AREA_STYLE_COLOUR('Steel - Satin (1)',#1799);
#1796=FILL_AREA_STYLE_COLOUR('Steel - Satin (1) (1)',#1800);
#1797=COLOUR_RGB('Steel - Satin',0.627450980392157,0.627450980392157,0.627450980392157);
#1798=COLOUR_RGB('Steel - Satin',0.823529411764706,0.501960784313725,0.301960784313725);
#1799=COLOUR_RGB('Steel - Satin (1)',0.96078431372549,0.83921568627451,
0.294117647058824);
#1800=COLOUR_RGB('Steel - Satin (1) (1)',0.474509803921569,0.262745098039216,
0.);
ENDSEC;
END-ISO-10303-21;
