%TF.GenerationSoftware,KiCad,Pcbnew,9.0.6*%
%TF.CreationDate,2026-06-09T21:40:17-04:00*%
%TF.ProjectId,pcb,7063622e-6b69-4636-9164-5f7063625858,rev?*%
%TF.SameCoordinates,Original*%
%TF.FileFunction,Copper,L2,Bot*%
%TF.FilePolarity,Positive*%
%FSLAX46Y46*%
G04 Gerber Fmt 4.6, Leading zero omitted, Abs format (unit mm)*
G04 Created by KiCad (PCBNEW 9.0.6) date 2026-06-09 21:40:17*
%MOMM*%
%LPD*%
G01*
G04 APERTURE LIST*
%ADD10C,0.152400*%
%TA.AperFunction,NonConductor*%
%ADD11C,0.152400*%
%TD*%
%TA.AperFunction,ComponentPad*%
%ADD12R,2.000000X2.500000*%
%TD*%
%TA.AperFunction,ComponentPad*%
%ADD13O,2.000000X2.500000*%
%TD*%
%TA.AperFunction,ComponentPad*%
%ADD14R,2.000000X2.000000*%
%TD*%
%TA.AperFunction,ComponentPad*%
%ADD15C,2.000000*%
%TD*%
%TA.AperFunction,ComponentPad*%
%ADD16C,1.600000*%
%TD*%
%TA.AperFunction,ComponentPad*%
%ADD17R,1.905000X1.905000*%
%TD*%
%TA.AperFunction,ComponentPad*%
%ADD18C,1.905000*%
%TD*%
%TA.AperFunction,ComponentPad*%
%ADD19C,1.879600*%
%TD*%
%TA.AperFunction,ViaPad*%
%ADD20C,0.600000*%
%TD*%
%TA.AperFunction,Conductor*%
%ADD21C,0.508000*%
%TD*%
%TA.AperFunction,Conductor*%
%ADD22C,0.381000*%
%TD*%
%TA.AperFunction,Profile*%
%ADD23C,0.050000*%
%TD*%
G04 APERTURE END LIST*
D10*
D11*
X125850671Y-102943048D02*
X126257071Y-103088191D01*
X126257071Y-103088191D02*
X125850671Y-103233334D01*
X126257071Y-103784877D02*
X126257071Y-103436534D01*
X126257071Y-103610705D02*
X125647471Y-103610705D01*
X125647471Y-103610705D02*
X125734557Y-103552648D01*
X125734557Y-103552648D02*
X125792614Y-103494591D01*
X125792614Y-103494591D02*
X125821643Y-103436534D01*
X125850671Y-104307391D02*
X126257071Y-104307391D01*
X125618443Y-104162248D02*
X126053871Y-104017105D01*
X126053871Y-104017105D02*
X126053871Y-104394476D01*
D12*
%TO.P,BT3,1,+*%
%TO.N,+1.5V*%
X96824800Y-118567200D03*
D13*
%TO.P,BT3,2,-*%
%TO.N,GND*%
X151224800Y-118567200D03*
%TD*%
D14*
%TO.P,U4,1,VIN*%
%TO.N,+3.3V*%
X125675000Y-74025000D03*
D15*
%TO.P,U4,2,SDA*%
%TO.N,Net-(U1-A4)*%
X125675000Y-76565000D03*
%TO.P,U4,3,GND*%
%TO.N,Net-(U4-GND)*%
X125675000Y-79105000D03*
%TO.P,U4,4,SCL*%
%TO.N,Net-(U1-A5)*%
X125675000Y-81645000D03*
%TD*%
D14*
%TO.P,BZ3,1,+*%
%TO.N,Net-(BZ3-+)*%
X143520000Y-76200000D03*
D15*
%TO.P,BZ3,2,-*%
%TO.N,GND*%
X151120000Y-76200000D03*
%TD*%
D16*
%TO.P,R4,1*%
%TO.N,Net-(U1-A0)*%
X99212400Y-78587600D03*
%TO.P,R4,2*%
%TO.N,Net-(U4-GND)*%
X106832400Y-78587600D03*
%TD*%
D15*
%TO.P,SW2,1,1*%
%TO.N,+3.3V*%
X144710000Y-91210000D03*
%TO.P,SW2,2,2*%
%TO.N,Net-(U1-2)*%
X149710000Y-91110000D03*
%TD*%
D14*
%TO.P,U3,1,Vi*%
%TO.N,+1.5V*%
X142087600Y-106121200D03*
D15*
%TO.P,U3,2,GND*%
%TO.N,GND*%
X142087600Y-103581200D03*
%TO.P,U3,3,GND*%
X142087600Y-101041200D03*
%TO.P,U3,4,Vo*%
%TO.N,+3.3V*%
X142087600Y-98501200D03*
%TD*%
D17*
%TO.P,U2,1,VCC*%
%TO.N,+3.3V*%
X121462800Y-85979000D03*
D18*
%TO.P,U2,2,TRIG*%
%TO.N,Net-(U1-11)*%
X118922800Y-85979000D03*
%TO.P,U2,3,ECHO*%
%TO.N,Net-(U1-10)*%
X116382800Y-85979000D03*
%TO.P,U2,4,GND*%
%TO.N,GND*%
X113842800Y-85979000D03*
%TD*%
D16*
%TO.P,TH2,1*%
%TO.N,Net-(U1-A0)*%
X99110800Y-72745600D03*
%TO.P,TH2,2*%
%TO.N,+3.3V*%
X106730800Y-72745600D03*
%TD*%
%TO.P,R3,1*%
%TO.N,GND*%
X132460000Y-91710000D03*
%TO.P,R3,2*%
%TO.N,Net-(U1-2)*%
X140080000Y-91710000D03*
%TD*%
D19*
%TO.P,U1,b1,GND*%
%TO.N,GND*%
X127533400Y-99910900D03*
%TO.P,U1,b2,A6*%
%TO.N,unconnected-(U1-A6-Padb2)*%
X127533400Y-97370900D03*
%TO.P,U1,b3,A7*%
%TO.N,unconnected-(U1-A7-Padb3)*%
X127533400Y-94830900D03*
%TO.P,U1,l1,9*%
%TO.N,unconnected-(U1-9-Padl1)*%
X127584200Y-107480100D03*
%TO.P,U1,l2,8*%
%TO.N,Net-(BZ3-+)*%
X125044200Y-107480100D03*
%TO.P,U1,l3,7*%
%TO.N,unconnected-(U1-7-Padl3)*%
X122504200Y-107480100D03*
%TO.P,U1,l4,6*%
%TO.N,unconnected-(U1-6-Padl4)*%
X119964200Y-107480100D03*
%TO.P,U1,l5,5*%
%TO.N,unconnected-(U1-5-Padl5)*%
X117424200Y-107480100D03*
%TO.P,U1,l6,4*%
%TO.N,unconnected-(U1-4-Padl6)*%
X114884200Y-107480100D03*
%TO.P,U1,l7,3*%
%TO.N,unconnected-(U1-3-Padl7)*%
X112344200Y-107480100D03*
%TO.P,U1,l8,2*%
%TO.N,Net-(U1-2)*%
X109804200Y-107480100D03*
%TO.P,U1,l9,GND*%
%TO.N,unconnected-(U1-GND-Padl9)*%
X107264200Y-107480100D03*
%TO.P,U1,l10,RST*%
%TO.N,unconnected-(U1-RST-Padl10)*%
X104724200Y-107480100D03*
%TO.P,U1,l11,RXI*%
%TO.N,unconnected-(U1-RXI-Padl11)*%
X102184200Y-107480100D03*
%TO.P,U1,l12,TXO*%
%TO.N,unconnected-(U1-TXO-Padl12)*%
X99644200Y-107480100D03*
%TO.P,U1,m1,A4*%
%TO.N,Net-(U1-A4)*%
X111074200Y-95161100D03*
%TO.P,U1,m2,A5*%
%TO.N,Net-(U1-A5)*%
X108534200Y-95161100D03*
%TO.P,U1,r1,RAW*%
%TO.N,unconnected-(U1-RAW-Padr1)*%
X99644200Y-92240100D03*
%TO.P,U1,r2,GND*%
%TO.N,Net-(U4-GND)*%
X102184200Y-92240100D03*
%TO.P,U1,r3,RST*%
%TO.N,unconnected-(U1-RST-Padr3)*%
X104724200Y-92240100D03*
%TO.P,U1,r4,VCC*%
%TO.N,+3.3V*%
X107264200Y-92240100D03*
%TO.P,U1,r5,A3*%
%TO.N,unconnected-(U1-A3-Padr5)*%
X109804200Y-92240100D03*
%TO.P,U1,r6,A2*%
%TO.N,unconnected-(U1-A2-Padr6)*%
X112344200Y-92240100D03*
%TO.P,U1,r7,A1*%
%TO.N,unconnected-(U1-A1-Padr7)*%
X114884200Y-92240100D03*
%TO.P,U1,r8,A0*%
%TO.N,Net-(U1-A0)*%
X117424200Y-92240100D03*
%TO.P,U1,r9,13*%
%TO.N,unconnected-(U1-13-Padr9)*%
X119964200Y-92240100D03*
%TO.P,U1,r10,12*%
%TO.N,unconnected-(U1-12-Padr10)*%
X122504200Y-92240100D03*
%TO.P,U1,r11,11*%
%TO.N,Net-(U1-11)*%
X125044200Y-92240100D03*
%TO.P,U1,r12,10*%
%TO.N,Net-(U1-10)*%
X127584200Y-92240100D03*
%TO.P,U1,t1,GND\u005CGRT*%
%TO.N,unconnected-(U1-GND\u005CGRT-Padt1)*%
X97104200Y-93510100D03*
%TO.P,U1,t2,GND*%
%TO.N,unconnected-(U1-GND-Padt2)*%
X97104200Y-96050100D03*
%TO.P,U1,t3,VCC*%
%TO.N,unconnected-(U1-VCC-Padt3)*%
X97104200Y-98590100D03*
%TO.P,U1,t4,RXI*%
%TO.N,unconnected-(U1-RXI-Padt4)*%
X97104200Y-101130100D03*
%TO.P,U1,t5,TXO*%
%TO.N,unconnected-(U1-TXO-Padt5)*%
X97104200Y-103670100D03*
%TO.P,U1,t6,DRT*%
%TO.N,unconnected-(U1-DRT-Padt6)*%
X97104200Y-106210100D03*
%TD*%
D20*
%TO.N,+3.3V*%
X139757153Y-96170753D03*
X107315000Y-88265000D03*
%TD*%
D21*
%TO.N,GND*%
X127596900Y-99974400D02*
X127533400Y-99910900D01*
X132460000Y-99746800D02*
X132232400Y-99974400D01*
X132232400Y-99974400D02*
X127596900Y-99974400D01*
X132460000Y-91710000D02*
X132460000Y-99746800D01*
%TO.N,+3.3V*%
X121564400Y-82143600D02*
X119888000Y-80467200D01*
X144710000Y-91170000D02*
X144710000Y-91210000D01*
X131445000Y-74025000D02*
X131445000Y-79222600D01*
X122747550Y-87263750D02*
X121462800Y-85979000D01*
X124739400Y-85979000D02*
X131445000Y-79273400D01*
X121564400Y-85877400D02*
X121564400Y-82143600D01*
X109575600Y-80467200D02*
X107315000Y-82727800D01*
X131445000Y-79273400D02*
X131445000Y-74025000D01*
X107315000Y-82727800D02*
X107315000Y-88265000D01*
X121462800Y-85979000D02*
X121564400Y-85877400D01*
X139395200Y-93235616D02*
X133423334Y-87263750D01*
X139757153Y-96170753D02*
X139395200Y-95808800D01*
X133423334Y-87263750D02*
X122747550Y-87263750D01*
X141067400Y-88845000D02*
X142385000Y-88845000D01*
X142385000Y-88845000D02*
X144710000Y-91170000D01*
X131445000Y-74025000D02*
X125675000Y-74025000D01*
X131445000Y-79222600D02*
X141067400Y-88845000D01*
X139395200Y-95808800D02*
X139395200Y-93235616D01*
X121462800Y-85979000D02*
X124739400Y-85979000D01*
X119888000Y-80467200D02*
X109575600Y-80467200D01*
D22*
%TO.N,Net-(U1-2)*%
X142360000Y-91710000D02*
X143995000Y-93345000D01*
X147395000Y-93345000D02*
X149630000Y-91110000D01*
X140080000Y-91710000D02*
X142360000Y-91710000D01*
X143995000Y-93345000D02*
X147395000Y-93345000D01*
X143995000Y-93345000D02*
X135282800Y-102057200D01*
X135282800Y-102057200D02*
X115227100Y-102057200D01*
X149630000Y-91110000D02*
X149710000Y-91110000D01*
X115227100Y-102057200D02*
X109804200Y-107480100D01*
D21*
%TO.N,Net-(U1-A0)*%
X105613200Y-88036400D02*
X106252000Y-88675200D01*
X105613200Y-81991200D02*
X105613200Y-88036400D01*
X117424200Y-91163900D02*
X117424200Y-92240100D01*
X107594400Y-90017600D02*
X116277900Y-90017600D01*
X106252000Y-88675200D02*
X106252000Y-88705310D01*
X99212400Y-78587600D02*
X102209600Y-78587600D01*
X106252000Y-88705310D02*
X106874690Y-89328000D01*
X106874690Y-89328000D02*
X106904800Y-89328000D01*
X116277900Y-90017600D02*
X117424200Y-91163900D01*
X102209600Y-78587600D02*
X105613200Y-81991200D01*
X106904800Y-89328000D02*
X107594400Y-90017600D01*
D22*
%TO.N,Net-(U1-11)*%
X118922800Y-86911600D02*
X118920000Y-86914400D01*
X123948700Y-90068400D02*
X125044200Y-91163900D01*
X118920000Y-86914400D02*
X118920000Y-88027750D01*
X118922800Y-85979000D02*
X118922800Y-86911600D01*
X120960650Y-90068400D02*
X123948700Y-90068400D01*
X125044200Y-91163900D02*
X125044200Y-92240100D01*
X118920000Y-88027750D02*
X120960650Y-90068400D01*
%TD*%
D23*
X93980000Y-68580000D02*
X153980000Y-68580000D01*
X153980000Y-128580000D01*
X93980000Y-128580000D01*
X93980000Y-68580000D01*
M02*
