M48
; DRILL file {KiCad 9.0.6} date 2026-06-09T21:40:29-0400
; FORMAT={-:-/ absolute / metric / decimal}
; #@! TF.CreationDate,2026-06-09T21:40:29-04:00
; #@! TF.GenerationSoftware,Kicad,Pcbnew,9.0.6
; #@! TF.FileFunction,Plated,1,2,PTH
FMAT,2
METRIC
; #@! TA.AperFunction,Plated,PTH,ViaDrill
T1C0.300
; #@! TA.AperFunction,Plated,PTH,ComponentDrill
T2C0.800
; #@! TA.AperFunction,Plated,PTH,ComponentDrill
T3C1.000
; #@! TA.AperFunction,Plated,PTH,ComponentDrill
T4C1.016
; #@! TA.AperFunction,Plated,PTH,ComponentDrill
T5C1.020
; #@! TA.AperFunction,Plated,PTH,ComponentDrill
T6C1.100
%
G90
G05
T1
X107.315Y-88.265
X139.757Y-96.171
T2
X99.111Y-72.746
X99.212Y-78.588
X106.731Y-72.746
X106.832Y-78.588
X132.46Y-91.71
X140.08Y-91.71
T3
X143.52Y-76.2
X151.12Y-76.2
T4
X97.104Y-93.51
X97.104Y-96.05
X97.104Y-98.59
X97.104Y-101.13
X97.104Y-103.67
X97.104Y-106.21
X99.644Y-92.24
X99.644Y-107.48
X102.184Y-92.24
X102.184Y-107.48
X104.724Y-92.24
X104.724Y-107.48
X107.264Y-92.24
X107.264Y-107.48
X108.534Y-95.161
X109.804Y-92.24
X109.804Y-107.48
X111.074Y-95.161
X112.344Y-92.24
X112.344Y-107.48
X114.884Y-92.24
X114.884Y-107.48
X117.424Y-92.24
X117.424Y-107.48
X119.964Y-92.24
X119.964Y-107.48
X122.504Y-92.24
X122.504Y-107.48
X125.044Y-92.24
X125.044Y-107.48
X125.675Y-74.025
X125.675Y-76.565
X125.675Y-79.105
X125.675Y-81.645
X127.533Y-94.831
X127.533Y-97.371
X127.533Y-99.911
X127.584Y-92.24
X127.584Y-107.48
X142.088Y-98.501
X142.088Y-101.041
X142.088Y-103.581
X142.088Y-106.121
T6
X113.843Y-85.979
X116.383Y-85.979
X118.923Y-85.979
X121.463Y-85.979
X144.71Y-91.21
X149.71Y-91.11
T5
X96.825Y-118.807G85X96.825Y-118.327
G05
X151.225Y-118.807G85X151.225Y-118.327
G05
M30
