%TF.GenerationSoftware,KiCad,Pcbnew,9.0.6*%
%TF.CreationDate,2026-06-09T21:40:17-04:00*%
%TF.ProjectId,pcb,7063622e-6b69-4636-9164-5f7063625858,rev?*%
%TF.SameCoordinates,Original*%
%TF.FileFunction,Legend,Bot*%
%TF.FilePolarity,Positive*%
%FSLAX46Y46*%
G04 Gerber Fmt 4.6, Leading zero omitted, Abs format (unit mm)*
G04 Created by KiCad (PCBNEW 9.0.6) date 2026-06-09 21:40:17*
%MOMM*%
%LPD*%
G01*
G04 APERTURE LIST*
%ADD10C,0.100000*%
%ADD11C,0.121920*%
%ADD12C,0.203200*%
%TA.AperFunction,Profile*%
%ADD13C,0.050000*%
%TD*%
G04 APERTURE END LIST*
D10*
X121983000Y-72618600D02*
G75*
G02*
X113983000Y-72618600I-4000000J0D01*
G01*
X113983000Y-72618600D02*
G75*
G02*
X121983000Y-72618600I4000000J0D01*
G01*
X107594400Y-118567200D02*
G75*
G02*
X99594400Y-118567200I-4000000J0D01*
G01*
X99594400Y-118567200D02*
G75*
G02*
X107594400Y-118567200I4000000J0D01*
G01*
X153047200Y-101193600D02*
G75*
G02*
X145047200Y-101193600I-4000000J0D01*
G01*
X145047200Y-101193600D02*
G75*
G02*
X153047200Y-101193600I4000000J0D01*
G01*
X103796600Y-85928200D02*
G75*
G02*
X95796600Y-85928200I-4000000J0D01*
G01*
X95796600Y-85928200D02*
G75*
G02*
X103796600Y-85928200I4000000J0D01*
G01*
X148526000Y-118554000D02*
G75*
G02*
X140526000Y-118554000I-4000000J0D01*
G01*
X140526000Y-118554000D02*
G75*
G02*
X148526000Y-118554000I4000000J0D01*
G01*
X151976115Y-124782419D02*
X151976115Y-123782419D01*
X151976115Y-124258609D02*
X151404687Y-124258609D01*
X151404687Y-124782419D02*
X151404687Y-123782419D01*
X150499925Y-124782419D02*
X150499925Y-124258609D01*
X150499925Y-124258609D02*
X150547544Y-124163371D01*
X150547544Y-124163371D02*
X150642782Y-124115752D01*
X150642782Y-124115752D02*
X150833258Y-124115752D01*
X150833258Y-124115752D02*
X150928496Y-124163371D01*
X150499925Y-124734800D02*
X150595163Y-124782419D01*
X150595163Y-124782419D02*
X150833258Y-124782419D01*
X150833258Y-124782419D02*
X150928496Y-124734800D01*
X150928496Y-124734800D02*
X150976115Y-124639561D01*
X150976115Y-124639561D02*
X150976115Y-124544323D01*
X150976115Y-124544323D02*
X150928496Y-124449085D01*
X150928496Y-124449085D02*
X150833258Y-124401466D01*
X150833258Y-124401466D02*
X150595163Y-124401466D01*
X150595163Y-124401466D02*
X150499925Y-124353847D01*
X149595163Y-124734800D02*
X149690401Y-124782419D01*
X149690401Y-124782419D02*
X149880877Y-124782419D01*
X149880877Y-124782419D02*
X149976115Y-124734800D01*
X149976115Y-124734800D02*
X150023734Y-124687180D01*
X150023734Y-124687180D02*
X150071353Y-124591942D01*
X150071353Y-124591942D02*
X150071353Y-124306228D01*
X150071353Y-124306228D02*
X150023734Y-124210990D01*
X150023734Y-124210990D02*
X149976115Y-124163371D01*
X149976115Y-124163371D02*
X149880877Y-124115752D01*
X149880877Y-124115752D02*
X149690401Y-124115752D01*
X149690401Y-124115752D02*
X149595163Y-124163371D01*
X149166591Y-124782419D02*
X149166591Y-123782419D01*
X149071353Y-124401466D02*
X148785639Y-124782419D01*
X148785639Y-124115752D02*
X149166591Y-124496704D01*
X147928496Y-124734800D02*
X148023734Y-124782419D01*
X148023734Y-124782419D02*
X148214210Y-124782419D01*
X148214210Y-124782419D02*
X148309448Y-124734800D01*
X148309448Y-124734800D02*
X148357067Y-124687180D01*
X148357067Y-124687180D02*
X148404686Y-124591942D01*
X148404686Y-124591942D02*
X148404686Y-124306228D01*
X148404686Y-124306228D02*
X148357067Y-124210990D01*
X148357067Y-124210990D02*
X148309448Y-124163371D01*
X148309448Y-124163371D02*
X148214210Y-124115752D01*
X148214210Y-124115752D02*
X148023734Y-124115752D01*
X148023734Y-124115752D02*
X147928496Y-124163371D01*
X147357067Y-124782419D02*
X147452305Y-124734800D01*
X147452305Y-124734800D02*
X147499924Y-124639561D01*
X147499924Y-124639561D02*
X147499924Y-123782419D01*
X146547543Y-124115752D02*
X146547543Y-124782419D01*
X146976114Y-124115752D02*
X146976114Y-124639561D01*
X146976114Y-124639561D02*
X146928495Y-124734800D01*
X146928495Y-124734800D02*
X146833257Y-124782419D01*
X146833257Y-124782419D02*
X146690400Y-124782419D01*
X146690400Y-124782419D02*
X146595162Y-124734800D01*
X146595162Y-124734800D02*
X146547543Y-124687180D01*
X146071352Y-124782419D02*
X146071352Y-123782419D01*
X146071352Y-124163371D02*
X145976114Y-124115752D01*
X145976114Y-124115752D02*
X145785638Y-124115752D01*
X145785638Y-124115752D02*
X145690400Y-124163371D01*
X145690400Y-124163371D02*
X145642781Y-124210990D01*
X145642781Y-124210990D02*
X145595162Y-124306228D01*
X145595162Y-124306228D02*
X145595162Y-124591942D01*
X145595162Y-124591942D02*
X145642781Y-124687180D01*
X145642781Y-124687180D02*
X145690400Y-124734800D01*
X145690400Y-124734800D02*
X145785638Y-124782419D01*
X145785638Y-124782419D02*
X145976114Y-124782419D01*
X145976114Y-124782419D02*
X146071352Y-124734800D01*
X144452304Y-124734800D02*
X144357066Y-124782419D01*
X144357066Y-124782419D02*
X144166590Y-124782419D01*
X144166590Y-124782419D02*
X144071352Y-124734800D01*
X144071352Y-124734800D02*
X144023733Y-124639561D01*
X144023733Y-124639561D02*
X144023733Y-124591942D01*
X144023733Y-124591942D02*
X144071352Y-124496704D01*
X144071352Y-124496704D02*
X144166590Y-124449085D01*
X144166590Y-124449085D02*
X144309447Y-124449085D01*
X144309447Y-124449085D02*
X144404685Y-124401466D01*
X144404685Y-124401466D02*
X144452304Y-124306228D01*
X144452304Y-124306228D02*
X144452304Y-124258609D01*
X144452304Y-124258609D02*
X144404685Y-124163371D01*
X144404685Y-124163371D02*
X144309447Y-124115752D01*
X144309447Y-124115752D02*
X144166590Y-124115752D01*
X144166590Y-124115752D02*
X144071352Y-124163371D01*
X143595161Y-124115752D02*
X143595161Y-125115752D01*
X143595161Y-124163371D02*
X143499923Y-124115752D01*
X143499923Y-124115752D02*
X143309447Y-124115752D01*
X143309447Y-124115752D02*
X143214209Y-124163371D01*
X143214209Y-124163371D02*
X143166590Y-124210990D01*
X143166590Y-124210990D02*
X143118971Y-124306228D01*
X143118971Y-124306228D02*
X143118971Y-124591942D01*
X143118971Y-124591942D02*
X143166590Y-124687180D01*
X143166590Y-124687180D02*
X143214209Y-124734800D01*
X143214209Y-124734800D02*
X143309447Y-124782419D01*
X143309447Y-124782419D02*
X143499923Y-124782419D01*
X143499923Y-124782419D02*
X143595161Y-124734800D01*
X142547542Y-124782419D02*
X142642780Y-124734800D01*
X142642780Y-124734800D02*
X142690399Y-124687180D01*
X142690399Y-124687180D02*
X142738018Y-124591942D01*
X142738018Y-124591942D02*
X142738018Y-124306228D01*
X142738018Y-124306228D02*
X142690399Y-124210990D01*
X142690399Y-124210990D02*
X142642780Y-124163371D01*
X142642780Y-124163371D02*
X142547542Y-124115752D01*
X142547542Y-124115752D02*
X142404685Y-124115752D01*
X142404685Y-124115752D02*
X142309447Y-124163371D01*
X142309447Y-124163371D02*
X142261828Y-124210990D01*
X142261828Y-124210990D02*
X142214209Y-124306228D01*
X142214209Y-124306228D02*
X142214209Y-124591942D01*
X142214209Y-124591942D02*
X142261828Y-124687180D01*
X142261828Y-124687180D02*
X142309447Y-124734800D01*
X142309447Y-124734800D02*
X142404685Y-124782419D01*
X142404685Y-124782419D02*
X142547542Y-124782419D01*
X141785637Y-124115752D02*
X141785637Y-124782419D01*
X141785637Y-124210990D02*
X141738018Y-124163371D01*
X141738018Y-124163371D02*
X141642780Y-124115752D01*
X141642780Y-124115752D02*
X141499923Y-124115752D01*
X141499923Y-124115752D02*
X141404685Y-124163371D01*
X141404685Y-124163371D02*
X141357066Y-124258609D01*
X141357066Y-124258609D02*
X141357066Y-124782419D01*
X140928494Y-124734800D02*
X140833256Y-124782419D01*
X140833256Y-124782419D02*
X140642780Y-124782419D01*
X140642780Y-124782419D02*
X140547542Y-124734800D01*
X140547542Y-124734800D02*
X140499923Y-124639561D01*
X140499923Y-124639561D02*
X140499923Y-124591942D01*
X140499923Y-124591942D02*
X140547542Y-124496704D01*
X140547542Y-124496704D02*
X140642780Y-124449085D01*
X140642780Y-124449085D02*
X140785637Y-124449085D01*
X140785637Y-124449085D02*
X140880875Y-124401466D01*
X140880875Y-124401466D02*
X140928494Y-124306228D01*
X140928494Y-124306228D02*
X140928494Y-124258609D01*
X140928494Y-124258609D02*
X140880875Y-124163371D01*
X140880875Y-124163371D02*
X140785637Y-124115752D01*
X140785637Y-124115752D02*
X140642780Y-124115752D01*
X140642780Y-124115752D02*
X140547542Y-124163371D01*
X139928494Y-124782419D02*
X140023732Y-124734800D01*
X140023732Y-124734800D02*
X140071351Y-124687180D01*
X140071351Y-124687180D02*
X140118970Y-124591942D01*
X140118970Y-124591942D02*
X140118970Y-124306228D01*
X140118970Y-124306228D02*
X140071351Y-124210990D01*
X140071351Y-124210990D02*
X140023732Y-124163371D01*
X140023732Y-124163371D02*
X139928494Y-124115752D01*
X139928494Y-124115752D02*
X139785637Y-124115752D01*
X139785637Y-124115752D02*
X139690399Y-124163371D01*
X139690399Y-124163371D02*
X139642780Y-124210990D01*
X139642780Y-124210990D02*
X139595161Y-124306228D01*
X139595161Y-124306228D02*
X139595161Y-124591942D01*
X139595161Y-124591942D02*
X139642780Y-124687180D01*
X139642780Y-124687180D02*
X139690399Y-124734800D01*
X139690399Y-124734800D02*
X139785637Y-124782419D01*
X139785637Y-124782419D02*
X139928494Y-124782419D01*
X139166589Y-124782419D02*
X139166589Y-124115752D01*
X139166589Y-124306228D02*
X139118970Y-124210990D01*
X139118970Y-124210990D02*
X139071351Y-124163371D01*
X139071351Y-124163371D02*
X138976113Y-124115752D01*
X138976113Y-124115752D02*
X138880875Y-124115752D01*
X138166589Y-124734800D02*
X138261827Y-124782419D01*
X138261827Y-124782419D02*
X138452303Y-124782419D01*
X138452303Y-124782419D02*
X138547541Y-124734800D01*
X138547541Y-124734800D02*
X138595160Y-124639561D01*
X138595160Y-124639561D02*
X138595160Y-124258609D01*
X138595160Y-124258609D02*
X138547541Y-124163371D01*
X138547541Y-124163371D02*
X138452303Y-124115752D01*
X138452303Y-124115752D02*
X138261827Y-124115752D01*
X138261827Y-124115752D02*
X138166589Y-124163371D01*
X138166589Y-124163371D02*
X138118970Y-124258609D01*
X138118970Y-124258609D02*
X138118970Y-124353847D01*
X138118970Y-124353847D02*
X138595160Y-124449085D01*
X137261827Y-124782419D02*
X137261827Y-123782419D01*
X137261827Y-124734800D02*
X137357065Y-124782419D01*
X137357065Y-124782419D02*
X137547541Y-124782419D01*
X137547541Y-124782419D02*
X137642779Y-124734800D01*
X137642779Y-124734800D02*
X137690398Y-124687180D01*
X137690398Y-124687180D02*
X137738017Y-124591942D01*
X137738017Y-124591942D02*
X137738017Y-124306228D01*
X137738017Y-124306228D02*
X137690398Y-124210990D01*
X137690398Y-124210990D02*
X137642779Y-124163371D01*
X137642779Y-124163371D02*
X137547541Y-124115752D01*
X137547541Y-124115752D02*
X137357065Y-124115752D01*
X137357065Y-124115752D02*
X137261827Y-124163371D01*
X136023731Y-124115752D02*
X136023731Y-125115752D01*
X136023731Y-124163371D02*
X135928493Y-124115752D01*
X135928493Y-124115752D02*
X135738017Y-124115752D01*
X135738017Y-124115752D02*
X135642779Y-124163371D01*
X135642779Y-124163371D02*
X135595160Y-124210990D01*
X135595160Y-124210990D02*
X135547541Y-124306228D01*
X135547541Y-124306228D02*
X135547541Y-124591942D01*
X135547541Y-124591942D02*
X135595160Y-124687180D01*
X135595160Y-124687180D02*
X135642779Y-124734800D01*
X135642779Y-124734800D02*
X135738017Y-124782419D01*
X135738017Y-124782419D02*
X135928493Y-124782419D01*
X135928493Y-124782419D02*
X136023731Y-124734800D01*
X135118969Y-124782419D02*
X135118969Y-124115752D01*
X135118969Y-124306228D02*
X135071350Y-124210990D01*
X135071350Y-124210990D02*
X135023731Y-124163371D01*
X135023731Y-124163371D02*
X134928493Y-124115752D01*
X134928493Y-124115752D02*
X134833255Y-124115752D01*
X134357064Y-124782419D02*
X134452302Y-124734800D01*
X134452302Y-124734800D02*
X134499921Y-124687180D01*
X134499921Y-124687180D02*
X134547540Y-124591942D01*
X134547540Y-124591942D02*
X134547540Y-124306228D01*
X134547540Y-124306228D02*
X134499921Y-124210990D01*
X134499921Y-124210990D02*
X134452302Y-124163371D01*
X134452302Y-124163371D02*
X134357064Y-124115752D01*
X134357064Y-124115752D02*
X134214207Y-124115752D01*
X134214207Y-124115752D02*
X134118969Y-124163371D01*
X134118969Y-124163371D02*
X134071350Y-124210990D01*
X134071350Y-124210990D02*
X134023731Y-124306228D01*
X134023731Y-124306228D02*
X134023731Y-124591942D01*
X134023731Y-124591942D02*
X134071350Y-124687180D01*
X134071350Y-124687180D02*
X134118969Y-124734800D01*
X134118969Y-124734800D02*
X134214207Y-124782419D01*
X134214207Y-124782419D02*
X134357064Y-124782419D01*
X133595159Y-124115752D02*
X133595159Y-124972895D01*
X133595159Y-124972895D02*
X133642778Y-125068133D01*
X133642778Y-125068133D02*
X133738016Y-125115752D01*
X133738016Y-125115752D02*
X133785635Y-125115752D01*
X133595159Y-123782419D02*
X133642778Y-123830038D01*
X133642778Y-123830038D02*
X133595159Y-123877657D01*
X133595159Y-123877657D02*
X133547540Y-123830038D01*
X133547540Y-123830038D02*
X133595159Y-123782419D01*
X133595159Y-123782419D02*
X133595159Y-123877657D01*
X132738017Y-124734800D02*
X132833255Y-124782419D01*
X132833255Y-124782419D02*
X133023731Y-124782419D01*
X133023731Y-124782419D02*
X133118969Y-124734800D01*
X133118969Y-124734800D02*
X133166588Y-124639561D01*
X133166588Y-124639561D02*
X133166588Y-124258609D01*
X133166588Y-124258609D02*
X133118969Y-124163371D01*
X133118969Y-124163371D02*
X133023731Y-124115752D01*
X133023731Y-124115752D02*
X132833255Y-124115752D01*
X132833255Y-124115752D02*
X132738017Y-124163371D01*
X132738017Y-124163371D02*
X132690398Y-124258609D01*
X132690398Y-124258609D02*
X132690398Y-124353847D01*
X132690398Y-124353847D02*
X133166588Y-124449085D01*
X131833255Y-124734800D02*
X131928493Y-124782419D01*
X131928493Y-124782419D02*
X132118969Y-124782419D01*
X132118969Y-124782419D02*
X132214207Y-124734800D01*
X132214207Y-124734800D02*
X132261826Y-124687180D01*
X132261826Y-124687180D02*
X132309445Y-124591942D01*
X132309445Y-124591942D02*
X132309445Y-124306228D01*
X132309445Y-124306228D02*
X132261826Y-124210990D01*
X132261826Y-124210990D02*
X132214207Y-124163371D01*
X132214207Y-124163371D02*
X132118969Y-124115752D01*
X132118969Y-124115752D02*
X131928493Y-124115752D01*
X131928493Y-124115752D02*
X131833255Y-124163371D01*
X131547540Y-124115752D02*
X131166588Y-124115752D01*
X131404683Y-123782419D02*
X131404683Y-124639561D01*
X131404683Y-124639561D02*
X131357064Y-124734800D01*
X131357064Y-124734800D02*
X131261826Y-124782419D01*
X131261826Y-124782419D02*
X131166588Y-124782419D01*
X137218972Y-119492475D02*
X136647544Y-119492475D01*
X136933258Y-120492475D02*
X136933258Y-119492475D01*
X136314210Y-120492475D02*
X136314210Y-119492475D01*
X135885639Y-120492475D02*
X135885639Y-119968665D01*
X135885639Y-119968665D02*
X135933258Y-119873427D01*
X135933258Y-119873427D02*
X136028496Y-119825808D01*
X136028496Y-119825808D02*
X136171353Y-119825808D01*
X136171353Y-119825808D02*
X136266591Y-119873427D01*
X136266591Y-119873427D02*
X136314210Y-119921046D01*
X135028496Y-120444856D02*
X135123734Y-120492475D01*
X135123734Y-120492475D02*
X135314210Y-120492475D01*
X135314210Y-120492475D02*
X135409448Y-120444856D01*
X135409448Y-120444856D02*
X135457067Y-120349617D01*
X135457067Y-120349617D02*
X135457067Y-119968665D01*
X135457067Y-119968665D02*
X135409448Y-119873427D01*
X135409448Y-119873427D02*
X135314210Y-119825808D01*
X135314210Y-119825808D02*
X135123734Y-119825808D01*
X135123734Y-119825808D02*
X135028496Y-119873427D01*
X135028496Y-119873427D02*
X134980877Y-119968665D01*
X134980877Y-119968665D02*
X134980877Y-120063903D01*
X134980877Y-120063903D02*
X135457067Y-120159141D01*
X134552305Y-120492475D02*
X134552305Y-119825808D01*
X134552305Y-120016284D02*
X134504686Y-119921046D01*
X134504686Y-119921046D02*
X134457067Y-119873427D01*
X134457067Y-119873427D02*
X134361829Y-119825808D01*
X134361829Y-119825808D02*
X134266591Y-119825808D01*
X133933257Y-120492475D02*
X133933257Y-119825808D01*
X133933257Y-119921046D02*
X133885638Y-119873427D01*
X133885638Y-119873427D02*
X133790400Y-119825808D01*
X133790400Y-119825808D02*
X133647543Y-119825808D01*
X133647543Y-119825808D02*
X133552305Y-119873427D01*
X133552305Y-119873427D02*
X133504686Y-119968665D01*
X133504686Y-119968665D02*
X133504686Y-120492475D01*
X133504686Y-119968665D02*
X133457067Y-119873427D01*
X133457067Y-119873427D02*
X133361829Y-119825808D01*
X133361829Y-119825808D02*
X133218972Y-119825808D01*
X133218972Y-119825808D02*
X133123733Y-119873427D01*
X133123733Y-119873427D02*
X133076114Y-119968665D01*
X133076114Y-119968665D02*
X133076114Y-120492475D01*
X132457067Y-120492475D02*
X132552305Y-120444856D01*
X132552305Y-120444856D02*
X132599924Y-120397236D01*
X132599924Y-120397236D02*
X132647543Y-120301998D01*
X132647543Y-120301998D02*
X132647543Y-120016284D01*
X132647543Y-120016284D02*
X132599924Y-119921046D01*
X132599924Y-119921046D02*
X132552305Y-119873427D01*
X132552305Y-119873427D02*
X132457067Y-119825808D01*
X132457067Y-119825808D02*
X132314210Y-119825808D01*
X132314210Y-119825808D02*
X132218972Y-119873427D01*
X132218972Y-119873427D02*
X132171353Y-119921046D01*
X132171353Y-119921046D02*
X132123734Y-120016284D01*
X132123734Y-120016284D02*
X132123734Y-120301998D01*
X132123734Y-120301998D02*
X132171353Y-120397236D01*
X132171353Y-120397236D02*
X132218972Y-120444856D01*
X132218972Y-120444856D02*
X132314210Y-120492475D01*
X132314210Y-120492475D02*
X132457067Y-120492475D01*
X131695162Y-120492475D02*
X131695162Y-119492475D01*
X131695162Y-119873427D02*
X131599924Y-119825808D01*
X131599924Y-119825808D02*
X131409448Y-119825808D01*
X131409448Y-119825808D02*
X131314210Y-119873427D01*
X131314210Y-119873427D02*
X131266591Y-119921046D01*
X131266591Y-119921046D02*
X131218972Y-120016284D01*
X131218972Y-120016284D02*
X131218972Y-120301998D01*
X131218972Y-120301998D02*
X131266591Y-120397236D01*
X131266591Y-120397236D02*
X131314210Y-120444856D01*
X131314210Y-120444856D02*
X131409448Y-120492475D01*
X131409448Y-120492475D02*
X131599924Y-120492475D01*
X131599924Y-120492475D02*
X131695162Y-120444856D01*
X130361829Y-119825808D02*
X130361829Y-120492475D01*
X130790400Y-119825808D02*
X130790400Y-120349617D01*
X130790400Y-120349617D02*
X130742781Y-120444856D01*
X130742781Y-120444856D02*
X130647543Y-120492475D01*
X130647543Y-120492475D02*
X130504686Y-120492475D01*
X130504686Y-120492475D02*
X130409448Y-120444856D01*
X130409448Y-120444856D02*
X130361829Y-120397236D01*
X129980876Y-119825808D02*
X129457067Y-119825808D01*
X129457067Y-119825808D02*
X129980876Y-120492475D01*
X129980876Y-120492475D02*
X129457067Y-120492475D01*
X129171352Y-119825808D02*
X128647543Y-119825808D01*
X128647543Y-119825808D02*
X129171352Y-120492475D01*
X129171352Y-120492475D02*
X128647543Y-120492475D01*
X127885638Y-120444856D02*
X127980876Y-120492475D01*
X127980876Y-120492475D02*
X128171352Y-120492475D01*
X128171352Y-120492475D02*
X128266590Y-120444856D01*
X128266590Y-120444856D02*
X128314209Y-120349617D01*
X128314209Y-120349617D02*
X128314209Y-119968665D01*
X128314209Y-119968665D02*
X128266590Y-119873427D01*
X128266590Y-119873427D02*
X128171352Y-119825808D01*
X128171352Y-119825808D02*
X127980876Y-119825808D01*
X127980876Y-119825808D02*
X127885638Y-119873427D01*
X127885638Y-119873427D02*
X127838019Y-119968665D01*
X127838019Y-119968665D02*
X127838019Y-120063903D01*
X127838019Y-120063903D02*
X128314209Y-120159141D01*
X127409447Y-120492475D02*
X127409447Y-119825808D01*
X127409447Y-120016284D02*
X127361828Y-119921046D01*
X127361828Y-119921046D02*
X127314209Y-119873427D01*
X127314209Y-119873427D02*
X127218971Y-119825808D01*
X127218971Y-119825808D02*
X127123733Y-119825808D01*
X125314209Y-119444856D02*
X126171351Y-120730570D01*
X123695161Y-119540094D02*
X123790399Y-119492475D01*
X123790399Y-119492475D02*
X123933256Y-119492475D01*
X123933256Y-119492475D02*
X124076113Y-119540094D01*
X124076113Y-119540094D02*
X124171351Y-119635332D01*
X124171351Y-119635332D02*
X124218970Y-119730570D01*
X124218970Y-119730570D02*
X124266589Y-119921046D01*
X124266589Y-119921046D02*
X124266589Y-120063903D01*
X124266589Y-120063903D02*
X124218970Y-120254379D01*
X124218970Y-120254379D02*
X124171351Y-120349617D01*
X124171351Y-120349617D02*
X124076113Y-120444856D01*
X124076113Y-120444856D02*
X123933256Y-120492475D01*
X123933256Y-120492475D02*
X123838018Y-120492475D01*
X123838018Y-120492475D02*
X123695161Y-120444856D01*
X123695161Y-120444856D02*
X123647542Y-120397236D01*
X123647542Y-120397236D02*
X123647542Y-120063903D01*
X123647542Y-120063903D02*
X123838018Y-120063903D01*
X122790399Y-120492475D02*
X122790399Y-119968665D01*
X122790399Y-119968665D02*
X122838018Y-119873427D01*
X122838018Y-119873427D02*
X122933256Y-119825808D01*
X122933256Y-119825808D02*
X123123732Y-119825808D01*
X123123732Y-119825808D02*
X123218970Y-119873427D01*
X122790399Y-120444856D02*
X122885637Y-120492475D01*
X122885637Y-120492475D02*
X123123732Y-120492475D01*
X123123732Y-120492475D02*
X123218970Y-120444856D01*
X123218970Y-120444856D02*
X123266589Y-120349617D01*
X123266589Y-120349617D02*
X123266589Y-120254379D01*
X123266589Y-120254379D02*
X123218970Y-120159141D01*
X123218970Y-120159141D02*
X123123732Y-120111522D01*
X123123732Y-120111522D02*
X122885637Y-120111522D01*
X122885637Y-120111522D02*
X122790399Y-120063903D01*
X122314208Y-120492475D02*
X122314208Y-119825808D01*
X122314208Y-120016284D02*
X122266589Y-119921046D01*
X122266589Y-119921046D02*
X122218970Y-119873427D01*
X122218970Y-119873427D02*
X122123732Y-119825808D01*
X122123732Y-119825808D02*
X122028494Y-119825808D01*
X121266589Y-120492475D02*
X121266589Y-119968665D01*
X121266589Y-119968665D02*
X121314208Y-119873427D01*
X121314208Y-119873427D02*
X121409446Y-119825808D01*
X121409446Y-119825808D02*
X121599922Y-119825808D01*
X121599922Y-119825808D02*
X121695160Y-119873427D01*
X121266589Y-120444856D02*
X121361827Y-120492475D01*
X121361827Y-120492475D02*
X121599922Y-120492475D01*
X121599922Y-120492475D02*
X121695160Y-120444856D01*
X121695160Y-120444856D02*
X121742779Y-120349617D01*
X121742779Y-120349617D02*
X121742779Y-120254379D01*
X121742779Y-120254379D02*
X121695160Y-120159141D01*
X121695160Y-120159141D02*
X121599922Y-120111522D01*
X121599922Y-120111522D02*
X121361827Y-120111522D01*
X121361827Y-120111522D02*
X121266589Y-120063903D01*
X120361827Y-119825808D02*
X120361827Y-120635332D01*
X120361827Y-120635332D02*
X120409446Y-120730570D01*
X120409446Y-120730570D02*
X120457065Y-120778189D01*
X120457065Y-120778189D02*
X120552303Y-120825808D01*
X120552303Y-120825808D02*
X120695160Y-120825808D01*
X120695160Y-120825808D02*
X120790398Y-120778189D01*
X120361827Y-120444856D02*
X120457065Y-120492475D01*
X120457065Y-120492475D02*
X120647541Y-120492475D01*
X120647541Y-120492475D02*
X120742779Y-120444856D01*
X120742779Y-120444856D02*
X120790398Y-120397236D01*
X120790398Y-120397236D02*
X120838017Y-120301998D01*
X120838017Y-120301998D02*
X120838017Y-120016284D01*
X120838017Y-120016284D02*
X120790398Y-119921046D01*
X120790398Y-119921046D02*
X120742779Y-119873427D01*
X120742779Y-119873427D02*
X120647541Y-119825808D01*
X120647541Y-119825808D02*
X120457065Y-119825808D01*
X120457065Y-119825808D02*
X120361827Y-119873427D01*
X119504684Y-120444856D02*
X119599922Y-120492475D01*
X119599922Y-120492475D02*
X119790398Y-120492475D01*
X119790398Y-120492475D02*
X119885636Y-120444856D01*
X119885636Y-120444856D02*
X119933255Y-120349617D01*
X119933255Y-120349617D02*
X119933255Y-119968665D01*
X119933255Y-119968665D02*
X119885636Y-119873427D01*
X119885636Y-119873427D02*
X119790398Y-119825808D01*
X119790398Y-119825808D02*
X119599922Y-119825808D01*
X119599922Y-119825808D02*
X119504684Y-119873427D01*
X119504684Y-119873427D02*
X119457065Y-119968665D01*
X119457065Y-119968665D02*
X119457065Y-120063903D01*
X119457065Y-120063903D02*
X119933255Y-120159141D01*
X118504684Y-119540094D02*
X118599922Y-119492475D01*
X118599922Y-119492475D02*
X118742779Y-119492475D01*
X118742779Y-119492475D02*
X118885636Y-119540094D01*
X118885636Y-119540094D02*
X118980874Y-119635332D01*
X118980874Y-119635332D02*
X119028493Y-119730570D01*
X119028493Y-119730570D02*
X119076112Y-119921046D01*
X119076112Y-119921046D02*
X119076112Y-120063903D01*
X119076112Y-120063903D02*
X119028493Y-120254379D01*
X119028493Y-120254379D02*
X118980874Y-120349617D01*
X118980874Y-120349617D02*
X118885636Y-120444856D01*
X118885636Y-120444856D02*
X118742779Y-120492475D01*
X118742779Y-120492475D02*
X118647541Y-120492475D01*
X118647541Y-120492475D02*
X118504684Y-120444856D01*
X118504684Y-120444856D02*
X118457065Y-120397236D01*
X118457065Y-120397236D02*
X118457065Y-120063903D01*
X118457065Y-120063903D02*
X118647541Y-120063903D01*
X117599922Y-119825808D02*
X117599922Y-120492475D01*
X118028493Y-119825808D02*
X118028493Y-120349617D01*
X118028493Y-120349617D02*
X117980874Y-120444856D01*
X117980874Y-120444856D02*
X117885636Y-120492475D01*
X117885636Y-120492475D02*
X117742779Y-120492475D01*
X117742779Y-120492475D02*
X117647541Y-120444856D01*
X117647541Y-120444856D02*
X117599922Y-120397236D01*
X116695160Y-120492475D02*
X116695160Y-119968665D01*
X116695160Y-119968665D02*
X116742779Y-119873427D01*
X116742779Y-119873427D02*
X116838017Y-119825808D01*
X116838017Y-119825808D02*
X117028493Y-119825808D01*
X117028493Y-119825808D02*
X117123731Y-119873427D01*
X116695160Y-120444856D02*
X116790398Y-120492475D01*
X116790398Y-120492475D02*
X117028493Y-120492475D01*
X117028493Y-120492475D02*
X117123731Y-120444856D01*
X117123731Y-120444856D02*
X117171350Y-120349617D01*
X117171350Y-120349617D02*
X117171350Y-120254379D01*
X117171350Y-120254379D02*
X117123731Y-120159141D01*
X117123731Y-120159141D02*
X117028493Y-120111522D01*
X117028493Y-120111522D02*
X116790398Y-120111522D01*
X116790398Y-120111522D02*
X116695160Y-120063903D01*
X116218969Y-120492475D02*
X116218969Y-119825808D01*
X116218969Y-120016284D02*
X116171350Y-119921046D01*
X116171350Y-119921046D02*
X116123731Y-119873427D01*
X116123731Y-119873427D02*
X116028493Y-119825808D01*
X116028493Y-119825808D02*
X115933255Y-119825808D01*
X115171350Y-120492475D02*
X115171350Y-119492475D01*
X115171350Y-120444856D02*
X115266588Y-120492475D01*
X115266588Y-120492475D02*
X115457064Y-120492475D01*
X115457064Y-120492475D02*
X115552302Y-120444856D01*
X115552302Y-120444856D02*
X115599921Y-120397236D01*
X115599921Y-120397236D02*
X115647540Y-120301998D01*
X115647540Y-120301998D02*
X115647540Y-120016284D01*
X115647540Y-120016284D02*
X115599921Y-119921046D01*
X115599921Y-119921046D02*
X115552302Y-119873427D01*
X115552302Y-119873427D02*
X115457064Y-119825808D01*
X115457064Y-119825808D02*
X115266588Y-119825808D01*
X115266588Y-119825808D02*
X115171350Y-119873427D01*
X114076111Y-119492475D02*
X113742778Y-120492475D01*
X113742778Y-120492475D02*
X113409445Y-119492475D01*
X112695159Y-120444856D02*
X112790397Y-120492475D01*
X112790397Y-120492475D02*
X112980873Y-120492475D01*
X112980873Y-120492475D02*
X113076111Y-120444856D01*
X113076111Y-120444856D02*
X113123730Y-120349617D01*
X113123730Y-120349617D02*
X113123730Y-119968665D01*
X113123730Y-119968665D02*
X113076111Y-119873427D01*
X113076111Y-119873427D02*
X112980873Y-119825808D01*
X112980873Y-119825808D02*
X112790397Y-119825808D01*
X112790397Y-119825808D02*
X112695159Y-119873427D01*
X112695159Y-119873427D02*
X112647540Y-119968665D01*
X112647540Y-119968665D02*
X112647540Y-120063903D01*
X112647540Y-120063903D02*
X113123730Y-120159141D01*
X112218968Y-120492475D02*
X112218968Y-119825808D01*
X112218968Y-120016284D02*
X112171349Y-119921046D01*
X112171349Y-119921046D02*
X112123730Y-119873427D01*
X112123730Y-119873427D02*
X112028492Y-119825808D01*
X112028492Y-119825808D02*
X111933254Y-119825808D01*
X110314206Y-120492475D02*
X110885634Y-120492475D01*
X110599920Y-120492475D02*
X110599920Y-119492475D01*
X110599920Y-119492475D02*
X110695158Y-119635332D01*
X110695158Y-119635332D02*
X110790396Y-119730570D01*
X110790396Y-119730570D02*
X110885634Y-119778189D01*
X109885634Y-120397236D02*
X109838015Y-120444856D01*
X109838015Y-120444856D02*
X109885634Y-120492475D01*
X109885634Y-120492475D02*
X109933253Y-120444856D01*
X109933253Y-120444856D02*
X109885634Y-120397236D01*
X109885634Y-120397236D02*
X109885634Y-120492475D01*
X109218968Y-119492475D02*
X109123730Y-119492475D01*
X109123730Y-119492475D02*
X109028492Y-119540094D01*
X109028492Y-119540094D02*
X108980873Y-119587713D01*
X108980873Y-119587713D02*
X108933254Y-119682951D01*
X108933254Y-119682951D02*
X108885635Y-119873427D01*
X108885635Y-119873427D02*
X108885635Y-120111522D01*
X108885635Y-120111522D02*
X108933254Y-120301998D01*
X108933254Y-120301998D02*
X108980873Y-120397236D01*
X108980873Y-120397236D02*
X109028492Y-120444856D01*
X109028492Y-120444856D02*
X109123730Y-120492475D01*
X109123730Y-120492475D02*
X109218968Y-120492475D01*
X109218968Y-120492475D02*
X109314206Y-120444856D01*
X109314206Y-120444856D02*
X109361825Y-120397236D01*
X109361825Y-120397236D02*
X109409444Y-120301998D01*
X109409444Y-120301998D02*
X109457063Y-120111522D01*
X109457063Y-120111522D02*
X109457063Y-119873427D01*
X109457063Y-119873427D02*
X109409444Y-119682951D01*
X109409444Y-119682951D02*
X109361825Y-119587713D01*
X109361825Y-119587713D02*
X109314206Y-119540094D01*
X109314206Y-119540094D02*
X109218968Y-119492475D01*
X137123734Y-121816704D02*
X136647544Y-121816704D01*
X137218972Y-122102419D02*
X136885639Y-121102419D01*
X136885639Y-121102419D02*
X136552306Y-122102419D01*
X136218972Y-121435752D02*
X136218972Y-122102419D01*
X136218972Y-121530990D02*
X136171353Y-121483371D01*
X136171353Y-121483371D02*
X136076115Y-121435752D01*
X136076115Y-121435752D02*
X135933258Y-121435752D01*
X135933258Y-121435752D02*
X135838020Y-121483371D01*
X135838020Y-121483371D02*
X135790401Y-121578609D01*
X135790401Y-121578609D02*
X135790401Y-122102419D01*
X135314210Y-121435752D02*
X135314210Y-122102419D01*
X135314210Y-121530990D02*
X135266591Y-121483371D01*
X135266591Y-121483371D02*
X135171353Y-121435752D01*
X135171353Y-121435752D02*
X135028496Y-121435752D01*
X135028496Y-121435752D02*
X134933258Y-121483371D01*
X134933258Y-121483371D02*
X134885639Y-121578609D01*
X134885639Y-121578609D02*
X134885639Y-122102419D01*
X134409448Y-122102419D02*
X134409448Y-121435752D01*
X134409448Y-121102419D02*
X134457067Y-121150038D01*
X134457067Y-121150038D02*
X134409448Y-121197657D01*
X134409448Y-121197657D02*
X134361829Y-121150038D01*
X134361829Y-121150038D02*
X134409448Y-121102419D01*
X134409448Y-121102419D02*
X134409448Y-121197657D01*
X133552306Y-122054800D02*
X133647544Y-122102419D01*
X133647544Y-122102419D02*
X133838020Y-122102419D01*
X133838020Y-122102419D02*
X133933258Y-122054800D01*
X133933258Y-122054800D02*
X133980877Y-121959561D01*
X133980877Y-121959561D02*
X133980877Y-121578609D01*
X133980877Y-121578609D02*
X133933258Y-121483371D01*
X133933258Y-121483371D02*
X133838020Y-121435752D01*
X133838020Y-121435752D02*
X133647544Y-121435752D01*
X133647544Y-121435752D02*
X133552306Y-121483371D01*
X133552306Y-121483371D02*
X133504687Y-121578609D01*
X133504687Y-121578609D02*
X133504687Y-121673847D01*
X133504687Y-121673847D02*
X133980877Y-121769085D01*
X131838020Y-122102419D02*
X132314210Y-122102419D01*
X132314210Y-122102419D02*
X132314210Y-121102419D01*
X131504686Y-122102419D02*
X131504686Y-121435752D01*
X131504686Y-121102419D02*
X131552305Y-121150038D01*
X131552305Y-121150038D02*
X131504686Y-121197657D01*
X131504686Y-121197657D02*
X131457067Y-121150038D01*
X131457067Y-121150038D02*
X131504686Y-121102419D01*
X131504686Y-121102419D02*
X131504686Y-121197657D01*
X130599925Y-122102419D02*
X130599925Y-121578609D01*
X130599925Y-121578609D02*
X130647544Y-121483371D01*
X130647544Y-121483371D02*
X130742782Y-121435752D01*
X130742782Y-121435752D02*
X130933258Y-121435752D01*
X130933258Y-121435752D02*
X131028496Y-121483371D01*
X130599925Y-122054800D02*
X130695163Y-122102419D01*
X130695163Y-122102419D02*
X130933258Y-122102419D01*
X130933258Y-122102419D02*
X131028496Y-122054800D01*
X131028496Y-122054800D02*
X131076115Y-121959561D01*
X131076115Y-121959561D02*
X131076115Y-121864323D01*
X131076115Y-121864323D02*
X131028496Y-121769085D01*
X131028496Y-121769085D02*
X130933258Y-121721466D01*
X130933258Y-121721466D02*
X130695163Y-121721466D01*
X130695163Y-121721466D02*
X130599925Y-121673847D01*
X130123734Y-121435752D02*
X130123734Y-122102419D01*
X130123734Y-121530990D02*
X130076115Y-121483371D01*
X130076115Y-121483371D02*
X129980877Y-121435752D01*
X129980877Y-121435752D02*
X129838020Y-121435752D01*
X129838020Y-121435752D02*
X129742782Y-121483371D01*
X129742782Y-121483371D02*
X129695163Y-121578609D01*
X129695163Y-121578609D02*
X129695163Y-122102419D01*
X128790401Y-121435752D02*
X128790401Y-122245276D01*
X128790401Y-122245276D02*
X128838020Y-122340514D01*
X128838020Y-122340514D02*
X128885639Y-122388133D01*
X128885639Y-122388133D02*
X128980877Y-122435752D01*
X128980877Y-122435752D02*
X129123734Y-122435752D01*
X129123734Y-122435752D02*
X129218972Y-122388133D01*
X128790401Y-122054800D02*
X128885639Y-122102419D01*
X128885639Y-122102419D02*
X129076115Y-122102419D01*
X129076115Y-122102419D02*
X129171353Y-122054800D01*
X129171353Y-122054800D02*
X129218972Y-122007180D01*
X129218972Y-122007180D02*
X129266591Y-121911942D01*
X129266591Y-121911942D02*
X129266591Y-121626228D01*
X129266591Y-121626228D02*
X129218972Y-121530990D01*
X129218972Y-121530990D02*
X129171353Y-121483371D01*
X129171353Y-121483371D02*
X129076115Y-121435752D01*
X129076115Y-121435752D02*
X128885639Y-121435752D01*
X128885639Y-121435752D02*
X128790401Y-121483371D01*
X128266591Y-122054800D02*
X128266591Y-122102419D01*
X128266591Y-122102419D02*
X128314210Y-122197657D01*
X128314210Y-122197657D02*
X128361829Y-122245276D01*
X126790401Y-121102419D02*
X126790401Y-121816704D01*
X126790401Y-121816704D02*
X126838020Y-121959561D01*
X126838020Y-121959561D02*
X126933258Y-122054800D01*
X126933258Y-122054800D02*
X127076115Y-122102419D01*
X127076115Y-122102419D02*
X127171353Y-122102419D01*
X125885639Y-121435752D02*
X125885639Y-122102419D01*
X126314210Y-121435752D02*
X126314210Y-121959561D01*
X126314210Y-121959561D02*
X126266591Y-122054800D01*
X126266591Y-122054800D02*
X126171353Y-122102419D01*
X126171353Y-122102419D02*
X126028496Y-122102419D01*
X126028496Y-122102419D02*
X125933258Y-122054800D01*
X125933258Y-122054800D02*
X125885639Y-122007180D01*
X125409448Y-121435752D02*
X125409448Y-122102419D01*
X125409448Y-121530990D02*
X125361829Y-121483371D01*
X125361829Y-121483371D02*
X125266591Y-121435752D01*
X125266591Y-121435752D02*
X125123734Y-121435752D01*
X125123734Y-121435752D02*
X125028496Y-121483371D01*
X125028496Y-121483371D02*
X124980877Y-121578609D01*
X124980877Y-121578609D02*
X124980877Y-122102419D01*
X124123734Y-122054800D02*
X124218972Y-122102419D01*
X124218972Y-122102419D02*
X124409448Y-122102419D01*
X124409448Y-122102419D02*
X124504686Y-122054800D01*
X124504686Y-122054800D02*
X124552305Y-121959561D01*
X124552305Y-121959561D02*
X124552305Y-121578609D01*
X124552305Y-121578609D02*
X124504686Y-121483371D01*
X124504686Y-121483371D02*
X124409448Y-121435752D01*
X124409448Y-121435752D02*
X124218972Y-121435752D01*
X124218972Y-121435752D02*
X124123734Y-121483371D01*
X124123734Y-121483371D02*
X124076115Y-121578609D01*
X124076115Y-121578609D02*
X124076115Y-121673847D01*
X124076115Y-121673847D02*
X124552305Y-121769085D01*
X122933257Y-121197657D02*
X122885638Y-121150038D01*
X122885638Y-121150038D02*
X122790400Y-121102419D01*
X122790400Y-121102419D02*
X122552305Y-121102419D01*
X122552305Y-121102419D02*
X122457067Y-121150038D01*
X122457067Y-121150038D02*
X122409448Y-121197657D01*
X122409448Y-121197657D02*
X122361829Y-121292895D01*
X122361829Y-121292895D02*
X122361829Y-121388133D01*
X122361829Y-121388133D02*
X122409448Y-121530990D01*
X122409448Y-121530990D02*
X122980876Y-122102419D01*
X122980876Y-122102419D02*
X122361829Y-122102419D01*
X121742781Y-121102419D02*
X121647543Y-121102419D01*
X121647543Y-121102419D02*
X121552305Y-121150038D01*
X121552305Y-121150038D02*
X121504686Y-121197657D01*
X121504686Y-121197657D02*
X121457067Y-121292895D01*
X121457067Y-121292895D02*
X121409448Y-121483371D01*
X121409448Y-121483371D02*
X121409448Y-121721466D01*
X121409448Y-121721466D02*
X121457067Y-121911942D01*
X121457067Y-121911942D02*
X121504686Y-122007180D01*
X121504686Y-122007180D02*
X121552305Y-122054800D01*
X121552305Y-122054800D02*
X121647543Y-122102419D01*
X121647543Y-122102419D02*
X121742781Y-122102419D01*
X121742781Y-122102419D02*
X121838019Y-122054800D01*
X121838019Y-122054800D02*
X121885638Y-122007180D01*
X121885638Y-122007180D02*
X121933257Y-121911942D01*
X121933257Y-121911942D02*
X121980876Y-121721466D01*
X121980876Y-121721466D02*
X121980876Y-121483371D01*
X121980876Y-121483371D02*
X121933257Y-121292895D01*
X121933257Y-121292895D02*
X121885638Y-121197657D01*
X121885638Y-121197657D02*
X121838019Y-121150038D01*
X121838019Y-121150038D02*
X121742781Y-121102419D01*
X121028495Y-121197657D02*
X120980876Y-121150038D01*
X120980876Y-121150038D02*
X120885638Y-121102419D01*
X120885638Y-121102419D02*
X120647543Y-121102419D01*
X120647543Y-121102419D02*
X120552305Y-121150038D01*
X120552305Y-121150038D02*
X120504686Y-121197657D01*
X120504686Y-121197657D02*
X120457067Y-121292895D01*
X120457067Y-121292895D02*
X120457067Y-121388133D01*
X120457067Y-121388133D02*
X120504686Y-121530990D01*
X120504686Y-121530990D02*
X121076114Y-122102419D01*
X121076114Y-122102419D02*
X120457067Y-122102419D01*
X119599924Y-121102419D02*
X119790400Y-121102419D01*
X119790400Y-121102419D02*
X119885638Y-121150038D01*
X119885638Y-121150038D02*
X119933257Y-121197657D01*
X119933257Y-121197657D02*
X120028495Y-121340514D01*
X120028495Y-121340514D02*
X120076114Y-121530990D01*
X120076114Y-121530990D02*
X120076114Y-121911942D01*
X120076114Y-121911942D02*
X120028495Y-122007180D01*
X120028495Y-122007180D02*
X119980876Y-122054800D01*
X119980876Y-122054800D02*
X119885638Y-122102419D01*
X119885638Y-122102419D02*
X119695162Y-122102419D01*
X119695162Y-122102419D02*
X119599924Y-122054800D01*
X119599924Y-122054800D02*
X119552305Y-122007180D01*
X119552305Y-122007180D02*
X119504686Y-121911942D01*
X119504686Y-121911942D02*
X119504686Y-121673847D01*
X119504686Y-121673847D02*
X119552305Y-121578609D01*
X119552305Y-121578609D02*
X119599924Y-121530990D01*
X119599924Y-121530990D02*
X119695162Y-121483371D01*
X119695162Y-121483371D02*
X119885638Y-121483371D01*
X119885638Y-121483371D02*
X119980876Y-121530990D01*
X119980876Y-121530990D02*
X120028495Y-121578609D01*
X120028495Y-121578609D02*
X120076114Y-121673847D01*
D11*
X124082005Y-102258410D02*
X124476793Y-102258410D01*
X124279399Y-102258410D02*
X124279399Y-101567530D01*
X124279399Y-101567530D02*
X124345197Y-101666227D01*
X124345197Y-101666227D02*
X124410995Y-101732025D01*
X124410995Y-101732025D02*
X124476793Y-101764924D01*
X123654317Y-101567530D02*
X123588519Y-101567530D01*
X123588519Y-101567530D02*
X123522721Y-101600429D01*
X123522721Y-101600429D02*
X123489822Y-101633328D01*
X123489822Y-101633328D02*
X123456923Y-101699126D01*
X123456923Y-101699126D02*
X123424024Y-101830722D01*
X123424024Y-101830722D02*
X123424024Y-101995217D01*
X123424024Y-101995217D02*
X123456923Y-102126813D01*
X123456923Y-102126813D02*
X123489822Y-102192611D01*
X123489822Y-102192611D02*
X123522721Y-102225511D01*
X123522721Y-102225511D02*
X123588519Y-102258410D01*
X123588519Y-102258410D02*
X123654317Y-102258410D01*
X123654317Y-102258410D02*
X123720115Y-102225511D01*
X123720115Y-102225511D02*
X123753014Y-102192611D01*
X123753014Y-102192611D02*
X123785913Y-102126813D01*
X123785913Y-102126813D02*
X123818812Y-101995217D01*
X123818812Y-101995217D02*
X123818812Y-101830722D01*
X123818812Y-101830722D02*
X123785913Y-101699126D01*
X123785913Y-101699126D02*
X123753014Y-101633328D01*
X123753014Y-101633328D02*
X123720115Y-101600429D01*
X123720115Y-101600429D02*
X123654317Y-101567530D01*
X123127932Y-102258410D02*
X123127932Y-101567530D01*
X123127932Y-101567530D02*
X122897639Y-102061015D01*
X122897639Y-102061015D02*
X122667346Y-101567530D01*
X122667346Y-101567530D02*
X122667346Y-102258410D01*
X122338355Y-102258410D02*
X122338355Y-101567530D01*
X122338355Y-101896520D02*
X121943567Y-101896520D01*
X121943567Y-102258410D02*
X121943567Y-101567530D01*
X121680374Y-101797823D02*
X121318485Y-101797823D01*
X121318485Y-101797823D02*
X121680374Y-102258410D01*
X121680374Y-102258410D02*
X121318485Y-102258410D01*
X125151129Y-99516594D02*
X125118230Y-99450796D01*
X125118230Y-99450796D02*
X125118230Y-99352099D01*
X125118230Y-99352099D02*
X125151129Y-99253402D01*
X125151129Y-99253402D02*
X125216927Y-99187604D01*
X125216927Y-99187604D02*
X125282725Y-99154705D01*
X125282725Y-99154705D02*
X125414321Y-99121806D01*
X125414321Y-99121806D02*
X125513018Y-99121806D01*
X125513018Y-99121806D02*
X125644614Y-99154705D01*
X125644614Y-99154705D02*
X125710412Y-99187604D01*
X125710412Y-99187604D02*
X125776211Y-99253402D01*
X125776211Y-99253402D02*
X125809110Y-99352099D01*
X125809110Y-99352099D02*
X125809110Y-99417897D01*
X125809110Y-99417897D02*
X125776211Y-99516594D01*
X125776211Y-99516594D02*
X125743311Y-99549493D01*
X125743311Y-99549493D02*
X125513018Y-99549493D01*
X125513018Y-99549493D02*
X125513018Y-99417897D01*
X125809110Y-99845585D02*
X125118230Y-99845585D01*
X125118230Y-99845585D02*
X125809110Y-100240373D01*
X125809110Y-100240373D02*
X125118230Y-100240373D01*
X125809110Y-100569364D02*
X125118230Y-100569364D01*
X125118230Y-100569364D02*
X125118230Y-100733859D01*
X125118230Y-100733859D02*
X125151129Y-100832556D01*
X125151129Y-100832556D02*
X125216927Y-100898354D01*
X125216927Y-100898354D02*
X125282725Y-100931253D01*
X125282725Y-100931253D02*
X125414321Y-100964152D01*
X125414321Y-100964152D02*
X125513018Y-100964152D01*
X125513018Y-100964152D02*
X125644614Y-100931253D01*
X125644614Y-100931253D02*
X125710412Y-100898354D01*
X125710412Y-100898354D02*
X125776211Y-100832556D01*
X125776211Y-100832556D02*
X125809110Y-100733859D01*
X125809110Y-100733859D02*
X125809110Y-100569364D01*
X108957393Y-97285815D02*
X108628403Y-97285815D01*
X109023191Y-97483210D02*
X108792898Y-96792330D01*
X108792898Y-96792330D02*
X108562605Y-97483210D01*
X108003321Y-96792330D02*
X108332311Y-96792330D01*
X108332311Y-96792330D02*
X108365210Y-97121320D01*
X108365210Y-97121320D02*
X108332311Y-97088421D01*
X108332311Y-97088421D02*
X108266513Y-97055522D01*
X108266513Y-97055522D02*
X108102018Y-97055522D01*
X108102018Y-97055522D02*
X108036220Y-97088421D01*
X108036220Y-97088421D02*
X108003321Y-97121320D01*
X108003321Y-97121320D02*
X107970422Y-97187118D01*
X107970422Y-97187118D02*
X107970422Y-97351613D01*
X107970422Y-97351613D02*
X108003321Y-97417411D01*
X108003321Y-97417411D02*
X108036220Y-97450311D01*
X108036220Y-97450311D02*
X108102018Y-97483210D01*
X108102018Y-97483210D02*
X108266513Y-97483210D01*
X108266513Y-97483210D02*
X108332311Y-97450311D01*
X108332311Y-97450311D02*
X108365210Y-97417411D01*
X124114904Y-96487530D02*
X124443894Y-96487530D01*
X124443894Y-96487530D02*
X124476793Y-96816520D01*
X124476793Y-96816520D02*
X124443894Y-96783621D01*
X124443894Y-96783621D02*
X124378096Y-96750722D01*
X124378096Y-96750722D02*
X124213601Y-96750722D01*
X124213601Y-96750722D02*
X124147803Y-96783621D01*
X124147803Y-96783621D02*
X124114904Y-96816520D01*
X124114904Y-96816520D02*
X124082005Y-96882318D01*
X124082005Y-96882318D02*
X124082005Y-97046813D01*
X124082005Y-97046813D02*
X124114904Y-97112611D01*
X124114904Y-97112611D02*
X124147803Y-97145511D01*
X124147803Y-97145511D02*
X124213601Y-97178410D01*
X124213601Y-97178410D02*
X124378096Y-97178410D01*
X124378096Y-97178410D02*
X124443894Y-97145511D01*
X124443894Y-97145511D02*
X124476793Y-97112611D01*
X123884610Y-96487530D02*
X123654317Y-97178410D01*
X123654317Y-97178410D02*
X123424024Y-96487530D01*
X111370393Y-97285815D02*
X111041403Y-97285815D01*
X111436191Y-97483210D02*
X111205898Y-96792330D01*
X111205898Y-96792330D02*
X110975605Y-97483210D01*
X110449220Y-97022623D02*
X110449220Y-97483210D01*
X110613715Y-96759431D02*
X110778210Y-97252916D01*
X110778210Y-97252916D02*
X110350523Y-97252916D01*
X124476793Y-99093328D02*
X124443894Y-99060429D01*
X124443894Y-99060429D02*
X124378096Y-99027530D01*
X124378096Y-99027530D02*
X124213601Y-99027530D01*
X124213601Y-99027530D02*
X124147803Y-99060429D01*
X124147803Y-99060429D02*
X124114904Y-99093328D01*
X124114904Y-99093328D02*
X124082005Y-99159126D01*
X124082005Y-99159126D02*
X124082005Y-99224924D01*
X124082005Y-99224924D02*
X124114904Y-99323621D01*
X124114904Y-99323621D02*
X124509692Y-99718410D01*
X124509692Y-99718410D02*
X124082005Y-99718410D01*
X123654317Y-99027530D02*
X123588519Y-99027530D01*
X123588519Y-99027530D02*
X123522721Y-99060429D01*
X123522721Y-99060429D02*
X123489822Y-99093328D01*
X123489822Y-99093328D02*
X123456923Y-99159126D01*
X123456923Y-99159126D02*
X123424024Y-99290722D01*
X123424024Y-99290722D02*
X123424024Y-99455217D01*
X123424024Y-99455217D02*
X123456923Y-99586813D01*
X123456923Y-99586813D02*
X123489822Y-99652611D01*
X123489822Y-99652611D02*
X123522721Y-99685511D01*
X123522721Y-99685511D02*
X123588519Y-99718410D01*
X123588519Y-99718410D02*
X123654317Y-99718410D01*
X123654317Y-99718410D02*
X123720115Y-99685511D01*
X123720115Y-99685511D02*
X123753014Y-99652611D01*
X123753014Y-99652611D02*
X123785913Y-99586813D01*
X123785913Y-99586813D02*
X123818812Y-99455217D01*
X123818812Y-99455217D02*
X123818812Y-99290722D01*
X123818812Y-99290722D02*
X123785913Y-99159126D01*
X123785913Y-99159126D02*
X123753014Y-99093328D01*
X123753014Y-99093328D02*
X123720115Y-99060429D01*
X123720115Y-99060429D02*
X123654317Y-99027530D01*
X123127932Y-99718410D02*
X123127932Y-99027530D01*
X123127932Y-99027530D02*
X122897639Y-99521015D01*
X122897639Y-99521015D02*
X122667346Y-99027530D01*
X122667346Y-99027530D02*
X122667346Y-99718410D01*
X122338355Y-99718410D02*
X122338355Y-99027530D01*
X122338355Y-99356520D02*
X121943567Y-99356520D01*
X121943567Y-99718410D02*
X121943567Y-99027530D01*
X121680374Y-99257823D02*
X121318485Y-99257823D01*
X121318485Y-99257823D02*
X121680374Y-99718410D01*
X121680374Y-99718410D02*
X121318485Y-99718410D01*
X124082005Y-100988410D02*
X124476793Y-100988410D01*
X124279399Y-100988410D02*
X124279399Y-100297530D01*
X124279399Y-100297530D02*
X124345197Y-100396227D01*
X124345197Y-100396227D02*
X124410995Y-100462025D01*
X124410995Y-100462025D02*
X124476793Y-100494924D01*
X123489822Y-100297530D02*
X123621418Y-100297530D01*
X123621418Y-100297530D02*
X123687216Y-100330429D01*
X123687216Y-100330429D02*
X123720115Y-100363328D01*
X123720115Y-100363328D02*
X123785913Y-100462025D01*
X123785913Y-100462025D02*
X123818812Y-100593621D01*
X123818812Y-100593621D02*
X123818812Y-100856813D01*
X123818812Y-100856813D02*
X123785913Y-100922611D01*
X123785913Y-100922611D02*
X123753014Y-100955511D01*
X123753014Y-100955511D02*
X123687216Y-100988410D01*
X123687216Y-100988410D02*
X123555620Y-100988410D01*
X123555620Y-100988410D02*
X123489822Y-100955511D01*
X123489822Y-100955511D02*
X123456923Y-100922611D01*
X123456923Y-100922611D02*
X123424024Y-100856813D01*
X123424024Y-100856813D02*
X123424024Y-100692318D01*
X123424024Y-100692318D02*
X123456923Y-100626520D01*
X123456923Y-100626520D02*
X123489822Y-100593621D01*
X123489822Y-100593621D02*
X123555620Y-100560722D01*
X123555620Y-100560722D02*
X123687216Y-100560722D01*
X123687216Y-100560722D02*
X123753014Y-100593621D01*
X123753014Y-100593621D02*
X123785913Y-100626520D01*
X123785913Y-100626520D02*
X123818812Y-100692318D01*
X123127932Y-100988410D02*
X123127932Y-100297530D01*
X123127932Y-100297530D02*
X122897639Y-100791015D01*
X122897639Y-100791015D02*
X122667346Y-100297530D01*
X122667346Y-100297530D02*
X122667346Y-100988410D01*
X122338355Y-100988410D02*
X122338355Y-100297530D01*
X122338355Y-100626520D02*
X121943567Y-100626520D01*
X121943567Y-100988410D02*
X121943567Y-100297530D01*
X121680374Y-100527823D02*
X121318485Y-100527823D01*
X121318485Y-100527823D02*
X121680374Y-100988410D01*
X121680374Y-100988410D02*
X121318485Y-100988410D01*
X124345197Y-103133621D02*
X124410995Y-103100722D01*
X124410995Y-103100722D02*
X124443894Y-103067823D01*
X124443894Y-103067823D02*
X124476793Y-103002025D01*
X124476793Y-103002025D02*
X124476793Y-102969126D01*
X124476793Y-102969126D02*
X124443894Y-102903328D01*
X124443894Y-102903328D02*
X124410995Y-102870429D01*
X124410995Y-102870429D02*
X124345197Y-102837530D01*
X124345197Y-102837530D02*
X124213601Y-102837530D01*
X124213601Y-102837530D02*
X124147803Y-102870429D01*
X124147803Y-102870429D02*
X124114904Y-102903328D01*
X124114904Y-102903328D02*
X124082005Y-102969126D01*
X124082005Y-102969126D02*
X124082005Y-103002025D01*
X124082005Y-103002025D02*
X124114904Y-103067823D01*
X124114904Y-103067823D02*
X124147803Y-103100722D01*
X124147803Y-103100722D02*
X124213601Y-103133621D01*
X124213601Y-103133621D02*
X124345197Y-103133621D01*
X124345197Y-103133621D02*
X124410995Y-103166520D01*
X124410995Y-103166520D02*
X124443894Y-103199419D01*
X124443894Y-103199419D02*
X124476793Y-103265217D01*
X124476793Y-103265217D02*
X124476793Y-103396813D01*
X124476793Y-103396813D02*
X124443894Y-103462611D01*
X124443894Y-103462611D02*
X124410995Y-103495511D01*
X124410995Y-103495511D02*
X124345197Y-103528410D01*
X124345197Y-103528410D02*
X124213601Y-103528410D01*
X124213601Y-103528410D02*
X124147803Y-103495511D01*
X124147803Y-103495511D02*
X124114904Y-103462611D01*
X124114904Y-103462611D02*
X124082005Y-103396813D01*
X124082005Y-103396813D02*
X124082005Y-103265217D01*
X124082005Y-103265217D02*
X124114904Y-103199419D01*
X124114904Y-103199419D02*
X124147803Y-103166520D01*
X124147803Y-103166520D02*
X124213601Y-103133621D01*
X123785913Y-103528410D02*
X123785913Y-102837530D01*
X123785913Y-102837530D02*
X123555620Y-103331015D01*
X123555620Y-103331015D02*
X123325327Y-102837530D01*
X123325327Y-102837530D02*
X123325327Y-103528410D01*
X122996336Y-103528410D02*
X122996336Y-102837530D01*
X122996336Y-103166520D02*
X122601548Y-103166520D01*
X122601548Y-103528410D02*
X122601548Y-102837530D01*
X122338355Y-103067823D02*
X121976466Y-103067823D01*
X121976466Y-103067823D02*
X122338355Y-103528410D01*
X122338355Y-103528410D02*
X121976466Y-103528410D01*
X125561715Y-96831806D02*
X125561715Y-97160796D01*
X125759110Y-96766008D02*
X125068230Y-96996301D01*
X125068230Y-96996301D02*
X125759110Y-97226594D01*
X125068230Y-97752979D02*
X125068230Y-97621383D01*
X125068230Y-97621383D02*
X125101129Y-97555585D01*
X125101129Y-97555585D02*
X125134028Y-97522686D01*
X125134028Y-97522686D02*
X125232725Y-97456888D01*
X125232725Y-97456888D02*
X125364321Y-97423989D01*
X125364321Y-97423989D02*
X125627513Y-97423989D01*
X125627513Y-97423989D02*
X125693311Y-97456888D01*
X125693311Y-97456888D02*
X125726211Y-97489787D01*
X125726211Y-97489787D02*
X125759110Y-97555585D01*
X125759110Y-97555585D02*
X125759110Y-97687181D01*
X125759110Y-97687181D02*
X125726211Y-97752979D01*
X125726211Y-97752979D02*
X125693311Y-97785878D01*
X125693311Y-97785878D02*
X125627513Y-97818777D01*
X125627513Y-97818777D02*
X125463018Y-97818777D01*
X125463018Y-97818777D02*
X125397220Y-97785878D01*
X125397220Y-97785878D02*
X125364321Y-97752979D01*
X125364321Y-97752979D02*
X125331422Y-97687181D01*
X125331422Y-97687181D02*
X125331422Y-97555585D01*
X125331422Y-97555585D02*
X125364321Y-97489787D01*
X125364321Y-97489787D02*
X125397220Y-97456888D01*
X125397220Y-97456888D02*
X125463018Y-97423989D01*
X125621715Y-94521806D02*
X125621715Y-94850796D01*
X125819110Y-94456008D02*
X125128230Y-94686301D01*
X125128230Y-94686301D02*
X125819110Y-94916594D01*
X125128230Y-95081090D02*
X125128230Y-95541676D01*
X125128230Y-95541676D02*
X125819110Y-95245585D01*
X124509692Y-97757530D02*
X124082005Y-97757530D01*
X124082005Y-97757530D02*
X124312298Y-98020722D01*
X124312298Y-98020722D02*
X124213601Y-98020722D01*
X124213601Y-98020722D02*
X124147803Y-98053621D01*
X124147803Y-98053621D02*
X124114904Y-98086520D01*
X124114904Y-98086520D02*
X124082005Y-98152318D01*
X124082005Y-98152318D02*
X124082005Y-98316813D01*
X124082005Y-98316813D02*
X124114904Y-98382611D01*
X124114904Y-98382611D02*
X124147803Y-98415511D01*
X124147803Y-98415511D02*
X124213601Y-98448410D01*
X124213601Y-98448410D02*
X124410995Y-98448410D01*
X124410995Y-98448410D02*
X124476793Y-98415511D01*
X124476793Y-98415511D02*
X124509692Y-98382611D01*
X123785913Y-98382611D02*
X123753014Y-98415511D01*
X123753014Y-98415511D02*
X123785913Y-98448410D01*
X123785913Y-98448410D02*
X123818812Y-98415511D01*
X123818812Y-98415511D02*
X123785913Y-98382611D01*
X123785913Y-98382611D02*
X123785913Y-98448410D01*
X123522721Y-97757530D02*
X123095034Y-97757530D01*
X123095034Y-97757530D02*
X123325327Y-98020722D01*
X123325327Y-98020722D02*
X123226630Y-98020722D01*
X123226630Y-98020722D02*
X123160832Y-98053621D01*
X123160832Y-98053621D02*
X123127933Y-98086520D01*
X123127933Y-98086520D02*
X123095034Y-98152318D01*
X123095034Y-98152318D02*
X123095034Y-98316813D01*
X123095034Y-98316813D02*
X123127933Y-98382611D01*
X123127933Y-98382611D02*
X123160832Y-98415511D01*
X123160832Y-98415511D02*
X123226630Y-98448410D01*
X123226630Y-98448410D02*
X123424024Y-98448410D01*
X123424024Y-98448410D02*
X123489822Y-98415511D01*
X123489822Y-98415511D02*
X123522721Y-98382611D01*
X122897639Y-97757530D02*
X122667346Y-98448410D01*
X122667346Y-98448410D02*
X122437053Y-97757530D01*
D12*
%TO.C,U1*%
X95859600Y-92900500D02*
X95859600Y-94170500D01*
X95859600Y-92900500D02*
X95859600Y-94170500D01*
X95859600Y-92900500D02*
X96494600Y-92265500D01*
X95859600Y-92900500D02*
X96494600Y-92265500D01*
X95859600Y-94170500D02*
X96494600Y-94805500D01*
X95859600Y-94170500D02*
X96494600Y-94805500D01*
X95859600Y-95440500D02*
X95859600Y-96710500D01*
X95859600Y-95440500D02*
X95859600Y-96710500D01*
X95859600Y-95440500D02*
X96494600Y-94805500D01*
X95859600Y-95440500D02*
X96494600Y-94805500D01*
X95859600Y-96710500D02*
X96494600Y-97345500D01*
X95859600Y-96710500D02*
X96494600Y-97345500D01*
X95859600Y-97980500D02*
X95859600Y-99250500D01*
X95859600Y-97980500D02*
X95859600Y-99250500D01*
X95859600Y-97980500D02*
X96494600Y-97345500D01*
X95859600Y-97980500D02*
X96494600Y-97345500D01*
X95859600Y-99250500D02*
X96494600Y-99885500D01*
X95859600Y-99250500D02*
X96494600Y-99885500D01*
X95859600Y-100520500D02*
X95859600Y-101790500D01*
X95859600Y-100520500D02*
X95859600Y-101790500D01*
X95859600Y-100520500D02*
X96494600Y-99885500D01*
X95859600Y-100520500D02*
X96494600Y-99885500D01*
X95859600Y-101790500D02*
X96494600Y-102425500D01*
X95859600Y-101790500D02*
X96494600Y-102425500D01*
X95859600Y-103060500D02*
X95859600Y-104330500D01*
X95859600Y-103060500D02*
X95859600Y-104330500D01*
X95859600Y-103060500D02*
X96494600Y-102425500D01*
X95859600Y-103060500D02*
X96494600Y-102425500D01*
X95859600Y-104330500D02*
X96494600Y-104965500D01*
X95859600Y-104330500D02*
X96494600Y-104965500D01*
X95859600Y-105600500D02*
X95859600Y-106870500D01*
X95859600Y-105600500D02*
X95859600Y-106870500D01*
X95859600Y-105600500D02*
X96494600Y-104965500D01*
X95859600Y-105600500D02*
X96494600Y-104965500D01*
X95859600Y-106870500D02*
X96494600Y-107505500D01*
X95859600Y-106870500D02*
X96494600Y-107505500D01*
X96494600Y-92265500D02*
X97764600Y-92265500D01*
X96494600Y-107505500D02*
X97764600Y-107505500D01*
X96494600Y-107505500D02*
X97764600Y-107505500D01*
X97764600Y-92265500D02*
X98399600Y-92900500D01*
X97764600Y-92265500D02*
X98399600Y-92900500D01*
X97764600Y-94805500D02*
X98399600Y-94170500D01*
X97764600Y-94805500D02*
X98399600Y-94170500D01*
X97764600Y-94805500D02*
X98399600Y-95440500D01*
X97764600Y-94805500D02*
X98399600Y-95440500D01*
X97764600Y-97345500D02*
X98399600Y-96710500D01*
X97764600Y-97345500D02*
X98399600Y-96710500D01*
X97764600Y-97345500D02*
X98399600Y-97980500D01*
X97764600Y-97345500D02*
X98399600Y-97980500D01*
X97764600Y-99885500D02*
X98399600Y-99250500D01*
X97764600Y-99885500D02*
X98399600Y-99250500D01*
X97764600Y-99885500D02*
X98399600Y-100520500D01*
X97764600Y-99885500D02*
X98399600Y-100520500D01*
X97764600Y-102425500D02*
X98399600Y-101790500D01*
X97764600Y-102425500D02*
X98399600Y-101790500D01*
X97764600Y-102425500D02*
X98399600Y-103060500D01*
X97764600Y-102425500D02*
X98399600Y-103060500D01*
X97764600Y-104965500D02*
X98399600Y-104330500D01*
X97764600Y-104965500D02*
X98399600Y-104330500D01*
X97764600Y-104965500D02*
X98399600Y-105600500D01*
X97764600Y-104965500D02*
X98399600Y-105600500D01*
X97764600Y-107505500D02*
X98399600Y-106870500D01*
X97764600Y-107505500D02*
X98399600Y-106870500D01*
X98399600Y-94170500D02*
X98399600Y-92900500D01*
X98399600Y-94170500D02*
X98399600Y-92900500D01*
X98399600Y-96710500D02*
X98399600Y-95440500D01*
X98399600Y-96710500D02*
X98399600Y-95440500D01*
X98399600Y-99250500D02*
X98399600Y-97980500D01*
X98399600Y-99250500D02*
X98399600Y-97980500D01*
X98399600Y-101790500D02*
X98399600Y-100520500D01*
X98399600Y-101790500D02*
X98399600Y-100520500D01*
X98399600Y-104330500D02*
X98399600Y-103060500D01*
X98399600Y-104330500D02*
X98399600Y-103060500D01*
X98399600Y-106870500D02*
X98399600Y-105600500D01*
X98399600Y-106870500D02*
X98399600Y-105600500D01*
X98399600Y-106870500D02*
X98399600Y-108140500D01*
X98399600Y-106870500D02*
X98399600Y-108140500D01*
X98399600Y-108140500D02*
X99034600Y-108775500D01*
X98399600Y-108140500D02*
X99034600Y-108775500D01*
X98425000Y-91605100D02*
X98425000Y-92875100D01*
X98425000Y-91605100D02*
X98425000Y-92875100D01*
X98425000Y-92875100D02*
X99060000Y-93510100D01*
X98425000Y-92875100D02*
X99060000Y-93510100D01*
X99034600Y-106235500D02*
X98399600Y-106870500D01*
X99034600Y-106235500D02*
X98399600Y-106870500D01*
X99034600Y-108775500D02*
X100304600Y-108775500D01*
X99034600Y-108775500D02*
X100304600Y-108775500D01*
X99060000Y-90970100D02*
X98425000Y-91605100D01*
X99060000Y-90970100D02*
X98425000Y-91605100D01*
X99060000Y-93510100D02*
X100330000Y-93510100D01*
X99060000Y-93510100D02*
X100330000Y-93510100D01*
X100304600Y-106235500D02*
X99034600Y-106235500D01*
X100304600Y-106235500D02*
X99034600Y-106235500D01*
X100304600Y-106235500D02*
X100939600Y-106870500D01*
X100304600Y-106235500D02*
X100939600Y-106870500D01*
X100330000Y-90970100D02*
X99060000Y-90970100D01*
X100330000Y-90970100D02*
X99060000Y-90970100D01*
X100330000Y-90970100D02*
X100965000Y-91605100D01*
X100330000Y-90970100D02*
X100965000Y-91605100D01*
X100939600Y-108140500D02*
X100304600Y-108775500D01*
X100939600Y-108140500D02*
X100304600Y-108775500D01*
X100939600Y-108140500D02*
X101574600Y-108775500D01*
X100939600Y-108140500D02*
X101574600Y-108775500D01*
X100965000Y-92875100D02*
X100330000Y-93510100D01*
X100965000Y-92875100D02*
X100330000Y-93510100D01*
X100965000Y-92875100D02*
X101600000Y-93510100D01*
X100965000Y-92875100D02*
X101600000Y-93510100D01*
X101574600Y-106235500D02*
X100939600Y-106870500D01*
X101574600Y-106235500D02*
X100939600Y-106870500D01*
X101574600Y-108775500D02*
X102844600Y-108775500D01*
X101574600Y-108775500D02*
X102844600Y-108775500D01*
X101600000Y-90970100D02*
X100965000Y-91605100D01*
X101600000Y-90970100D02*
X100965000Y-91605100D01*
X101600000Y-93510100D02*
X102870000Y-93510100D01*
X101600000Y-93510100D02*
X102870000Y-93510100D01*
X102844600Y-106235500D02*
X101574600Y-106235500D01*
X102844600Y-106235500D02*
X101574600Y-106235500D01*
X102844600Y-106235500D02*
X103479600Y-106870500D01*
X102844600Y-106235500D02*
X103479600Y-106870500D01*
X102870000Y-90970100D02*
X101600000Y-90970100D01*
X102870000Y-90970100D02*
X101600000Y-90970100D01*
X102870000Y-90970100D02*
X103505000Y-91605100D01*
X102870000Y-90970100D02*
X103505000Y-91605100D01*
X103479600Y-108140500D02*
X102844600Y-108775500D01*
X103479600Y-108140500D02*
X102844600Y-108775500D01*
X103479600Y-108140500D02*
X104114600Y-108775500D01*
X103479600Y-108140500D02*
X104114600Y-108775500D01*
X103505000Y-92875100D02*
X102870000Y-93510100D01*
X103505000Y-92875100D02*
X102870000Y-93510100D01*
X103505000Y-92875100D02*
X104140000Y-93510100D01*
X103505000Y-92875100D02*
X104140000Y-93510100D01*
X104114600Y-106235500D02*
X103479600Y-106870500D01*
X104114600Y-106235500D02*
X103479600Y-106870500D01*
X104114600Y-108775500D02*
X105384600Y-108775500D01*
X104114600Y-108775500D02*
X105384600Y-108775500D01*
X104140000Y-90970100D02*
X103505000Y-91605100D01*
X104140000Y-90970100D02*
X103505000Y-91605100D01*
X104140000Y-93510100D02*
X105410000Y-93510100D01*
X104140000Y-93510100D02*
X105410000Y-93510100D01*
X105384600Y-106235500D02*
X104114600Y-106235500D01*
X105384600Y-106235500D02*
X104114600Y-106235500D01*
X105384600Y-106235500D02*
X106019600Y-106870500D01*
X105384600Y-106235500D02*
X106019600Y-106870500D01*
X105410000Y-90970100D02*
X104140000Y-90970100D01*
X105410000Y-90970100D02*
X104140000Y-90970100D01*
X105410000Y-90970100D02*
X106045000Y-91605100D01*
X105410000Y-90970100D02*
X106045000Y-91605100D01*
X106019600Y-108140500D02*
X105384600Y-108775500D01*
X106019600Y-108140500D02*
X105384600Y-108775500D01*
X106019600Y-108140500D02*
X106654600Y-108775500D01*
X106019600Y-108140500D02*
X106654600Y-108775500D01*
X106045000Y-92875100D02*
X105410000Y-93510100D01*
X106045000Y-92875100D02*
X105410000Y-93510100D01*
X106045000Y-92875100D02*
X106680000Y-93510100D01*
X106045000Y-92875100D02*
X106680000Y-93510100D01*
X106654600Y-106235500D02*
X106019600Y-106870500D01*
X106654600Y-106235500D02*
X106019600Y-106870500D01*
X106654600Y-108775500D02*
X107924600Y-108775500D01*
X106654600Y-108775500D02*
X107924600Y-108775500D01*
X106680000Y-90970100D02*
X106045000Y-91605100D01*
X106680000Y-90970100D02*
X106045000Y-91605100D01*
X106680000Y-93510100D02*
X107950000Y-93510100D01*
X106680000Y-93510100D02*
X107950000Y-93510100D01*
X107271200Y-94526100D02*
X107271200Y-95796100D01*
X107271200Y-94526100D02*
X107271200Y-95796100D01*
X107271200Y-95796100D02*
X107906200Y-96431100D01*
X107271200Y-95796100D02*
X107906200Y-96431100D01*
X107271200Y-95796100D02*
X107906200Y-96431100D01*
X107271200Y-95796100D02*
X107906200Y-96431100D01*
X107271200Y-95796100D02*
X107906200Y-96431100D01*
X107906200Y-93891100D02*
X107271200Y-94526100D01*
X107906200Y-93891100D02*
X107271200Y-94526100D01*
X107906200Y-93891100D02*
X107271200Y-94526100D01*
X107906200Y-93891100D02*
X107271200Y-94526100D01*
X107906200Y-93891100D02*
X107271200Y-94526100D01*
X107906200Y-96431100D02*
X109176200Y-96431100D01*
X107906200Y-96431100D02*
X109176200Y-96431100D01*
X107906200Y-96431100D02*
X109176200Y-96431100D01*
X107906200Y-96431100D02*
X109176200Y-96431100D01*
X107906200Y-96431100D02*
X109176200Y-96431100D01*
X107924600Y-106235500D02*
X106654600Y-106235500D01*
X107924600Y-106235500D02*
X106654600Y-106235500D01*
X107924600Y-106235500D02*
X108559600Y-106870500D01*
X107924600Y-106235500D02*
X108559600Y-106870500D01*
X107950000Y-90970100D02*
X106680000Y-90970100D01*
X107950000Y-90970100D02*
X106680000Y-90970100D01*
X107950000Y-90970100D02*
X108585000Y-91605100D01*
X107950000Y-90970100D02*
X108585000Y-91605100D01*
X108559600Y-108140500D02*
X107924600Y-108775500D01*
X108559600Y-108140500D02*
X107924600Y-108775500D01*
X108559600Y-108140500D02*
X109194600Y-108775500D01*
X108559600Y-108140500D02*
X109194600Y-108775500D01*
X108585000Y-92875100D02*
X107950000Y-93510100D01*
X108585000Y-92875100D02*
X107950000Y-93510100D01*
X108585000Y-92875100D02*
X109220000Y-93510100D01*
X108585000Y-92875100D02*
X109220000Y-93510100D01*
X109176200Y-93891100D02*
X107906200Y-93891100D01*
X109176200Y-93891100D02*
X107906200Y-93891100D01*
X109176200Y-93891100D02*
X107906200Y-93891100D01*
X109176200Y-93891100D02*
X107906200Y-93891100D01*
X109176200Y-93891100D02*
X107906200Y-93891100D01*
X109176200Y-96431100D02*
X109811200Y-95796100D01*
X109176200Y-96431100D02*
X109811200Y-95796100D01*
X109176200Y-96431100D02*
X109811200Y-95796100D01*
X109176200Y-96431100D02*
X109811200Y-95796100D01*
X109176200Y-96431100D02*
X109811200Y-95796100D01*
X109194600Y-106235500D02*
X108559600Y-106870500D01*
X109194600Y-106235500D02*
X108559600Y-106870500D01*
X109194600Y-108775500D02*
X110464600Y-108775500D01*
X109194600Y-108775500D02*
X110464600Y-108775500D01*
X109220000Y-90970100D02*
X108585000Y-91605100D01*
X109220000Y-90970100D02*
X108585000Y-91605100D01*
X109220000Y-93510100D02*
X110490000Y-93510100D01*
X109220000Y-93510100D02*
X110490000Y-93510100D01*
X109811200Y-94526100D02*
X109176200Y-93891100D01*
X109811200Y-94526100D02*
X109176200Y-93891100D01*
X109811200Y-94526100D02*
X109176200Y-93891100D01*
X109811200Y-94526100D02*
X109176200Y-93891100D01*
X109811200Y-94526100D02*
X109176200Y-93891100D01*
X109811200Y-95796100D02*
X110446200Y-96431100D01*
X109811200Y-95796100D02*
X110446200Y-96431100D01*
X109811200Y-95796100D02*
X110446200Y-96431100D01*
X109811200Y-95796100D02*
X110446200Y-96431100D01*
X109811200Y-95796100D02*
X110446200Y-96431100D01*
X110446200Y-93891100D02*
X109811200Y-94526100D01*
X110446200Y-93891100D02*
X109811200Y-94526100D01*
X110446200Y-93891100D02*
X109811200Y-94526100D01*
X110446200Y-93891100D02*
X109811200Y-94526100D01*
X110446200Y-93891100D02*
X109811200Y-94526100D01*
X110446200Y-96431100D02*
X111716200Y-96431100D01*
X110446200Y-96431100D02*
X111716200Y-96431100D01*
X110446200Y-96431100D02*
X111716200Y-96431100D01*
X110446200Y-96431100D02*
X111716200Y-96431100D01*
X110446200Y-96431100D02*
X111716200Y-96431100D01*
X110464600Y-106235500D02*
X109194600Y-106235500D01*
X110464600Y-106235500D02*
X109194600Y-106235500D01*
X110464600Y-106235500D02*
X111099600Y-106870500D01*
X110464600Y-106235500D02*
X111099600Y-106870500D01*
X110490000Y-90970100D02*
X109220000Y-90970100D01*
X110490000Y-90970100D02*
X109220000Y-90970100D01*
X110490000Y-90970100D02*
X111125000Y-91605100D01*
X110490000Y-90970100D02*
X111125000Y-91605100D01*
X111099600Y-108140500D02*
X110464600Y-108775500D01*
X111099600Y-108140500D02*
X110464600Y-108775500D01*
X111099600Y-108140500D02*
X111734600Y-108775500D01*
X111099600Y-108140500D02*
X111734600Y-108775500D01*
X111125000Y-92875100D02*
X110490000Y-93510100D01*
X111125000Y-92875100D02*
X110490000Y-93510100D01*
X111125000Y-92875100D02*
X111760000Y-93510100D01*
X111125000Y-92875100D02*
X111760000Y-93510100D01*
X111716200Y-93891100D02*
X110446200Y-93891100D01*
X111716200Y-93891100D02*
X110446200Y-93891100D01*
X111716200Y-93891100D02*
X110446200Y-93891100D01*
X111716200Y-93891100D02*
X110446200Y-93891100D01*
X111716200Y-93891100D02*
X110446200Y-93891100D01*
X111716200Y-93891100D02*
X112351200Y-94526100D01*
X111716200Y-93891100D02*
X112351200Y-94526100D01*
X111716200Y-93891100D02*
X112351200Y-94526100D01*
X111716200Y-93891100D02*
X112351200Y-94526100D01*
X111716200Y-93891100D02*
X112351200Y-94526100D01*
X111734600Y-106235500D02*
X111099600Y-106870500D01*
X111734600Y-106235500D02*
X111099600Y-106870500D01*
X111734600Y-108775500D02*
X113004600Y-108775500D01*
X111734600Y-108775500D02*
X113004600Y-108775500D01*
X111760000Y-90970100D02*
X111125000Y-91605100D01*
X111760000Y-90970100D02*
X111125000Y-91605100D01*
X111760000Y-93510100D02*
X113030000Y-93510100D01*
X111760000Y-93510100D02*
X113030000Y-93510100D01*
X112351200Y-94526100D02*
X112351200Y-95796100D01*
X112351200Y-94526100D02*
X112351200Y-95796100D01*
X112351200Y-94526100D02*
X112351200Y-95796100D01*
X112351200Y-94526100D02*
X112351200Y-95796100D01*
X112351200Y-94526100D02*
X112351200Y-95796100D01*
X112351200Y-95796100D02*
X111716200Y-96431100D01*
X112351200Y-95796100D02*
X111716200Y-96431100D01*
X112351200Y-95796100D02*
X111716200Y-96431100D01*
X112351200Y-95796100D02*
X111716200Y-96431100D01*
X112351200Y-95796100D02*
X111716200Y-96431100D01*
X113004600Y-106235500D02*
X111734600Y-106235500D01*
X113004600Y-106235500D02*
X111734600Y-106235500D01*
X113004600Y-106235500D02*
X113639600Y-106870500D01*
X113004600Y-106235500D02*
X113639600Y-106870500D01*
X113030000Y-90970100D02*
X111760000Y-90970100D01*
X113030000Y-90970100D02*
X111760000Y-90970100D01*
X113030000Y-90970100D02*
X113665000Y-91605100D01*
X113030000Y-90970100D02*
X113665000Y-91605100D01*
X113639600Y-106870500D02*
X113639600Y-108140500D01*
X113639600Y-108140500D02*
X113004600Y-108775500D01*
X113639600Y-108140500D02*
X113004600Y-108775500D01*
X113639600Y-108140500D02*
X114274600Y-108775500D01*
X113639600Y-108140500D02*
X114274600Y-108775500D01*
X113639600Y-108140500D02*
X114274600Y-108775500D01*
X113665000Y-91605100D02*
X113665000Y-92875100D01*
X113665000Y-92875100D02*
X113030000Y-93510100D01*
X113665000Y-92875100D02*
X113030000Y-93510100D01*
X113665000Y-92875100D02*
X114300000Y-93510100D01*
X113665000Y-92875100D02*
X114300000Y-93510100D01*
X113665000Y-92875100D02*
X114300000Y-93510100D01*
X114274600Y-106235500D02*
X113639600Y-106870500D01*
X114274600Y-106235500D02*
X113639600Y-106870500D01*
X114274600Y-106235500D02*
X113639600Y-106870500D01*
X114274600Y-108775500D02*
X115544600Y-108775500D01*
X114274600Y-108775500D02*
X115544600Y-108775500D01*
X114274600Y-108775500D02*
X115544600Y-108775500D01*
X114300000Y-90970100D02*
X113665000Y-91605100D01*
X114300000Y-90970100D02*
X113665000Y-91605100D01*
X114300000Y-90970100D02*
X113665000Y-91605100D01*
X114300000Y-93510100D02*
X115570000Y-93510100D01*
X114300000Y-93510100D02*
X115570000Y-93510100D01*
X114300000Y-93510100D02*
X115570000Y-93510100D01*
X115544600Y-106235500D02*
X114274600Y-106235500D01*
X115544600Y-106235500D02*
X114274600Y-106235500D01*
X115544600Y-106235500D02*
X114274600Y-106235500D01*
X115544600Y-108775500D02*
X116179600Y-108140500D01*
X115544600Y-108775500D02*
X116179600Y-108140500D01*
X115544600Y-108775500D02*
X116179600Y-108140500D01*
X115570000Y-90970100D02*
X114300000Y-90970100D01*
X115570000Y-90970100D02*
X114300000Y-90970100D01*
X115570000Y-90970100D02*
X114300000Y-90970100D01*
X115570000Y-93510100D02*
X116205000Y-92875100D01*
X115570000Y-93510100D02*
X116205000Y-92875100D01*
X115570000Y-93510100D02*
X116205000Y-92875100D01*
X116179600Y-106870500D02*
X115544600Y-106235500D01*
X116179600Y-106870500D02*
X115544600Y-106235500D01*
X116179600Y-106870500D02*
X115544600Y-106235500D01*
X116179600Y-108140500D02*
X116814600Y-108775500D01*
X116179600Y-108140500D02*
X116814600Y-108775500D01*
X116179600Y-108140500D02*
X116814600Y-108775500D01*
X116205000Y-91605100D02*
X115570000Y-90970100D01*
X116205000Y-91605100D02*
X115570000Y-90970100D01*
X116205000Y-91605100D02*
X115570000Y-90970100D01*
X116205000Y-92875100D02*
X116840000Y-93510100D01*
X116205000Y-92875100D02*
X116840000Y-93510100D01*
X116205000Y-92875100D02*
X116840000Y-93510100D01*
X116814600Y-106235500D02*
X116179600Y-106870500D01*
X116814600Y-106235500D02*
X116179600Y-106870500D01*
X116814600Y-106235500D02*
X116179600Y-106870500D01*
X116814600Y-108775500D02*
X118084600Y-108775500D01*
X116814600Y-108775500D02*
X118084600Y-108775500D01*
X116814600Y-108775500D02*
X118084600Y-108775500D01*
X116840000Y-90970100D02*
X116205000Y-91605100D01*
X116840000Y-90970100D02*
X116205000Y-91605100D01*
X116840000Y-90970100D02*
X116205000Y-91605100D01*
X116840000Y-93510100D02*
X118110000Y-93510100D01*
X116840000Y-93510100D02*
X118110000Y-93510100D01*
X116840000Y-93510100D02*
X118110000Y-93510100D01*
X118084600Y-106235500D02*
X116814600Y-106235500D01*
X118084600Y-106235500D02*
X116814600Y-106235500D01*
X118084600Y-106235500D02*
X116814600Y-106235500D01*
X118084600Y-108775500D02*
X118719600Y-108140500D01*
X118084600Y-108775500D02*
X118719600Y-108140500D01*
X118084600Y-108775500D02*
X118719600Y-108140500D01*
X118110000Y-90970100D02*
X116840000Y-90970100D01*
X118110000Y-90970100D02*
X116840000Y-90970100D01*
X118110000Y-90970100D02*
X116840000Y-90970100D01*
X118110000Y-93510100D02*
X118745000Y-92875100D01*
X118110000Y-93510100D02*
X118745000Y-92875100D01*
X118110000Y-93510100D02*
X118745000Y-92875100D01*
X118719600Y-106870500D02*
X118084600Y-106235500D01*
X118719600Y-106870500D02*
X118084600Y-106235500D01*
X118719600Y-106870500D02*
X118084600Y-106235500D01*
X118719600Y-108140500D02*
X119354600Y-108775500D01*
X118719600Y-108140500D02*
X119354600Y-108775500D01*
X118719600Y-108140500D02*
X119354600Y-108775500D01*
X118745000Y-91605100D02*
X118110000Y-90970100D01*
X118745000Y-91605100D02*
X118110000Y-90970100D01*
X118745000Y-91605100D02*
X118110000Y-90970100D01*
X118745000Y-92875100D02*
X119380000Y-93510100D01*
X118745000Y-92875100D02*
X119380000Y-93510100D01*
X118745000Y-92875100D02*
X119380000Y-93510100D01*
X119354600Y-106235500D02*
X118719600Y-106870500D01*
X119354600Y-106235500D02*
X118719600Y-106870500D01*
X119354600Y-106235500D02*
X118719600Y-106870500D01*
X119354600Y-108775500D02*
X120624600Y-108775500D01*
X119354600Y-108775500D02*
X120624600Y-108775500D01*
X119354600Y-108775500D02*
X120624600Y-108775500D01*
X119380000Y-90970100D02*
X118745000Y-91605100D01*
X119380000Y-90970100D02*
X118745000Y-91605100D01*
X119380000Y-90970100D02*
X118745000Y-91605100D01*
X119380000Y-93510100D02*
X120650000Y-93510100D01*
X119380000Y-93510100D02*
X120650000Y-93510100D01*
X119380000Y-93510100D02*
X120650000Y-93510100D01*
X120624600Y-106235500D02*
X119354600Y-106235500D01*
X120624600Y-106235500D02*
X119354600Y-106235500D01*
X120624600Y-106235500D02*
X119354600Y-106235500D01*
X120624600Y-106235500D02*
X121259600Y-106870500D01*
X120624600Y-106235500D02*
X121259600Y-106870500D01*
X120624600Y-106235500D02*
X121259600Y-106870500D01*
X120650000Y-90970100D02*
X119380000Y-90970100D01*
X120650000Y-90970100D02*
X119380000Y-90970100D01*
X120650000Y-90970100D02*
X119380000Y-90970100D01*
X120650000Y-90970100D02*
X121285000Y-91605100D01*
X120650000Y-90970100D02*
X121285000Y-91605100D01*
X120650000Y-90970100D02*
X121285000Y-91605100D01*
X121259600Y-108140500D02*
X120624600Y-108775500D01*
X121259600Y-108140500D02*
X120624600Y-108775500D01*
X121259600Y-108140500D02*
X120624600Y-108775500D01*
X121259600Y-108140500D02*
X121894600Y-108775500D01*
X121259600Y-108140500D02*
X121894600Y-108775500D01*
X121259600Y-108140500D02*
X121894600Y-108775500D01*
X121285000Y-92875100D02*
X120650000Y-93510100D01*
X121285000Y-92875100D02*
X120650000Y-93510100D01*
X121285000Y-92875100D02*
X120650000Y-93510100D01*
X121285000Y-92875100D02*
X121920000Y-93510100D01*
X121285000Y-92875100D02*
X121920000Y-93510100D01*
X121285000Y-92875100D02*
X121920000Y-93510100D01*
X121894600Y-106235500D02*
X121259600Y-106870500D01*
X121894600Y-106235500D02*
X121259600Y-106870500D01*
X121894600Y-106235500D02*
X121259600Y-106870500D01*
X121894600Y-108775500D02*
X123164600Y-108775500D01*
X121894600Y-108775500D02*
X123164600Y-108775500D01*
X121894600Y-108775500D02*
X123164600Y-108775500D01*
X121920000Y-90970100D02*
X121285000Y-91605100D01*
X121920000Y-90970100D02*
X121285000Y-91605100D01*
X121920000Y-90970100D02*
X121285000Y-91605100D01*
X121920000Y-93510100D02*
X123190000Y-93510100D01*
X121920000Y-93510100D02*
X123190000Y-93510100D01*
X121920000Y-93510100D02*
X123190000Y-93510100D01*
X123164600Y-106235500D02*
X121894600Y-106235500D01*
X123164600Y-106235500D02*
X121894600Y-106235500D01*
X123164600Y-106235500D02*
X121894600Y-106235500D01*
X123164600Y-108775500D02*
X123799600Y-108140500D01*
X123164600Y-108775500D02*
X123799600Y-108140500D01*
X123164600Y-108775500D02*
X123799600Y-108140500D01*
X123190000Y-90970100D02*
X121920000Y-90970100D01*
X123190000Y-90970100D02*
X121920000Y-90970100D01*
X123190000Y-90970100D02*
X121920000Y-90970100D01*
X123190000Y-93510100D02*
X123825000Y-92875100D01*
X123190000Y-93510100D02*
X123825000Y-92875100D01*
X123190000Y-93510100D02*
X123825000Y-92875100D01*
X123799600Y-106870500D02*
X123164600Y-106235500D01*
X123799600Y-106870500D02*
X123164600Y-106235500D01*
X123799600Y-106870500D02*
X123164600Y-106235500D01*
X123799600Y-106870500D02*
X123799600Y-108140500D01*
X123799600Y-106870500D02*
X123799600Y-108140500D01*
X123799600Y-108140500D02*
X124434600Y-108775500D01*
X123799600Y-108140500D02*
X124434600Y-108775500D01*
X123799600Y-108140500D02*
X124434600Y-108775500D01*
X123799600Y-108140500D02*
X124434600Y-108775500D01*
X123799600Y-108140500D02*
X124434600Y-108775500D01*
X123825000Y-91605100D02*
X123190000Y-90970100D01*
X123825000Y-91605100D02*
X123190000Y-90970100D01*
X123825000Y-91605100D02*
X123190000Y-90970100D01*
X123825000Y-91605100D02*
X123825000Y-92875100D01*
X123825000Y-91605100D02*
X123825000Y-92875100D01*
X123825000Y-92875100D02*
X124460000Y-93510100D01*
X123825000Y-92875100D02*
X124460000Y-93510100D01*
X123825000Y-92875100D02*
X124460000Y-93510100D01*
X123825000Y-92875100D02*
X124460000Y-93510100D01*
X123825000Y-92875100D02*
X124460000Y-93510100D01*
X124434600Y-106235500D02*
X123799600Y-106870500D01*
X124434600Y-106235500D02*
X123799600Y-106870500D01*
X124434600Y-106235500D02*
X123799600Y-106870500D01*
X124434600Y-106235500D02*
X123799600Y-106870500D01*
X124434600Y-106235500D02*
X123799600Y-106870500D01*
X124434600Y-108775500D02*
X125704600Y-108775500D01*
X124434600Y-108775500D02*
X125704600Y-108775500D01*
X124434600Y-108775500D02*
X125704600Y-108775500D01*
X124434600Y-108775500D02*
X125704600Y-108775500D01*
X124434600Y-108775500D02*
X125704600Y-108775500D01*
X124460000Y-90970100D02*
X123825000Y-91605100D01*
X124460000Y-90970100D02*
X123825000Y-91605100D01*
X124460000Y-90970100D02*
X123825000Y-91605100D01*
X124460000Y-90970100D02*
X123825000Y-91605100D01*
X124460000Y-90970100D02*
X123825000Y-91605100D01*
X124460000Y-93510100D02*
X125730000Y-93510100D01*
X124460000Y-93510100D02*
X125730000Y-93510100D01*
X124460000Y-93510100D02*
X125730000Y-93510100D01*
X124460000Y-93510100D02*
X125730000Y-93510100D01*
X124460000Y-93510100D02*
X125730000Y-93510100D01*
X125704600Y-106235500D02*
X124434600Y-106235500D01*
X125704600Y-106235500D02*
X124434600Y-106235500D01*
X125704600Y-106235500D02*
X124434600Y-106235500D01*
X125704600Y-106235500D02*
X124434600Y-106235500D01*
X125704600Y-106235500D02*
X124434600Y-106235500D01*
X125704600Y-108775500D02*
X126339600Y-108140500D01*
X125704600Y-108775500D02*
X126339600Y-108140500D01*
X125704600Y-108775500D02*
X126339600Y-108140500D01*
X125704600Y-108775500D02*
X126339600Y-108140500D01*
X125704600Y-108775500D02*
X126339600Y-108140500D01*
X125730000Y-90970100D02*
X124460000Y-90970100D01*
X125730000Y-90970100D02*
X124460000Y-90970100D01*
X125730000Y-90970100D02*
X124460000Y-90970100D01*
X125730000Y-90970100D02*
X124460000Y-90970100D01*
X125730000Y-90970100D02*
X124460000Y-90970100D01*
X125730000Y-93510100D02*
X126365000Y-92875100D01*
X125730000Y-93510100D02*
X126365000Y-92875100D01*
X125730000Y-93510100D02*
X126365000Y-92875100D01*
X125730000Y-93510100D02*
X126365000Y-92875100D01*
X125730000Y-93510100D02*
X126365000Y-92875100D01*
X126339600Y-106870500D02*
X125704600Y-106235500D01*
X126339600Y-106870500D02*
X125704600Y-106235500D01*
X126339600Y-106870500D02*
X125704600Y-106235500D01*
X126339600Y-106870500D02*
X125704600Y-106235500D01*
X126339600Y-106870500D02*
X125704600Y-106235500D01*
X126339600Y-108140500D02*
X126974600Y-108775500D01*
X126339600Y-108140500D02*
X126974600Y-108775500D01*
X126339600Y-108140500D02*
X126974600Y-108775500D01*
X126339600Y-108140500D02*
X126974600Y-108775500D01*
X126339600Y-108140500D02*
X126974600Y-108775500D01*
X126365000Y-91605100D02*
X125730000Y-90970100D01*
X126365000Y-91605100D02*
X125730000Y-90970100D01*
X126365000Y-91605100D02*
X125730000Y-90970100D01*
X126365000Y-91605100D02*
X125730000Y-90970100D01*
X126365000Y-91605100D02*
X125730000Y-90970100D01*
X126365000Y-92875100D02*
X127000000Y-93510100D01*
X126365000Y-92875100D02*
X127000000Y-93510100D01*
X126365000Y-92875100D02*
X127000000Y-93510100D01*
X126365000Y-92875100D02*
X127000000Y-93510100D01*
X126365000Y-92875100D02*
X127000000Y-93510100D01*
X126974600Y-106235500D02*
X126339600Y-106870500D01*
X126974600Y-106235500D02*
X126339600Y-106870500D01*
X126974600Y-106235500D02*
X126339600Y-106870500D01*
X126974600Y-106235500D02*
X126339600Y-106870500D01*
X126974600Y-106235500D02*
X126339600Y-106870500D01*
X126974600Y-108775500D02*
X128244600Y-108775500D01*
X126974600Y-108775500D02*
X128244600Y-108775500D01*
X126974600Y-108775500D02*
X128244600Y-108775500D01*
X126974600Y-108775500D02*
X128244600Y-108775500D01*
X126974600Y-108775500D02*
X128244600Y-108775500D01*
X127000000Y-90970100D02*
X126365000Y-91605100D01*
X127000000Y-90970100D02*
X126365000Y-91605100D01*
X127000000Y-90970100D02*
X126365000Y-91605100D01*
X127000000Y-90970100D02*
X126365000Y-91605100D01*
X127000000Y-90970100D02*
X126365000Y-91605100D01*
X127000000Y-93510100D02*
X128270000Y-93510100D01*
X127000000Y-93510100D02*
X128270000Y-93510100D01*
X127000000Y-93510100D02*
X128270000Y-93510100D01*
X127000000Y-93510100D02*
X128270000Y-93510100D01*
X127000000Y-93510100D02*
X128270000Y-93510100D01*
X128244600Y-106235500D02*
X126974600Y-106235500D01*
X128244600Y-106235500D02*
X126974600Y-106235500D01*
X128244600Y-106235500D02*
X126974600Y-106235500D01*
X128244600Y-106235500D02*
X126974600Y-106235500D01*
X128244600Y-106235500D02*
X126974600Y-106235500D01*
X128244600Y-106235500D02*
X128879600Y-106870500D01*
X128244600Y-106235500D02*
X128879600Y-106870500D01*
X128244600Y-106235500D02*
X128879600Y-106870500D01*
X128244600Y-106235500D02*
X128879600Y-106870500D01*
X128244600Y-106235500D02*
X128879600Y-106870500D01*
X128270000Y-90970100D02*
X127000000Y-90970100D01*
X128270000Y-90970100D02*
X127000000Y-90970100D01*
X128270000Y-90970100D02*
X127000000Y-90970100D01*
X128270000Y-90970100D02*
X127000000Y-90970100D01*
X128270000Y-90970100D02*
X127000000Y-90970100D01*
X128270000Y-90970100D02*
X128905000Y-91605100D01*
X128270000Y-90970100D02*
X128905000Y-91605100D01*
X128270000Y-90970100D02*
X128905000Y-91605100D01*
X128270000Y-90970100D02*
X128905000Y-91605100D01*
X128270000Y-90970100D02*
X128905000Y-91605100D01*
X128879600Y-106870500D02*
X128879600Y-108140500D01*
X128879600Y-106870500D02*
X128879600Y-108140500D01*
X128879600Y-106870500D02*
X128879600Y-108140500D01*
X128879600Y-106870500D02*
X128879600Y-108140500D01*
X128879600Y-106870500D02*
X128879600Y-108140500D01*
X128879600Y-108140500D02*
X128244600Y-108775500D01*
X128879600Y-108140500D02*
X128244600Y-108775500D01*
X128879600Y-108140500D02*
X128244600Y-108775500D01*
X128879600Y-108140500D02*
X128244600Y-108775500D01*
X128879600Y-108140500D02*
X128244600Y-108775500D01*
X128905000Y-91605100D02*
X128905000Y-92875100D01*
X128905000Y-91605100D02*
X128905000Y-92875100D01*
X128905000Y-91605100D02*
X128905000Y-92875100D01*
X128905000Y-91605100D02*
X128905000Y-92875100D01*
X128905000Y-91605100D02*
X128905000Y-92875100D01*
X128905000Y-92875100D02*
X128270000Y-93510100D01*
X128905000Y-92875100D02*
X128270000Y-93510100D01*
X128905000Y-92875100D02*
X128270000Y-93510100D01*
X128905000Y-92875100D02*
X128270000Y-93510100D01*
X128905000Y-92875100D02*
X128270000Y-93510100D01*
%TD*%
D13*
X93980000Y-68580000D02*
X153980000Y-68580000D01*
X153980000Y-128580000D01*
X93980000Y-128580000D01*
X93980000Y-68580000D01*
M02*
