%TF.GenerationSoftware,KiCad,Pcbnew,9.0.6*%
%TF.CreationDate,2026-06-09T21:40:17-04:00*%
%TF.ProjectId,pcb,7063622e-6b69-4636-9164-5f7063625858,rev?*%
%TF.SameCoordinates,Original*%
%TF.FileFunction,Legend,Top*%
%TF.FilePolarity,Positive*%
%FSLAX46Y46*%
G04 Gerber Fmt 4.6, Leading zero omitted, Abs format (unit mm)*
G04 Created by KiCad (PCBNEW 9.0.6) date 2026-06-09 21:40:17*
%MOMM*%
%LPD*%
G01*
G04 APERTURE LIST*
%ADD10C,0.100000*%
%ADD11C,0.150000*%
%ADD12C,0.121920*%
%ADD13C,0.152400*%
%ADD14C,0.120000*%
%ADD15C,0.203200*%
%ADD16C,0.254000*%
%TA.AperFunction,Profile*%
%ADD17C,0.050000*%
%TD*%
G04 APERTURE END LIST*
D10*
X149251096Y-91080000D02*
G75*
G02*
X145190000Y-91080000I-2030548J0D01*
G01*
X145190000Y-91080000D02*
G75*
G02*
X149251096Y-91080000I2030548J0D01*
G01*
X130684285Y-109073609D02*
X130827142Y-109121228D01*
X130827142Y-109121228D02*
X130874761Y-109168847D01*
X130874761Y-109168847D02*
X130922380Y-109264085D01*
X130922380Y-109264085D02*
X130922380Y-109406942D01*
X130922380Y-109406942D02*
X130874761Y-109502180D01*
X130874761Y-109502180D02*
X130827142Y-109549800D01*
X130827142Y-109549800D02*
X130731904Y-109597419D01*
X130731904Y-109597419D02*
X130350952Y-109597419D01*
X130350952Y-109597419D02*
X130350952Y-108597419D01*
X130350952Y-108597419D02*
X130684285Y-108597419D01*
X130684285Y-108597419D02*
X130779523Y-108645038D01*
X130779523Y-108645038D02*
X130827142Y-108692657D01*
X130827142Y-108692657D02*
X130874761Y-108787895D01*
X130874761Y-108787895D02*
X130874761Y-108883133D01*
X130874761Y-108883133D02*
X130827142Y-108978371D01*
X130827142Y-108978371D02*
X130779523Y-109025990D01*
X130779523Y-109025990D02*
X130684285Y-109073609D01*
X130684285Y-109073609D02*
X130350952Y-109073609D01*
X131208095Y-108597419D02*
X131779523Y-108597419D01*
X131493809Y-109597419D02*
X131493809Y-108597419D01*
X132017619Y-108597419D02*
X132636666Y-108597419D01*
X132636666Y-108597419D02*
X132303333Y-108978371D01*
X132303333Y-108978371D02*
X132446190Y-108978371D01*
X132446190Y-108978371D02*
X132541428Y-109025990D01*
X132541428Y-109025990D02*
X132589047Y-109073609D01*
X132589047Y-109073609D02*
X132636666Y-109168847D01*
X132636666Y-109168847D02*
X132636666Y-109406942D01*
X132636666Y-109406942D02*
X132589047Y-109502180D01*
X132589047Y-109502180D02*
X132541428Y-109549800D01*
X132541428Y-109549800D02*
X132446190Y-109597419D01*
X132446190Y-109597419D02*
X132160476Y-109597419D01*
X132160476Y-109597419D02*
X132065238Y-109549800D01*
X132065238Y-109549800D02*
X132017619Y-109502180D01*
D11*
X148843848Y-118691066D02*
X149605753Y-118691066D01*
D10*
X129698095Y-68747419D02*
X129698095Y-69556942D01*
X129698095Y-69556942D02*
X129745714Y-69652180D01*
X129745714Y-69652180D02*
X129793333Y-69699800D01*
X129793333Y-69699800D02*
X129888571Y-69747419D01*
X129888571Y-69747419D02*
X130079047Y-69747419D01*
X130079047Y-69747419D02*
X130174285Y-69699800D01*
X130174285Y-69699800D02*
X130221904Y-69652180D01*
X130221904Y-69652180D02*
X130269523Y-69556942D01*
X130269523Y-69556942D02*
X130269523Y-68747419D01*
X131174285Y-69080752D02*
X131174285Y-69747419D01*
X130936190Y-68699800D02*
X130698095Y-69414085D01*
X130698095Y-69414085D02*
X131317142Y-69414085D01*
X127336027Y-73477419D02*
X127669360Y-74477419D01*
X127669360Y-74477419D02*
X128002693Y-73477419D01*
X128907455Y-74382180D02*
X128859836Y-74429800D01*
X128859836Y-74429800D02*
X128716979Y-74477419D01*
X128716979Y-74477419D02*
X128621741Y-74477419D01*
X128621741Y-74477419D02*
X128478884Y-74429800D01*
X128478884Y-74429800D02*
X128383646Y-74334561D01*
X128383646Y-74334561D02*
X128336027Y-74239323D01*
X128336027Y-74239323D02*
X128288408Y-74048847D01*
X128288408Y-74048847D02*
X128288408Y-73905990D01*
X128288408Y-73905990D02*
X128336027Y-73715514D01*
X128336027Y-73715514D02*
X128383646Y-73620276D01*
X128383646Y-73620276D02*
X128478884Y-73525038D01*
X128478884Y-73525038D02*
X128621741Y-73477419D01*
X128621741Y-73477419D02*
X128716979Y-73477419D01*
X128716979Y-73477419D02*
X128859836Y-73525038D01*
X128859836Y-73525038D02*
X128907455Y-73572657D01*
X129907455Y-74382180D02*
X129859836Y-74429800D01*
X129859836Y-74429800D02*
X129716979Y-74477419D01*
X129716979Y-74477419D02*
X129621741Y-74477419D01*
X129621741Y-74477419D02*
X129478884Y-74429800D01*
X129478884Y-74429800D02*
X129383646Y-74334561D01*
X129383646Y-74334561D02*
X129336027Y-74239323D01*
X129336027Y-74239323D02*
X129288408Y-74048847D01*
X129288408Y-74048847D02*
X129288408Y-73905990D01*
X129288408Y-73905990D02*
X129336027Y-73715514D01*
X129336027Y-73715514D02*
X129383646Y-73620276D01*
X129383646Y-73620276D02*
X129478884Y-73525038D01*
X129478884Y-73525038D02*
X129621741Y-73477419D01*
X129621741Y-73477419D02*
X129716979Y-73477419D01*
X129716979Y-73477419D02*
X129859836Y-73525038D01*
X129859836Y-73525038D02*
X129907455Y-73572657D01*
X128002693Y-78525038D02*
X127907455Y-78477419D01*
X127907455Y-78477419D02*
X127764598Y-78477419D01*
X127764598Y-78477419D02*
X127621741Y-78525038D01*
X127621741Y-78525038D02*
X127526503Y-78620276D01*
X127526503Y-78620276D02*
X127478884Y-78715514D01*
X127478884Y-78715514D02*
X127431265Y-78905990D01*
X127431265Y-78905990D02*
X127431265Y-79048847D01*
X127431265Y-79048847D02*
X127478884Y-79239323D01*
X127478884Y-79239323D02*
X127526503Y-79334561D01*
X127526503Y-79334561D02*
X127621741Y-79429800D01*
X127621741Y-79429800D02*
X127764598Y-79477419D01*
X127764598Y-79477419D02*
X127859836Y-79477419D01*
X127859836Y-79477419D02*
X128002693Y-79429800D01*
X128002693Y-79429800D02*
X128050312Y-79382180D01*
X128050312Y-79382180D02*
X128050312Y-79048847D01*
X128050312Y-79048847D02*
X127859836Y-79048847D01*
X128478884Y-79477419D02*
X128478884Y-78477419D01*
X128478884Y-78477419D02*
X129050312Y-79477419D01*
X129050312Y-79477419D02*
X129050312Y-78477419D01*
X129526503Y-79477419D02*
X129526503Y-78477419D01*
X129526503Y-78477419D02*
X129764598Y-78477419D01*
X129764598Y-78477419D02*
X129907455Y-78525038D01*
X129907455Y-78525038D02*
X130002693Y-78620276D01*
X130002693Y-78620276D02*
X130050312Y-78715514D01*
X130050312Y-78715514D02*
X130097931Y-78905990D01*
X130097931Y-78905990D02*
X130097931Y-79048847D01*
X130097931Y-79048847D02*
X130050312Y-79239323D01*
X130050312Y-79239323D02*
X130002693Y-79334561D01*
X130002693Y-79334561D02*
X129907455Y-79429800D01*
X129907455Y-79429800D02*
X129764598Y-79477419D01*
X129764598Y-79477419D02*
X129526503Y-79477419D01*
X127431265Y-76929800D02*
X127574122Y-76977419D01*
X127574122Y-76977419D02*
X127812217Y-76977419D01*
X127812217Y-76977419D02*
X127907455Y-76929800D01*
X127907455Y-76929800D02*
X127955074Y-76882180D01*
X127955074Y-76882180D02*
X128002693Y-76786942D01*
X128002693Y-76786942D02*
X128002693Y-76691704D01*
X128002693Y-76691704D02*
X127955074Y-76596466D01*
X127955074Y-76596466D02*
X127907455Y-76548847D01*
X127907455Y-76548847D02*
X127812217Y-76501228D01*
X127812217Y-76501228D02*
X127621741Y-76453609D01*
X127621741Y-76453609D02*
X127526503Y-76405990D01*
X127526503Y-76405990D02*
X127478884Y-76358371D01*
X127478884Y-76358371D02*
X127431265Y-76263133D01*
X127431265Y-76263133D02*
X127431265Y-76167895D01*
X127431265Y-76167895D02*
X127478884Y-76072657D01*
X127478884Y-76072657D02*
X127526503Y-76025038D01*
X127526503Y-76025038D02*
X127621741Y-75977419D01*
X127621741Y-75977419D02*
X127859836Y-75977419D01*
X127859836Y-75977419D02*
X128002693Y-76025038D01*
X128431265Y-76977419D02*
X128431265Y-75977419D01*
X128431265Y-75977419D02*
X128669360Y-75977419D01*
X128669360Y-75977419D02*
X128812217Y-76025038D01*
X128812217Y-76025038D02*
X128907455Y-76120276D01*
X128907455Y-76120276D02*
X128955074Y-76215514D01*
X128955074Y-76215514D02*
X129002693Y-76405990D01*
X129002693Y-76405990D02*
X129002693Y-76548847D01*
X129002693Y-76548847D02*
X128955074Y-76739323D01*
X128955074Y-76739323D02*
X128907455Y-76834561D01*
X128907455Y-76834561D02*
X128812217Y-76929800D01*
X128812217Y-76929800D02*
X128669360Y-76977419D01*
X128669360Y-76977419D02*
X128431265Y-76977419D01*
X129383646Y-76691704D02*
X129859836Y-76691704D01*
X129288408Y-76977419D02*
X129621741Y-75977419D01*
X129621741Y-75977419D02*
X129955074Y-76977419D01*
X127431265Y-81929800D02*
X127574122Y-81977419D01*
X127574122Y-81977419D02*
X127812217Y-81977419D01*
X127812217Y-81977419D02*
X127907455Y-81929800D01*
X127907455Y-81929800D02*
X127955074Y-81882180D01*
X127955074Y-81882180D02*
X128002693Y-81786942D01*
X128002693Y-81786942D02*
X128002693Y-81691704D01*
X128002693Y-81691704D02*
X127955074Y-81596466D01*
X127955074Y-81596466D02*
X127907455Y-81548847D01*
X127907455Y-81548847D02*
X127812217Y-81501228D01*
X127812217Y-81501228D02*
X127621741Y-81453609D01*
X127621741Y-81453609D02*
X127526503Y-81405990D01*
X127526503Y-81405990D02*
X127478884Y-81358371D01*
X127478884Y-81358371D02*
X127431265Y-81263133D01*
X127431265Y-81263133D02*
X127431265Y-81167895D01*
X127431265Y-81167895D02*
X127478884Y-81072657D01*
X127478884Y-81072657D02*
X127526503Y-81025038D01*
X127526503Y-81025038D02*
X127621741Y-80977419D01*
X127621741Y-80977419D02*
X127859836Y-80977419D01*
X127859836Y-80977419D02*
X128002693Y-81025038D01*
X129002693Y-81882180D02*
X128955074Y-81929800D01*
X128955074Y-81929800D02*
X128812217Y-81977419D01*
X128812217Y-81977419D02*
X128716979Y-81977419D01*
X128716979Y-81977419D02*
X128574122Y-81929800D01*
X128574122Y-81929800D02*
X128478884Y-81834561D01*
X128478884Y-81834561D02*
X128431265Y-81739323D01*
X128431265Y-81739323D02*
X128383646Y-81548847D01*
X128383646Y-81548847D02*
X128383646Y-81405990D01*
X128383646Y-81405990D02*
X128431265Y-81215514D01*
X128431265Y-81215514D02*
X128478884Y-81120276D01*
X128478884Y-81120276D02*
X128574122Y-81025038D01*
X128574122Y-81025038D02*
X128716979Y-80977419D01*
X128716979Y-80977419D02*
X128812217Y-80977419D01*
X128812217Y-80977419D02*
X128955074Y-81025038D01*
X128955074Y-81025038D02*
X129002693Y-81072657D01*
X129907455Y-81977419D02*
X129431265Y-81977419D01*
X129431265Y-81977419D02*
X129431265Y-80977419D01*
D11*
X141359047Y-70416009D02*
X141501904Y-70463628D01*
X141501904Y-70463628D02*
X141549523Y-70511247D01*
X141549523Y-70511247D02*
X141597142Y-70606485D01*
X141597142Y-70606485D02*
X141597142Y-70749342D01*
X141597142Y-70749342D02*
X141549523Y-70844580D01*
X141549523Y-70844580D02*
X141501904Y-70892200D01*
X141501904Y-70892200D02*
X141406666Y-70939819D01*
X141406666Y-70939819D02*
X141025714Y-70939819D01*
X141025714Y-70939819D02*
X141025714Y-69939819D01*
X141025714Y-69939819D02*
X141359047Y-69939819D01*
X141359047Y-69939819D02*
X141454285Y-69987438D01*
X141454285Y-69987438D02*
X141501904Y-70035057D01*
X141501904Y-70035057D02*
X141549523Y-70130295D01*
X141549523Y-70130295D02*
X141549523Y-70225533D01*
X141549523Y-70225533D02*
X141501904Y-70320771D01*
X141501904Y-70320771D02*
X141454285Y-70368390D01*
X141454285Y-70368390D02*
X141359047Y-70416009D01*
X141359047Y-70416009D02*
X141025714Y-70416009D01*
X141930476Y-69939819D02*
X142597142Y-69939819D01*
X142597142Y-69939819D02*
X141930476Y-70939819D01*
X141930476Y-70939819D02*
X142597142Y-70939819D01*
X142882857Y-69939819D02*
X143501904Y-69939819D01*
X143501904Y-69939819D02*
X143168571Y-70320771D01*
X143168571Y-70320771D02*
X143311428Y-70320771D01*
X143311428Y-70320771D02*
X143406666Y-70368390D01*
X143406666Y-70368390D02*
X143454285Y-70416009D01*
X143454285Y-70416009D02*
X143501904Y-70511247D01*
X143501904Y-70511247D02*
X143501904Y-70749342D01*
X143501904Y-70749342D02*
X143454285Y-70844580D01*
X143454285Y-70844580D02*
X143406666Y-70892200D01*
X143406666Y-70892200D02*
X143311428Y-70939819D01*
X143311428Y-70939819D02*
X143025714Y-70939819D01*
X143025714Y-70939819D02*
X142930476Y-70892200D01*
X142930476Y-70892200D02*
X142882857Y-70844580D01*
X143129048Y-73733866D02*
X143890953Y-73733866D01*
X143510000Y-74114819D02*
X143510000Y-73352914D01*
X102855733Y-76672419D02*
X102522400Y-76196228D01*
X102284305Y-76672419D02*
X102284305Y-75672419D01*
X102284305Y-75672419D02*
X102665257Y-75672419D01*
X102665257Y-75672419D02*
X102760495Y-75720038D01*
X102760495Y-75720038D02*
X102808114Y-75767657D01*
X102808114Y-75767657D02*
X102855733Y-75862895D01*
X102855733Y-75862895D02*
X102855733Y-76005752D01*
X102855733Y-76005752D02*
X102808114Y-76100990D01*
X102808114Y-76100990D02*
X102760495Y-76148609D01*
X102760495Y-76148609D02*
X102665257Y-76196228D01*
X102665257Y-76196228D02*
X102284305Y-76196228D01*
X103712876Y-76005752D02*
X103712876Y-76672419D01*
X103474781Y-75624800D02*
X103236686Y-76339085D01*
X103236686Y-76339085D02*
X103855733Y-76339085D01*
D10*
X145576667Y-87689800D02*
X145719524Y-87737419D01*
X145719524Y-87737419D02*
X145957619Y-87737419D01*
X145957619Y-87737419D02*
X146052857Y-87689800D01*
X146052857Y-87689800D02*
X146100476Y-87642180D01*
X146100476Y-87642180D02*
X146148095Y-87546942D01*
X146148095Y-87546942D02*
X146148095Y-87451704D01*
X146148095Y-87451704D02*
X146100476Y-87356466D01*
X146100476Y-87356466D02*
X146052857Y-87308847D01*
X146052857Y-87308847D02*
X145957619Y-87261228D01*
X145957619Y-87261228D02*
X145767143Y-87213609D01*
X145767143Y-87213609D02*
X145671905Y-87165990D01*
X145671905Y-87165990D02*
X145624286Y-87118371D01*
X145624286Y-87118371D02*
X145576667Y-87023133D01*
X145576667Y-87023133D02*
X145576667Y-86927895D01*
X145576667Y-86927895D02*
X145624286Y-86832657D01*
X145624286Y-86832657D02*
X145671905Y-86785038D01*
X145671905Y-86785038D02*
X145767143Y-86737419D01*
X145767143Y-86737419D02*
X146005238Y-86737419D01*
X146005238Y-86737419D02*
X146148095Y-86785038D01*
X146481429Y-86737419D02*
X146719524Y-87737419D01*
X146719524Y-87737419D02*
X146910000Y-87023133D01*
X146910000Y-87023133D02*
X147100476Y-87737419D01*
X147100476Y-87737419D02*
X147338572Y-86737419D01*
X147671905Y-86832657D02*
X147719524Y-86785038D01*
X147719524Y-86785038D02*
X147814762Y-86737419D01*
X147814762Y-86737419D02*
X148052857Y-86737419D01*
X148052857Y-86737419D02*
X148148095Y-86785038D01*
X148148095Y-86785038D02*
X148195714Y-86832657D01*
X148195714Y-86832657D02*
X148243333Y-86927895D01*
X148243333Y-86927895D02*
X148243333Y-87023133D01*
X148243333Y-87023133D02*
X148195714Y-87165990D01*
X148195714Y-87165990D02*
X147624286Y-87737419D01*
X147624286Y-87737419D02*
X148243333Y-87737419D01*
X129937419Y-104741904D02*
X130746942Y-104741904D01*
X130746942Y-104741904D02*
X130842180Y-104694285D01*
X130842180Y-104694285D02*
X130889800Y-104646666D01*
X130889800Y-104646666D02*
X130937419Y-104551428D01*
X130937419Y-104551428D02*
X130937419Y-104360952D01*
X130937419Y-104360952D02*
X130889800Y-104265714D01*
X130889800Y-104265714D02*
X130842180Y-104218095D01*
X130842180Y-104218095D02*
X130746942Y-104170476D01*
X130746942Y-104170476D02*
X129937419Y-104170476D01*
X129937419Y-103789523D02*
X129937419Y-103170476D01*
X129937419Y-103170476D02*
X130318371Y-103503809D01*
X130318371Y-103503809D02*
X130318371Y-103360952D01*
X130318371Y-103360952D02*
X130365990Y-103265714D01*
X130365990Y-103265714D02*
X130413609Y-103218095D01*
X130413609Y-103218095D02*
X130508847Y-103170476D01*
X130508847Y-103170476D02*
X130746942Y-103170476D01*
X130746942Y-103170476D02*
X130842180Y-103218095D01*
X130842180Y-103218095D02*
X130889800Y-103265714D01*
X130889800Y-103265714D02*
X130937419Y-103360952D01*
X130937419Y-103360952D02*
X130937419Y-103646666D01*
X130937419Y-103646666D02*
X130889800Y-103741904D01*
X130889800Y-103741904D02*
X130842180Y-103789523D01*
X109984704Y-83712830D02*
X109984704Y-82903307D01*
X109984704Y-82903307D02*
X109937085Y-82808069D01*
X109937085Y-82808069D02*
X109889466Y-82760450D01*
X109889466Y-82760450D02*
X109794228Y-82712830D01*
X109794228Y-82712830D02*
X109603752Y-82712830D01*
X109603752Y-82712830D02*
X109508514Y-82760450D01*
X109508514Y-82760450D02*
X109460895Y-82808069D01*
X109460895Y-82808069D02*
X109413276Y-82903307D01*
X109413276Y-82903307D02*
X109413276Y-83712830D01*
X108984704Y-83617592D02*
X108937085Y-83665211D01*
X108937085Y-83665211D02*
X108841847Y-83712830D01*
X108841847Y-83712830D02*
X108603752Y-83712830D01*
X108603752Y-83712830D02*
X108508514Y-83665211D01*
X108508514Y-83665211D02*
X108460895Y-83617592D01*
X108460895Y-83617592D02*
X108413276Y-83522354D01*
X108413276Y-83522354D02*
X108413276Y-83427116D01*
X108413276Y-83427116D02*
X108460895Y-83284259D01*
X108460895Y-83284259D02*
X109032323Y-82712830D01*
X109032323Y-82712830D02*
X108413276Y-82712830D01*
X120266772Y-84567830D02*
X119695344Y-84567830D01*
X119981058Y-83567830D02*
X119981058Y-84567830D01*
X118790582Y-83567830D02*
X119123915Y-84044021D01*
X119362010Y-83567830D02*
X119362010Y-84567830D01*
X119362010Y-84567830D02*
X118981058Y-84567830D01*
X118981058Y-84567830D02*
X118885820Y-84520211D01*
X118885820Y-84520211D02*
X118838201Y-84472592D01*
X118838201Y-84472592D02*
X118790582Y-84377354D01*
X118790582Y-84377354D02*
X118790582Y-84234497D01*
X118790582Y-84234497D02*
X118838201Y-84139259D01*
X118838201Y-84139259D02*
X118885820Y-84091640D01*
X118885820Y-84091640D02*
X118981058Y-84044021D01*
X118981058Y-84044021D02*
X119362010Y-84044021D01*
X118362010Y-83567830D02*
X118362010Y-84567830D01*
X117362011Y-84520211D02*
X117457249Y-84567830D01*
X117457249Y-84567830D02*
X117600106Y-84567830D01*
X117600106Y-84567830D02*
X117742963Y-84520211D01*
X117742963Y-84520211D02*
X117838201Y-84424973D01*
X117838201Y-84424973D02*
X117885820Y-84329735D01*
X117885820Y-84329735D02*
X117933439Y-84139259D01*
X117933439Y-84139259D02*
X117933439Y-83996402D01*
X117933439Y-83996402D02*
X117885820Y-83805926D01*
X117885820Y-83805926D02*
X117838201Y-83710688D01*
X117838201Y-83710688D02*
X117742963Y-83615450D01*
X117742963Y-83615450D02*
X117600106Y-83567830D01*
X117600106Y-83567830D02*
X117504868Y-83567830D01*
X117504868Y-83567830D02*
X117362011Y-83615450D01*
X117362011Y-83615450D02*
X117314392Y-83663069D01*
X117314392Y-83663069D02*
X117314392Y-83996402D01*
X117314392Y-83996402D02*
X117504868Y-83996402D01*
X118206115Y-87821390D02*
X117872782Y-87821390D01*
X117729925Y-87297580D02*
X118206115Y-87297580D01*
X118206115Y-87297580D02*
X118206115Y-88297580D01*
X118206115Y-88297580D02*
X117729925Y-88297580D01*
X116729925Y-87392819D02*
X116777544Y-87345200D01*
X116777544Y-87345200D02*
X116920401Y-87297580D01*
X116920401Y-87297580D02*
X117015639Y-87297580D01*
X117015639Y-87297580D02*
X117158496Y-87345200D01*
X117158496Y-87345200D02*
X117253734Y-87440438D01*
X117253734Y-87440438D02*
X117301353Y-87535676D01*
X117301353Y-87535676D02*
X117348972Y-87726152D01*
X117348972Y-87726152D02*
X117348972Y-87869009D01*
X117348972Y-87869009D02*
X117301353Y-88059485D01*
X117301353Y-88059485D02*
X117253734Y-88154723D01*
X117253734Y-88154723D02*
X117158496Y-88249961D01*
X117158496Y-88249961D02*
X117015639Y-88297580D01*
X117015639Y-88297580D02*
X116920401Y-88297580D01*
X116920401Y-88297580D02*
X116777544Y-88249961D01*
X116777544Y-88249961D02*
X116729925Y-88202342D01*
X116301353Y-87297580D02*
X116301353Y-88297580D01*
X116301353Y-87821390D02*
X115729925Y-87821390D01*
X115729925Y-87297580D02*
X115729925Y-88297580D01*
X115063258Y-88297580D02*
X114872782Y-88297580D01*
X114872782Y-88297580D02*
X114777544Y-88249961D01*
X114777544Y-88249961D02*
X114682306Y-88154723D01*
X114682306Y-88154723D02*
X114634687Y-87964247D01*
X114634687Y-87964247D02*
X114634687Y-87630914D01*
X114634687Y-87630914D02*
X114682306Y-87440438D01*
X114682306Y-87440438D02*
X114777544Y-87345200D01*
X114777544Y-87345200D02*
X114872782Y-87297580D01*
X114872782Y-87297580D02*
X115063258Y-87297580D01*
X115063258Y-87297580D02*
X115158496Y-87345200D01*
X115158496Y-87345200D02*
X115253734Y-87440438D01*
X115253734Y-87440438D02*
X115301353Y-87630914D01*
X115301353Y-87630914D02*
X115301353Y-87964247D01*
X115301353Y-87964247D02*
X115253734Y-88154723D01*
X115253734Y-88154723D02*
X115158496Y-88249961D01*
X115158496Y-88249961D02*
X115063258Y-88297580D01*
X122798972Y-88247580D02*
X122465639Y-87247580D01*
X122465639Y-87247580D02*
X122132306Y-88247580D01*
X121227544Y-87342819D02*
X121275163Y-87295200D01*
X121275163Y-87295200D02*
X121418020Y-87247580D01*
X121418020Y-87247580D02*
X121513258Y-87247580D01*
X121513258Y-87247580D02*
X121656115Y-87295200D01*
X121656115Y-87295200D02*
X121751353Y-87390438D01*
X121751353Y-87390438D02*
X121798972Y-87485676D01*
X121798972Y-87485676D02*
X121846591Y-87676152D01*
X121846591Y-87676152D02*
X121846591Y-87819009D01*
X121846591Y-87819009D02*
X121798972Y-88009485D01*
X121798972Y-88009485D02*
X121751353Y-88104723D01*
X121751353Y-88104723D02*
X121656115Y-88199961D01*
X121656115Y-88199961D02*
X121513258Y-88247580D01*
X121513258Y-88247580D02*
X121418020Y-88247580D01*
X121418020Y-88247580D02*
X121275163Y-88199961D01*
X121275163Y-88199961D02*
X121227544Y-88152342D01*
X120227544Y-87342819D02*
X120275163Y-87295200D01*
X120275163Y-87295200D02*
X120418020Y-87247580D01*
X120418020Y-87247580D02*
X120513258Y-87247580D01*
X120513258Y-87247580D02*
X120656115Y-87295200D01*
X120656115Y-87295200D02*
X120751353Y-87390438D01*
X120751353Y-87390438D02*
X120798972Y-87485676D01*
X120798972Y-87485676D02*
X120846591Y-87676152D01*
X120846591Y-87676152D02*
X120846591Y-87819009D01*
X120846591Y-87819009D02*
X120798972Y-88009485D01*
X120798972Y-88009485D02*
X120751353Y-88104723D01*
X120751353Y-88104723D02*
X120656115Y-88199961D01*
X120656115Y-88199961D02*
X120513258Y-88247580D01*
X120513258Y-88247580D02*
X120418020Y-88247580D01*
X120418020Y-88247580D02*
X120275163Y-88199961D01*
X120275163Y-88199961D02*
X120227544Y-88152342D01*
X114520106Y-84520211D02*
X114615344Y-84567830D01*
X114615344Y-84567830D02*
X114758201Y-84567830D01*
X114758201Y-84567830D02*
X114901058Y-84520211D01*
X114901058Y-84520211D02*
X114996296Y-84424973D01*
X114996296Y-84424973D02*
X115043915Y-84329735D01*
X115043915Y-84329735D02*
X115091534Y-84139259D01*
X115091534Y-84139259D02*
X115091534Y-83996402D01*
X115091534Y-83996402D02*
X115043915Y-83805926D01*
X115043915Y-83805926D02*
X114996296Y-83710688D01*
X114996296Y-83710688D02*
X114901058Y-83615450D01*
X114901058Y-83615450D02*
X114758201Y-83567830D01*
X114758201Y-83567830D02*
X114662963Y-83567830D01*
X114662963Y-83567830D02*
X114520106Y-83615450D01*
X114520106Y-83615450D02*
X114472487Y-83663069D01*
X114472487Y-83663069D02*
X114472487Y-83996402D01*
X114472487Y-83996402D02*
X114662963Y-83996402D01*
X114043915Y-83567830D02*
X114043915Y-84567830D01*
X114043915Y-84567830D02*
X113472487Y-83567830D01*
X113472487Y-83567830D02*
X113472487Y-84567830D01*
X112996296Y-83567830D02*
X112996296Y-84567830D01*
X112996296Y-84567830D02*
X112758201Y-84567830D01*
X112758201Y-84567830D02*
X112615344Y-84520211D01*
X112615344Y-84520211D02*
X112520106Y-84424973D01*
X112520106Y-84424973D02*
X112472487Y-84329735D01*
X112472487Y-84329735D02*
X112424868Y-84139259D01*
X112424868Y-84139259D02*
X112424868Y-83996402D01*
X112424868Y-83996402D02*
X112472487Y-83805926D01*
X112472487Y-83805926D02*
X112520106Y-83710688D01*
X112520106Y-83710688D02*
X112615344Y-83615450D01*
X112615344Y-83615450D02*
X112758201Y-83567830D01*
X112758201Y-83567830D02*
X112996296Y-83567830D01*
D11*
X101635086Y-69830419D02*
X102206514Y-69830419D01*
X101920800Y-70830419D02*
X101920800Y-69830419D01*
X102539848Y-70830419D02*
X102539848Y-69830419D01*
X102539848Y-70306609D02*
X103111276Y-70306609D01*
X103111276Y-70830419D02*
X103111276Y-69830419D01*
X103539848Y-69925657D02*
X103587467Y-69878038D01*
X103587467Y-69878038D02*
X103682705Y-69830419D01*
X103682705Y-69830419D02*
X103920800Y-69830419D01*
X103920800Y-69830419D02*
X104016038Y-69878038D01*
X104016038Y-69878038D02*
X104063657Y-69925657D01*
X104063657Y-69925657D02*
X104111276Y-70020895D01*
X104111276Y-70020895D02*
X104111276Y-70116133D01*
X104111276Y-70116133D02*
X104063657Y-70258990D01*
X104063657Y-70258990D02*
X103492229Y-70830419D01*
X103492229Y-70830419D02*
X104111276Y-70830419D01*
X136103333Y-89794819D02*
X135770000Y-89318628D01*
X135531905Y-89794819D02*
X135531905Y-88794819D01*
X135531905Y-88794819D02*
X135912857Y-88794819D01*
X135912857Y-88794819D02*
X136008095Y-88842438D01*
X136008095Y-88842438D02*
X136055714Y-88890057D01*
X136055714Y-88890057D02*
X136103333Y-88985295D01*
X136103333Y-88985295D02*
X136103333Y-89128152D01*
X136103333Y-89128152D02*
X136055714Y-89223390D01*
X136055714Y-89223390D02*
X136008095Y-89271009D01*
X136008095Y-89271009D02*
X135912857Y-89318628D01*
X135912857Y-89318628D02*
X135531905Y-89318628D01*
X136436667Y-88794819D02*
X137055714Y-88794819D01*
X137055714Y-88794819D02*
X136722381Y-89175771D01*
X136722381Y-89175771D02*
X136865238Y-89175771D01*
X136865238Y-89175771D02*
X136960476Y-89223390D01*
X136960476Y-89223390D02*
X137008095Y-89271009D01*
X137008095Y-89271009D02*
X137055714Y-89366247D01*
X137055714Y-89366247D02*
X137055714Y-89604342D01*
X137055714Y-89604342D02*
X137008095Y-89699580D01*
X137008095Y-89699580D02*
X136960476Y-89747200D01*
X136960476Y-89747200D02*
X136865238Y-89794819D01*
X136865238Y-89794819D02*
X136579524Y-89794819D01*
X136579524Y-89794819D02*
X136484286Y-89747200D01*
X136484286Y-89747200D02*
X136436667Y-89699580D01*
D10*
X94537419Y-99941904D02*
X95346942Y-99941904D01*
X95346942Y-99941904D02*
X95442180Y-99894285D01*
X95442180Y-99894285D02*
X95489800Y-99846666D01*
X95489800Y-99846666D02*
X95537419Y-99751428D01*
X95537419Y-99751428D02*
X95537419Y-99560952D01*
X95537419Y-99560952D02*
X95489800Y-99465714D01*
X95489800Y-99465714D02*
X95442180Y-99418095D01*
X95442180Y-99418095D02*
X95346942Y-99370476D01*
X95346942Y-99370476D02*
X94537419Y-99370476D01*
X95537419Y-98370476D02*
X95537419Y-98941904D01*
X95537419Y-98656190D02*
X94537419Y-98656190D01*
X94537419Y-98656190D02*
X94680276Y-98751428D01*
X94680276Y-98751428D02*
X94775514Y-98846666D01*
X94775514Y-98846666D02*
X94823133Y-98941904D01*
D12*
X99620310Y-101463606D02*
X99291319Y-101693899D01*
X99620310Y-101858394D02*
X98929430Y-101858394D01*
X98929430Y-101858394D02*
X98929430Y-101595202D01*
X98929430Y-101595202D02*
X98962329Y-101529404D01*
X98962329Y-101529404D02*
X98995228Y-101496505D01*
X98995228Y-101496505D02*
X99061026Y-101463606D01*
X99061026Y-101463606D02*
X99159723Y-101463606D01*
X99159723Y-101463606D02*
X99225521Y-101496505D01*
X99225521Y-101496505D02*
X99258420Y-101529404D01*
X99258420Y-101529404D02*
X99291319Y-101595202D01*
X99291319Y-101595202D02*
X99291319Y-101858394D01*
X98929430Y-101233312D02*
X99620310Y-100772726D01*
X98929430Y-100772726D02*
X99620310Y-101233312D01*
X99620310Y-100509533D02*
X98929430Y-100509533D01*
X97645201Y-107932879D02*
X97546504Y-107899980D01*
X97546504Y-107899980D02*
X97513605Y-107867081D01*
X97513605Y-107867081D02*
X97480706Y-107801283D01*
X97480706Y-107801283D02*
X97480706Y-107702586D01*
X97480706Y-107702586D02*
X97513605Y-107636788D01*
X97513605Y-107636788D02*
X97546504Y-107603889D01*
X97546504Y-107603889D02*
X97612302Y-107570989D01*
X97612302Y-107570989D02*
X97875494Y-107570989D01*
X97875494Y-107570989D02*
X97875494Y-108261869D01*
X97875494Y-108261869D02*
X97645201Y-108261869D01*
X97645201Y-108261869D02*
X97579403Y-108228970D01*
X97579403Y-108228970D02*
X97546504Y-108196071D01*
X97546504Y-108196071D02*
X97513605Y-108130273D01*
X97513605Y-108130273D02*
X97513605Y-108064475D01*
X97513605Y-108064475D02*
X97546504Y-107998677D01*
X97546504Y-107998677D02*
X97579403Y-107965778D01*
X97579403Y-107965778D02*
X97645201Y-107932879D01*
X97645201Y-107932879D02*
X97875494Y-107932879D01*
X96855624Y-107570989D02*
X97184614Y-107570989D01*
X97184614Y-107570989D02*
X97184614Y-108261869D01*
X96625330Y-107570989D02*
X96625330Y-108261869D01*
X96230542Y-107570989D02*
X96526633Y-107965778D01*
X96230542Y-108261869D02*
X96625330Y-107867081D01*
D13*
X115381441Y-93743455D02*
X114970203Y-93743455D01*
X115463689Y-93496712D02*
X115175822Y-94360312D01*
X115175822Y-94360312D02*
X114887956Y-93496712D01*
X114147727Y-93496712D02*
X114641212Y-93496712D01*
X114394469Y-93496712D02*
X114394469Y-94360312D01*
X114394469Y-94360312D02*
X114476717Y-94236940D01*
X114476717Y-94236940D02*
X114558965Y-94154693D01*
X114558965Y-94154693D02*
X114641212Y-94113569D01*
D12*
X105100706Y-105538989D02*
X105330999Y-105867980D01*
X105495494Y-105538989D02*
X105495494Y-106229869D01*
X105495494Y-106229869D02*
X105232302Y-106229869D01*
X105232302Y-106229869D02*
X105166504Y-106196970D01*
X105166504Y-106196970D02*
X105133605Y-106164071D01*
X105133605Y-106164071D02*
X105100706Y-106098273D01*
X105100706Y-106098273D02*
X105100706Y-105999576D01*
X105100706Y-105999576D02*
X105133605Y-105933778D01*
X105133605Y-105933778D02*
X105166504Y-105900879D01*
X105166504Y-105900879D02*
X105232302Y-105867980D01*
X105232302Y-105867980D02*
X105495494Y-105867980D01*
X104837513Y-105571889D02*
X104738816Y-105538989D01*
X104738816Y-105538989D02*
X104574321Y-105538989D01*
X104574321Y-105538989D02*
X104508523Y-105571889D01*
X104508523Y-105571889D02*
X104475624Y-105604788D01*
X104475624Y-105604788D02*
X104442725Y-105670586D01*
X104442725Y-105670586D02*
X104442725Y-105736384D01*
X104442725Y-105736384D02*
X104475624Y-105802182D01*
X104475624Y-105802182D02*
X104508523Y-105835081D01*
X104508523Y-105835081D02*
X104574321Y-105867980D01*
X104574321Y-105867980D02*
X104705917Y-105900879D01*
X104705917Y-105900879D02*
X104771715Y-105933778D01*
X104771715Y-105933778D02*
X104804614Y-105966677D01*
X104804614Y-105966677D02*
X104837513Y-106032475D01*
X104837513Y-106032475D02*
X104837513Y-106098273D01*
X104837513Y-106098273D02*
X104804614Y-106164071D01*
X104804614Y-106164071D02*
X104771715Y-106196970D01*
X104771715Y-106196970D02*
X104705917Y-106229869D01*
X104705917Y-106229869D02*
X104541422Y-106229869D01*
X104541422Y-106229869D02*
X104442725Y-106196970D01*
X104245330Y-106229869D02*
X103850542Y-106229869D01*
X104047936Y-105538989D02*
X104047936Y-106229869D01*
X98929430Y-99457091D02*
X99620310Y-99226798D01*
X99620310Y-99226798D02*
X98929430Y-98996505D01*
X99554511Y-98371423D02*
X99587411Y-98404322D01*
X99587411Y-98404322D02*
X99620310Y-98503019D01*
X99620310Y-98503019D02*
X99620310Y-98568817D01*
X99620310Y-98568817D02*
X99587411Y-98667514D01*
X99587411Y-98667514D02*
X99521612Y-98733312D01*
X99521612Y-98733312D02*
X99455814Y-98766211D01*
X99455814Y-98766211D02*
X99324218Y-98799110D01*
X99324218Y-98799110D02*
X99225521Y-98799110D01*
X99225521Y-98799110D02*
X99093925Y-98766211D01*
X99093925Y-98766211D02*
X99028127Y-98733312D01*
X99028127Y-98733312D02*
X98962329Y-98667514D01*
X98962329Y-98667514D02*
X98929430Y-98568817D01*
X98929430Y-98568817D02*
X98929430Y-98503019D01*
X98929430Y-98503019D02*
X98962329Y-98404322D01*
X98962329Y-98404322D02*
X98995228Y-98371423D01*
X99554511Y-97680543D02*
X99587411Y-97713442D01*
X99587411Y-97713442D02*
X99620310Y-97812139D01*
X99620310Y-97812139D02*
X99620310Y-97877937D01*
X99620310Y-97877937D02*
X99587411Y-97976634D01*
X99587411Y-97976634D02*
X99521612Y-98042432D01*
X99521612Y-98042432D02*
X99455814Y-98075331D01*
X99455814Y-98075331D02*
X99324218Y-98108230D01*
X99324218Y-98108230D02*
X99225521Y-98108230D01*
X99225521Y-98108230D02*
X99093925Y-98075331D01*
X99093925Y-98075331D02*
X99028127Y-98042432D01*
X99028127Y-98042432D02*
X98962329Y-97976634D01*
X98962329Y-97976634D02*
X98929430Y-97877937D01*
X98929430Y-97877937D02*
X98929430Y-97812139D01*
X98929430Y-97812139D02*
X98962329Y-97713442D01*
X98962329Y-97713442D02*
X98995228Y-97680543D01*
X108134191Y-94164869D02*
X107903898Y-93473989D01*
X107903898Y-93473989D02*
X107673605Y-94164869D01*
X107048523Y-93539788D02*
X107081422Y-93506889D01*
X107081422Y-93506889D02*
X107180119Y-93473989D01*
X107180119Y-93473989D02*
X107245917Y-93473989D01*
X107245917Y-93473989D02*
X107344614Y-93506889D01*
X107344614Y-93506889D02*
X107410412Y-93572687D01*
X107410412Y-93572687D02*
X107443311Y-93638485D01*
X107443311Y-93638485D02*
X107476210Y-93770081D01*
X107476210Y-93770081D02*
X107476210Y-93868778D01*
X107476210Y-93868778D02*
X107443311Y-94000374D01*
X107443311Y-94000374D02*
X107410412Y-94066172D01*
X107410412Y-94066172D02*
X107344614Y-94131970D01*
X107344614Y-94131970D02*
X107245917Y-94164869D01*
X107245917Y-94164869D02*
X107180119Y-94164869D01*
X107180119Y-94164869D02*
X107081422Y-94131970D01*
X107081422Y-94131970D02*
X107048523Y-94099071D01*
X106357643Y-93539788D02*
X106390542Y-93506889D01*
X106390542Y-93506889D02*
X106489239Y-93473989D01*
X106489239Y-93473989D02*
X106555037Y-93473989D01*
X106555037Y-93473989D02*
X106653734Y-93506889D01*
X106653734Y-93506889D02*
X106719532Y-93572687D01*
X106719532Y-93572687D02*
X106752431Y-93638485D01*
X106752431Y-93638485D02*
X106785330Y-93770081D01*
X106785330Y-93770081D02*
X106785330Y-93868778D01*
X106785330Y-93868778D02*
X106752431Y-94000374D01*
X106752431Y-94000374D02*
X106719532Y-94066172D01*
X106719532Y-94066172D02*
X106653734Y-94131970D01*
X106653734Y-94131970D02*
X106555037Y-94164869D01*
X106555037Y-94164869D02*
X106489239Y-94164869D01*
X106489239Y-94164869D02*
X106390542Y-94131970D01*
X106390542Y-94131970D02*
X106357643Y-94099071D01*
D13*
X122507956Y-93496712D02*
X123001441Y-93496712D01*
X122754698Y-93496712D02*
X122754698Y-94360312D01*
X122754698Y-94360312D02*
X122836946Y-94236940D01*
X122836946Y-94236940D02*
X122919194Y-94154693D01*
X122919194Y-94154693D02*
X123001441Y-94113569D01*
X122178965Y-94278064D02*
X122137841Y-94319188D01*
X122137841Y-94319188D02*
X122055594Y-94360312D01*
X122055594Y-94360312D02*
X121849975Y-94360312D01*
X121849975Y-94360312D02*
X121767727Y-94319188D01*
X121767727Y-94319188D02*
X121726603Y-94278064D01*
X121726603Y-94278064D02*
X121685480Y-94195816D01*
X121685480Y-94195816D02*
X121685480Y-94113569D01*
X121685480Y-94113569D02*
X121726603Y-93990197D01*
X121726603Y-93990197D02*
X122220089Y-93496712D01*
X122220089Y-93496712D02*
X121685480Y-93496712D01*
X125047956Y-93496712D02*
X125541441Y-93496712D01*
X125294698Y-93496712D02*
X125294698Y-94360312D01*
X125294698Y-94360312D02*
X125376946Y-94236940D01*
X125376946Y-94236940D02*
X125459194Y-94154693D01*
X125459194Y-94154693D02*
X125541441Y-94113569D01*
X124225480Y-93496712D02*
X124718965Y-93496712D01*
X124472222Y-93496712D02*
X124472222Y-94360312D01*
X124472222Y-94360312D02*
X124554470Y-94236940D01*
X124554470Y-94236940D02*
X124636718Y-94154693D01*
X124636718Y-94154693D02*
X124718965Y-94113569D01*
X117921441Y-93743455D02*
X117510203Y-93743455D01*
X118003689Y-93496712D02*
X117715822Y-94360312D01*
X117715822Y-94360312D02*
X117427956Y-93496712D01*
X116975593Y-94360312D02*
X116893346Y-94360312D01*
X116893346Y-94360312D02*
X116811098Y-94319188D01*
X116811098Y-94319188D02*
X116769974Y-94278064D01*
X116769974Y-94278064D02*
X116728850Y-94195816D01*
X116728850Y-94195816D02*
X116687727Y-94031321D01*
X116687727Y-94031321D02*
X116687727Y-93825702D01*
X116687727Y-93825702D02*
X116728850Y-93661207D01*
X116728850Y-93661207D02*
X116769974Y-93578959D01*
X116769974Y-93578959D02*
X116811098Y-93537836D01*
X116811098Y-93537836D02*
X116893346Y-93496712D01*
X116893346Y-93496712D02*
X116975593Y-93496712D01*
X116975593Y-93496712D02*
X117057841Y-93537836D01*
X117057841Y-93537836D02*
X117098965Y-93578959D01*
X117098965Y-93578959D02*
X117140088Y-93661207D01*
X117140088Y-93661207D02*
X117181212Y-93825702D01*
X117181212Y-93825702D02*
X117181212Y-94031321D01*
X117181212Y-94031321D02*
X117140088Y-94195816D01*
X117140088Y-94195816D02*
X117098965Y-94278064D01*
X117098965Y-94278064D02*
X117057841Y-94319188D01*
X117057841Y-94319188D02*
X116975593Y-94360312D01*
X112501565Y-106247512D02*
X111966956Y-106247512D01*
X111966956Y-106247512D02*
X112254822Y-105918521D01*
X112254822Y-105918521D02*
X112131451Y-105918521D01*
X112131451Y-105918521D02*
X112049203Y-105877397D01*
X112049203Y-105877397D02*
X112008079Y-105836274D01*
X112008079Y-105836274D02*
X111966956Y-105754026D01*
X111966956Y-105754026D02*
X111966956Y-105548407D01*
X111966956Y-105548407D02*
X112008079Y-105466159D01*
X112008079Y-105466159D02*
X112049203Y-105425036D01*
X112049203Y-105425036D02*
X112131451Y-105383912D01*
X112131451Y-105383912D02*
X112378194Y-105383912D01*
X112378194Y-105383912D02*
X112460441Y-105425036D01*
X112460441Y-105425036D02*
X112501565Y-105466159D01*
D12*
X112767393Y-93671384D02*
X112438403Y-93671384D01*
X112833191Y-93473989D02*
X112602898Y-94164869D01*
X112602898Y-94164869D02*
X112372605Y-93473989D01*
X112175210Y-94099071D02*
X112142311Y-94131970D01*
X112142311Y-94131970D02*
X112076513Y-94164869D01*
X112076513Y-94164869D02*
X111912018Y-94164869D01*
X111912018Y-94164869D02*
X111846220Y-94131970D01*
X111846220Y-94131970D02*
X111813321Y-94099071D01*
X111813321Y-94099071D02*
X111780422Y-94033273D01*
X111780422Y-94033273D02*
X111780422Y-93967475D01*
X111780422Y-93967475D02*
X111813321Y-93868778D01*
X111813321Y-93868778D02*
X112208109Y-93473989D01*
X112208109Y-93473989D02*
X111780422Y-93473989D01*
D13*
X127618194Y-105434712D02*
X127453698Y-105434712D01*
X127453698Y-105434712D02*
X127371451Y-105475836D01*
X127371451Y-105475836D02*
X127330327Y-105516959D01*
X127330327Y-105516959D02*
X127248079Y-105640331D01*
X127248079Y-105640331D02*
X127206956Y-105804826D01*
X127206956Y-105804826D02*
X127206956Y-106133816D01*
X127206956Y-106133816D02*
X127248079Y-106216064D01*
X127248079Y-106216064D02*
X127289203Y-106257188D01*
X127289203Y-106257188D02*
X127371451Y-106298312D01*
X127371451Y-106298312D02*
X127535946Y-106298312D01*
X127535946Y-106298312D02*
X127618194Y-106257188D01*
X127618194Y-106257188D02*
X127659317Y-106216064D01*
X127659317Y-106216064D02*
X127700441Y-106133816D01*
X127700441Y-106133816D02*
X127700441Y-105928197D01*
X127700441Y-105928197D02*
X127659317Y-105845950D01*
X127659317Y-105845950D02*
X127618194Y-105804826D01*
X127618194Y-105804826D02*
X127535946Y-105763702D01*
X127535946Y-105763702D02*
X127371451Y-105763702D01*
X127371451Y-105763702D02*
X127289203Y-105804826D01*
X127289203Y-105804826D02*
X127248079Y-105845950D01*
X127248079Y-105845950D02*
X127206956Y-105928197D01*
D12*
X98962329Y-96496505D02*
X98929430Y-96562303D01*
X98929430Y-96562303D02*
X98929430Y-96661000D01*
X98929430Y-96661000D02*
X98962329Y-96759697D01*
X98962329Y-96759697D02*
X99028127Y-96825495D01*
X99028127Y-96825495D02*
X99093925Y-96858394D01*
X99093925Y-96858394D02*
X99225521Y-96891293D01*
X99225521Y-96891293D02*
X99324218Y-96891293D01*
X99324218Y-96891293D02*
X99455814Y-96858394D01*
X99455814Y-96858394D02*
X99521612Y-96825495D01*
X99521612Y-96825495D02*
X99587411Y-96759697D01*
X99587411Y-96759697D02*
X99620310Y-96661000D01*
X99620310Y-96661000D02*
X99620310Y-96595202D01*
X99620310Y-96595202D02*
X99587411Y-96496505D01*
X99587411Y-96496505D02*
X99554511Y-96463606D01*
X99554511Y-96463606D02*
X99324218Y-96463606D01*
X99324218Y-96463606D02*
X99324218Y-96595202D01*
X99620310Y-96167514D02*
X98929430Y-96167514D01*
X98929430Y-96167514D02*
X99620310Y-95772726D01*
X99620310Y-95772726D02*
X98929430Y-95772726D01*
X99620310Y-95443735D02*
X98929430Y-95443735D01*
X98929430Y-95443735D02*
X98929430Y-95279240D01*
X98929430Y-95279240D02*
X98962329Y-95180543D01*
X98962329Y-95180543D02*
X99028127Y-95114745D01*
X99028127Y-95114745D02*
X99093925Y-95081846D01*
X99093925Y-95081846D02*
X99225521Y-95048947D01*
X99225521Y-95048947D02*
X99324218Y-95048947D01*
X99324218Y-95048947D02*
X99455814Y-95081846D01*
X99455814Y-95081846D02*
X99521612Y-95114745D01*
X99521612Y-95114745D02*
X99587411Y-95180543D01*
X99587411Y-95180543D02*
X99620310Y-95279240D01*
X99620310Y-95279240D02*
X99620310Y-95443735D01*
X102560706Y-105538989D02*
X102790999Y-105867980D01*
X102955494Y-105538989D02*
X102955494Y-106229869D01*
X102955494Y-106229869D02*
X102692302Y-106229869D01*
X102692302Y-106229869D02*
X102626504Y-106196970D01*
X102626504Y-106196970D02*
X102593605Y-106164071D01*
X102593605Y-106164071D02*
X102560706Y-106098273D01*
X102560706Y-106098273D02*
X102560706Y-105999576D01*
X102560706Y-105999576D02*
X102593605Y-105933778D01*
X102593605Y-105933778D02*
X102626504Y-105900879D01*
X102626504Y-105900879D02*
X102692302Y-105867980D01*
X102692302Y-105867980D02*
X102955494Y-105867980D01*
X102330412Y-106229869D02*
X101869826Y-105538989D01*
X101869826Y-106229869D02*
X102330412Y-105538989D01*
X101606633Y-105538989D02*
X101606633Y-106229869D01*
D13*
X127587956Y-93496712D02*
X128081441Y-93496712D01*
X127834698Y-93496712D02*
X127834698Y-94360312D01*
X127834698Y-94360312D02*
X127916946Y-94236940D01*
X127916946Y-94236940D02*
X127999194Y-94154693D01*
X127999194Y-94154693D02*
X128081441Y-94113569D01*
X127053346Y-94360312D02*
X126971099Y-94360312D01*
X126971099Y-94360312D02*
X126888851Y-94319188D01*
X126888851Y-94319188D02*
X126847727Y-94278064D01*
X126847727Y-94278064D02*
X126806603Y-94195816D01*
X126806603Y-94195816D02*
X126765480Y-94031321D01*
X126765480Y-94031321D02*
X126765480Y-93825702D01*
X126765480Y-93825702D02*
X126806603Y-93661207D01*
X126806603Y-93661207D02*
X126847727Y-93578959D01*
X126847727Y-93578959D02*
X126888851Y-93537836D01*
X126888851Y-93537836D02*
X126971099Y-93496712D01*
X126971099Y-93496712D02*
X127053346Y-93496712D01*
X127053346Y-93496712D02*
X127135594Y-93537836D01*
X127135594Y-93537836D02*
X127176718Y-93578959D01*
X127176718Y-93578959D02*
X127217841Y-93661207D01*
X127217841Y-93661207D02*
X127258965Y-93825702D01*
X127258965Y-93825702D02*
X127258965Y-94031321D01*
X127258965Y-94031321D02*
X127217841Y-94195816D01*
X127217841Y-94195816D02*
X127176718Y-94278064D01*
X127176718Y-94278064D02*
X127135594Y-94319188D01*
X127135594Y-94319188D02*
X127053346Y-94360312D01*
D12*
X98929430Y-104457091D02*
X98929430Y-104062303D01*
X99620310Y-104259697D02*
X98929430Y-104259697D01*
X98929430Y-103897807D02*
X99620310Y-103437221D01*
X98929430Y-103437221D02*
X99620310Y-103897807D01*
X98929430Y-103042432D02*
X98929430Y-102910836D01*
X98929430Y-102910836D02*
X98962329Y-102845038D01*
X98962329Y-102845038D02*
X99028127Y-102779240D01*
X99028127Y-102779240D02*
X99159723Y-102746341D01*
X99159723Y-102746341D02*
X99390016Y-102746341D01*
X99390016Y-102746341D02*
X99521612Y-102779240D01*
X99521612Y-102779240D02*
X99587411Y-102845038D01*
X99587411Y-102845038D02*
X99620310Y-102910836D01*
X99620310Y-102910836D02*
X99620310Y-103042432D01*
X99620310Y-103042432D02*
X99587411Y-103108230D01*
X99587411Y-103108230D02*
X99521612Y-103174028D01*
X99521612Y-103174028D02*
X99390016Y-103206927D01*
X99390016Y-103206927D02*
X99159723Y-103206927D01*
X99159723Y-103206927D02*
X99028127Y-103174028D01*
X99028127Y-103174028D02*
X98962329Y-103108230D01*
X98962329Y-103108230D02*
X98929430Y-103042432D01*
X109846393Y-106316471D02*
X109813494Y-106349370D01*
X109813494Y-106349370D02*
X109747696Y-106382269D01*
X109747696Y-106382269D02*
X109583201Y-106382269D01*
X109583201Y-106382269D02*
X109517403Y-106349370D01*
X109517403Y-106349370D02*
X109484504Y-106316471D01*
X109484504Y-106316471D02*
X109451605Y-106250673D01*
X109451605Y-106250673D02*
X109451605Y-106184875D01*
X109451605Y-106184875D02*
X109484504Y-106086178D01*
X109484504Y-106086178D02*
X109879292Y-105691389D01*
X109879292Y-105691389D02*
X109451605Y-105691389D01*
X110227393Y-93671384D02*
X109898403Y-93671384D01*
X110293191Y-93473989D02*
X110062898Y-94164869D01*
X110062898Y-94164869D02*
X109832605Y-93473989D01*
X109668109Y-94164869D02*
X109240422Y-94164869D01*
X109240422Y-94164869D02*
X109470715Y-93901677D01*
X109470715Y-93901677D02*
X109372018Y-93901677D01*
X109372018Y-93901677D02*
X109306220Y-93868778D01*
X109306220Y-93868778D02*
X109273321Y-93835879D01*
X109273321Y-93835879D02*
X109240422Y-93770081D01*
X109240422Y-93770081D02*
X109240422Y-93605586D01*
X109240422Y-93605586D02*
X109273321Y-93539788D01*
X109273321Y-93539788D02*
X109306220Y-93506889D01*
X109306220Y-93506889D02*
X109372018Y-93473989D01*
X109372018Y-93473989D02*
X109569412Y-93473989D01*
X109569412Y-93473989D02*
X109635210Y-93506889D01*
X109635210Y-93506889D02*
X109668109Y-93539788D01*
X102593605Y-94131970D02*
X102659403Y-94164869D01*
X102659403Y-94164869D02*
X102758100Y-94164869D01*
X102758100Y-94164869D02*
X102856797Y-94131970D01*
X102856797Y-94131970D02*
X102922595Y-94066172D01*
X102922595Y-94066172D02*
X102955494Y-94000374D01*
X102955494Y-94000374D02*
X102988393Y-93868778D01*
X102988393Y-93868778D02*
X102988393Y-93770081D01*
X102988393Y-93770081D02*
X102955494Y-93638485D01*
X102955494Y-93638485D02*
X102922595Y-93572687D01*
X102922595Y-93572687D02*
X102856797Y-93506889D01*
X102856797Y-93506889D02*
X102758100Y-93473989D01*
X102758100Y-93473989D02*
X102692302Y-93473989D01*
X102692302Y-93473989D02*
X102593605Y-93506889D01*
X102593605Y-93506889D02*
X102560706Y-93539788D01*
X102560706Y-93539788D02*
X102560706Y-93770081D01*
X102560706Y-93770081D02*
X102692302Y-93770081D01*
X102264614Y-93473989D02*
X102264614Y-94164869D01*
X102264614Y-94164869D02*
X101869826Y-93473989D01*
X101869826Y-93473989D02*
X101869826Y-94164869D01*
X101540835Y-93473989D02*
X101540835Y-94164869D01*
X101540835Y-94164869D02*
X101376340Y-94164869D01*
X101376340Y-94164869D02*
X101277643Y-94131970D01*
X101277643Y-94131970D02*
X101211845Y-94066172D01*
X101211845Y-94066172D02*
X101178946Y-94000374D01*
X101178946Y-94000374D02*
X101146047Y-93868778D01*
X101146047Y-93868778D02*
X101146047Y-93770081D01*
X101146047Y-93770081D02*
X101178946Y-93638485D01*
X101178946Y-93638485D02*
X101211845Y-93572687D01*
X101211845Y-93572687D02*
X101277643Y-93506889D01*
X101277643Y-93506889D02*
X101376340Y-93473989D01*
X101376340Y-93473989D02*
X101540835Y-93473989D01*
D13*
X117088079Y-106298312D02*
X117499317Y-106298312D01*
X117499317Y-106298312D02*
X117540441Y-105887074D01*
X117540441Y-105887074D02*
X117499317Y-105928197D01*
X117499317Y-105928197D02*
X117417070Y-105969321D01*
X117417070Y-105969321D02*
X117211451Y-105969321D01*
X117211451Y-105969321D02*
X117129203Y-105928197D01*
X117129203Y-105928197D02*
X117088079Y-105887074D01*
X117088079Y-105887074D02*
X117046956Y-105804826D01*
X117046956Y-105804826D02*
X117046956Y-105599207D01*
X117046956Y-105599207D02*
X117088079Y-105516959D01*
X117088079Y-105516959D02*
X117129203Y-105475836D01*
X117129203Y-105475836D02*
X117211451Y-105434712D01*
X117211451Y-105434712D02*
X117417070Y-105434712D01*
X117417070Y-105434712D02*
X117499317Y-105475836D01*
X117499317Y-105475836D02*
X117540441Y-105516959D01*
D12*
X120559110Y-100846206D02*
X120230119Y-101076499D01*
X120559110Y-101240994D02*
X119868230Y-101240994D01*
X119868230Y-101240994D02*
X119868230Y-100977802D01*
X119868230Y-100977802D02*
X119901129Y-100912004D01*
X119901129Y-100912004D02*
X119934028Y-100879105D01*
X119934028Y-100879105D02*
X119999826Y-100846206D01*
X119999826Y-100846206D02*
X120098523Y-100846206D01*
X120098523Y-100846206D02*
X120164321Y-100879105D01*
X120164321Y-100879105D02*
X120197220Y-100912004D01*
X120197220Y-100912004D02*
X120230119Y-100977802D01*
X120230119Y-100977802D02*
X120230119Y-101240994D01*
X120526211Y-100286922D02*
X120559110Y-100352720D01*
X120559110Y-100352720D02*
X120559110Y-100484316D01*
X120559110Y-100484316D02*
X120526211Y-100550114D01*
X120526211Y-100550114D02*
X120460412Y-100583013D01*
X120460412Y-100583013D02*
X120197220Y-100583013D01*
X120197220Y-100583013D02*
X120131422Y-100550114D01*
X120131422Y-100550114D02*
X120098523Y-100484316D01*
X120098523Y-100484316D02*
X120098523Y-100352720D01*
X120098523Y-100352720D02*
X120131422Y-100286922D01*
X120131422Y-100286922D02*
X120197220Y-100254023D01*
X120197220Y-100254023D02*
X120263018Y-100254023D01*
X120263018Y-100254023D02*
X120328816Y-100583013D01*
X120526211Y-99990830D02*
X120559110Y-99925032D01*
X120559110Y-99925032D02*
X120559110Y-99793436D01*
X120559110Y-99793436D02*
X120526211Y-99727638D01*
X120526211Y-99727638D02*
X120460412Y-99694739D01*
X120460412Y-99694739D02*
X120427513Y-99694739D01*
X120427513Y-99694739D02*
X120361715Y-99727638D01*
X120361715Y-99727638D02*
X120328816Y-99793436D01*
X120328816Y-99793436D02*
X120328816Y-99892133D01*
X120328816Y-99892133D02*
X120295917Y-99957931D01*
X120295917Y-99957931D02*
X120230119Y-99990830D01*
X120230119Y-99990830D02*
X120197220Y-99990830D01*
X120197220Y-99990830D02*
X120131422Y-99957931D01*
X120131422Y-99957931D02*
X120098523Y-99892133D01*
X120098523Y-99892133D02*
X120098523Y-99793436D01*
X120098523Y-99793436D02*
X120131422Y-99727638D01*
X120526211Y-99135455D02*
X120559110Y-99201253D01*
X120559110Y-99201253D02*
X120559110Y-99332849D01*
X120559110Y-99332849D02*
X120526211Y-99398647D01*
X120526211Y-99398647D02*
X120460412Y-99431546D01*
X120460412Y-99431546D02*
X120197220Y-99431546D01*
X120197220Y-99431546D02*
X120131422Y-99398647D01*
X120131422Y-99398647D02*
X120098523Y-99332849D01*
X120098523Y-99332849D02*
X120098523Y-99201253D01*
X120098523Y-99201253D02*
X120131422Y-99135455D01*
X120131422Y-99135455D02*
X120197220Y-99102556D01*
X120197220Y-99102556D02*
X120263018Y-99102556D01*
X120263018Y-99102556D02*
X120328816Y-99431546D01*
X120098523Y-98905161D02*
X120098523Y-98641969D01*
X119868230Y-98806464D02*
X120460412Y-98806464D01*
X120460412Y-98806464D02*
X120526211Y-98773565D01*
X120526211Y-98773565D02*
X120559110Y-98707767D01*
X120559110Y-98707767D02*
X120559110Y-98641969D01*
X100020706Y-93473989D02*
X100250999Y-93802980D01*
X100415494Y-93473989D02*
X100415494Y-94164869D01*
X100415494Y-94164869D02*
X100152302Y-94164869D01*
X100152302Y-94164869D02*
X100086504Y-94131970D01*
X100086504Y-94131970D02*
X100053605Y-94099071D01*
X100053605Y-94099071D02*
X100020706Y-94033273D01*
X100020706Y-94033273D02*
X100020706Y-93934576D01*
X100020706Y-93934576D02*
X100053605Y-93868778D01*
X100053605Y-93868778D02*
X100086504Y-93835879D01*
X100086504Y-93835879D02*
X100152302Y-93802980D01*
X100152302Y-93802980D02*
X100415494Y-93802980D01*
X99757513Y-93671384D02*
X99428523Y-93671384D01*
X99823311Y-93473989D02*
X99593018Y-94164869D01*
X99593018Y-94164869D02*
X99362725Y-93473989D01*
X99198229Y-94164869D02*
X99033734Y-93473989D01*
X99033734Y-93473989D02*
X98902138Y-93967475D01*
X98902138Y-93967475D02*
X98770542Y-93473989D01*
X98770542Y-93473989D02*
X98606047Y-94164869D01*
X100514191Y-106229869D02*
X100119403Y-106229869D01*
X100316797Y-105538989D02*
X100316797Y-106229869D01*
X99954907Y-106229869D02*
X99494321Y-105538989D01*
X99494321Y-106229869D02*
X99954907Y-105538989D01*
X99099532Y-106229869D02*
X98967936Y-106229869D01*
X98967936Y-106229869D02*
X98902138Y-106196970D01*
X98902138Y-106196970D02*
X98836340Y-106131172D01*
X98836340Y-106131172D02*
X98803441Y-105999576D01*
X98803441Y-105999576D02*
X98803441Y-105769283D01*
X98803441Y-105769283D02*
X98836340Y-105637687D01*
X98836340Y-105637687D02*
X98902138Y-105571889D01*
X98902138Y-105571889D02*
X98967936Y-105538989D01*
X98967936Y-105538989D02*
X99099532Y-105538989D01*
X99099532Y-105538989D02*
X99165330Y-105571889D01*
X99165330Y-105571889D02*
X99231128Y-105637687D01*
X99231128Y-105637687D02*
X99264027Y-105769283D01*
X99264027Y-105769283D02*
X99264027Y-105999576D01*
X99264027Y-105999576D02*
X99231128Y-106131172D01*
X99231128Y-106131172D02*
X99165330Y-106196970D01*
X99165330Y-106196970D02*
X99099532Y-106229869D01*
X97513605Y-92226970D02*
X97579403Y-92259869D01*
X97579403Y-92259869D02*
X97678100Y-92259869D01*
X97678100Y-92259869D02*
X97776797Y-92226970D01*
X97776797Y-92226970D02*
X97842595Y-92161172D01*
X97842595Y-92161172D02*
X97875494Y-92095374D01*
X97875494Y-92095374D02*
X97908393Y-91963778D01*
X97908393Y-91963778D02*
X97908393Y-91865081D01*
X97908393Y-91865081D02*
X97875494Y-91733485D01*
X97875494Y-91733485D02*
X97842595Y-91667687D01*
X97842595Y-91667687D02*
X97776797Y-91601889D01*
X97776797Y-91601889D02*
X97678100Y-91568989D01*
X97678100Y-91568989D02*
X97612302Y-91568989D01*
X97612302Y-91568989D02*
X97513605Y-91601889D01*
X97513605Y-91601889D02*
X97480706Y-91634788D01*
X97480706Y-91634788D02*
X97480706Y-91865081D01*
X97480706Y-91865081D02*
X97612302Y-91865081D01*
X96789826Y-91568989D02*
X97020119Y-91897980D01*
X97184614Y-91568989D02*
X97184614Y-92259869D01*
X97184614Y-92259869D02*
X96921422Y-92259869D01*
X96921422Y-92259869D02*
X96855624Y-92226970D01*
X96855624Y-92226970D02*
X96822725Y-92194071D01*
X96822725Y-92194071D02*
X96789826Y-92128273D01*
X96789826Y-92128273D02*
X96789826Y-92029576D01*
X96789826Y-92029576D02*
X96822725Y-91963778D01*
X96822725Y-91963778D02*
X96855624Y-91930879D01*
X96855624Y-91930879D02*
X96921422Y-91897980D01*
X96921422Y-91897980D02*
X97184614Y-91897980D01*
X96493734Y-91568989D02*
X96493734Y-92259869D01*
X96493734Y-92259869D02*
X96098946Y-91568989D01*
X96098946Y-91568989D02*
X96098946Y-92259869D01*
X102982310Y-99970994D02*
X102291430Y-99970994D01*
X102291430Y-99970994D02*
X102784915Y-99740701D01*
X102784915Y-99740701D02*
X102291430Y-99510408D01*
X102291430Y-99510408D02*
X102982310Y-99510408D01*
X102982310Y-99181417D02*
X102521723Y-99181417D01*
X102291430Y-99181417D02*
X102324329Y-99214316D01*
X102324329Y-99214316D02*
X102357228Y-99181417D01*
X102357228Y-99181417D02*
X102324329Y-99148518D01*
X102324329Y-99148518D02*
X102291430Y-99181417D01*
X102291430Y-99181417D02*
X102357228Y-99181417D01*
X102521723Y-98852427D02*
X102982310Y-98852427D01*
X102587521Y-98852427D02*
X102554622Y-98819528D01*
X102554622Y-98819528D02*
X102521723Y-98753730D01*
X102521723Y-98753730D02*
X102521723Y-98655033D01*
X102521723Y-98655033D02*
X102554622Y-98589235D01*
X102554622Y-98589235D02*
X102620420Y-98556336D01*
X102620420Y-98556336D02*
X102982310Y-98556336D01*
X102982310Y-98227345D02*
X102521723Y-98227345D01*
X102291430Y-98227345D02*
X102324329Y-98260244D01*
X102324329Y-98260244D02*
X102357228Y-98227345D01*
X102357228Y-98227345D02*
X102324329Y-98194446D01*
X102324329Y-98194446D02*
X102291430Y-98227345D01*
X102291430Y-98227345D02*
X102357228Y-98227345D01*
X107800605Y-106196970D02*
X107866403Y-106229869D01*
X107866403Y-106229869D02*
X107965100Y-106229869D01*
X107965100Y-106229869D02*
X108063797Y-106196970D01*
X108063797Y-106196970D02*
X108129595Y-106131172D01*
X108129595Y-106131172D02*
X108162494Y-106065374D01*
X108162494Y-106065374D02*
X108195393Y-105933778D01*
X108195393Y-105933778D02*
X108195393Y-105835081D01*
X108195393Y-105835081D02*
X108162494Y-105703485D01*
X108162494Y-105703485D02*
X108129595Y-105637687D01*
X108129595Y-105637687D02*
X108063797Y-105571889D01*
X108063797Y-105571889D02*
X107965100Y-105538989D01*
X107965100Y-105538989D02*
X107899302Y-105538989D01*
X107899302Y-105538989D02*
X107800605Y-105571889D01*
X107800605Y-105571889D02*
X107767706Y-105604788D01*
X107767706Y-105604788D02*
X107767706Y-105835081D01*
X107767706Y-105835081D02*
X107899302Y-105835081D01*
X107471614Y-105538989D02*
X107471614Y-106229869D01*
X107471614Y-106229869D02*
X107076826Y-105538989D01*
X107076826Y-105538989D02*
X107076826Y-106229869D01*
X106747835Y-105538989D02*
X106747835Y-106229869D01*
X106747835Y-106229869D02*
X106583340Y-106229869D01*
X106583340Y-106229869D02*
X106484643Y-106196970D01*
X106484643Y-106196970D02*
X106418845Y-106131172D01*
X106418845Y-106131172D02*
X106385946Y-106065374D01*
X106385946Y-106065374D02*
X106353047Y-105933778D01*
X106353047Y-105933778D02*
X106353047Y-105835081D01*
X106353047Y-105835081D02*
X106385946Y-105703485D01*
X106385946Y-105703485D02*
X106418845Y-105637687D01*
X106418845Y-105637687D02*
X106484643Y-105571889D01*
X106484643Y-105571889D02*
X106583340Y-105538989D01*
X106583340Y-105538989D02*
X106747835Y-105538989D01*
D13*
X114589203Y-106010445D02*
X114589203Y-105434712D01*
X114794822Y-106339436D02*
X115000441Y-105722578D01*
X115000441Y-105722578D02*
X114465832Y-105722578D01*
X119669203Y-106298312D02*
X119833698Y-106298312D01*
X119833698Y-106298312D02*
X119915946Y-106257188D01*
X119915946Y-106257188D02*
X119957070Y-106216064D01*
X119957070Y-106216064D02*
X120039317Y-106092693D01*
X120039317Y-106092693D02*
X120080441Y-105928197D01*
X120080441Y-105928197D02*
X120080441Y-105599207D01*
X120080441Y-105599207D02*
X120039317Y-105516959D01*
X120039317Y-105516959D02*
X119998194Y-105475836D01*
X119998194Y-105475836D02*
X119915946Y-105434712D01*
X119915946Y-105434712D02*
X119751451Y-105434712D01*
X119751451Y-105434712D02*
X119669203Y-105475836D01*
X119669203Y-105475836D02*
X119628079Y-105516959D01*
X119628079Y-105516959D02*
X119586956Y-105599207D01*
X119586956Y-105599207D02*
X119586956Y-105804826D01*
X119586956Y-105804826D02*
X119628079Y-105887074D01*
X119628079Y-105887074D02*
X119669203Y-105928197D01*
X119669203Y-105928197D02*
X119751451Y-105969321D01*
X119751451Y-105969321D02*
X119915946Y-105969321D01*
X119915946Y-105969321D02*
X119998194Y-105928197D01*
X119998194Y-105928197D02*
X120039317Y-105887074D01*
X120039317Y-105887074D02*
X120080441Y-105804826D01*
X119967956Y-93496712D02*
X120461441Y-93496712D01*
X120214698Y-93496712D02*
X120214698Y-94360312D01*
X120214698Y-94360312D02*
X120296946Y-94236940D01*
X120296946Y-94236940D02*
X120379194Y-94154693D01*
X120379194Y-94154693D02*
X120461441Y-94113569D01*
X119680089Y-94360312D02*
X119145480Y-94360312D01*
X119145480Y-94360312D02*
X119433346Y-94031321D01*
X119433346Y-94031321D02*
X119309975Y-94031321D01*
X119309975Y-94031321D02*
X119227727Y-93990197D01*
X119227727Y-93990197D02*
X119186603Y-93949074D01*
X119186603Y-93949074D02*
X119145480Y-93866826D01*
X119145480Y-93866826D02*
X119145480Y-93661207D01*
X119145480Y-93661207D02*
X119186603Y-93578959D01*
X119186603Y-93578959D02*
X119227727Y-93537836D01*
X119227727Y-93537836D02*
X119309975Y-93496712D01*
X119309975Y-93496712D02*
X119556718Y-93496712D01*
X119556718Y-93496712D02*
X119638965Y-93537836D01*
X119638965Y-93537836D02*
X119680089Y-93578959D01*
X122534565Y-106298312D02*
X121958832Y-106298312D01*
X121958832Y-106298312D02*
X122328946Y-105434712D01*
D12*
X101591115Y-102035893D02*
X101591115Y-101706903D01*
X101788510Y-102101691D02*
X101097630Y-101871398D01*
X101097630Y-101871398D02*
X101788510Y-101641105D01*
X101788510Y-101410811D02*
X101327923Y-101410811D01*
X101459519Y-101410811D02*
X101393721Y-101377912D01*
X101393721Y-101377912D02*
X101360822Y-101345013D01*
X101360822Y-101345013D02*
X101327923Y-101279215D01*
X101327923Y-101279215D02*
X101327923Y-101213417D01*
X101788510Y-100687032D02*
X101097630Y-100687032D01*
X101755611Y-100687032D02*
X101788510Y-100752830D01*
X101788510Y-100752830D02*
X101788510Y-100884426D01*
X101788510Y-100884426D02*
X101755611Y-100950224D01*
X101755611Y-100950224D02*
X101722711Y-100983123D01*
X101722711Y-100983123D02*
X101656913Y-101016022D01*
X101656913Y-101016022D02*
X101459519Y-101016022D01*
X101459519Y-101016022D02*
X101393721Y-100983123D01*
X101393721Y-100983123D02*
X101360822Y-100950224D01*
X101360822Y-100950224D02*
X101327923Y-100884426D01*
X101327923Y-100884426D02*
X101327923Y-100752830D01*
X101327923Y-100752830D02*
X101360822Y-100687032D01*
X101327923Y-100061950D02*
X101788510Y-100061950D01*
X101327923Y-100358041D02*
X101689812Y-100358041D01*
X101689812Y-100358041D02*
X101755611Y-100325142D01*
X101755611Y-100325142D02*
X101788510Y-100259344D01*
X101788510Y-100259344D02*
X101788510Y-100160647D01*
X101788510Y-100160647D02*
X101755611Y-100094849D01*
X101755611Y-100094849D02*
X101722711Y-100061950D01*
X101788510Y-99732959D02*
X101327923Y-99732959D01*
X101097630Y-99732959D02*
X101130529Y-99765858D01*
X101130529Y-99765858D02*
X101163428Y-99732959D01*
X101163428Y-99732959D02*
X101130529Y-99700060D01*
X101130529Y-99700060D02*
X101097630Y-99732959D01*
X101097630Y-99732959D02*
X101163428Y-99732959D01*
X101327923Y-99403969D02*
X101788510Y-99403969D01*
X101393721Y-99403969D02*
X101360822Y-99371070D01*
X101360822Y-99371070D02*
X101327923Y-99305272D01*
X101327923Y-99305272D02*
X101327923Y-99206575D01*
X101327923Y-99206575D02*
X101360822Y-99140777D01*
X101360822Y-99140777D02*
X101426620Y-99107878D01*
X101426620Y-99107878D02*
X101788510Y-99107878D01*
X101788510Y-98680190D02*
X101755611Y-98745988D01*
X101755611Y-98745988D02*
X101722711Y-98778887D01*
X101722711Y-98778887D02*
X101656913Y-98811786D01*
X101656913Y-98811786D02*
X101459519Y-98811786D01*
X101459519Y-98811786D02*
X101393721Y-98778887D01*
X101393721Y-98778887D02*
X101360822Y-98745988D01*
X101360822Y-98745988D02*
X101327923Y-98680190D01*
X101327923Y-98680190D02*
X101327923Y-98581493D01*
X101327923Y-98581493D02*
X101360822Y-98515695D01*
X101360822Y-98515695D02*
X101393721Y-98482796D01*
X101393721Y-98482796D02*
X101459519Y-98449897D01*
X101459519Y-98449897D02*
X101656913Y-98449897D01*
X101656913Y-98449897D02*
X101722711Y-98482796D01*
X101722711Y-98482796D02*
X101755611Y-98515695D01*
X101755611Y-98515695D02*
X101788510Y-98581493D01*
X101788510Y-98581493D02*
X101788510Y-98680190D01*
X101788510Y-97627420D02*
X101097630Y-97627420D01*
X101097630Y-97627420D02*
X101097630Y-97364228D01*
X101097630Y-97364228D02*
X101130529Y-97298430D01*
X101130529Y-97298430D02*
X101163428Y-97265531D01*
X101163428Y-97265531D02*
X101229226Y-97232632D01*
X101229226Y-97232632D02*
X101327923Y-97232632D01*
X101327923Y-97232632D02*
X101393721Y-97265531D01*
X101393721Y-97265531D02*
X101426620Y-97298430D01*
X101426620Y-97298430D02*
X101459519Y-97364228D01*
X101459519Y-97364228D02*
X101459519Y-97627420D01*
X101788510Y-96936540D02*
X101327923Y-96936540D01*
X101459519Y-96936540D02*
X101393721Y-96903641D01*
X101393721Y-96903641D02*
X101360822Y-96870742D01*
X101360822Y-96870742D02*
X101327923Y-96804944D01*
X101327923Y-96804944D02*
X101327923Y-96739146D01*
X101788510Y-96410155D02*
X101755611Y-96475953D01*
X101755611Y-96475953D02*
X101722711Y-96508852D01*
X101722711Y-96508852D02*
X101656913Y-96541751D01*
X101656913Y-96541751D02*
X101459519Y-96541751D01*
X101459519Y-96541751D02*
X101393721Y-96508852D01*
X101393721Y-96508852D02*
X101360822Y-96475953D01*
X101360822Y-96475953D02*
X101327923Y-96410155D01*
X101327923Y-96410155D02*
X101327923Y-96311458D01*
X101327923Y-96311458D02*
X101360822Y-96245660D01*
X101360822Y-96245660D02*
X101393721Y-96212761D01*
X101393721Y-96212761D02*
X101459519Y-96179862D01*
X101459519Y-96179862D02*
X101656913Y-96179862D01*
X101656913Y-96179862D02*
X101722711Y-96212761D01*
X101722711Y-96212761D02*
X101755611Y-96245660D01*
X101755611Y-96245660D02*
X101788510Y-96311458D01*
X101788510Y-96311458D02*
X101788510Y-96410155D01*
D13*
X124995946Y-105928197D02*
X125078194Y-105969321D01*
X125078194Y-105969321D02*
X125119317Y-106010445D01*
X125119317Y-106010445D02*
X125160441Y-106092693D01*
X125160441Y-106092693D02*
X125160441Y-106133816D01*
X125160441Y-106133816D02*
X125119317Y-106216064D01*
X125119317Y-106216064D02*
X125078194Y-106257188D01*
X125078194Y-106257188D02*
X124995946Y-106298312D01*
X124995946Y-106298312D02*
X124831451Y-106298312D01*
X124831451Y-106298312D02*
X124749203Y-106257188D01*
X124749203Y-106257188D02*
X124708079Y-106216064D01*
X124708079Y-106216064D02*
X124666956Y-106133816D01*
X124666956Y-106133816D02*
X124666956Y-106092693D01*
X124666956Y-106092693D02*
X124708079Y-106010445D01*
X124708079Y-106010445D02*
X124749203Y-105969321D01*
X124749203Y-105969321D02*
X124831451Y-105928197D01*
X124831451Y-105928197D02*
X124995946Y-105928197D01*
X124995946Y-105928197D02*
X125078194Y-105887074D01*
X125078194Y-105887074D02*
X125119317Y-105845950D01*
X125119317Y-105845950D02*
X125160441Y-105763702D01*
X125160441Y-105763702D02*
X125160441Y-105599207D01*
X125160441Y-105599207D02*
X125119317Y-105516959D01*
X125119317Y-105516959D02*
X125078194Y-105475836D01*
X125078194Y-105475836D02*
X124995946Y-105434712D01*
X124995946Y-105434712D02*
X124831451Y-105434712D01*
X124831451Y-105434712D02*
X124749203Y-105475836D01*
X124749203Y-105475836D02*
X124708079Y-105516959D01*
X124708079Y-105516959D02*
X124666956Y-105599207D01*
X124666956Y-105599207D02*
X124666956Y-105763702D01*
X124666956Y-105763702D02*
X124708079Y-105845950D01*
X124708079Y-105845950D02*
X124749203Y-105887074D01*
X124749203Y-105887074D02*
X124831451Y-105928197D01*
D12*
X105100706Y-93473989D02*
X105330999Y-93802980D01*
X105495494Y-93473989D02*
X105495494Y-94164869D01*
X105495494Y-94164869D02*
X105232302Y-94164869D01*
X105232302Y-94164869D02*
X105166504Y-94131970D01*
X105166504Y-94131970D02*
X105133605Y-94099071D01*
X105133605Y-94099071D02*
X105100706Y-94033273D01*
X105100706Y-94033273D02*
X105100706Y-93934576D01*
X105100706Y-93934576D02*
X105133605Y-93868778D01*
X105133605Y-93868778D02*
X105166504Y-93835879D01*
X105166504Y-93835879D02*
X105232302Y-93802980D01*
X105232302Y-93802980D02*
X105495494Y-93802980D01*
X104837513Y-93506889D02*
X104738816Y-93473989D01*
X104738816Y-93473989D02*
X104574321Y-93473989D01*
X104574321Y-93473989D02*
X104508523Y-93506889D01*
X104508523Y-93506889D02*
X104475624Y-93539788D01*
X104475624Y-93539788D02*
X104442725Y-93605586D01*
X104442725Y-93605586D02*
X104442725Y-93671384D01*
X104442725Y-93671384D02*
X104475624Y-93737182D01*
X104475624Y-93737182D02*
X104508523Y-93770081D01*
X104508523Y-93770081D02*
X104574321Y-93802980D01*
X104574321Y-93802980D02*
X104705917Y-93835879D01*
X104705917Y-93835879D02*
X104771715Y-93868778D01*
X104771715Y-93868778D02*
X104804614Y-93901677D01*
X104804614Y-93901677D02*
X104837513Y-93967475D01*
X104837513Y-93967475D02*
X104837513Y-94033273D01*
X104837513Y-94033273D02*
X104804614Y-94099071D01*
X104804614Y-94099071D02*
X104771715Y-94131970D01*
X104771715Y-94131970D02*
X104705917Y-94164869D01*
X104705917Y-94164869D02*
X104541422Y-94164869D01*
X104541422Y-94164869D02*
X104442725Y-94131970D01*
X104245330Y-94164869D02*
X103850542Y-94164869D01*
X104047936Y-93473989D02*
X104047936Y-94164869D01*
D14*
%TO.C,BT3*%
X94024800Y-110317200D02*
X153924800Y-110317200D01*
X94024800Y-126817200D02*
X94024800Y-110317200D01*
X95019800Y-111412200D02*
X95024800Y-125717200D01*
X95019800Y-111412200D02*
X118824800Y-111412200D01*
X95024800Y-125717200D02*
X118829800Y-125717200D01*
D10*
X98724800Y-118717200D02*
X100024800Y-118717200D01*
X99374800Y-118017200D02*
X99374800Y-119417200D01*
X100024800Y-118717200D02*
X99374800Y-118717200D01*
D14*
X120824800Y-113417200D02*
X127224800Y-113417200D01*
X120824800Y-123717200D02*
X127224800Y-123717200D01*
X129219800Y-125717200D02*
X153024800Y-125717200D01*
X129224800Y-111417200D02*
X153029800Y-111417200D01*
X139524800Y-117617200D02*
X139524800Y-119617200D01*
X140524800Y-116617200D02*
X140524800Y-120617200D01*
X141524800Y-121617200D02*
X141524800Y-115617200D01*
X142524800Y-114617200D02*
X142524800Y-122617200D01*
X153029800Y-111417200D02*
X153024800Y-125717200D01*
X153924800Y-110317200D02*
X153924800Y-126817200D01*
X153924800Y-126817200D02*
X94024800Y-126817200D01*
X118824800Y-125712200D02*
G75*
G02*
X120824800Y-123712200I2000000J0D01*
G01*
X120824800Y-113417200D02*
G75*
G02*
X118824800Y-111417200I0J2000000D01*
G01*
X127224800Y-123717200D02*
G75*
G02*
X129224800Y-125717200I0J-2000000D01*
G01*
X129224800Y-111417200D02*
G75*
G02*
X127224800Y-113417200I-2000000J0D01*
G01*
D10*
%TO.C,U4*%
X123175000Y-70105000D02*
X138175000Y-70105000D01*
X123175000Y-85105000D02*
X123175000Y-70105000D01*
X138175000Y-70105000D02*
X138175000Y-85105000D01*
X138175000Y-85105000D02*
X123175000Y-85105000D01*
D14*
%TO.C,BZ3*%
X153420000Y-76200000D02*
G75*
G02*
X141220000Y-76200000I-6100000J0D01*
G01*
X141220000Y-76200000D02*
G75*
G02*
X153420000Y-76200000I6100000J0D01*
G01*
%TO.C,R4*%
X99752400Y-77217600D02*
X106292400Y-77217600D01*
X99752400Y-77547600D02*
X99752400Y-77217600D01*
X99752400Y-79627600D02*
X99752400Y-79957600D01*
X99752400Y-79957600D02*
X106292400Y-79957600D01*
X106292400Y-77217600D02*
X106292400Y-77547600D01*
X106292400Y-79957600D02*
X106292400Y-79627600D01*
%TO.C,SW2*%
D10*
X144110000Y-88010000D02*
X150310000Y-88010000D01*
X150310000Y-94210000D01*
X144110000Y-94210000D01*
X144110000Y-88010000D01*
%TO.C,U3*%
X131467600Y-107641200D02*
X143467600Y-107641200D01*
X143467600Y-97041200D01*
X131467600Y-97041200D01*
X131467600Y-107641200D01*
%TO.C,U2*%
X113012800Y-80569000D02*
X97012800Y-80569000D01*
X97012800Y-68569000D01*
X113012800Y-68569000D01*
X113012800Y-80569000D01*
X122732800Y-84709000D02*
X112572800Y-84709000D01*
X112572800Y-82169000D01*
X122732800Y-82169000D01*
X122732800Y-84709000D01*
X139012800Y-80569000D02*
X123012800Y-80569000D01*
X123012800Y-68569000D01*
X139012800Y-68569000D01*
X139012800Y-80569000D01*
X140512800Y-82169000D02*
X95512800Y-82169000D01*
X95512800Y-80569000D01*
X140512800Y-80569000D01*
X140512800Y-82169000D01*
D14*
%TO.C,TH2*%
X99650800Y-71375600D02*
X106190800Y-71375600D01*
X99650800Y-71705600D02*
X99650800Y-71375600D01*
X99650800Y-73785600D02*
X99650800Y-74115600D01*
X99650800Y-74115600D02*
X106190800Y-74115600D01*
X106190800Y-71375600D02*
X106190800Y-71705600D01*
X106190800Y-74115600D02*
X106190800Y-73785600D01*
%TO.C,R3*%
X133000000Y-90340000D02*
X139540000Y-90340000D01*
X133000000Y-90670000D02*
X133000000Y-90340000D01*
X133000000Y-92750000D02*
X133000000Y-93080000D01*
X133000000Y-93080000D02*
X139540000Y-93080000D01*
X139540000Y-90340000D02*
X139540000Y-90670000D01*
X139540000Y-93080000D02*
X139540000Y-92750000D01*
D15*
%TO.C,U1*%
X95834200Y-90970100D02*
X95834200Y-108750100D01*
X95834200Y-108750100D02*
X128854200Y-108750100D01*
X126263400Y-94195900D02*
X126898400Y-93560900D01*
X126263400Y-95465900D02*
X126263400Y-94195900D01*
X126263400Y-96735900D02*
X126898400Y-96100900D01*
X126263400Y-98005900D02*
X126263400Y-96735900D01*
X126263400Y-99275900D02*
X126898400Y-98640900D01*
X126263400Y-100545900D02*
X126263400Y-99275900D01*
X126263400Y-100545900D02*
X126898400Y-101180900D01*
X126898400Y-96100900D02*
X126263400Y-95465900D01*
X126898400Y-98640900D02*
X126263400Y-98005900D01*
X126898400Y-101180900D02*
X128168400Y-101180900D01*
X126901000Y-93547100D02*
X128171000Y-93547100D01*
X128168400Y-93560900D02*
X128803400Y-94195900D01*
X128168400Y-96100900D02*
X128803400Y-96735900D01*
X128168400Y-98640900D02*
X128803400Y-99275900D01*
X128168400Y-101180900D02*
X128803400Y-100545900D01*
X128803400Y-94195900D02*
X128803400Y-95465900D01*
X128803400Y-95465900D02*
X128168400Y-96100900D01*
X128803400Y-96735900D02*
X128803400Y-98005900D01*
X128803400Y-98005900D02*
X128168400Y-98640900D01*
X128803400Y-99275900D02*
X128803400Y-100545900D01*
X128854200Y-90970100D02*
X95834200Y-90970100D01*
X128854200Y-108750100D02*
X128854200Y-90970100D01*
D16*
X113360200Y-107480100D02*
G75*
G02*
X111328200Y-107480100I-1016000J0D01*
G01*
X111328200Y-107480100D02*
G75*
G02*
X113360200Y-107480100I1016000J0D01*
G01*
X118440200Y-107480100D02*
G75*
G02*
X116408200Y-107480100I-1016000J0D01*
G01*
X116408200Y-107480100D02*
G75*
G02*
X118440200Y-107480100I1016000J0D01*
G01*
X120980200Y-107480100D02*
G75*
G02*
X118948200Y-107480100I-1016000J0D01*
G01*
X118948200Y-107480100D02*
G75*
G02*
X120980200Y-107480100I1016000J0D01*
G01*
X126060200Y-92240100D02*
G75*
G02*
X124028200Y-92240100I-1016000J0D01*
G01*
X124028200Y-92240100D02*
G75*
G02*
X126060200Y-92240100I1016000J0D01*
G01*
X128600200Y-92240100D02*
G75*
G02*
X126568200Y-92240100I-1016000J0D01*
G01*
X126568200Y-92240100D02*
G75*
G02*
X128600200Y-92240100I1016000J0D01*
G01*
X128600200Y-107480100D02*
G75*
G02*
X126568200Y-107480100I-1016000J0D01*
G01*
X126568200Y-107480100D02*
G75*
G02*
X128600200Y-107480100I1016000J0D01*
G01*
%TD*%
D17*
X93980000Y-68580000D02*
X153980000Y-68580000D01*
X153980000Y-128580000D01*
X93980000Y-128580000D01*
X93980000Y-68580000D01*
M02*
